%TF.GenerationSoftware,KiCad,Pcbnew,7.0.1*%
%TF.CreationDate,2023-05-03T23:08:28+02:00*%
%TF.ProjectId,Akula,416b756c-612e-46b6-9963-61645f706362,rev?*%
%TF.SameCoordinates,Original*%
%TF.FileFunction,Paste,Top*%
%TF.FilePolarity,Positive*%
%FSLAX46Y46*%
G04 Gerber Fmt 4.6, Leading zero omitted, Abs format (unit mm)*
G04 Created by KiCad (PCBNEW 7.0.1) date 2023-05-03 23:08:28*
%MOMM*%
%LPD*%
G01*
G04 APERTURE LIST*
G04 Aperture macros list*
%AMRoundRect*
0 Rectangle with rounded corners*
0 $1 Rounding radius*
0 $2 $3 $4 $5 $6 $7 $8 $9 X,Y pos of 4 corners*
0 Add a 4 corners polygon primitive as box body*
4,1,4,$2,$3,$4,$5,$6,$7,$8,$9,$2,$3,0*
0 Add four circle primitives for the rounded corners*
1,1,$1+$1,$2,$3*
1,1,$1+$1,$4,$5*
1,1,$1+$1,$6,$7*
1,1,$1+$1,$8,$9*
0 Add four rect primitives between the rounded corners*
20,1,$1+$1,$2,$3,$4,$5,0*
20,1,$1+$1,$4,$5,$6,$7,0*
20,1,$1+$1,$6,$7,$8,$9,0*
20,1,$1+$1,$8,$9,$2,$3,0*%
G04 Aperture macros list end*
%ADD10RoundRect,0.112500X0.112500X-0.187500X0.112500X0.187500X-0.112500X0.187500X-0.112500X-0.187500X0*%
%ADD11RoundRect,0.140000X-0.170000X0.140000X-0.170000X-0.140000X0.170000X-0.140000X0.170000X0.140000X0*%
%ADD12RoundRect,0.112500X-0.112500X0.187500X-0.112500X-0.187500X0.112500X-0.187500X0.112500X0.187500X0*%
%ADD13RoundRect,0.135000X-0.135000X-0.185000X0.135000X-0.185000X0.135000X0.185000X-0.135000X0.185000X0*%
%ADD14RoundRect,0.135000X0.185000X-0.135000X0.185000X0.135000X-0.185000X0.135000X-0.185000X-0.135000X0*%
%ADD15RoundRect,0.135000X0.135000X0.185000X-0.135000X0.185000X-0.135000X-0.185000X0.135000X-0.185000X0*%
%ADD16R,0.700000X0.700000*%
%ADD17RoundRect,0.112500X-0.187500X-0.112500X0.187500X-0.112500X0.187500X0.112500X-0.187500X0.112500X0*%
%ADD18RoundRect,0.140000X0.140000X0.170000X-0.140000X0.170000X-0.140000X-0.170000X0.140000X-0.170000X0*%
%ADD19RoundRect,0.140000X-0.140000X-0.170000X0.140000X-0.170000X0.140000X0.170000X-0.140000X0.170000X0*%
%ADD20RoundRect,0.150000X-0.825000X-0.150000X0.825000X-0.150000X0.825000X0.150000X-0.825000X0.150000X0*%
%ADD21R,0.750000X0.250000*%
%ADD22RoundRect,0.140000X0.170000X-0.140000X0.170000X0.140000X-0.170000X0.140000X-0.170000X-0.140000X0*%
%ADD23R,1.200000X2.500000*%
%ADD24RoundRect,0.112500X0.187500X0.112500X-0.187500X0.112500X-0.187500X-0.112500X0.187500X-0.112500X0*%
G04 APERTURE END LIST*
D10*
X115000000Y-154050000D03*
X115000000Y-151950000D03*
D11*
X121250000Y-152580000D03*
X121250000Y-153540000D03*
D12*
X133650000Y-132100000D03*
X133650000Y-134200000D03*
D13*
X252855000Y-79500000D03*
X253875000Y-79500000D03*
D11*
X216375000Y-76750000D03*
X216375000Y-77710000D03*
D14*
X243875000Y-113250000D03*
X243875000Y-112230000D03*
D11*
X143900000Y-152412164D03*
X143900000Y-153372164D03*
D15*
X110710000Y-139600000D03*
X109690000Y-139600000D03*
D12*
X219650000Y-166700000D03*
X219650000Y-168800000D03*
D16*
X107295000Y-76700000D03*
X107295000Y-77800000D03*
X109125000Y-77800000D03*
X109125000Y-76700000D03*
D12*
X117650000Y-131950000D03*
X117650000Y-134050000D03*
D16*
X221085000Y-132800000D03*
X221085000Y-133900000D03*
X222915000Y-133900000D03*
X222915000Y-132800000D03*
X69085000Y-202800000D03*
X69085000Y-203900000D03*
X70915000Y-203900000D03*
X70915000Y-202800000D03*
D12*
X140625000Y-60700000D03*
X140625000Y-62800000D03*
D16*
X158085000Y-112800000D03*
X158085000Y-113900000D03*
X159915000Y-113900000D03*
X159915000Y-112800000D03*
D11*
X193625000Y-76540000D03*
X193625000Y-77500000D03*
D17*
X214825000Y-103500000D03*
X216925000Y-103500000D03*
D16*
X210210000Y-81700000D03*
X210210000Y-82800000D03*
X212040000Y-82800000D03*
X212040000Y-81700000D03*
D18*
X221585000Y-46500000D03*
X220625000Y-46500000D03*
D13*
X96380000Y-178150000D03*
X97400000Y-178150000D03*
D11*
X220150000Y-147590000D03*
X220150000Y-148550000D03*
X213875000Y-76770000D03*
X213875000Y-77730000D03*
D17*
X67665000Y-199750000D03*
X69765000Y-199750000D03*
D13*
X252615000Y-57500000D03*
X253635000Y-57500000D03*
D11*
X208900000Y-167770000D03*
X208900000Y-168730000D03*
D19*
X218895000Y-103890000D03*
X219855000Y-103890000D03*
X75640000Y-137750000D03*
X76600000Y-137750000D03*
D10*
X154650000Y-149050000D03*
X154650000Y-146950000D03*
D16*
X118085000Y-157800000D03*
X118085000Y-158900000D03*
X119915000Y-158900000D03*
X119915000Y-157800000D03*
X190210000Y-61700000D03*
X190210000Y-62800000D03*
X192040000Y-62800000D03*
X192040000Y-61700000D03*
D11*
X182400000Y-137790000D03*
X182400000Y-138750000D03*
D16*
X145210000Y-86700000D03*
X145210000Y-87800000D03*
X147040000Y-87800000D03*
X147040000Y-86700000D03*
D13*
X109490000Y-147750000D03*
X110510000Y-147750000D03*
D11*
X110625000Y-91540000D03*
X110625000Y-92500000D03*
D13*
X252855000Y-85500000D03*
X253875000Y-85500000D03*
D11*
X242625000Y-112270000D03*
X242625000Y-113230000D03*
X148625000Y-81520000D03*
X148625000Y-82480000D03*
D10*
X188625000Y-77815000D03*
X188625000Y-75715000D03*
D20*
X239400000Y-99095000D03*
X239400000Y-100365000D03*
X239400000Y-101635000D03*
X239400000Y-102905000D03*
X244350000Y-102905000D03*
X244350000Y-101635000D03*
X244350000Y-100365000D03*
X244350000Y-99095000D03*
D16*
X170210000Y-36700000D03*
X170210000Y-37800000D03*
X172040000Y-37800000D03*
X172040000Y-36700000D03*
D11*
X157150000Y-127562164D03*
X157150000Y-128522164D03*
X87400000Y-184420000D03*
X87400000Y-185380000D03*
D16*
X170210000Y-56700000D03*
X170210000Y-57800000D03*
X172040000Y-57800000D03*
X172040000Y-56700000D03*
X183085000Y-162800000D03*
X183085000Y-163900000D03*
X184915000Y-163900000D03*
X184915000Y-162800000D03*
X170210000Y-76700000D03*
X170210000Y-77800000D03*
X172040000Y-77800000D03*
X172040000Y-76700000D03*
D18*
X221525000Y-44000000D03*
X220565000Y-44000000D03*
D17*
X104050000Y-178100000D03*
X106150000Y-178100000D03*
D11*
X151125000Y-81520000D03*
X151125000Y-82480000D03*
X141300000Y-152412164D03*
X141300000Y-153372164D03*
D15*
X256625000Y-48700000D03*
X255605000Y-48700000D03*
D16*
X138085000Y-117800000D03*
X138085000Y-118900000D03*
X139915000Y-118900000D03*
X139915000Y-117800000D03*
D11*
X94200000Y-185120000D03*
X94200000Y-186080000D03*
D14*
X267125000Y-72520000D03*
X267125000Y-71500000D03*
D16*
X138085000Y-157800000D03*
X138085000Y-158900000D03*
X139915000Y-158900000D03*
X139915000Y-157800000D03*
D11*
X243900000Y-95920000D03*
X243900000Y-96880000D03*
D16*
X125210000Y-56700000D03*
X125210000Y-57800000D03*
X127040000Y-57800000D03*
X127040000Y-56700000D03*
D11*
X208875000Y-56220000D03*
X208875000Y-57180000D03*
D12*
X185625000Y-55700000D03*
X185625000Y-57800000D03*
X216900000Y-147020000D03*
X216900000Y-149120000D03*
D11*
X128625000Y-91520000D03*
X128625000Y-92480000D03*
D10*
X208625000Y-78550000D03*
X208625000Y-76450000D03*
D11*
X106375000Y-71540000D03*
X106375000Y-72500000D03*
D16*
X221085000Y-152800000D03*
X221085000Y-153900000D03*
X222915000Y-153900000D03*
X222915000Y-152800000D03*
D12*
X103125000Y-70950000D03*
X103125000Y-73050000D03*
D19*
X109670000Y-134450000D03*
X110630000Y-134450000D03*
D16*
X190210000Y-41700000D03*
X190210000Y-42800000D03*
X192040000Y-42800000D03*
X192040000Y-41700000D03*
D11*
X123650000Y-152540000D03*
X123650000Y-153500000D03*
D15*
X253635000Y-64250000D03*
X252615000Y-64250000D03*
D12*
X179150000Y-137200000D03*
X179150000Y-139300000D03*
D16*
X183085000Y-122800000D03*
X183085000Y-123900000D03*
X184915000Y-123900000D03*
X184915000Y-122800000D03*
D12*
X166625000Y-70700000D03*
X166625000Y-72800000D03*
D11*
X168875000Y-51520000D03*
X168875000Y-52480000D03*
D16*
X221085000Y-172800000D03*
X221085000Y-173900000D03*
X222915000Y-173900000D03*
X222915000Y-172800000D03*
X145210000Y-46700000D03*
X145210000Y-47800000D03*
X147040000Y-47800000D03*
X147040000Y-46700000D03*
X203085000Y-172800000D03*
X203085000Y-173900000D03*
X204915000Y-173900000D03*
X204915000Y-172800000D03*
D12*
X201000000Y-167400000D03*
X201000000Y-169500000D03*
D16*
X239210000Y-116700000D03*
X239210000Y-117800000D03*
X241040000Y-117800000D03*
X241040000Y-116700000D03*
D19*
X75640000Y-140350000D03*
X76600000Y-140350000D03*
D11*
X188900000Y-157520000D03*
X188900000Y-158480000D03*
D15*
X256625000Y-50000000D03*
X255605000Y-50000000D03*
D10*
X136650000Y-154050000D03*
X136650000Y-151950000D03*
D12*
X134650000Y-151950000D03*
X134650000Y-154050000D03*
D11*
X161500000Y-147290000D03*
X161500000Y-148250000D03*
D12*
X153900000Y-126950000D03*
X153900000Y-129050000D03*
D11*
X189125000Y-56270000D03*
X189125000Y-57230000D03*
D16*
X203085000Y-132800000D03*
X203085000Y-133900000D03*
X204915000Y-133900000D03*
X204915000Y-132800000D03*
D11*
X206300000Y-167770000D03*
X206300000Y-168730000D03*
D13*
X96380000Y-181250000D03*
X97400000Y-181250000D03*
D11*
X176125000Y-71270000D03*
X176125000Y-72230000D03*
X163900000Y-147290000D03*
X163900000Y-148250000D03*
D19*
X109940000Y-180250000D03*
X110900000Y-180250000D03*
D12*
X206625000Y-76450000D03*
X206625000Y-78550000D03*
D21*
X89150000Y-184450000D03*
X89150000Y-184950000D03*
X89150000Y-185450000D03*
X89150000Y-185950000D03*
X92250000Y-185950000D03*
X92250000Y-185450000D03*
X92250000Y-184950000D03*
X92250000Y-184450000D03*
D18*
X89680000Y-189350000D03*
X88720000Y-189350000D03*
D16*
X109085000Y-182800000D03*
X109085000Y-183900000D03*
X110915000Y-183900000D03*
X110915000Y-182800000D03*
D10*
X198650000Y-169500000D03*
X198650000Y-167400000D03*
D12*
X186625000Y-75715000D03*
X186625000Y-77815000D03*
X141625000Y-80950000D03*
X141625000Y-83050000D03*
D16*
X183170000Y-142750000D03*
X183170000Y-143850000D03*
X185000000Y-143850000D03*
X185000000Y-142750000D03*
D10*
X179650000Y-159050000D03*
X179650000Y-156950000D03*
D16*
X89085000Y-192800000D03*
X89085000Y-193900000D03*
X90915000Y-193900000D03*
X90915000Y-192800000D03*
D15*
X76710000Y-148900000D03*
X75690000Y-148900000D03*
D12*
X121625000Y-90950000D03*
X121625000Y-93050000D03*
D16*
X145210000Y-66700000D03*
X145210000Y-67800000D03*
X147040000Y-67800000D03*
X147040000Y-66700000D03*
D11*
X113125000Y-91540000D03*
X113125000Y-92500000D03*
D18*
X253605000Y-66640000D03*
X252645000Y-66640000D03*
D16*
X125210000Y-96700000D03*
X125210000Y-97800000D03*
X127040000Y-97800000D03*
X127040000Y-96700000D03*
D12*
X117400000Y-151950000D03*
X117400000Y-154050000D03*
D13*
X223105000Y-104000000D03*
X224125000Y-104000000D03*
D11*
X224050000Y-166960000D03*
X224050000Y-167920000D03*
D10*
X123625000Y-93050000D03*
X123625000Y-90950000D03*
D19*
X258645000Y-89250000D03*
X259605000Y-89250000D03*
D11*
X131125000Y-91520000D03*
X131125000Y-92480000D03*
D16*
X125210000Y-76700000D03*
X125210000Y-77800000D03*
X127040000Y-77800000D03*
X127040000Y-76700000D03*
D21*
X246350000Y-95350000D03*
X246350000Y-95850000D03*
X246350000Y-96350000D03*
X246350000Y-96850000D03*
X249450000Y-96850000D03*
X249450000Y-96350000D03*
X249450000Y-95850000D03*
X249450000Y-95350000D03*
D16*
X107210000Y-96700000D03*
X107210000Y-97800000D03*
X109040000Y-97800000D03*
X109040000Y-96700000D03*
D22*
X216625000Y-57230000D03*
X216625000Y-56270000D03*
D16*
X210210000Y-41700000D03*
X210210000Y-42800000D03*
X212040000Y-42800000D03*
X212040000Y-41700000D03*
D14*
X258375000Y-123260000D03*
X258375000Y-122240000D03*
D19*
X109550000Y-145350000D03*
X110510000Y-145350000D03*
D17*
X83950000Y-189350000D03*
X86050000Y-189350000D03*
D11*
X72650000Y-198540000D03*
X72650000Y-199500000D03*
D10*
X105875000Y-92800000D03*
X105875000Y-90700000D03*
D11*
X261125000Y-122290000D03*
X261125000Y-123250000D03*
D20*
X88525000Y-175845000D03*
X88525000Y-177115000D03*
X88525000Y-178385000D03*
X88525000Y-179655000D03*
X93475000Y-179655000D03*
X93475000Y-178385000D03*
X93475000Y-177115000D03*
X93475000Y-175845000D03*
D16*
X138085000Y-137800000D03*
X138085000Y-138900000D03*
X139915000Y-138900000D03*
X139915000Y-137800000D03*
D17*
X234325000Y-113500000D03*
X236425000Y-113500000D03*
D16*
X107210000Y-56700000D03*
X107210000Y-57800000D03*
X109040000Y-57800000D03*
X109040000Y-56700000D03*
X210210000Y-61700000D03*
X210210000Y-62800000D03*
X212040000Y-62800000D03*
X212040000Y-61700000D03*
D11*
X196125000Y-76540000D03*
X196125000Y-77500000D03*
D13*
X248355000Y-101900000D03*
X249375000Y-101900000D03*
D22*
X250800000Y-94260000D03*
X250800000Y-93300000D03*
D19*
X109620000Y-137050000D03*
X110580000Y-137050000D03*
D13*
X248355000Y-100500000D03*
X249375000Y-100500000D03*
D18*
X253875000Y-81500000D03*
X252915000Y-81500000D03*
D11*
X123875000Y-71250000D03*
X123875000Y-72210000D03*
D19*
X252645000Y-60000000D03*
X253605000Y-60000000D03*
D12*
X165625000Y-50950000D03*
X165625000Y-53050000D03*
D11*
X173625000Y-71290000D03*
X173625000Y-72250000D03*
D23*
X65405000Y-117750000D03*
X62405000Y-117750000D03*
X70505000Y-124250000D03*
X69405000Y-117750000D03*
D16*
X158085000Y-152800000D03*
X158085000Y-153900000D03*
X159915000Y-153900000D03*
X159915000Y-152800000D03*
X158085000Y-132800000D03*
X158085000Y-133900000D03*
X159915000Y-133900000D03*
X159915000Y-132800000D03*
D11*
X186500000Y-157520000D03*
X186500000Y-158480000D03*
D10*
X217650000Y-168800000D03*
X217650000Y-166700000D03*
D24*
X255675000Y-123500000D03*
X253575000Y-123500000D03*
D16*
X118085000Y-137800000D03*
X118085000Y-138900000D03*
X119915000Y-138900000D03*
X119915000Y-137800000D03*
D10*
X143625000Y-83050000D03*
X143625000Y-80950000D03*
D12*
X181650000Y-156950000D03*
X181650000Y-159050000D03*
D11*
X143985000Y-61270000D03*
X143985000Y-62230000D03*
D23*
X264720000Y-48250000D03*
X267720000Y-48250000D03*
X259620000Y-41750000D03*
X260720000Y-48250000D03*
D19*
X258145000Y-72500000D03*
X259105000Y-72500000D03*
D11*
X120760000Y-132470000D03*
X120760000Y-133430000D03*
X202650000Y-147670000D03*
X202650000Y-148630000D03*
D15*
X76710000Y-160950000D03*
X75690000Y-160950000D03*
D16*
X218960000Y-106700000D03*
X218960000Y-107800000D03*
X220790000Y-107800000D03*
X220790000Y-106700000D03*
D10*
X168625000Y-72800000D03*
X168625000Y-70700000D03*
D16*
X259285000Y-126725000D03*
X259285000Y-127825000D03*
X261115000Y-127825000D03*
X261115000Y-126725000D03*
X190210000Y-81700000D03*
X190210000Y-82800000D03*
X192040000Y-82800000D03*
X192040000Y-81700000D03*
D12*
X156650000Y-146950000D03*
X156650000Y-149050000D03*
X205625000Y-55565000D03*
X205625000Y-57665000D03*
X199150000Y-147100000D03*
X199150000Y-149200000D03*
X120625000Y-70700000D03*
X120625000Y-72800000D03*
D16*
X118285000Y-117800000D03*
X118285000Y-118900000D03*
X120115000Y-118900000D03*
X120115000Y-117800000D03*
D12*
X103875000Y-90700000D03*
X103875000Y-92800000D03*
D11*
X226650000Y-167040000D03*
X226650000Y-168000000D03*
X136900000Y-132670000D03*
X136900000Y-133630000D03*
D15*
X110660000Y-132050000D03*
X109640000Y-132050000D03*
D16*
X203085000Y-152800000D03*
X203085000Y-153900000D03*
X204915000Y-153900000D03*
X204915000Y-152800000D03*
M02*
