M48
; DRILL file {KiCad 7.0.1} date ons  3 maj 2023 23:09:12
; FORMAT={-:-/ absolute / inch / decimal}
; #@! TF.CreationDate,2023-05-03T23:09:12+02:00
; #@! TF.GenerationSoftware,Kicad,Pcbnew,7.0.1
; #@! TF.FileFunction,NonPlated,1,2,NPTH
FMAT,2
INCH
; #@! TA.AperFunction,NonPlated,NPTH,ComponentDrill
T1C0.0197
; #@! TA.AperFunction,NonPlated,NPTH,ComponentDrill
T2C0.0390
; #@! TA.AperFunction,NonPlated,NPTH,ComponentDrill
T3C0.0591
; #@! TA.AperFunction,NonPlated,NPTH,ComponentDrill
T4C0.0670
; #@! TA.AperFunction,NonPlated,NPTH,ComponentDrill
T5C0.0709
; #@! TA.AperFunction,NonPlated,NPTH,ComponentDrill
T6C0.1350
%
G90
G05
T1
X3.189Y-4.3307
X3.189Y-4.5276
X3.2185Y-4.3307
X3.2185Y-4.3307
X3.2185Y-4.5276
X3.2185Y-4.5276
X3.248Y-4.3307
X3.248Y-4.5276
X3.2776Y-4.3307
X3.2776Y-4.5276
X3.3071Y-4.3307
X3.3071Y-4.5276
X3.3366Y-4.3307
X3.3366Y-4.5276
X3.3661Y-4.3307
X3.3661Y-4.5276
X3.3957Y-4.3307
X3.3957Y-4.5276
X3.4252Y-4.3307
X3.4252Y-4.5276
X3.4547Y-4.3307
X3.4547Y-4.5276
X3.4843Y-4.3307
X3.4843Y-4.5276
X3.75Y-3.2087
X3.75Y-3.2382
X3.75Y-3.2677
X3.75Y-3.2972
X3.75Y-3.3268
X3.75Y-3.3563
X3.75Y-3.3858
X3.75Y-3.4154
X3.75Y-3.4449
X3.75Y-3.4744
X3.75Y-3.4744
X3.75Y-3.5039
X3.9469Y-3.2087
X3.9469Y-3.2382
X3.9469Y-3.2677
X3.9469Y-3.2972
X3.9469Y-3.3268
X3.9469Y-3.3563
X3.9469Y-3.3858
X3.9469Y-3.4154
X3.9469Y-3.4449
X3.9469Y-3.4744
X3.9469Y-3.4744
X3.9469Y-3.5039
X4.498Y-4.3307
X4.498Y-4.5276
X4.5276Y-4.3307
X4.5276Y-4.3307
X4.5276Y-4.5276
X4.5276Y-4.5276
X4.5571Y-4.3307
X4.5571Y-4.5276
X4.5866Y-4.3307
X4.5866Y-4.5276
X4.6161Y-4.3307
X4.6161Y-4.5276
X4.6457Y-4.3307
X4.6457Y-4.5276
X4.6752Y-4.3307
X4.6752Y-4.5276
X4.7047Y-4.3307
X4.7047Y-4.5276
X4.7343Y-4.3307
X4.7343Y-4.5276
X4.7638Y-4.3307
X4.7638Y-4.5276
X4.7933Y-4.3307
X4.7933Y-4.5276
X6.7506Y-3.5433
X6.7506Y-3.6614
X6.7506Y-4.6063
X6.7506Y-4.7244
X6.7801Y-3.6614
X6.7801Y-4.7244
X6.7806Y-3.5433
X6.7806Y-4.6063
X6.8101Y-3.5433
X6.8101Y-3.6614
X6.8101Y-4.6063
X6.8101Y-4.7244
X6.8396Y-3.5433
X6.8396Y-3.6614
X6.8396Y-4.6063
X6.8396Y-4.7244
X6.8701Y-3.5433
X6.8701Y-3.6614
X6.8701Y-4.6063
X6.8701Y-4.7244
X7.8726Y-3.7402
X7.8726Y-3.8583
X7.8735Y-5.0
X7.8735Y-5.1181
X7.9021Y-3.8583
X7.9026Y-3.7402
X7.9031Y-5.1181
X7.9035Y-5.0
X7.9321Y-3.7402
X7.9321Y-3.8583
X7.9331Y-5.0
X7.9331Y-5.1181
X7.9617Y-3.7402
X7.9617Y-3.8583
X7.9626Y-5.0
X7.9626Y-5.1181
X7.9921Y-3.7402
X7.9921Y-3.8583
X7.9931Y-5.0
X7.9931Y-5.1181
X9.0551Y-5.8071
X9.0551Y-5.8366
X9.0551Y-5.8661
X9.0551Y-5.8957
X9.0551Y-5.9252
X9.0551Y-5.9547
X9.0551Y-5.9843
X9.0551Y-6.0138
X9.0551Y-6.0433
X9.0551Y-6.0728
X9.0551Y-6.0728
X9.0551Y-6.1024
X9.252Y-5.8071
X9.252Y-5.8366
X9.252Y-5.8661
X9.252Y-5.8957
X9.252Y-5.9252
X9.252Y-5.9547
X9.252Y-5.9843
X9.252Y-6.0138
X9.252Y-6.0433
X9.252Y-6.0728
X9.252Y-6.0728
X9.252Y-6.1024
X10.0787Y-5.5118
X10.0787Y-5.7087
X10.1083Y-5.5118
X10.1083Y-5.5118
X10.1083Y-5.7087
X10.1083Y-5.7087
X10.1378Y-5.5118
X10.1378Y-5.7087
X10.1673Y-5.5118
X10.1673Y-5.7087
X10.1969Y-5.5118
X10.1969Y-5.7087
X10.2264Y-5.5118
X10.2264Y-5.7087
X10.2559Y-5.5118
X10.2559Y-5.7087
X10.2854Y-5.5118
X10.2854Y-5.7087
X10.315Y-5.5118
X10.315Y-5.7087
X10.3445Y-5.5118
X10.3445Y-5.7087
X10.374Y-5.5118
X10.374Y-5.7087
T2
X2.9614Y-8.0236
X3.7488Y-7.6299
X4.4624Y-2.2756
X4.4624Y-3.063
X4.4624Y-3.8504
X4.5362Y-7.2362
X4.8906Y-4.6772
X4.8906Y-5.4646
X4.8906Y-6.252
X5.1711Y-2.2756
X5.1711Y-3.063
X5.1711Y-3.8504
X5.678Y-4.6772
X5.678Y-5.4646
X5.678Y-6.252
X5.9585Y-1.8819
X5.9585Y-2.6693
X5.9585Y-3.4567
X6.4654Y-4.4803
X6.4654Y-5.2677
X6.4654Y-6.0551
X6.9427Y-1.4882
X6.9427Y-2.2756
X6.9427Y-3.063
X7.4496Y-4.874
X7.4496Y-5.6614
X7.4496Y-6.4488
X7.7301Y-1.685
X7.7301Y-2.4724
X7.7301Y-3.2598
X8.237Y-5.2677
X8.237Y-6.0551
X8.237Y-6.8425
X8.5175Y-1.685
X8.5175Y-2.4724
X8.5175Y-3.2598
X8.8719Y-4.2441
X8.9457Y-5.2677
X8.9457Y-6.0551
X8.9457Y-6.8425
X9.6593Y-4.6378
X10.4467Y-5.0315
T3
X2.3939Y-4.7638
X2.6695Y-4.7638
X3.5856Y-4.7453
X3.7766Y-4.7453
X9.2402Y-1.7531
X9.4311Y-1.7531
X10.3276Y-1.7717
X10.6031Y-1.7717
T4
X2.5394Y-8.189
X2.9724Y-8.189
X3.3268Y-7.7953
X3.7598Y-7.7953
X4.0404Y-2.4409
X4.0404Y-3.2283
X4.0404Y-4.0157
X4.1142Y-7.4016
X4.4685Y-4.8425
X4.4685Y-5.6299
X4.4685Y-6.4173
X4.4734Y-2.4409
X4.4734Y-3.2283
X4.4734Y-4.0157
X4.5472Y-7.4016
X4.749Y-2.4409
X4.749Y-3.2283
X4.749Y-4.0157
X4.9016Y-4.8425
X4.9016Y-5.6299
X4.9016Y-6.4173
X5.1821Y-2.4409
X5.1821Y-3.2283
X5.1821Y-4.0157
X5.2559Y-4.8425
X5.2559Y-5.6299
X5.2559Y-6.4173
X5.5364Y-2.0472
X5.5364Y-2.8346
X5.5364Y-3.622
X5.689Y-4.8425
X5.689Y-5.6299
X5.689Y-6.4173
X5.9695Y-2.0472
X5.9695Y-2.8346
X5.9695Y-3.622
X6.0433Y-4.6457
X6.0433Y-5.4331
X6.0433Y-6.2205
X6.4764Y-4.6457
X6.4764Y-5.4331
X6.4764Y-6.2205
X6.5207Y-1.6535
X6.5207Y-2.4409
X6.5207Y-3.2283
X6.9537Y-1.6535
X6.9537Y-2.4409
X6.9537Y-3.2283
X7.0276Y-5.0394
X7.0276Y-5.8268
X7.0276Y-6.6142
X7.3081Y-1.8504
X7.3081Y-2.6378
X7.3081Y-3.4252
X7.4606Y-5.0394
X7.4606Y-5.8268
X7.4606Y-6.6142
X7.7411Y-1.8504
X7.7411Y-2.6378
X7.7411Y-3.4252
X7.815Y-5.4331
X7.815Y-6.2205
X7.815Y-7.0079
X8.0955Y-1.8504
X8.0955Y-2.6378
X8.0955Y-3.4252
X8.248Y-5.4331
X8.248Y-6.2205
X8.248Y-7.0079
X8.4498Y-4.4094
X8.5236Y-5.4331
X8.5236Y-6.2205
X8.5236Y-7.0079
X8.5285Y-1.8504
X8.5285Y-2.6378
X8.5285Y-3.4252
X8.8829Y-4.4094
X8.9567Y-5.4331
X8.9567Y-6.2205
X8.9567Y-7.0079
X9.2372Y-4.8031
X9.6703Y-4.8031
X10.0246Y-5.1969
X10.4577Y-5.1969
T5
X3.5738Y-4.626
X3.7884Y-4.626
X9.2283Y-1.6339
X9.4429Y-1.6339
T6
X2.7559Y-8.189
X3.5433Y-7.7953
X4.2569Y-2.4409
X4.2569Y-3.2283
X4.2569Y-4.0157
X4.3307Y-7.4016
X4.685Y-4.8425
X4.685Y-5.6299
X4.685Y-6.4173
X4.9656Y-2.4409
X4.9656Y-3.2283
X4.9656Y-4.0157
X5.4724Y-4.8425
X5.4724Y-5.6299
X5.4724Y-6.4173
X5.753Y-2.0472
X5.753Y-2.8346
X5.753Y-3.622
X6.2598Y-4.6457
X6.2598Y-5.4331
X6.2598Y-6.2205
X6.7372Y-1.6535
X6.7372Y-2.4409
X6.7372Y-3.2283
X7.2441Y-5.0394
X7.2441Y-5.8268
X7.2441Y-6.6142
X7.5246Y-1.8504
X7.5246Y-2.6378
X7.5246Y-3.4252
X8.0315Y-5.4331
X8.0315Y-6.2205
X8.0315Y-7.0079
X8.312Y-1.8504
X8.312Y-2.6378
X8.312Y-3.4252
X8.6663Y-4.4094
X8.7402Y-5.4331
X8.7402Y-6.2205
X8.7402Y-7.0079
X9.4537Y-4.8031
X10.2411Y-5.1969
T0
M30
