M48
; DRILL file {KiCad 7.0.1} date ons  3 maj 2023 23:09:12
; FORMAT={-:-/ absolute / inch / decimal}
; #@! TF.CreationDate,2023-05-03T23:09:12+02:00
; #@! TF.GenerationSoftware,Kicad,Pcbnew,7.0.1
; #@! TF.FileFunction,Plated,1,2,PTH
FMAT,2
INCH
; #@! TA.AperFunction,Plated,PTH,ViaDrill
T1C0.0157
; #@! TA.AperFunction,Plated,PTH,ComponentDrill
T2C0.0394
; #@! TA.AperFunction,Plated,PTH,ComponentDrill
T3C0.0402
; #@! TA.AperFunction,Plated,PTH,ComponentDrill
T4C0.0500
; #@! TA.AperFunction,Plated,PTH,ComponentDrill
T5C0.0512
; #@! TA.AperFunction,Plated,PTH,ComponentDrill
T6C0.1024
%
G90
G05
T1
X2.624Y-8.0315
X2.811Y-7.874
X2.8602Y-7.7756
X2.9193Y-5.5315
X3.0197Y-5.5787
X3.0669Y-6.3386
X3.1949Y-7.0571
X3.2638Y-6.7421
X3.3917Y-7.1673
X3.4213Y-7.874
X3.4409Y-6.2303
X3.4449Y-7.2165
X3.4606Y-7.5886
X3.4803Y-6.8307
X3.4803Y-7.6969
X3.5886Y-7.9429
X3.5984Y-7.4606
X3.6142Y-7.3661
X3.687Y-7.9429
X3.6929Y-7.2402
X3.7087Y-7.3661
X3.7854Y-6.9193
X4.0118Y-7.5787
X4.0315Y-6.752
X4.0551Y-4.0846
X4.0827Y-3.0709
X4.1289Y-2.2835
X4.1289Y-3.0217
X4.1299Y-6.6535
X4.1585Y-3.9272
X4.1732Y-3.8583
X4.1791Y-7.0866
X4.188Y-2.7559
X4.189Y-6.6831
X4.1988Y-5.8563
X4.199Y-6.89
X4.2077Y-7.2323
X4.2579Y-5.8268
X4.2596Y-6.0082
X4.2603Y-3.7134
X4.2677Y-5.7185
X4.2677Y-7.0965
X4.2766Y-2.5984
X4.2776Y-5.2953
X4.2776Y-5.4921
X4.3366Y-5.0098
X4.375Y-3.7106
X4.3957Y-5.2953
X4.3959Y-5.7261
X4.4094Y-7.3031
X4.4252Y-5.935
X4.4252Y-6.7717
X4.4537Y-3.563
X4.5039Y-6.7144
X4.5039Y-5.2756
X4.5039Y-5.374
X4.5246Y-6.3295
X4.5433Y-4.685
X4.5531Y-5.4331
X4.5531Y-6.7323
X4.5591Y-5.4921
X4.5979Y-6.3529
X4.6024Y-6.2106
X4.6122Y-6.1122
X4.6604Y-2.7461
X4.7001Y-6.3206
X4.75Y-5.1673
X4.8244Y-4.6954
X4.8278Y-3.0217
X4.8352Y-3.0827
X4.8376Y-2.2539
X4.8376Y-3.8681
X4.8386Y-3.8071
X4.8681Y-5.9547
X4.877Y-2.7559
X4.9173Y-6.6142
X4.9852Y-3.1299
X4.9951Y-3.9272
X4.9961Y-5.0787
X5.1624Y-3.563
X5.3012Y-6.1122
X5.3406Y-4.6752
X5.3799Y-5.1673
X5.3898Y-5.4232
X5.3898Y-5.4724
X5.3898Y-6.2598
X5.439Y-6.122
X5.5364Y-2.5886
X5.5512Y-6.315
X5.5571Y-5.4823
X5.5571Y-5.9449
X5.6152Y-1.8898
X5.6152Y-2.6575
X5.6212Y-2.6179
X5.625Y-3.4606
X5.6644Y-3.5335
X5.7726Y-2.4606
X5.7825Y-2.7362
X5.7923Y-3.1398
X5.8415Y-3.5433
X5.9498Y-3.1594
X6.1083Y-6.2795
X6.1371Y-4.4846
X6.1378Y-5.5709
X6.1772Y-5.2756
X6.1776Y-6.0635
X6.187Y-6.3189
X6.2756Y-5.0295
X6.2953Y-6.122
X6.3051Y-5.3346
X6.315Y-5.7972
X6.56Y-1.9587
X6.5797Y-2.1457
X6.5994Y-1.4961
X6.6111Y-2.2209
X6.6191Y-2.4016
X6.6191Y-3.1299
X6.7372Y-3.1299
X6.747Y-2.0472
X6.7766Y-2.3425
X6.8159Y-3.1299
X6.9341Y-2.7657
X7.0039Y-6.4567
X7.0039Y-6.4961
X7.1122Y-4.8819
X7.122Y-5.8957
X7.122Y-6.7618
X7.1319Y-6.6535
X7.1632Y-5.6679
X7.1811Y-5.374
X7.2795Y-5.7283
X7.2859Y-3.4863
X7.3278Y-2.5689
X7.3287Y-6.4665
X7.378Y-6.5157
X7.3868Y-2.4213
X7.3967Y-1.6929
X7.3967Y-3.2283
X7.437Y-6.1516
X7.4656Y-2.3327
X7.4951Y-3.1299
X7.5344Y-2.2146
X7.564Y-3.3268
X7.623Y-3.5138
X7.6535Y-2.5197
X7.7215Y-2.9724
X7.7618Y-6.5354
X7.8285Y-6.9193
X7.8996Y-6.8799
X7.9084Y-5.274
X7.9094Y-6.7913
X7.9488Y-6.063
X7.9488Y-6.8465
X7.9506Y-6.0164
X7.9783Y-5.7579
X8.0669Y-6.122
X8.0768Y-6.6043
X8.1152Y-1.6339
X8.1555Y-6.9193
X8.1742Y-1.6929
X8.1929Y-2.4321
X8.2037Y-2.5886
X8.2139Y-2.1682
X8.2431Y-3.3268
X8.3612Y-2.3425
X8.3612Y-3.0413
X8.3927Y-1.7598
X8.4301Y-4.1929
X8.44Y-2.4705
X8.4498Y-3.2677
X8.4832Y-1.7643
X8.499Y-1.9622
X8.5285Y-2.2933
X8.5384Y-4.1929
X8.5482Y-3.9567
X8.5482Y-4.7146
X8.5581Y-2.5689
X8.5591Y-4.3228
X8.5679Y-3.9173
X8.5974Y-3.9862
X8.6181Y-5.2559
X8.628Y-7.1654
X8.6467Y-1.7323
X8.6575Y-6.063
X8.6673Y-5.7579
X8.6673Y-6.9094
X8.7156Y-2.8839
X8.7156Y-3.9862
X8.7254Y-2.313
X8.7648Y-1.7323
X8.7648Y-3.9567
X8.7659Y-2.6832
X8.7746Y-2.2933
X8.7756Y-6.9094
X8.7844Y-1.8996
X8.815Y-6.5256
X8.8533Y-2.4606
X8.873Y-4.7539
X8.874Y-6.063
X9.0797Y-3.9567
X9.1585Y-1.939
X9.1781Y-3.1201
X9.188Y-3.2185
X9.3258Y-4.5965
X9.3258Y-4.6555
X9.3258Y-4.7638
X9.3356Y-4.8819
X9.3455Y-4.0059
X9.4439Y-4.7047
X9.5472Y-3.7756
X9.5522Y-4.3701
X9.6014Y-4.5079
X9.6309Y-3.7008
X9.6604Y-4.7441
X9.6703Y-5.0984
X9.7205Y-4.1457
X9.7293Y-5.0984
X9.8279Y-2.2852
X9.874Y-3.6339
X9.891Y-2.8635
X9.9065Y-2.2638
X9.9065Y-2.3622
X9.9065Y-2.5295
X9.9163Y-3.1299
X9.9262Y-4.8622
X10.0246Y-2.2638
X10.0246Y-2.628
X10.0344Y-2.8248
X10.064Y-3.0066
X10.1132Y-2.8543
X10.1329Y-3.5138
X10.1427Y-1.6437
X10.1526Y-1.9291
X10.1722Y-4.7539
X10.1722Y-4.9016
X10.31Y-2.0079
X10.3297Y-4.8228
X10.3661Y-5.0433
X10.3986Y-5.0098
X10.4281Y-3.1398
X10.4281Y-3.1988
X10.5865Y-2.0065
X10.6742Y-2.6673
X10.6742Y-2.7362
T2
X10.1083Y-2.3622
X10.1083Y-2.4606
X10.1083Y-2.5591
X10.6791Y-2.3622
X10.6791Y-2.5591
T3
X3.3311Y-4.6209
X3.3311Y-4.7209
X3.3311Y-4.8209
X3.3311Y-4.9209
X3.3311Y-5.0209
X3.3311Y-5.1209
X3.3311Y-5.2209
X3.3311Y-5.3209
X3.3311Y-5.4209
X3.3311Y-5.5209
X3.3311Y-5.6209
X3.3311Y-5.7209
X3.3311Y-5.8209
X3.3311Y-5.9209
X3.3311Y-6.0209
X3.3311Y-6.1209
X3.3311Y-6.2209
X3.3311Y-6.3209
X3.3311Y-6.4209
X3.3311Y-6.5209
X3.5811Y-6.5118
X3.6811Y-6.5118
X3.7811Y-6.5118
X4.0311Y-4.6209
X4.0311Y-4.7209
X4.0311Y-4.8209
X4.0311Y-4.9209
X4.0311Y-5.0209
X4.0311Y-5.1209
X4.0311Y-5.2209
X4.0311Y-5.3209
X4.0311Y-5.4209
X4.0311Y-5.5209
X4.0311Y-5.6209
X4.0311Y-5.7209
X4.0311Y-5.8209
X4.0311Y-5.9209
X4.0311Y-6.0209
X4.0311Y-6.1209
X4.0311Y-6.2209
X4.0311Y-6.3209
X4.0311Y-6.4209
X4.0311Y-6.5209
X8.9856Y-1.6287
X8.9856Y-1.7287
X8.9856Y-1.8287
X8.9856Y-1.9287
X8.9856Y-2.0287
X8.9856Y-2.1287
X8.9856Y-2.2287
X8.9856Y-2.3287
X8.9856Y-2.4287
X8.9856Y-2.5287
X8.9856Y-2.6287
X8.9856Y-2.7287
X8.9856Y-2.8287
X8.9856Y-2.9287
X8.9856Y-3.0287
X8.9856Y-3.1287
X8.9856Y-3.2287
X8.9856Y-3.3287
X8.9856Y-3.4287
X8.9856Y-3.5287
X9.2356Y-3.5197
X9.3356Y-3.5197
X9.4356Y-3.5197
X9.6856Y-1.6287
X9.6856Y-1.7287
X9.6856Y-1.8287
X9.6856Y-1.9287
X9.6856Y-2.0287
X9.6856Y-2.1287
X9.6856Y-2.2287
X9.6856Y-2.3287
X9.6856Y-2.4287
X9.6856Y-2.5287
X9.6856Y-2.6287
X9.6856Y-2.7287
X9.6856Y-2.8287
X9.6856Y-2.9287
X9.6856Y-3.0287
X9.6856Y-3.1287
X9.6856Y-3.2287
X9.6856Y-3.3287
X9.6856Y-3.4287
X9.6856Y-3.5287
T4
X2.5591Y-8.3386
X2.7559Y-8.4213
X3.3465Y-7.9449
X3.5433Y-8.0276
X4.06Y-2.5906
X4.06Y-3.378
X4.06Y-4.1654
X4.1339Y-7.5512
X4.2569Y-2.6732
X4.2569Y-3.4606
X4.2569Y-4.248
X4.3307Y-7.6339
X4.4882Y-4.9921
X4.4882Y-5.7795
X4.4882Y-6.5669
X4.685Y-5.0748
X4.685Y-5.8622
X4.685Y-6.6496
X4.7687Y-2.5906
X4.7687Y-3.378
X4.7687Y-4.1654
X4.9656Y-2.6732
X4.9656Y-3.4606
X4.9656Y-4.248
X5.2756Y-4.9921
X5.2756Y-5.7795
X5.2756Y-6.5669
X5.4724Y-5.0748
X5.4724Y-5.8622
X5.4724Y-6.6496
X5.5561Y-2.1969
X5.5561Y-2.9843
X5.5561Y-3.7717
X5.753Y-2.2795
X5.753Y-3.0669
X5.753Y-3.8543
X6.063Y-4.7953
X6.063Y-5.5827
X6.063Y-6.3701
X6.2598Y-4.878
X6.2598Y-5.6654
X6.2598Y-6.4528
X6.5404Y-1.8031
X6.5404Y-2.5906
X6.5404Y-3.378
X6.7372Y-1.8858
X6.7372Y-2.6732
X6.7372Y-3.4606
X7.0472Y-5.189
X7.0472Y-5.9764
X7.0472Y-6.7638
X7.2441Y-5.2717
X7.2441Y-6.0591
X7.2441Y-6.8465
X7.3278Y-2.0
X7.3278Y-2.7874
X7.3278Y-3.5748
X7.5246Y-2.0827
X7.5246Y-2.8701
X7.5246Y-3.6575
X7.8346Y-5.5827
X7.8346Y-6.3701
X7.8346Y-7.1575
X8.0315Y-5.6654
X8.0315Y-6.4528
X8.0315Y-7.2402
X8.1152Y-2.0
X8.1152Y-2.7874
X8.1152Y-3.5748
X8.312Y-2.0827
X8.312Y-2.8701
X8.312Y-3.6575
X8.4695Y-4.5591
X8.5433Y-5.5827
X8.5433Y-6.3701
X8.5433Y-7.1575
X8.6663Y-4.6417
X8.7402Y-5.6654
X8.7402Y-6.4528
X8.7402Y-7.2402
X9.2569Y-4.9528
X9.4537Y-5.0354
X10.0443Y-5.3465
X10.2411Y-5.4291
T5
X2.3528Y-6.0531
X2.3528Y-6.25
X2.3528Y-6.7618
X2.3528Y-6.9587
X2.8449Y-6.0531
X2.8449Y-6.25
X2.8449Y-6.7618
X2.8449Y-6.9587
X10.1526Y-3.7697
X10.1526Y-3.9665
X10.153Y-3.061
X10.153Y-3.2579
X10.6447Y-3.7697
X10.6447Y-3.9665
X10.6451Y-3.061
X10.6451Y-3.2579
T6
X10.4035Y-2.2402
X10.4035Y-2.6811
T0
M30
