%TF.GenerationSoftware,KiCad,Pcbnew,7.0.1*%
%TF.CreationDate,2023-05-03T23:08:28+02:00*%
%TF.ProjectId,Akula,416b756c-612e-46b6-9963-61645f706362,rev?*%
%TF.SameCoordinates,Original*%
%TF.FileFunction,Copper,L1,Top*%
%TF.FilePolarity,Positive*%
%FSLAX46Y46*%
G04 Gerber Fmt 4.6, Leading zero omitted, Abs format (unit mm)*
G04 Created by KiCad (PCBNEW 7.0.1) date 2023-05-03 23:08:28*
%MOMM*%
%LPD*%
G01*
G04 APERTURE LIST*
G04 Aperture macros list*
%AMRoundRect*
0 Rectangle with rounded corners*
0 $1 Rounding radius*
0 $2 $3 $4 $5 $6 $7 $8 $9 X,Y pos of 4 corners*
0 Add a 4 corners polygon primitive as box body*
4,1,4,$2,$3,$4,$5,$6,$7,$8,$9,$2,$3,0*
0 Add four circle primitives for the rounded corners*
1,1,$1+$1,$2,$3*
1,1,$1+$1,$4,$5*
1,1,$1+$1,$6,$7*
1,1,$1+$1,$8,$9*
0 Add four rect primitives between the rounded corners*
20,1,$1+$1,$2,$3,$4,$5,0*
20,1,$1+$1,$4,$5,$6,$7,0*
20,1,$1+$1,$6,$7,$8,$9,0*
20,1,$1+$1,$8,$9,$2,$3,0*%
G04 Aperture macros list end*
%TA.AperFunction,SMDPad,CuDef*%
%ADD10RoundRect,0.112500X0.112500X-0.187500X0.112500X0.187500X-0.112500X0.187500X-0.112500X-0.187500X0*%
%TD*%
%TA.AperFunction,SMDPad,CuDef*%
%ADD11RoundRect,0.140000X-0.170000X0.140000X-0.170000X-0.140000X0.170000X-0.140000X0.170000X0.140000X0*%
%TD*%
%TA.AperFunction,SMDPad,CuDef*%
%ADD12RoundRect,0.112500X-0.112500X0.187500X-0.112500X-0.187500X0.112500X-0.187500X0.112500X0.187500X0*%
%TD*%
%TA.AperFunction,SMDPad,CuDef*%
%ADD13RoundRect,0.135000X-0.135000X-0.185000X0.135000X-0.185000X0.135000X0.185000X-0.135000X0.185000X0*%
%TD*%
%TA.AperFunction,SMDPad,CuDef*%
%ADD14RoundRect,0.135000X0.185000X-0.135000X0.185000X0.135000X-0.185000X0.135000X-0.185000X-0.135000X0*%
%TD*%
%TA.AperFunction,SMDPad,CuDef*%
%ADD15RoundRect,0.135000X0.135000X0.185000X-0.135000X0.185000X-0.135000X-0.185000X0.135000X-0.185000X0*%
%TD*%
%TA.AperFunction,ComponentPad*%
%ADD16C,2.032000*%
%TD*%
%TA.AperFunction,SMDPad,CuDef*%
%ADD17R,0.700000X0.700000*%
%TD*%
%TA.AperFunction,SMDPad,CuDef*%
%ADD18RoundRect,0.112500X-0.187500X-0.112500X0.187500X-0.112500X0.187500X0.112500X-0.187500X0.112500X0*%
%TD*%
%TA.AperFunction,ComponentPad*%
%ADD19O,3.048000X1.850000*%
%TD*%
%TA.AperFunction,SMDPad,CuDef*%
%ADD20RoundRect,0.140000X0.140000X0.170000X-0.140000X0.170000X-0.140000X-0.170000X0.140000X-0.170000X0*%
%TD*%
%TA.AperFunction,SMDPad,CuDef*%
%ADD21RoundRect,0.140000X-0.140000X-0.170000X0.140000X-0.170000X0.140000X0.170000X-0.140000X0.170000X0*%
%TD*%
%TA.AperFunction,SMDPad,CuDef*%
%ADD22RoundRect,0.150000X-0.825000X-0.150000X0.825000X-0.150000X0.825000X0.150000X-0.825000X0.150000X0*%
%TD*%
%TA.AperFunction,ComponentPad*%
%ADD23R,2.000000X2.000000*%
%TD*%
%TA.AperFunction,ComponentPad*%
%ADD24C,2.000000*%
%TD*%
%TA.AperFunction,ComponentPad*%
%ADD25C,3.200000*%
%TD*%
%TA.AperFunction,ComponentPad*%
%ADD26O,1.700000X1.700000*%
%TD*%
%TA.AperFunction,SMDPad,CuDef*%
%ADD27R,3.500000X1.700000*%
%TD*%
%TA.AperFunction,ComponentPad*%
%ADD28R,1.700000X1.700000*%
%TD*%
%TA.AperFunction,SMDPad,CuDef*%
%ADD29R,1.700000X3.500000*%
%TD*%
%TA.AperFunction,SMDPad,CuDef*%
%ADD30R,0.750000X0.250000*%
%TD*%
%TA.AperFunction,SMDPad,CuDef*%
%ADD31RoundRect,0.140000X0.170000X-0.140000X0.170000X0.140000X-0.170000X0.140000X-0.170000X-0.140000X0*%
%TD*%
%TA.AperFunction,SMDPad,CuDef*%
%ADD32R,1.200000X2.500000*%
%TD*%
%TA.AperFunction,SMDPad,CuDef*%
%ADD33RoundRect,0.112500X0.187500X0.112500X-0.187500X0.112500X-0.187500X-0.112500X0.187500X-0.112500X0*%
%TD*%
%TA.AperFunction,ViaPad*%
%ADD34C,0.800000*%
%TD*%
%TA.AperFunction,Conductor*%
%ADD35C,0.250000*%
%TD*%
G04 APERTURE END LIST*
D10*
X115000000Y-154050000D03*
X115000000Y-151950000D03*
D11*
X121250000Y-152580000D03*
X121250000Y-153540000D03*
D12*
X133650000Y-132100000D03*
X133650000Y-134200000D03*
D13*
X252855000Y-79500000D03*
X253875000Y-79500000D03*
D11*
X216375000Y-76750000D03*
X216375000Y-77710000D03*
D14*
X243875000Y-113250000D03*
X243875000Y-112230000D03*
D11*
X143900000Y-152412164D03*
X143900000Y-153372164D03*
D15*
X110710000Y-139600000D03*
X109690000Y-139600000D03*
D12*
X219650000Y-166700000D03*
X219650000Y-168800000D03*
D16*
X90000000Y-203900000D03*
X85000000Y-201800000D03*
D17*
X107295000Y-76700000D03*
X107295000Y-77800000D03*
X109125000Y-77800000D03*
X109125000Y-76700000D03*
D12*
X117650000Y-131950000D03*
X117650000Y-134050000D03*
D17*
X221085000Y-132800000D03*
X221085000Y-133900000D03*
X222915000Y-133900000D03*
X222915000Y-132800000D03*
D16*
X171125000Y-87900000D03*
X166125000Y-85800000D03*
X108125000Y-67900000D03*
X103125000Y-65800000D03*
D17*
X69085000Y-202800000D03*
X69085000Y-203900000D03*
X70915000Y-203900000D03*
X70915000Y-202800000D03*
D12*
X140625000Y-60700000D03*
X140625000Y-62800000D03*
D17*
X158085000Y-112800000D03*
X158085000Y-113900000D03*
X159915000Y-113900000D03*
X159915000Y-112800000D03*
D16*
X159000000Y-143900000D03*
X154000000Y-141800000D03*
D11*
X193625000Y-76540000D03*
X193625000Y-77500000D03*
D18*
X214825000Y-103500000D03*
X216925000Y-103500000D03*
D19*
X257885000Y-77750000D03*
X270385000Y-77750000D03*
X257885000Y-82750000D03*
X270385000Y-82750000D03*
D17*
X210210000Y-81700000D03*
X210210000Y-82800000D03*
X212040000Y-82800000D03*
X212040000Y-81700000D03*
D20*
X221585000Y-46500000D03*
X220625000Y-46500000D03*
D13*
X96380000Y-178150000D03*
X97400000Y-178150000D03*
D11*
X220150000Y-147590000D03*
X220150000Y-148550000D03*
X213875000Y-76770000D03*
X213875000Y-77730000D03*
D18*
X67665000Y-199750000D03*
X69765000Y-199750000D03*
D16*
X260125000Y-137900000D03*
X255125000Y-135800000D03*
X191125000Y-92900000D03*
X186125000Y-90800000D03*
D13*
X252615000Y-57500000D03*
X253635000Y-57500000D03*
D11*
X208900000Y-167770000D03*
X208900000Y-168730000D03*
D21*
X218895000Y-103890000D03*
X219855000Y-103890000D03*
X75640000Y-137750000D03*
X76600000Y-137750000D03*
D10*
X154650000Y-149050000D03*
X154650000Y-146950000D03*
D17*
X118085000Y-157800000D03*
X118085000Y-158900000D03*
X119915000Y-158900000D03*
X119915000Y-157800000D03*
X190210000Y-61700000D03*
X190210000Y-62800000D03*
X192040000Y-62800000D03*
X192040000Y-61700000D03*
D16*
X159000000Y-163900000D03*
X154000000Y-161800000D03*
D11*
X182400000Y-137790000D03*
X182400000Y-138750000D03*
D17*
X145210000Y-86700000D03*
X145210000Y-87800000D03*
X147040000Y-87800000D03*
X147040000Y-86700000D03*
D13*
X109490000Y-147750000D03*
X110510000Y-147750000D03*
D11*
X110625000Y-91540000D03*
X110625000Y-92500000D03*
D13*
X252855000Y-85500000D03*
X253875000Y-85500000D03*
D11*
X242625000Y-112270000D03*
X242625000Y-113230000D03*
X148625000Y-81520000D03*
X148625000Y-82480000D03*
D10*
X188625000Y-77815000D03*
X188625000Y-75715000D03*
D16*
X211125000Y-72900000D03*
X206125000Y-70800000D03*
X211125000Y-52900000D03*
X206125000Y-50800000D03*
X171125000Y-67900000D03*
X166125000Y-65800000D03*
D22*
X239400000Y-99095000D03*
X239400000Y-100365000D03*
X239400000Y-101635000D03*
X239400000Y-102905000D03*
X244350000Y-102905000D03*
X244350000Y-101635000D03*
X244350000Y-100365000D03*
X244350000Y-99095000D03*
D17*
X170210000Y-36700000D03*
X170210000Y-37800000D03*
X172040000Y-37800000D03*
X172040000Y-36700000D03*
D11*
X157150000Y-127562164D03*
X157150000Y-128522164D03*
X87400000Y-184420000D03*
X87400000Y-185380000D03*
D17*
X170210000Y-56700000D03*
X170210000Y-57800000D03*
X172040000Y-57800000D03*
X172040000Y-56700000D03*
D16*
X126125000Y-67900000D03*
X121125000Y-65800000D03*
D19*
X257875000Y-95750000D03*
X270375000Y-95750000D03*
X257875000Y-100750000D03*
X270375000Y-100750000D03*
D17*
X183085000Y-162800000D03*
X183085000Y-163900000D03*
X184915000Y-163900000D03*
X184915000Y-162800000D03*
X170210000Y-76700000D03*
X170210000Y-77800000D03*
X172040000Y-77800000D03*
X172040000Y-76700000D03*
D20*
X221525000Y-44000000D03*
X220565000Y-44000000D03*
D19*
X59760000Y-153750000D03*
X72260000Y-153750000D03*
X59760000Y-158750000D03*
X72260000Y-158750000D03*
D18*
X104050000Y-178100000D03*
X106150000Y-178100000D03*
D11*
X151125000Y-81520000D03*
X151125000Y-82480000D03*
X141300000Y-152412164D03*
X141300000Y-153372164D03*
D15*
X256625000Y-48700000D03*
X255605000Y-48700000D03*
D17*
X138085000Y-117800000D03*
X138085000Y-118900000D03*
X139915000Y-118900000D03*
X139915000Y-117800000D03*
D11*
X94200000Y-185120000D03*
X94200000Y-186080000D03*
D14*
X267125000Y-72520000D03*
X267125000Y-71500000D03*
D17*
X138085000Y-157800000D03*
X138085000Y-158900000D03*
X139915000Y-158900000D03*
X139915000Y-157800000D03*
D16*
X204000000Y-163900000D03*
X199000000Y-161800000D03*
D11*
X243900000Y-95920000D03*
X243900000Y-96880000D03*
D17*
X125210000Y-56700000D03*
X125210000Y-57800000D03*
X127040000Y-57800000D03*
X127040000Y-56700000D03*
D11*
X208875000Y-56220000D03*
X208875000Y-57180000D03*
D12*
X185625000Y-55700000D03*
X185625000Y-57800000D03*
X216900000Y-147020000D03*
X216900000Y-149120000D03*
D23*
X256750000Y-60000000D03*
D24*
X256750000Y-65000000D03*
X256750000Y-62500000D03*
D25*
X264250000Y-56900000D03*
X264250000Y-68100000D03*
D24*
X271250000Y-65000000D03*
X271250000Y-60000000D03*
D11*
X128625000Y-91520000D03*
X128625000Y-92480000D03*
D10*
X208625000Y-78550000D03*
X208625000Y-76450000D03*
D11*
X106375000Y-71540000D03*
X106375000Y-72500000D03*
D17*
X221085000Y-152800000D03*
X221085000Y-153900000D03*
X222915000Y-153900000D03*
X222915000Y-152800000D03*
D12*
X103125000Y-70950000D03*
X103125000Y-73050000D03*
D21*
X109670000Y-134450000D03*
X110630000Y-134450000D03*
D17*
X190210000Y-41700000D03*
X190210000Y-42800000D03*
X192040000Y-42800000D03*
X192040000Y-41700000D03*
D11*
X123650000Y-152540000D03*
X123650000Y-153500000D03*
D15*
X253635000Y-64250000D03*
X252615000Y-64250000D03*
D12*
X179150000Y-137200000D03*
X179150000Y-139300000D03*
D16*
X108125000Y-107900000D03*
X103125000Y-105800000D03*
D17*
X183085000Y-122800000D03*
X183085000Y-123900000D03*
X184915000Y-123900000D03*
X184915000Y-122800000D03*
D12*
X166625000Y-70700000D03*
X166625000Y-72800000D03*
D16*
X204000000Y-183900000D03*
X199000000Y-181800000D03*
D26*
X228235000Y-41370000D03*
D27*
X227335000Y-41370000D03*
D26*
X228235000Y-43910000D03*
D27*
X227335000Y-43910000D03*
D28*
X228235000Y-46450000D03*
D27*
X227335000Y-46450000D03*
D26*
X228235000Y-48990000D03*
D27*
X227335000Y-48990000D03*
D26*
X228235000Y-51530000D03*
D27*
X227335000Y-51530000D03*
D26*
X228235000Y-54070000D03*
D27*
X227335000Y-54070000D03*
D26*
X228235000Y-56610000D03*
D27*
X227335000Y-56610000D03*
D28*
X228235000Y-59150000D03*
D27*
X227335000Y-59150000D03*
D26*
X228235000Y-61690000D03*
D27*
X227335000Y-61690000D03*
D26*
X228235000Y-64230000D03*
D27*
X227335000Y-64230000D03*
D26*
X228235000Y-66770000D03*
D27*
X227335000Y-66770000D03*
D26*
X228235000Y-69310000D03*
D27*
X227335000Y-69310000D03*
D28*
X228235000Y-71850000D03*
D27*
X227335000Y-71850000D03*
D26*
X228235000Y-74390000D03*
D27*
X227335000Y-74390000D03*
D26*
X228235000Y-76930000D03*
D27*
X227335000Y-76930000D03*
D26*
X228235000Y-79470000D03*
D27*
X227335000Y-79470000D03*
D26*
X228235000Y-82010000D03*
D27*
X227335000Y-82010000D03*
D28*
X228235000Y-84550000D03*
D27*
X227335000Y-84550000D03*
D26*
X228235000Y-87090000D03*
D27*
X227335000Y-87090000D03*
D26*
X228235000Y-89630000D03*
D27*
X227335000Y-89630000D03*
D26*
X246015000Y-89630000D03*
D27*
X246915000Y-89630000D03*
D26*
X246015000Y-87090000D03*
D27*
X246915000Y-87090000D03*
D28*
X246015000Y-84550000D03*
D27*
X246915000Y-84550000D03*
D26*
X246015000Y-82010000D03*
D27*
X246915000Y-82010000D03*
D26*
X246015000Y-79470000D03*
D27*
X246915000Y-79470000D03*
D26*
X246015000Y-76930000D03*
D27*
X246915000Y-76930000D03*
D26*
X246015000Y-74390000D03*
D27*
X246915000Y-74390000D03*
D28*
X246015000Y-71850000D03*
D27*
X246915000Y-71850000D03*
D26*
X246015000Y-69310000D03*
D27*
X246915000Y-69310000D03*
D26*
X246015000Y-66770000D03*
D27*
X246915000Y-66770000D03*
D26*
X246015000Y-64230000D03*
D27*
X246915000Y-64230000D03*
D26*
X246015000Y-61690000D03*
D27*
X246915000Y-61690000D03*
D28*
X246015000Y-59150000D03*
D27*
X246915000Y-59150000D03*
D26*
X246015000Y-56610000D03*
D27*
X246915000Y-56610000D03*
D26*
X246015000Y-54070000D03*
D27*
X246915000Y-54070000D03*
D26*
X246015000Y-51530000D03*
D27*
X246915000Y-51530000D03*
D26*
X246015000Y-48990000D03*
D27*
X246915000Y-48990000D03*
D28*
X246015000Y-46450000D03*
D27*
X246915000Y-46450000D03*
D26*
X246015000Y-43910000D03*
D27*
X246915000Y-43910000D03*
D26*
X246015000Y-41370000D03*
D27*
X246915000Y-41370000D03*
D26*
X234585000Y-89400000D03*
D29*
X234585000Y-90300000D03*
D28*
X237125000Y-89400000D03*
D29*
X237125000Y-90300000D03*
D26*
X239665000Y-89400000D03*
D29*
X239665000Y-90300000D03*
D11*
X168875000Y-51520000D03*
X168875000Y-52480000D03*
D16*
X240125000Y-127900000D03*
X235125000Y-125800000D03*
D17*
X221085000Y-172800000D03*
X221085000Y-173900000D03*
X222915000Y-173900000D03*
X222915000Y-172800000D03*
X145210000Y-46700000D03*
X145210000Y-47800000D03*
X147040000Y-47800000D03*
X147040000Y-46700000D03*
X203085000Y-172800000D03*
X203085000Y-173900000D03*
X204915000Y-173900000D03*
X204915000Y-172800000D03*
D12*
X201000000Y-167400000D03*
X201000000Y-169500000D03*
D17*
X239210000Y-116700000D03*
X239210000Y-117800000D03*
X241040000Y-117800000D03*
X241040000Y-116700000D03*
D21*
X75640000Y-140350000D03*
X76600000Y-140350000D03*
D16*
X220125000Y-117900000D03*
X215125000Y-115800000D03*
D11*
X188900000Y-157520000D03*
X188900000Y-158480000D03*
D19*
X59760000Y-171750000D03*
X72260000Y-171750000D03*
X59760000Y-176750000D03*
X72260000Y-176750000D03*
D15*
X256625000Y-50000000D03*
X255605000Y-50000000D03*
D10*
X136650000Y-154050000D03*
X136650000Y-151950000D03*
D26*
X84610000Y-117370000D03*
D27*
X83710000Y-117370000D03*
D26*
X84610000Y-119910000D03*
D27*
X83710000Y-119910000D03*
D28*
X84610000Y-122450000D03*
D27*
X83710000Y-122450000D03*
D26*
X84610000Y-124990000D03*
D27*
X83710000Y-124990000D03*
D26*
X84610000Y-127530000D03*
D27*
X83710000Y-127530000D03*
D26*
X84610000Y-130070000D03*
D27*
X83710000Y-130070000D03*
D26*
X84610000Y-132610000D03*
D27*
X83710000Y-132610000D03*
D28*
X84610000Y-135150000D03*
D27*
X83710000Y-135150000D03*
D26*
X84610000Y-137690000D03*
D27*
X83710000Y-137690000D03*
D26*
X84610000Y-140230000D03*
D27*
X83710000Y-140230000D03*
D26*
X84610000Y-142770000D03*
D27*
X83710000Y-142770000D03*
D26*
X84610000Y-145310000D03*
D27*
X83710000Y-145310000D03*
D28*
X84610000Y-147850000D03*
D27*
X83710000Y-147850000D03*
D26*
X84610000Y-150390000D03*
D27*
X83710000Y-150390000D03*
D26*
X84610000Y-152930000D03*
D27*
X83710000Y-152930000D03*
D26*
X84610000Y-155470000D03*
D27*
X83710000Y-155470000D03*
D26*
X84610000Y-158010000D03*
D27*
X83710000Y-158010000D03*
D28*
X84610000Y-160550000D03*
D27*
X83710000Y-160550000D03*
D26*
X84610000Y-163090000D03*
D27*
X83710000Y-163090000D03*
D26*
X84610000Y-165630000D03*
D27*
X83710000Y-165630000D03*
D26*
X102390000Y-165630000D03*
D27*
X103290000Y-165630000D03*
D26*
X102390000Y-163090000D03*
D27*
X103290000Y-163090000D03*
D28*
X102390000Y-160550000D03*
D27*
X103290000Y-160550000D03*
D26*
X102390000Y-158010000D03*
D27*
X103290000Y-158010000D03*
D26*
X102390000Y-155470000D03*
D27*
X103290000Y-155470000D03*
D26*
X102390000Y-152930000D03*
D27*
X103290000Y-152930000D03*
D26*
X102390000Y-150390000D03*
D27*
X103290000Y-150390000D03*
D28*
X102390000Y-147850000D03*
D27*
X103290000Y-147850000D03*
D26*
X102390000Y-145310000D03*
D27*
X103290000Y-145310000D03*
D26*
X102390000Y-142770000D03*
D27*
X103290000Y-142770000D03*
D26*
X102390000Y-140230000D03*
D27*
X103290000Y-140230000D03*
D26*
X102390000Y-137690000D03*
D27*
X103290000Y-137690000D03*
D28*
X102390000Y-135150000D03*
D27*
X103290000Y-135150000D03*
D26*
X102390000Y-132610000D03*
D27*
X103290000Y-132610000D03*
D26*
X102390000Y-130070000D03*
D27*
X103290000Y-130070000D03*
D26*
X102390000Y-127530000D03*
D27*
X103290000Y-127530000D03*
D26*
X102390000Y-124990000D03*
D27*
X103290000Y-124990000D03*
D28*
X102390000Y-122450000D03*
D27*
X103290000Y-122450000D03*
D26*
X102390000Y-119910000D03*
D27*
X103290000Y-119910000D03*
D26*
X102390000Y-117370000D03*
D27*
X103290000Y-117370000D03*
D26*
X90960000Y-165400000D03*
D29*
X90960000Y-166300000D03*
D28*
X93500000Y-165400000D03*
D29*
X93500000Y-166300000D03*
D26*
X96040000Y-165400000D03*
D29*
X96040000Y-166300000D03*
D16*
X108125000Y-87900000D03*
X103125000Y-85800000D03*
D12*
X134650000Y-151950000D03*
X134650000Y-154050000D03*
D11*
X161500000Y-147290000D03*
X161500000Y-148250000D03*
D12*
X153900000Y-126950000D03*
X153900000Y-129050000D03*
D11*
X189125000Y-56270000D03*
X189125000Y-57230000D03*
D17*
X203085000Y-132800000D03*
X203085000Y-133900000D03*
X204915000Y-133900000D03*
X204915000Y-132800000D03*
D11*
X206300000Y-167770000D03*
X206300000Y-168730000D03*
D13*
X96380000Y-181250000D03*
X97400000Y-181250000D03*
D11*
X176125000Y-71270000D03*
X176125000Y-72230000D03*
X163900000Y-147290000D03*
X163900000Y-148250000D03*
D21*
X109940000Y-180250000D03*
X110900000Y-180250000D03*
D12*
X206625000Y-76450000D03*
X206625000Y-78550000D03*
D30*
X89150000Y-184450000D03*
X89150000Y-184950000D03*
X89150000Y-185450000D03*
X89150000Y-185950000D03*
X92250000Y-185950000D03*
X92250000Y-185450000D03*
X92250000Y-184950000D03*
X92250000Y-184450000D03*
D16*
X159000000Y-123900000D03*
X154000000Y-121800000D03*
X146125000Y-57900000D03*
X141125000Y-55800000D03*
D20*
X89680000Y-189350000D03*
X88720000Y-189350000D03*
D17*
X109085000Y-182800000D03*
X109085000Y-183900000D03*
X110915000Y-183900000D03*
X110915000Y-182800000D03*
D10*
X198650000Y-169500000D03*
X198650000Y-167400000D03*
D12*
X186625000Y-75715000D03*
X186625000Y-77815000D03*
D16*
X211125000Y-92900000D03*
X206125000Y-90800000D03*
D12*
X141625000Y-80950000D03*
X141625000Y-83050000D03*
D16*
X146125000Y-97900000D03*
X141125000Y-95800000D03*
D17*
X183170000Y-142750000D03*
X183170000Y-143850000D03*
X185000000Y-143850000D03*
X185000000Y-142750000D03*
D16*
X191125000Y-72900000D03*
X186125000Y-70800000D03*
X119000000Y-128900000D03*
X114000000Y-126800000D03*
D10*
X179650000Y-159050000D03*
X179650000Y-156950000D03*
D17*
X89085000Y-192800000D03*
X89085000Y-193900000D03*
X90915000Y-193900000D03*
X90915000Y-192800000D03*
D15*
X76710000Y-148900000D03*
X75690000Y-148900000D03*
D12*
X121625000Y-90950000D03*
X121625000Y-93050000D03*
D17*
X145210000Y-66700000D03*
X145210000Y-67800000D03*
X147040000Y-67800000D03*
X147040000Y-66700000D03*
D11*
X113125000Y-91540000D03*
X113125000Y-92500000D03*
D20*
X253605000Y-66640000D03*
X252645000Y-66640000D03*
D17*
X125210000Y-96700000D03*
X125210000Y-97800000D03*
X127040000Y-97800000D03*
X127040000Y-96700000D03*
D12*
X117400000Y-151950000D03*
X117400000Y-154050000D03*
D16*
X222000000Y-183900000D03*
X217000000Y-181800000D03*
D13*
X223105000Y-104000000D03*
X224125000Y-104000000D03*
D11*
X224050000Y-166960000D03*
X224050000Y-167920000D03*
D10*
X123625000Y-93050000D03*
X123625000Y-90950000D03*
D21*
X258645000Y-89250000D03*
X259605000Y-89250000D03*
D11*
X131125000Y-91520000D03*
X131125000Y-92480000D03*
D17*
X125210000Y-76700000D03*
X125210000Y-77800000D03*
X127040000Y-77800000D03*
X127040000Y-76700000D03*
D30*
X246350000Y-95350000D03*
X246350000Y-95850000D03*
X246350000Y-96350000D03*
X246350000Y-96850000D03*
X249450000Y-96850000D03*
X249450000Y-96350000D03*
X249450000Y-95850000D03*
X249450000Y-95350000D03*
D17*
X107210000Y-96700000D03*
X107210000Y-97800000D03*
X109040000Y-97800000D03*
X109040000Y-96700000D03*
D31*
X216625000Y-57230000D03*
X216625000Y-56270000D03*
D17*
X210210000Y-41700000D03*
X210210000Y-42800000D03*
X212040000Y-42800000D03*
X212040000Y-41700000D03*
D16*
X204000000Y-143900000D03*
X199000000Y-141800000D03*
D14*
X258375000Y-123260000D03*
X258375000Y-122240000D03*
D16*
X171125000Y-47900000D03*
X166125000Y-45800000D03*
D21*
X109550000Y-145350000D03*
X110510000Y-145350000D03*
D18*
X83950000Y-189350000D03*
X86050000Y-189350000D03*
D11*
X72650000Y-198540000D03*
X72650000Y-199500000D03*
D16*
X139000000Y-168900000D03*
X134000000Y-166800000D03*
D10*
X105875000Y-92800000D03*
X105875000Y-90700000D03*
D11*
X261125000Y-122290000D03*
X261125000Y-123250000D03*
D22*
X88525000Y-175845000D03*
X88525000Y-177115000D03*
X88525000Y-178385000D03*
X88525000Y-179655000D03*
X93475000Y-179655000D03*
X93475000Y-178385000D03*
X93475000Y-177115000D03*
X93475000Y-175845000D03*
D17*
X138085000Y-137800000D03*
X138085000Y-138900000D03*
X139915000Y-138900000D03*
X139915000Y-137800000D03*
D18*
X234325000Y-113500000D03*
X236425000Y-113500000D03*
D16*
X139000000Y-148900000D03*
X134000000Y-146800000D03*
D17*
X107210000Y-56700000D03*
X107210000Y-57800000D03*
X109040000Y-57800000D03*
X109040000Y-56700000D03*
D16*
X222000000Y-163900000D03*
X217000000Y-161800000D03*
X126125000Y-107900000D03*
X121125000Y-105800000D03*
D17*
X210210000Y-61700000D03*
X210210000Y-62800000D03*
X212040000Y-62800000D03*
X212040000Y-61700000D03*
D11*
X196125000Y-76540000D03*
X196125000Y-77500000D03*
D13*
X248355000Y-101900000D03*
X249375000Y-101900000D03*
D31*
X250800000Y-94260000D03*
X250800000Y-93300000D03*
D21*
X109620000Y-137050000D03*
X110580000Y-137050000D03*
D16*
X126125000Y-87900000D03*
X121125000Y-85800000D03*
D13*
X248355000Y-100500000D03*
X249375000Y-100500000D03*
D16*
X70000000Y-213900000D03*
X65000000Y-211800000D03*
D20*
X253875000Y-81500000D03*
X252915000Y-81500000D03*
D11*
X123875000Y-71250000D03*
X123875000Y-72210000D03*
D16*
X184000000Y-153900000D03*
X179000000Y-151800000D03*
D21*
X252645000Y-60000000D03*
X253605000Y-60000000D03*
D16*
X146125000Y-77900000D03*
X141125000Y-75800000D03*
X184000000Y-133900000D03*
X179000000Y-131800000D03*
D12*
X165625000Y-50950000D03*
X165625000Y-53050000D03*
D11*
X173625000Y-71290000D03*
X173625000Y-72250000D03*
D32*
X65405000Y-117750000D03*
X62405000Y-117750000D03*
X70505000Y-124250000D03*
X69405000Y-117750000D03*
D17*
X158085000Y-152800000D03*
X158085000Y-153900000D03*
X159915000Y-153900000D03*
X159915000Y-152800000D03*
X158085000Y-132800000D03*
X158085000Y-133900000D03*
X159915000Y-133900000D03*
X159915000Y-132800000D03*
D11*
X186500000Y-157520000D03*
X186500000Y-158480000D03*
D16*
X119000000Y-148900000D03*
X114000000Y-146800000D03*
D10*
X217650000Y-168800000D03*
X217650000Y-166700000D03*
D33*
X255675000Y-123500000D03*
X253575000Y-123500000D03*
D17*
X118085000Y-137800000D03*
X118085000Y-138900000D03*
X119915000Y-138900000D03*
X119915000Y-137800000D03*
D10*
X143625000Y-83050000D03*
X143625000Y-80950000D03*
D16*
X184000000Y-173900000D03*
X179000000Y-171800000D03*
D12*
X181650000Y-156950000D03*
X181650000Y-159050000D03*
D11*
X143985000Y-61270000D03*
X143985000Y-62230000D03*
D32*
X264720000Y-48250000D03*
X267720000Y-48250000D03*
X259620000Y-41750000D03*
X260720000Y-48250000D03*
D21*
X258145000Y-72500000D03*
X259105000Y-72500000D03*
D11*
X120760000Y-132470000D03*
X120760000Y-133430000D03*
X202650000Y-147670000D03*
X202650000Y-148630000D03*
D15*
X76710000Y-160950000D03*
X75690000Y-160950000D03*
D17*
X218960000Y-106700000D03*
X218960000Y-107800000D03*
X220790000Y-107800000D03*
X220790000Y-106700000D03*
D10*
X168625000Y-72800000D03*
X168625000Y-70700000D03*
D17*
X259285000Y-126725000D03*
X259285000Y-127825000D03*
X261115000Y-127825000D03*
X261115000Y-126725000D03*
X190210000Y-81700000D03*
X190210000Y-82800000D03*
X192040000Y-82800000D03*
X192040000Y-81700000D03*
D16*
X191125000Y-52900000D03*
X186125000Y-50800000D03*
X119000000Y-168900000D03*
X114000000Y-166800000D03*
D12*
X156650000Y-146950000D03*
X156650000Y-149050000D03*
X205625000Y-55565000D03*
X205625000Y-57665000D03*
X199150000Y-147100000D03*
X199150000Y-149200000D03*
X120625000Y-70700000D03*
X120625000Y-72800000D03*
D16*
X110000000Y-193900000D03*
X105000000Y-191800000D03*
D17*
X118285000Y-117800000D03*
X118285000Y-118900000D03*
X120115000Y-118900000D03*
X120115000Y-117800000D03*
D12*
X103875000Y-90700000D03*
X103875000Y-92800000D03*
D11*
X226650000Y-167040000D03*
X226650000Y-168000000D03*
X136900000Y-132670000D03*
X136900000Y-133630000D03*
D15*
X110660000Y-132050000D03*
X109640000Y-132050000D03*
D17*
X203085000Y-152800000D03*
X203085000Y-153900000D03*
X204915000Y-153900000D03*
X204915000Y-152800000D03*
D16*
X139000000Y-128900000D03*
X134000000Y-126800000D03*
X222000000Y-143900000D03*
X217000000Y-141800000D03*
D34*
X87400000Y-158250000D03*
X88400000Y-173500000D03*
X201900000Y-173900000D03*
X202650000Y-146250000D03*
X91400000Y-189500000D03*
X108400000Y-180250000D03*
X74150000Y-140500000D03*
X220150000Y-175500000D03*
X223900000Y-165750000D03*
X115800000Y-139500000D03*
X136900000Y-159000000D03*
X106874500Y-183700000D03*
X156912299Y-154012299D03*
X116787299Y-161362701D03*
X123650000Y-151250000D03*
X66650000Y-204000000D03*
X111655105Y-145443128D03*
X136650000Y-131250000D03*
X220150000Y-146250000D03*
X201900000Y-154000000D03*
X180650000Y-124000000D03*
X88400000Y-195500000D03*
X72650000Y-197500000D03*
X115400000Y-119000000D03*
X188900000Y-156250000D03*
X181150000Y-169000000D03*
X200872622Y-133960815D03*
X87500000Y-183300000D03*
X155881904Y-113909844D03*
X94200000Y-187100000D03*
X182400000Y-136500000D03*
X156900000Y-134000000D03*
X160400000Y-147250000D03*
X159400000Y-127750000D03*
X181945404Y-143965182D03*
X141150000Y-151000000D03*
X136900000Y-139000000D03*
X120650000Y-131250000D03*
X111650000Y-134500000D03*
X218900000Y-133500000D03*
X219900000Y-154000000D03*
X135650000Y-118750000D03*
X205150000Y-167750000D03*
X233125000Y-79250000D03*
X251625000Y-57500000D03*
X258375000Y-124500000D03*
X208375000Y-65750000D03*
X151125000Y-80250000D03*
X218375000Y-101250000D03*
X251625000Y-60000000D03*
X236875000Y-121000000D03*
X166625000Y-49750000D03*
X215874999Y-49838719D03*
X207625000Y-43000000D03*
X242625000Y-111000000D03*
X262375000Y-122500000D03*
X176125000Y-70250000D03*
X196125000Y-75500000D03*
X236875000Y-118250000D03*
X219625000Y-44000000D03*
X106000000Y-98000000D03*
X191375000Y-56250000D03*
X168125000Y-79500000D03*
X187875000Y-43000000D03*
X122875000Y-57250000D03*
X209375000Y-84500000D03*
X189625000Y-59250000D03*
X242500000Y-95900000D03*
X250800000Y-92300000D03*
X217400000Y-109800000D03*
X257375000Y-89250000D03*
X143875000Y-89750000D03*
X208633328Y-55072260D03*
X142625000Y-67500000D03*
X254625000Y-66750000D03*
X212375000Y-77250000D03*
X131125000Y-90500000D03*
X146625000Y-62500000D03*
X123875000Y-70000000D03*
X257625000Y-41750000D03*
X171375000Y-52000000D03*
X237375000Y-101750000D03*
X104875000Y-58000000D03*
X167625000Y-38000000D03*
X142625000Y-48000000D03*
X122814500Y-78300000D03*
X113125000Y-90500000D03*
X256875000Y-72500000D03*
X168125000Y-61000000D03*
X106375000Y-70000000D03*
X187875000Y-82000000D03*
X103700000Y-78000000D03*
X122875000Y-98250000D03*
X254875000Y-71750000D03*
X271125000Y-69500000D03*
X232625000Y-49250000D03*
X223125000Y-48250000D03*
X258375000Y-120750000D03*
X245375000Y-120500000D03*
X106653983Y-175005238D03*
X96150000Y-175750000D03*
X110150000Y-127250000D03*
X106400000Y-169750000D03*
X108150000Y-148000000D03*
X106650000Y-148750000D03*
X112400000Y-150750000D03*
X114400000Y-136500000D03*
X114400000Y-134000000D03*
X112400000Y-172000000D03*
X251625000Y-64250000D03*
X251875000Y-79500000D03*
X255625000Y-76368804D03*
X249629031Y-58044134D03*
X254625000Y-57500000D03*
X221625000Y-58750000D03*
X212375000Y-59500000D03*
X222625000Y-44000000D03*
X142875000Y-87900000D03*
X243875000Y-114500000D03*
X221375000Y-73250000D03*
X221375000Y-101250000D03*
X206125000Y-41500000D03*
X222875000Y-58250000D03*
X216625000Y-58250000D03*
X264875000Y-81250000D03*
X268897495Y-50964627D03*
X261875000Y-51000000D03*
X264875000Y-79750000D03*
X230625000Y-100500000D03*
X217125000Y-100500000D03*
X237125000Y-124000000D03*
X222625000Y-100500000D03*
X252125000Y-123500000D03*
X222653414Y-68154459D03*
X217375000Y-65250000D03*
X186125000Y-65250000D03*
X167125000Y-54500000D03*
X140625000Y-65750000D03*
X118375000Y-69750000D03*
X108625000Y-66000000D03*
X108400000Y-145250000D03*
X108194291Y-152609158D03*
X106150000Y-180000000D03*
X71400000Y-200000000D03*
X86900000Y-200000000D03*
X86150000Y-182050000D03*
X117150000Y-155250000D03*
X134650000Y-155250000D03*
X155150000Y-159500000D03*
X177900000Y-164000000D03*
X197150000Y-166000000D03*
X219150000Y-182000000D03*
X108650000Y-139500000D03*
X108650000Y-134500000D03*
X124900000Y-168000000D03*
X104900000Y-169000000D03*
X126900000Y-129000000D03*
X233375000Y-81750000D03*
X251232629Y-72732675D03*
X271125000Y-67750000D03*
X77900000Y-161000000D03*
X76700000Y-141700000D03*
X108211606Y-94319635D03*
X257875000Y-49000000D03*
X264125000Y-127250000D03*
X245625000Y-129500000D03*
X215472151Y-44813969D03*
X111125000Y-94250000D03*
X185060821Y-88550752D03*
X193625000Y-89250000D03*
X213175000Y-44700000D03*
X122539466Y-119263937D03*
X187400000Y-165500000D03*
X207150000Y-175750000D03*
X177900000Y-165000000D03*
X198844550Y-175750000D03*
X91150000Y-201750000D03*
X93650000Y-201750000D03*
X217125000Y-119750000D03*
X236875000Y-116750000D03*
X214125000Y-106500000D03*
X216875000Y-106500000D03*
X172125000Y-59500000D03*
X142778295Y-66494323D03*
X122625000Y-76750000D03*
X146875000Y-69500000D03*
X126625000Y-79500000D03*
X104875000Y-76750000D03*
X194400000Y-64000000D03*
X167922478Y-56411820D03*
X214375000Y-62750000D03*
X187625000Y-61500000D03*
X239875000Y-119500000D03*
X224875000Y-62500000D03*
X208099000Y-61774500D03*
X225375000Y-120750000D03*
X105625000Y-99750000D03*
X126875000Y-99750000D03*
X122900000Y-96700000D03*
X148375000Y-90000000D03*
X147125000Y-79750000D03*
X173125000Y-79500000D03*
X171125000Y-79500000D03*
X192125000Y-84500000D03*
X190375000Y-79500000D03*
X214625000Y-83000000D03*
X217625000Y-99500000D03*
X263300000Y-128100000D03*
X247125000Y-129500000D03*
X246900000Y-105300000D03*
X201946208Y-152816346D03*
X225400000Y-154000000D03*
X87900000Y-192750000D03*
X115650000Y-171000000D03*
X102400000Y-171500000D03*
X101900000Y-192500000D03*
X115650000Y-138000000D03*
X141150000Y-139250000D03*
X136900000Y-137750000D03*
X160150000Y-135500000D03*
X184900000Y-145500000D03*
X155900000Y-141500000D03*
X204900000Y-155500000D03*
X180900000Y-149750000D03*
X82900000Y-171250000D03*
X114398231Y-170545618D03*
X119382591Y-160542785D03*
X114924910Y-160768958D03*
X116900000Y-157750000D03*
X141000000Y-160400000D03*
X138150000Y-155500000D03*
X159900000Y-155500000D03*
X186150000Y-164250000D03*
X157150000Y-160500000D03*
X180900000Y-171750000D03*
X200650000Y-174750000D03*
X200900000Y-172500000D03*
X222900000Y-175500000D03*
X91800000Y-187100000D03*
X81150000Y-179250000D03*
X112000000Y-185500000D03*
X93800000Y-183900000D03*
X244625000Y-94000000D03*
X103000000Y-103750000D03*
D35*
X76700000Y-141700000D02*
X76700000Y-140450000D01*
X76700000Y-140450000D02*
X76600000Y-140350000D01*
X76700000Y-141150000D02*
X76700000Y-141700000D01*
X140900000Y-160250000D02*
X141000000Y-160350000D01*
X141000000Y-160350000D02*
X141000000Y-160400000D01*
X141000000Y-160400000D02*
X141000000Y-159985000D01*
X141000000Y-159985000D02*
X139915000Y-158900000D01*
X122900000Y-96700000D02*
X125210000Y-96700000D01*
X194400000Y-64000000D02*
X193240000Y-64000000D01*
X193240000Y-64000000D02*
X192040000Y-62800000D01*
X208099000Y-61774500D02*
X208173500Y-61700000D01*
X208173500Y-61700000D02*
X210210000Y-61700000D01*
X263300000Y-128100000D02*
X263025000Y-127825000D01*
X263025000Y-127825000D02*
X261115000Y-127825000D01*
X247125000Y-129500000D02*
X247125000Y-105525000D01*
X247125000Y-105525000D02*
X246900000Y-105300000D01*
X232625000Y-49250000D02*
X231975000Y-49900000D01*
X231975000Y-49900000D02*
X231975000Y-101372792D01*
X235752208Y-105150000D02*
X243411396Y-105150000D01*
X231975000Y-101372792D02*
X235752208Y-105150000D01*
X243411396Y-105150000D02*
X244325000Y-106063604D01*
X244325000Y-106063604D02*
X244325000Y-111000000D01*
X244325000Y-111000000D02*
X244900000Y-111575000D01*
X244900000Y-111575000D02*
X244900000Y-114500305D01*
X244900000Y-114500305D02*
X244325000Y-115075305D01*
X244325000Y-115075305D02*
X244325000Y-119450000D01*
X244325000Y-119450000D02*
X245375000Y-120500000D01*
X145210000Y-66700000D02*
X142983972Y-66700000D01*
X142983972Y-66700000D02*
X142778295Y-66494323D01*
X255625000Y-76368804D02*
X255625000Y-76250000D01*
X255625000Y-76250000D02*
X259105000Y-72770000D01*
X259105000Y-72770000D02*
X259105000Y-72500000D01*
X183170000Y-143850000D02*
X182060586Y-143850000D01*
X182060586Y-143850000D02*
X181945404Y-143965182D01*
X203085000Y-133900000D02*
X200933437Y-133900000D01*
X200933437Y-133900000D02*
X200872622Y-133960815D01*
X114924910Y-160768958D02*
X114924910Y-161161306D01*
X114924910Y-161161306D02*
X116450000Y-162686396D01*
X116450000Y-162686396D02*
X116450000Y-166654416D01*
X116450000Y-166654416D02*
X115550000Y-167554416D01*
X115550000Y-167554416D02*
X115550000Y-169950000D01*
X115550000Y-169950000D02*
X114954382Y-170545618D01*
X114954382Y-170545618D02*
X114398231Y-170545618D01*
X108194291Y-152609158D02*
X107650000Y-153153449D01*
X107650000Y-153153449D02*
X107650000Y-177500000D01*
X107650000Y-177500000D02*
X107050000Y-178100000D01*
X107050000Y-178100000D02*
X106150000Y-178100000D01*
X75690000Y-148900000D02*
X75100000Y-148900000D01*
X74900000Y-151110000D02*
X72260000Y-153750000D01*
X75100000Y-148900000D02*
X74900000Y-149100000D01*
X74900000Y-149100000D02*
X74900000Y-151110000D01*
X106874500Y-183700000D02*
X107074500Y-183900000D01*
X107074500Y-183900000D02*
X109085000Y-183900000D01*
X115800000Y-139500000D02*
X116400000Y-138900000D01*
X116400000Y-138900000D02*
X118085000Y-138900000D01*
X201900000Y-173900000D02*
X203085000Y-173900000D01*
X106000000Y-98000000D02*
X107010000Y-98000000D01*
X107010000Y-98000000D02*
X107210000Y-97800000D01*
X123314500Y-77800000D02*
X125210000Y-77800000D01*
X122814500Y-78300000D02*
X123314500Y-77800000D01*
X103700000Y-78000000D02*
X103900000Y-77800000D01*
X103900000Y-77800000D02*
X107295000Y-77800000D01*
X90350000Y-181550000D02*
X87586396Y-181550000D01*
X92015000Y-178385000D02*
X90900000Y-179500000D01*
X90900000Y-181000000D02*
X90350000Y-181550000D01*
X86600000Y-159050000D02*
X87400000Y-158250000D01*
X87586396Y-181550000D02*
X86600000Y-180563604D01*
X90900000Y-179500000D02*
X90900000Y-181000000D01*
X93475000Y-178385000D02*
X92015000Y-178385000D01*
X96145000Y-178385000D02*
X96380000Y-178150000D01*
X86600000Y-180563604D02*
X86600000Y-159050000D01*
X93475000Y-178385000D02*
X96145000Y-178385000D01*
X93475000Y-179655000D02*
X91130000Y-182000000D01*
X96380000Y-181250000D02*
X95070000Y-181250000D01*
X86150000Y-157010000D02*
X84610000Y-155470000D01*
X86150000Y-180750000D02*
X86150000Y-157010000D01*
X87400000Y-182000000D02*
X86150000Y-180750000D01*
X91130000Y-182000000D02*
X87400000Y-182000000D01*
X95070000Y-181250000D02*
X93475000Y-179655000D01*
X72650000Y-198540000D02*
X72650000Y-197500000D01*
X203085000Y-153900000D02*
X202000000Y-153900000D01*
X201900000Y-154000000D02*
X202000000Y-153900000D01*
X158085000Y-133900000D02*
X157000000Y-133900000D01*
X157972701Y-154012299D02*
X158085000Y-153900000D01*
X161500000Y-147290000D02*
X163900000Y-147290000D01*
X88525000Y-179655000D02*
X88525000Y-178385000D01*
X69085000Y-203900000D02*
X66750000Y-203900000D01*
X75640000Y-126626396D02*
X75640000Y-137750000D01*
X135650000Y-118750000D02*
X135800000Y-118900000D01*
X141300000Y-152412164D02*
X143900000Y-152412164D01*
X219300000Y-133900000D02*
X218900000Y-133500000D01*
X87400000Y-183400000D02*
X87400000Y-184420000D01*
X88525000Y-175845000D02*
X88525000Y-177115000D01*
X224050000Y-166960000D02*
X226570000Y-166960000D01*
X110580000Y-134500000D02*
X110630000Y-134450000D01*
X136900000Y-132670000D02*
X136900000Y-131500000D01*
X221085000Y-173900000D02*
X221085000Y-174565000D01*
X121250000Y-152580000D02*
X123610000Y-152580000D01*
X183085000Y-163900000D02*
X181150000Y-163900000D01*
X115500000Y-118900000D02*
X115400000Y-119000000D01*
X141300000Y-151150000D02*
X141300000Y-152412164D01*
X66750000Y-203900000D02*
X66650000Y-204000000D01*
X155881904Y-113909844D02*
X156000000Y-113900000D01*
X123610000Y-152580000D02*
X123650000Y-152540000D01*
X59760000Y-158750000D02*
X72260000Y-158750000D01*
X75640000Y-137750000D02*
X75640000Y-137110000D01*
X73263604Y-124250000D02*
X75640000Y-126626396D01*
X74300000Y-140350000D02*
X74150000Y-140500000D01*
X202650000Y-147670000D02*
X202650000Y-146250000D01*
X138085000Y-118900000D02*
X135800000Y-118900000D01*
X157000000Y-133900000D02*
X156900000Y-134000000D01*
X87500000Y-183300000D02*
X87400000Y-183400000D01*
X186500000Y-157520000D02*
X188900000Y-157520000D01*
X109940000Y-180250000D02*
X108400000Y-180250000D01*
X75640000Y-140350000D02*
X74300000Y-140350000D01*
X180750000Y-123900000D02*
X180650000Y-124000000D01*
X88525000Y-175845000D02*
X88525000Y-173625000D01*
X87400000Y-184420000D02*
X87820000Y-184420000D01*
X89085000Y-193900000D02*
X89085000Y-194815000D01*
X88525000Y-178385000D02*
X88525000Y-177115000D01*
X181150000Y-163900000D02*
X180800000Y-164250000D01*
X161500000Y-147290000D02*
X160440000Y-147290000D01*
X75640000Y-140350000D02*
X75640000Y-137750000D01*
X226570000Y-166960000D02*
X226650000Y-167040000D01*
X136900000Y-131500000D02*
X136650000Y-131250000D01*
X136900000Y-159000000D02*
X137000000Y-158900000D01*
X159212164Y-127562164D02*
X159400000Y-127750000D01*
X110580000Y-137050000D02*
X110580000Y-134500000D01*
X111655105Y-145443128D02*
X111500000Y-145350000D01*
X111650000Y-145500000D02*
X111655105Y-145443128D01*
X138085000Y-158900000D02*
X137000000Y-158900000D01*
X220000000Y-153900000D02*
X219900000Y-154000000D01*
X158085000Y-113900000D02*
X155881904Y-113909844D01*
X138085000Y-138900000D02*
X137000000Y-138900000D01*
X224050000Y-165900000D02*
X223900000Y-165750000D01*
X221085000Y-153900000D02*
X220000000Y-153900000D01*
X110510000Y-145350000D02*
X111500000Y-145350000D01*
X88525000Y-177115000D02*
X93475000Y-177115000D01*
X75640000Y-137110000D02*
X77600000Y-135150000D01*
X160440000Y-147290000D02*
X160400000Y-147250000D01*
X221085000Y-174565000D02*
X220150000Y-175500000D01*
X180800000Y-164250000D02*
X180800000Y-168650000D01*
X59760000Y-176750000D02*
X72260000Y-176750000D01*
X180800000Y-168650000D02*
X181150000Y-169000000D01*
X157150000Y-127562164D02*
X159212164Y-127562164D01*
X91250000Y-189350000D02*
X91400000Y-189500000D01*
X141150000Y-151000000D02*
X141300000Y-151150000D01*
X206300000Y-167770000D02*
X205170000Y-167770000D01*
X205170000Y-167770000D02*
X205150000Y-167750000D01*
X188900000Y-157520000D02*
X188900000Y-156250000D01*
X87820000Y-184420000D02*
X88350000Y-184950000D01*
X77600000Y-135150000D02*
X84610000Y-135150000D01*
X110630000Y-134450000D02*
X111600000Y-134450000D01*
X224050000Y-166960000D02*
X224050000Y-165900000D01*
X118285000Y-118900000D02*
X115500000Y-118900000D01*
X94200000Y-186080000D02*
X94200000Y-187100000D01*
X123650000Y-152540000D02*
X123650000Y-151250000D01*
X221085000Y-133900000D02*
X219300000Y-133900000D01*
X89680000Y-189350000D02*
X91250000Y-189350000D01*
X220150000Y-147590000D02*
X220150000Y-146250000D01*
X183085000Y-123900000D02*
X180750000Y-123900000D01*
X120760000Y-132470000D02*
X120760000Y-131360000D01*
X182400000Y-137790000D02*
X182400000Y-136500000D01*
X70505000Y-124250000D02*
X73263604Y-124250000D01*
X118085000Y-160065000D02*
X118085000Y-158900000D01*
X88525000Y-173625000D02*
X88400000Y-173500000D01*
X156912299Y-154012299D02*
X157972701Y-154012299D01*
X120760000Y-131360000D02*
X120650000Y-131250000D01*
X116787299Y-161362701D02*
X118085000Y-160065000D01*
X111600000Y-134450000D02*
X111650000Y-134500000D01*
X89085000Y-194815000D02*
X88400000Y-195500000D01*
X206300000Y-167770000D02*
X208900000Y-167770000D01*
X137000000Y-138900000D02*
X136900000Y-139000000D01*
X88350000Y-184950000D02*
X89150000Y-184950000D01*
X247350000Y-102905000D02*
X244350000Y-102905000D01*
X235938604Y-104700000D02*
X242555000Y-104700000D01*
X232425000Y-79950000D02*
X232425000Y-101186396D01*
X233125000Y-79250000D02*
X232425000Y-79950000D01*
X232425000Y-101186396D02*
X235938604Y-104700000D01*
X242555000Y-104700000D02*
X244350000Y-102905000D01*
X248355000Y-101900000D02*
X247350000Y-102905000D01*
X252625000Y-57000000D02*
X252625000Y-57490000D01*
X252625000Y-57490000D02*
X252615000Y-57500000D01*
X252615000Y-57500000D02*
X251625000Y-57500000D01*
X253625000Y-64240000D02*
X253635000Y-64250000D01*
X253635000Y-64250000D02*
X254385000Y-65000000D01*
X254385000Y-65000000D02*
X256875000Y-65000000D01*
X145210000Y-87800000D02*
X145210000Y-88415000D01*
X250800000Y-93300000D02*
X250800000Y-92300000D01*
X145210000Y-47800000D02*
X142825000Y-47800000D01*
X220625000Y-46500000D02*
X220625000Y-44060000D01*
X215874999Y-49838719D02*
X215875000Y-49750000D01*
X173625000Y-71290000D02*
X176105000Y-71290000D01*
X190210000Y-62800000D02*
X190825000Y-62800000D01*
X105075000Y-57800000D02*
X107210000Y-57800000D01*
X220625000Y-44060000D02*
X220565000Y-44000000D01*
X246350000Y-95850000D02*
X243970000Y-95850000D01*
X188675000Y-82800000D02*
X190210000Y-82800000D01*
X216625000Y-56270000D02*
X216625000Y-50500000D01*
X145210000Y-67800000D02*
X142925000Y-67800000D01*
X243970000Y-95850000D02*
X243900000Y-95920000D01*
X110625000Y-91540000D02*
X113125000Y-91540000D01*
X128625000Y-91520000D02*
X131125000Y-91520000D01*
X191125000Y-62500000D02*
X191125000Y-59866396D01*
X261125000Y-122290000D02*
X262165000Y-122290000D01*
X166625000Y-49750000D02*
X167105000Y-49750000D01*
X208875000Y-56220000D02*
X208875000Y-55250000D01*
X253875000Y-81500000D02*
X255125000Y-82750000D01*
X239210000Y-117800000D02*
X237325000Y-117800000D01*
X188075000Y-42800000D02*
X187875000Y-43000000D01*
X210210000Y-82800000D02*
X210210000Y-83665000D01*
X143985000Y-61270000D02*
X145395000Y-61270000D01*
X142825000Y-47800000D02*
X142625000Y-48000000D01*
X148625000Y-81520000D02*
X151125000Y-81520000D01*
X123875000Y-71250000D02*
X123875000Y-70000000D01*
X218375000Y-101250000D02*
X218895000Y-101770000D01*
X191125000Y-59866396D02*
X190508604Y-59250000D01*
X167825000Y-37800000D02*
X167625000Y-38000000D01*
X131125000Y-91520000D02*
X131125000Y-90500000D01*
X220565000Y-44000000D02*
X219625000Y-44000000D01*
X190210000Y-42800000D02*
X188075000Y-42800000D01*
X123325000Y-97800000D02*
X122875000Y-98250000D01*
X170210000Y-37800000D02*
X167825000Y-37800000D01*
X190825000Y-62800000D02*
X191125000Y-62500000D01*
X259620000Y-41750000D02*
X257625000Y-41750000D01*
X253605000Y-66640000D02*
X254515000Y-66640000D01*
X168125000Y-61000000D02*
X168125000Y-59885000D01*
X242520000Y-95920000D02*
X242500000Y-95900000D01*
X123425000Y-57800000D02*
X122875000Y-57250000D01*
X252645000Y-60000000D02*
X251625000Y-60000000D01*
X213895000Y-76750000D02*
X213875000Y-76770000D01*
X207825000Y-42800000D02*
X207625000Y-43000000D01*
X243900000Y-95920000D02*
X242520000Y-95920000D01*
X125210000Y-97800000D02*
X123325000Y-97800000D01*
X208633328Y-55072260D02*
X208625000Y-55000000D01*
X239400000Y-99095000D02*
X239400000Y-100365000D01*
X212855000Y-76770000D02*
X212375000Y-77250000D01*
X125210000Y-57800000D02*
X123425000Y-57800000D01*
X210210000Y-83665000D02*
X209375000Y-84500000D01*
X168875000Y-51520000D02*
X170895000Y-51520000D01*
X196125000Y-76540000D02*
X196125000Y-75500000D01*
X170210000Y-77800000D02*
X169211396Y-77800000D01*
X239400000Y-101635000D02*
X239400000Y-100365000D01*
X170895000Y-51520000D02*
X171375000Y-52000000D01*
X190508604Y-59250000D02*
X189625000Y-59250000D01*
X242625000Y-111000000D02*
X242765000Y-111140000D01*
X258450000Y-127825000D02*
X258125000Y-127500000D01*
X217400000Y-109360000D02*
X218960000Y-107800000D01*
X104875000Y-58000000D02*
X105075000Y-57800000D01*
X168125000Y-78886396D02*
X168125000Y-79500000D01*
X176105000Y-71290000D02*
X176125000Y-71270000D01*
X218895000Y-101770000D02*
X218895000Y-103890000D01*
X145395000Y-61270000D02*
X146625000Y-62500000D01*
X239210000Y-117800000D02*
X239210000Y-118665000D01*
X216375000Y-76750000D02*
X213895000Y-76750000D01*
X239400000Y-100365000D02*
X244350000Y-100365000D01*
X255125000Y-82750000D02*
X257885000Y-82750000D01*
X191355000Y-56270000D02*
X191375000Y-56250000D01*
X259285000Y-127825000D02*
X258450000Y-127825000D01*
X217400000Y-109800000D02*
X217400000Y-109360000D01*
X151125000Y-81520000D02*
X151125000Y-80250000D01*
X251625000Y-61125000D02*
X251625000Y-60000000D01*
X187875000Y-82000000D02*
X188675000Y-82800000D01*
X189125000Y-56270000D02*
X191355000Y-56270000D01*
X213875000Y-76770000D02*
X212855000Y-76770000D01*
X193625000Y-76540000D02*
X196125000Y-76540000D01*
X239400000Y-101635000D02*
X237490000Y-101635000D01*
X113125000Y-91540000D02*
X113125000Y-90500000D01*
X167105000Y-49750000D02*
X168875000Y-51520000D01*
X242625000Y-112270000D02*
X242625000Y-111000000D01*
X208875000Y-55250000D02*
X208633328Y-55072260D01*
X208375000Y-64635000D02*
X210210000Y-62800000D01*
X258145000Y-72500000D02*
X256875000Y-72500000D01*
X210210000Y-42800000D02*
X207825000Y-42800000D01*
X258645000Y-89250000D02*
X257375000Y-89250000D01*
X106375000Y-71540000D02*
X106375000Y-70000000D01*
X262165000Y-122290000D02*
X262375000Y-122500000D01*
X208375000Y-65750000D02*
X208375000Y-64635000D01*
X237490000Y-101635000D02*
X237375000Y-101750000D01*
X237325000Y-117800000D02*
X236875000Y-118250000D01*
X254625000Y-66750000D02*
X254515000Y-66640000D01*
X256750000Y-62500000D02*
X253000000Y-62500000D01*
X258125000Y-124750000D02*
X258375000Y-124500000D01*
X216625000Y-50500000D02*
X215874999Y-49838719D01*
X176125000Y-71270000D02*
X176125000Y-70250000D01*
X142925000Y-67800000D02*
X142625000Y-67500000D01*
X145210000Y-88415000D02*
X143875000Y-89750000D01*
X168125000Y-59885000D02*
X170210000Y-57800000D01*
X253000000Y-62500000D02*
X251625000Y-61125000D01*
X169211396Y-77800000D02*
X168125000Y-78886396D01*
X258125000Y-127500000D02*
X258125000Y-124750000D01*
X239210000Y-118665000D02*
X236875000Y-121000000D01*
X239400000Y-102905000D02*
X239400000Y-101635000D01*
X272125000Y-65750000D02*
X271375000Y-65000000D01*
X253635000Y-71750000D02*
X254875000Y-71750000D01*
X252075000Y-76500000D02*
X252075000Y-75050000D01*
X252075000Y-75050000D02*
X253635000Y-73490000D01*
X253875000Y-79500000D02*
X252075000Y-77700000D01*
X272125000Y-68500000D02*
X272125000Y-65750000D01*
X252075000Y-77700000D02*
X252075000Y-76500000D01*
X271125000Y-69500000D02*
X272125000Y-68500000D01*
X253635000Y-73490000D02*
X253635000Y-71750000D01*
X75690000Y-160950000D02*
X75690000Y-162610000D01*
X75600000Y-160860000D02*
X75690000Y-160950000D01*
X72260000Y-171750000D02*
X72260000Y-166040000D01*
X59760000Y-171750000D02*
X72260000Y-171750000D01*
X72260000Y-166040000D02*
X75500000Y-162800000D01*
X75690000Y-162610000D02*
X75500000Y-162800000D01*
X223075000Y-48200000D02*
X223125000Y-48250000D01*
X258375000Y-122240000D02*
X258375000Y-120750000D01*
X222125000Y-48200000D02*
X222125000Y-47040000D01*
X222125000Y-47040000D02*
X221585000Y-46500000D01*
X222125000Y-48200000D02*
X223075000Y-48200000D01*
X72260000Y-153750000D02*
X59760000Y-153750000D01*
X97400000Y-181250000D02*
X97400000Y-182000000D01*
X92250000Y-185450000D02*
X90450000Y-185450000D01*
X92100000Y-182700000D02*
X90700000Y-184100000D01*
X107400000Y-150000000D02*
X107200000Y-150200000D01*
X107400000Y-130000000D02*
X107400000Y-150000000D01*
X107200000Y-150200000D02*
X107200000Y-174450000D01*
X90700000Y-185200000D02*
X90450000Y-185450000D01*
X90700000Y-184100000D02*
X90700000Y-185200000D01*
X93475000Y-175845000D02*
X96245000Y-175845000D01*
X97400000Y-177000000D02*
X97400000Y-178150000D01*
X96245000Y-175845000D02*
X96275000Y-175875000D01*
X106653983Y-175005238D02*
X106650000Y-175000000D01*
X97400000Y-181250000D02*
X97400000Y-178150000D01*
X87470000Y-185450000D02*
X87400000Y-185380000D01*
X96700000Y-182700000D02*
X92100000Y-182700000D01*
X89150000Y-185450000D02*
X87470000Y-185450000D01*
X90450000Y-185450000D02*
X89150000Y-185450000D01*
X96275000Y-175875000D02*
X97400000Y-177000000D01*
X110150000Y-127250000D02*
X107400000Y-130000000D01*
X107200000Y-174450000D02*
X106653983Y-175005238D01*
X97400000Y-182000000D02*
X96700000Y-182700000D01*
X106650000Y-148750000D02*
X106750000Y-148850000D01*
X108150000Y-148000000D02*
X109240000Y-148000000D01*
X106750000Y-169400000D02*
X106400000Y-169750000D01*
X109240000Y-148000000D02*
X109490000Y-147750000D01*
X106750000Y-148850000D02*
X106750000Y-169400000D01*
X244350000Y-99095000D02*
X244350000Y-97330000D01*
X253375000Y-87760000D02*
X253375000Y-95500000D01*
X250375000Y-54280000D02*
X250375000Y-84760000D01*
X246015000Y-51530000D02*
X247625000Y-51530000D01*
X247625000Y-51530000D02*
X250375000Y-54280000D01*
X249375000Y-100500000D02*
X249375000Y-99500000D01*
X244350000Y-97330000D02*
X243900000Y-96880000D01*
X253375000Y-95500000D02*
X249375000Y-99500000D01*
X247700000Y-99000000D02*
X247700000Y-96600000D01*
X254075000Y-51530000D02*
X255605000Y-50000000D01*
X252865000Y-87250000D02*
X253375000Y-87760000D01*
X246015000Y-51530000D02*
X254075000Y-51530000D01*
X244445000Y-99000000D02*
X244350000Y-99095000D01*
X247700000Y-99000000D02*
X244445000Y-99000000D01*
X247700000Y-96600000D02*
X247950000Y-96350000D01*
X249375000Y-100500000D02*
X249375000Y-101900000D01*
X250375000Y-84760000D02*
X252865000Y-87250000D01*
X255605000Y-48700000D02*
X255605000Y-50000000D01*
X248875000Y-99000000D02*
X247700000Y-99000000D01*
X247950000Y-96350000D02*
X249450000Y-96350000D01*
X249375000Y-99500000D02*
X248875000Y-99000000D01*
X246350000Y-96350000D02*
X247950000Y-96350000D01*
X114965000Y-132550000D02*
X114965000Y-133435000D01*
X112110000Y-171710000D02*
X112110000Y-156040000D01*
X112650000Y-151000000D02*
X112400000Y-150750000D01*
X114965000Y-133435000D02*
X114400000Y-134000000D01*
X112110000Y-156040000D02*
X112650000Y-155500000D01*
X113665000Y-131250000D02*
X114965000Y-132550000D01*
X112650000Y-155500000D02*
X112650000Y-151000000D01*
X113850000Y-141086396D02*
X113850000Y-136750000D01*
X113850000Y-136750000D02*
X114100000Y-136500000D01*
X114100000Y-136500000D02*
X114400000Y-136500000D01*
X110660000Y-132050000D02*
X111460000Y-131250000D01*
X112400000Y-172000000D02*
X112110000Y-171710000D01*
X119000000Y-148900000D02*
X119000000Y-146236396D01*
X119000000Y-146236396D02*
X113850000Y-141086396D01*
X111460000Y-131250000D02*
X113665000Y-131250000D01*
X252645000Y-64280000D02*
X252615000Y-64250000D01*
X252645000Y-66640000D02*
X252645000Y-64280000D01*
X251625000Y-64250000D02*
X252615000Y-64250000D01*
X252855000Y-79500000D02*
X251875000Y-79500000D01*
X255625000Y-76368804D02*
X255493804Y-76500000D01*
X248865000Y-69310000D02*
X249925000Y-68250000D01*
X253605000Y-60000000D02*
X253605000Y-57530000D01*
X253635000Y-57500000D02*
X254625000Y-57500000D01*
X249925000Y-58300000D02*
X249629031Y-58044134D01*
X249629031Y-58044134D02*
X249625000Y-58000000D01*
X253605000Y-57530000D02*
X253635000Y-57500000D01*
X249925000Y-68250000D02*
X249925000Y-58300000D01*
X246015000Y-69310000D02*
X248865000Y-69310000D01*
X84550000Y-137750000D02*
X84610000Y-137690000D01*
X77710000Y-137690000D02*
X77650000Y-137750000D01*
X84610000Y-137690000D02*
X77710000Y-137690000D01*
X78650000Y-138750000D02*
X77650000Y-137750000D01*
X76710000Y-148900000D02*
X77000000Y-148900000D01*
X77000000Y-148900000D02*
X78650000Y-147250000D01*
X78650000Y-147250000D02*
X78650000Y-138750000D01*
X76600000Y-137750000D02*
X77650000Y-137750000D01*
X211125000Y-58250000D02*
X211125000Y-52900000D01*
X223105000Y-104000000D02*
X223105000Y-102270000D01*
X223425000Y-101950000D02*
X223425000Y-59250000D01*
X223425000Y-59250000D02*
X223175000Y-59000000D01*
X220125000Y-117900000D02*
X223105000Y-114920000D01*
X223175000Y-59000000D02*
X221875000Y-59000000D01*
X223105000Y-102270000D02*
X223425000Y-101950000D01*
X223105000Y-114920000D02*
X223105000Y-104000000D01*
X212375000Y-59500000D02*
X211125000Y-58250000D01*
X221875000Y-59000000D02*
X221625000Y-58750000D01*
X243875000Y-106250000D02*
X243875000Y-112230000D01*
X243225000Y-105600000D02*
X243875000Y-106250000D01*
X229035000Y-43910000D02*
X231525000Y-46400000D01*
X231525000Y-101559188D02*
X235565812Y-105600000D01*
X228235000Y-43910000D02*
X229035000Y-43910000D01*
X221525000Y-44000000D02*
X222625000Y-44000000D01*
X222175000Y-43350000D02*
X222175000Y-41100000D01*
X231525000Y-46400000D02*
X231525000Y-101559188D01*
X235565812Y-105600000D02*
X243225000Y-105600000D01*
X221525000Y-44000000D02*
X222175000Y-43350000D01*
X222375000Y-74250000D02*
X222375000Y-99250000D01*
X144075000Y-85686396D02*
X144075000Y-84300000D01*
X142875000Y-87900000D02*
X142875000Y-86886396D01*
X222375000Y-99250000D02*
X221375000Y-100250000D01*
X206125000Y-41500000D02*
X206125000Y-43500000D01*
X206125000Y-43500000D02*
X208425000Y-45800000D01*
X221375000Y-100250000D02*
X221375000Y-101250000D01*
X207374500Y-62300305D02*
X207590000Y-62515805D01*
X146125000Y-82250000D02*
X146125000Y-77900000D01*
X208425000Y-53700000D02*
X207374500Y-54750500D01*
X240125000Y-127900000D02*
X243875000Y-124150000D01*
X144075000Y-84300000D02*
X146125000Y-82250000D01*
X142875000Y-86886396D02*
X144075000Y-85686396D01*
X207590000Y-62515805D02*
X207590000Y-69365000D01*
X208425000Y-45800000D02*
X208425000Y-53700000D01*
X207374500Y-54750500D02*
X207374500Y-62300305D01*
X221375000Y-73250000D02*
X222375000Y-74250000D01*
X243875000Y-124150000D02*
X243875000Y-113250000D01*
X207590000Y-69365000D02*
X211125000Y-72900000D01*
X223125000Y-58250000D02*
X223875000Y-57500000D01*
X223875000Y-43500000D02*
X226005000Y-41370000D01*
X226005000Y-41370000D02*
X228235000Y-41370000D01*
X223875000Y-57500000D02*
X223875000Y-102000000D01*
X223875000Y-57500000D02*
X223875000Y-43500000D01*
X224125000Y-102250000D02*
X224125000Y-104000000D01*
X222875000Y-58250000D02*
X223125000Y-58250000D01*
X216625000Y-57230000D02*
X216625000Y-58250000D01*
X223875000Y-102000000D02*
X224125000Y-102250000D01*
X268170000Y-60841396D02*
X268170000Y-51705000D01*
X268897495Y-50964627D02*
X268875000Y-51000000D01*
X265325000Y-78450000D02*
X265325000Y-71186396D01*
X264875000Y-81250000D02*
X265625000Y-80500000D01*
X256625000Y-50000000D02*
X257625000Y-51000000D01*
X265625000Y-80500000D02*
X265625000Y-78750000D01*
X265325000Y-71186396D02*
X267075000Y-69436396D01*
X267075000Y-61936396D02*
X268170000Y-60841396D01*
X268170000Y-51705000D02*
X268897495Y-50964627D01*
X257625000Y-51000000D02*
X261970000Y-51000000D01*
X261970000Y-51000000D02*
X264720000Y-48250000D01*
X267075000Y-69436396D02*
X267075000Y-61936396D01*
X265625000Y-78750000D02*
X265325000Y-78450000D01*
X264875000Y-79750000D02*
X264875000Y-71000000D01*
X256625000Y-48700000D02*
X259075000Y-46250000D01*
X267720000Y-60655000D02*
X267720000Y-48250000D01*
X267720000Y-47595000D02*
X267720000Y-48250000D01*
X266375000Y-46250000D02*
X267720000Y-47595000D01*
X266625000Y-61750000D02*
X267720000Y-60655000D01*
X259075000Y-46250000D02*
X266375000Y-46250000D01*
X266625000Y-69250000D02*
X266625000Y-61750000D01*
X264875000Y-71000000D02*
X266625000Y-69250000D01*
X236100000Y-122975000D02*
X236100000Y-113825000D01*
X222653414Y-68154459D02*
X222875000Y-68376045D01*
X236425000Y-113500000D02*
X236425000Y-107095584D01*
X231075000Y-100950000D02*
X230625000Y-100500000D01*
X253575000Y-123500000D02*
X252125000Y-123500000D01*
X216925000Y-103500000D02*
X216925000Y-100700000D01*
X236425000Y-107095584D02*
X231075000Y-101745584D01*
X222875000Y-100250000D02*
X222625000Y-100500000D01*
X236100000Y-113825000D02*
X236425000Y-113500000D01*
X222875000Y-68376045D02*
X222875000Y-100250000D01*
X216925000Y-100700000D02*
X217125000Y-100500000D01*
X237125000Y-124000000D02*
X236100000Y-122975000D01*
X231075000Y-101745584D02*
X231075000Y-100950000D01*
X216375000Y-75500000D02*
X218025000Y-73850000D01*
X208625000Y-76450000D02*
X212425000Y-76450000D01*
X212425000Y-76450000D02*
X213375000Y-75500000D01*
X208625000Y-76450000D02*
X208625000Y-71036396D01*
X206625000Y-78450000D02*
X208625000Y-76450000D01*
X207140000Y-69551396D02*
X207140000Y-62702201D01*
X206924500Y-59549500D02*
X205625000Y-58250000D01*
X218025000Y-73850000D02*
X218025000Y-65900000D01*
X207140000Y-62702201D02*
X206924500Y-62486701D01*
X213375000Y-75500000D02*
X216375000Y-75500000D01*
X206924500Y-62486701D02*
X206924500Y-59549500D01*
X206625000Y-78550000D02*
X206625000Y-78450000D01*
X208625000Y-71036396D02*
X207140000Y-69551396D01*
X218025000Y-65900000D02*
X217375000Y-65250000D01*
X205625000Y-58250000D02*
X205625000Y-57665000D01*
X185625000Y-65000000D02*
X185625000Y-57800000D01*
X188625000Y-68000000D02*
X185625000Y-65000000D01*
X188625000Y-75715000D02*
X188625000Y-68000000D01*
X186625000Y-77815000D02*
X186625000Y-77715000D01*
X186625000Y-77715000D02*
X188625000Y-75715000D01*
X168625000Y-70700000D02*
X168625000Y-64000000D01*
X167125000Y-62500000D02*
X167125000Y-54550000D01*
X166625000Y-72800000D02*
X166625000Y-72700000D01*
X167125000Y-54550000D02*
X165625000Y-53050000D01*
X166625000Y-72700000D02*
X168625000Y-70700000D01*
X168625000Y-64000000D02*
X167125000Y-62500000D01*
X140625000Y-69750000D02*
X140625000Y-62800000D01*
X141625000Y-82950000D02*
X143625000Y-80950000D01*
X143625000Y-80950000D02*
X143625000Y-72750000D01*
X143625000Y-72750000D02*
X140625000Y-69750000D01*
X141625000Y-83050000D02*
X141625000Y-82950000D01*
X121625000Y-93050000D02*
X121625000Y-92950000D01*
X120625000Y-75000000D02*
X120625000Y-72800000D01*
X119175000Y-72800000D02*
X118375000Y-72000000D01*
X122090000Y-84215000D02*
X122090000Y-77240305D01*
X121900000Y-76275000D02*
X120625000Y-75000000D01*
X123625000Y-85750000D02*
X122090000Y-84215000D01*
X120625000Y-72800000D02*
X119175000Y-72800000D01*
X121900000Y-77050305D02*
X121900000Y-76275000D01*
X118375000Y-72000000D02*
X118375000Y-69750000D01*
X121625000Y-92950000D02*
X123625000Y-90950000D01*
X122090000Y-77240305D02*
X121900000Y-77050305D01*
X123625000Y-90950000D02*
X123625000Y-85750000D01*
X105875000Y-82875000D02*
X101750000Y-78750000D01*
X105875000Y-90700000D02*
X105875000Y-82875000D01*
X105375000Y-67500000D02*
X105375000Y-71250000D01*
X103575000Y-73050000D02*
X103125000Y-73050000D01*
X108625000Y-66000000D02*
X106875000Y-66000000D01*
X105375000Y-71250000D02*
X103575000Y-73050000D01*
X106875000Y-66000000D02*
X105375000Y-67500000D01*
X101750000Y-78750000D02*
X101750000Y-75000000D01*
X103875000Y-92700000D02*
X105875000Y-90700000D01*
X103875000Y-92800000D02*
X103875000Y-92700000D01*
X101750000Y-75000000D02*
X103125000Y-73625000D01*
X103125000Y-73625000D02*
X103125000Y-73050000D01*
X256590999Y-125044001D02*
X258375000Y-123260000D01*
X256590999Y-134365999D02*
X256590999Y-125044001D01*
X260125000Y-137900000D02*
X256590999Y-134365999D01*
X109550000Y-146150000D02*
X109550000Y-145350000D01*
X109550000Y-145350000D02*
X108500000Y-145350000D01*
X110510000Y-147110000D02*
X109550000Y-146150000D01*
X110510000Y-147750000D02*
X110510000Y-147110000D01*
X108400000Y-145250000D02*
X108500000Y-145350000D01*
X106150000Y-178100000D02*
X106150000Y-180000000D01*
X86150000Y-182050000D02*
X86050000Y-182150000D01*
X86050000Y-182150000D02*
X86050000Y-189350000D01*
X86350000Y-189650000D02*
X86350000Y-199450000D01*
X86350000Y-199450000D02*
X86900000Y-200000000D01*
X86050000Y-189350000D02*
X86350000Y-189650000D01*
X71400000Y-200000000D02*
X70015000Y-200000000D01*
X70015000Y-200000000D02*
X69765000Y-199750000D01*
X112400000Y-144250000D02*
X112150000Y-144000000D01*
X115000000Y-151950000D02*
X113900000Y-151950000D01*
X113900000Y-135250000D02*
X116450000Y-135250000D01*
X117400000Y-154050000D02*
X117100000Y-154050000D01*
X112400000Y-147500000D02*
X112400000Y-144250000D01*
X117150000Y-155250000D02*
X117150000Y-154300000D01*
X116450000Y-135250000D02*
X117650000Y-134050000D01*
X113510000Y-151560000D02*
X113510000Y-148610000D01*
X113400000Y-139350000D02*
X113400000Y-135750000D01*
X113510000Y-148610000D02*
X112400000Y-147500000D01*
X112150000Y-140600000D02*
X113400000Y-139350000D01*
X113400000Y-135750000D02*
X113900000Y-135250000D01*
X112150000Y-144000000D02*
X112150000Y-140600000D01*
X117100000Y-154050000D02*
X115000000Y-151950000D01*
X117150000Y-154300000D02*
X117400000Y-154050000D01*
X113900000Y-151950000D02*
X113510000Y-151560000D01*
X133650000Y-141000000D02*
X133650000Y-134200000D01*
X136650000Y-151950000D02*
X136150000Y-151450000D01*
X136650000Y-151950000D02*
X136650000Y-152050000D01*
X136150000Y-143500000D02*
X133650000Y-141000000D01*
X134650000Y-155250000D02*
X134650000Y-154050000D01*
X136650000Y-152050000D02*
X134650000Y-154050000D01*
X136150000Y-151450000D02*
X136150000Y-143500000D01*
X152150000Y-144450000D02*
X152150000Y-130800000D01*
X155150000Y-159500000D02*
X155450690Y-159199310D01*
X156650000Y-149750000D02*
X156650000Y-149050000D01*
X156650000Y-149050000D02*
X156650000Y-148950000D01*
X155449865Y-153813739D02*
X155449865Y-150950135D01*
X156650000Y-148950000D02*
X154650000Y-146950000D01*
X155450690Y-154949310D02*
X155449865Y-153813739D01*
X152150000Y-130800000D02*
X153900000Y-129050000D01*
X154650000Y-146950000D02*
X152150000Y-144450000D01*
X155449865Y-150950135D02*
X156650000Y-149750000D01*
X155450690Y-159199310D02*
X155450690Y-154949310D01*
X181650000Y-158950000D02*
X179650000Y-156950000D01*
X179650000Y-156950000D02*
X179650000Y-156250000D01*
X177900000Y-154500000D02*
X176900000Y-153500000D01*
X177900000Y-164000000D02*
X177900000Y-154500000D01*
X176900000Y-153500000D02*
X176900000Y-141550000D01*
X176900000Y-141550000D02*
X179150000Y-139300000D01*
X179650000Y-156250000D02*
X177900000Y-154500000D01*
X181650000Y-159050000D02*
X181650000Y-158950000D01*
X198950000Y-149200000D02*
X199150000Y-149200000D01*
X197150000Y-165900000D02*
X197150000Y-151000000D01*
X198900000Y-167400000D02*
X198650000Y-167400000D01*
X197150000Y-151000000D02*
X198950000Y-149200000D01*
X198650000Y-167400000D02*
X197150000Y-165900000D01*
X201000000Y-169500000D02*
X198900000Y-167400000D01*
X217650000Y-166700000D02*
X217650000Y-166800000D01*
X219150000Y-182000000D02*
X219096461Y-182000000D01*
X215150000Y-150500000D02*
X216530000Y-149120000D01*
X219096461Y-182000000D02*
X218650000Y-181553539D01*
X217650000Y-166700000D02*
X215150000Y-164200000D01*
X218650000Y-181553539D02*
X218650000Y-170750000D01*
X218650000Y-170750000D02*
X219650000Y-169750000D01*
X215150000Y-164200000D02*
X215150000Y-150500000D01*
X219650000Y-169750000D02*
X219650000Y-168800000D01*
X217650000Y-166800000D02*
X219650000Y-168800000D01*
X216530000Y-149120000D02*
X216900000Y-149120000D01*
X62405000Y-121005000D02*
X63650000Y-122250000D01*
X77180000Y-127530000D02*
X84610000Y-127530000D01*
X62405000Y-117750000D02*
X62405000Y-121005000D01*
X71900000Y-122250000D02*
X77180000Y-127530000D01*
X63650000Y-122250000D02*
X71900000Y-122250000D01*
X75276396Y-124990000D02*
X76140000Y-124990000D01*
X76160000Y-124990000D02*
X84610000Y-124990000D01*
X65405000Y-118005000D02*
X65405000Y-117750000D01*
X75276396Y-124990000D02*
X70036396Y-119750000D01*
X70036396Y-119750000D02*
X67150000Y-119750000D01*
X76150000Y-125000000D02*
X76160000Y-124990000D01*
X76150000Y-125000000D02*
X76140000Y-124990000D01*
X67150000Y-119750000D02*
X65405000Y-118005000D01*
X270385000Y-77750000D02*
X270625000Y-77750000D01*
X268500000Y-71500000D02*
X270385000Y-73385000D01*
X270385000Y-73385000D02*
X270385000Y-77750000D01*
X267125000Y-71500000D02*
X268500000Y-71500000D01*
X108750000Y-139600000D02*
X108650000Y-139500000D01*
X109690000Y-139600000D02*
X109690000Y-137120000D01*
X109690000Y-137120000D02*
X109620000Y-137050000D01*
X109690000Y-139600000D02*
X108750000Y-139600000D01*
X253885000Y-87000000D02*
X253885000Y-85510000D01*
X253885000Y-94260000D02*
X253885000Y-87000000D01*
X257875000Y-95750000D02*
X270375000Y-95750000D01*
X255375000Y-95750000D02*
X253885000Y-94260000D01*
X253885000Y-85510000D02*
X253875000Y-85500000D01*
X257875000Y-95750000D02*
X255375000Y-95750000D01*
X109620000Y-134500000D02*
X108650000Y-134500000D01*
X109640000Y-132990000D02*
X109640000Y-134420000D01*
X109640000Y-132050000D02*
X109640000Y-132990000D01*
X109640000Y-134420000D02*
X109670000Y-134450000D01*
X109670000Y-134450000D02*
X109620000Y-134500000D01*
X116650000Y-133000000D02*
X118150000Y-133000000D01*
X118150000Y-133000000D02*
X119000000Y-132150000D01*
X119000000Y-132150000D02*
X119000000Y-128900000D01*
X110710000Y-139600000D02*
X112300000Y-139600000D01*
X113713604Y-134800000D02*
X114850000Y-134800000D01*
X106150000Y-182886396D02*
X106150000Y-190050000D01*
X125900000Y-130000000D02*
X126900000Y-129000000D01*
X114850000Y-134800000D02*
X116650000Y-133000000D01*
X104950000Y-169050000D02*
X104950000Y-181686396D01*
X104900000Y-169000000D02*
X104950000Y-169050000D01*
X104950000Y-181686396D02*
X106150000Y-182886396D01*
X112300000Y-139600000D02*
X112950000Y-138950000D01*
X124900000Y-168000000D02*
X125900000Y-167000000D01*
X112950000Y-138950000D02*
X112950000Y-135563604D01*
X125900000Y-167000000D02*
X125900000Y-130000000D01*
X112950000Y-135563604D02*
X113713604Y-134800000D01*
X106150000Y-190050000D02*
X110000000Y-193900000D01*
X242990000Y-101635000D02*
X244350000Y-101635000D01*
X232875000Y-82250000D02*
X232875000Y-101000000D01*
X241875000Y-104250000D02*
X242625000Y-103500000D01*
X232875000Y-101000000D02*
X236125000Y-104250000D01*
X248355000Y-100500000D02*
X247220000Y-101635000D01*
X247220000Y-101635000D02*
X244350000Y-101635000D01*
X236125000Y-104250000D02*
X241875000Y-104250000D01*
X242625000Y-103500000D02*
X242625000Y-102000000D01*
X233375000Y-81750000D02*
X232875000Y-82250000D01*
X242625000Y-102000000D02*
X242990000Y-101635000D01*
X252375000Y-81500000D02*
X250825000Y-79950000D01*
X250825000Y-73050000D02*
X251232629Y-72732675D01*
X252855000Y-85500000D02*
X252855000Y-84270000D01*
X252895000Y-82770000D02*
X252855000Y-82770000D01*
X251232629Y-72732675D02*
X251125000Y-72750000D01*
X252855000Y-82770000D02*
X252855000Y-81560000D01*
X250825000Y-79950000D02*
X250825000Y-73050000D01*
X252915000Y-81500000D02*
X252375000Y-81500000D01*
X252855000Y-81560000D02*
X252915000Y-81500000D01*
X252855000Y-84270000D02*
X252855000Y-82770000D01*
X265795000Y-72000000D02*
X266315000Y-72520000D01*
X267125000Y-87500000D02*
X267125000Y-72520000D01*
X269397792Y-67750000D02*
X265795000Y-71352792D01*
X259605000Y-89250000D02*
X265375000Y-89250000D01*
X266315000Y-72520000D02*
X267125000Y-72520000D01*
X265795000Y-71352792D02*
X265795000Y-72000000D01*
X271125000Y-67750000D02*
X269397792Y-67750000D01*
X265375000Y-89250000D02*
X267125000Y-87500000D01*
X76710000Y-160950000D02*
X77850000Y-160950000D01*
X76600000Y-140350000D02*
X76720000Y-140230000D01*
X77850000Y-160950000D02*
X77900000Y-161000000D01*
X248286396Y-93550000D02*
X245550000Y-93550000D01*
X237625000Y-129500000D02*
X236625000Y-129500000D01*
X148875000Y-67935000D02*
X147640000Y-66700000D01*
X217875000Y-111000000D02*
X219875000Y-109000000D01*
X231625000Y-128250000D02*
X227125000Y-123750000D01*
X109825000Y-92500000D02*
X109875000Y-92500000D01*
X129375000Y-87750000D02*
X129375000Y-78750000D01*
X195375000Y-73000000D02*
X195375000Y-63750000D01*
X250450000Y-95850000D02*
X250800000Y-95500000D01*
X215875000Y-39750000D02*
X214775000Y-40850000D01*
X219875000Y-109000000D02*
X219875000Y-107000000D01*
X192040000Y-79085000D02*
X193625000Y-77500000D01*
X130270000Y-102600000D02*
X130270000Y-101355000D01*
X213875000Y-42000000D02*
X213575000Y-41700000D01*
X110375000Y-94250000D02*
X111125000Y-94250000D01*
X215125000Y-106000000D02*
X215125000Y-107500000D01*
X192640000Y-81700000D02*
X192040000Y-81700000D01*
X241138604Y-126250000D02*
X239375000Y-126250000D01*
X152475000Y-98150000D02*
X152475000Y-94583686D01*
X110068198Y-94556802D02*
X111275000Y-95763604D01*
X173875000Y-77250000D02*
X173875000Y-84500000D01*
X209560000Y-79565000D02*
X209075000Y-80050000D01*
X170002208Y-85350000D02*
X172247792Y-85350000D01*
X177575000Y-35200000D02*
X173540000Y-35200000D01*
X192825000Y-41700000D02*
X192040000Y-41700000D01*
X208575000Y-91777208D02*
X210002208Y-90350000D01*
X193375000Y-58810000D02*
X193375000Y-42250000D01*
X237625000Y-129500000D02*
X245625000Y-129500000D01*
X152352208Y-86700000D02*
X154002208Y-88350000D01*
X109325000Y-92000000D02*
X109825000Y-92500000D01*
X216355000Y-77730000D02*
X216375000Y-77710000D01*
X148625000Y-85115000D02*
X148625000Y-82480000D01*
X168875000Y-52480000D02*
X172040000Y-55645000D01*
X148625000Y-82480000D02*
X147855000Y-82480000D01*
X148875000Y-47000000D02*
X148575000Y-46700000D01*
X214775000Y-44150000D02*
X215472151Y-44813969D01*
X248996396Y-94260000D02*
X248286396Y-93550000D01*
X192040000Y-79085000D02*
X192040000Y-76335000D01*
X220790000Y-104825000D02*
X219855000Y-103890000D01*
X142002208Y-98350000D02*
X145002208Y-95350000D01*
X258625000Y-48250000D02*
X257875000Y-49000000D01*
X207002208Y-93350000D02*
X195375000Y-93350000D01*
X111747792Y-108350000D02*
X122002208Y-108350000D01*
X192040000Y-60145000D02*
X191885000Y-59990000D01*
X192040000Y-61700000D02*
X192040000Y-60145000D01*
X218475000Y-63000000D02*
X218475000Y-77500000D01*
X147855000Y-82480000D02*
X147625000Y-82250000D01*
X127040000Y-94065000D02*
X127040000Y-90085000D01*
X208575000Y-81436396D02*
X208575000Y-91777208D01*
X109000000Y-75125000D02*
X110875000Y-73250000D01*
X238125000Y-129000000D02*
X237625000Y-129500000D01*
X209075000Y-80050000D02*
X209075000Y-80936396D01*
X177925000Y-35550000D02*
X177575000Y-35200000D01*
X110068198Y-94556802D02*
X110375000Y-94250000D01*
X152275000Y-98350000D02*
X152475000Y-98150000D01*
X209910000Y-58215000D02*
X208875000Y-57180000D01*
X213175000Y-44700000D02*
X213875000Y-44000000D01*
X213625000Y-118750000D02*
X217625000Y-118750000D01*
X109725000Y-76700000D02*
X110825000Y-77800000D01*
X110875000Y-57750000D02*
X109825000Y-56700000D01*
X173540000Y-35200000D02*
X172040000Y-36700000D01*
X109125000Y-75250000D02*
X109000000Y-75125000D01*
X130270000Y-101355000D02*
X131075000Y-100550000D01*
X239375000Y-126250000D02*
X238125000Y-127500000D01*
X152475000Y-94583686D02*
X150375000Y-92483686D01*
X238125000Y-127500000D02*
X238125000Y-129000000D01*
X227125000Y-123750000D02*
X223250000Y-123750000D01*
X109875000Y-92500000D02*
X109325000Y-93050000D01*
X242125000Y-116700000D02*
X243425000Y-118000000D01*
X243100000Y-43000000D02*
X244730000Y-41370000D01*
X147247792Y-95350000D02*
X150247792Y-98350000D01*
X148875000Y-67935000D02*
X148875000Y-47000000D01*
X246015000Y-41370000D02*
X245995000Y-41370000D01*
X191885000Y-59990000D02*
X189125000Y-57230000D01*
X208875000Y-53250000D02*
X208875000Y-45500000D01*
X178125000Y-57500000D02*
X178000000Y-57375000D01*
X193325000Y-61700000D02*
X192040000Y-61700000D01*
X264125000Y-127250000D02*
X263600000Y-126725000D01*
X193625000Y-91600000D02*
X193625000Y-89250000D01*
X193625000Y-89250000D02*
X193625000Y-82685000D01*
X172040000Y-73835000D02*
X173625000Y-72250000D01*
X127040000Y-76700000D02*
X127040000Y-75375000D01*
X195375000Y-93350000D02*
X193625000Y-91600000D01*
X249450000Y-95850000D02*
X250450000Y-95850000D01*
X147040000Y-86700000D02*
X148625000Y-85115000D01*
X109125000Y-76700000D02*
X109125000Y-75250000D01*
X223250000Y-123750000D02*
X219750000Y-120250000D01*
X213325000Y-118450000D02*
X213625000Y-118750000D01*
X127497792Y-105350000D02*
X130497792Y-108350000D01*
X132475000Y-104805000D02*
X130270000Y-102600000D01*
X210002208Y-90350000D02*
X212247792Y-90350000D01*
X109125000Y-76700000D02*
X109725000Y-76700000D01*
X241040000Y-114955000D02*
X242765000Y-113230000D01*
X133752208Y-98350000D02*
X142002208Y-98350000D01*
X217875000Y-119625000D02*
X217875000Y-119000000D01*
X219750000Y-120250000D02*
X218500000Y-120250000D01*
X192040000Y-81700000D02*
X192040000Y-79085000D01*
X217875000Y-119000000D02*
X217875000Y-111000000D01*
X218475000Y-77500000D02*
X218265000Y-77710000D01*
X214775000Y-40850000D02*
X214775000Y-44150000D01*
X177325000Y-56700000D02*
X172040000Y-56700000D01*
X244375000Y-39750000D02*
X215875000Y-39750000D01*
X109040000Y-96700000D02*
X109040000Y-95148029D01*
X109325000Y-89936396D02*
X109325000Y-92000000D01*
X213875000Y-77730000D02*
X216355000Y-77730000D01*
X193375000Y-42250000D02*
X192825000Y-41700000D01*
X236625000Y-129500000D02*
X235375000Y-128250000D01*
X195375000Y-63750000D02*
X193325000Y-61700000D01*
X150375000Y-91250000D02*
X150875000Y-90750000D01*
X245995000Y-41370000D02*
X244375000Y-39750000D01*
X218265000Y-77710000D02*
X216375000Y-77710000D01*
X109325000Y-93813604D02*
X110068198Y-94556802D01*
X209675000Y-44700000D02*
X213175000Y-44700000D01*
X213575000Y-41700000D02*
X212040000Y-41700000D01*
X109825000Y-56700000D02*
X109040000Y-56700000D01*
X243100000Y-91100000D02*
X243100000Y-43000000D01*
X111275000Y-95763604D02*
X111275000Y-107877208D01*
X193625000Y-82685000D02*
X192640000Y-81700000D01*
X172247792Y-85350000D02*
X172636396Y-85738604D01*
X110825000Y-77800000D02*
X110825000Y-88436396D01*
X212247792Y-90350000D02*
X213775000Y-91877208D01*
X132325000Y-96700000D02*
X127040000Y-96700000D01*
X193625000Y-77500000D02*
X196125000Y-77500000D01*
X261125000Y-123250000D02*
X261115000Y-123260000D01*
X127040000Y-90085000D02*
X129375000Y-87750000D01*
X243425000Y-118000000D02*
X243425000Y-123963604D01*
X212040000Y-61700000D02*
X212040000Y-60345000D01*
X213775000Y-91877208D02*
X213775000Y-104650000D01*
X178000000Y-57375000D02*
X177325000Y-56700000D01*
X111275000Y-107877208D02*
X111747792Y-108350000D01*
X131075000Y-100550000D02*
X131552208Y-100550000D01*
X178125000Y-70750000D02*
X178125000Y-57500000D01*
X176105000Y-72250000D02*
X176125000Y-72230000D01*
X175247792Y-88350000D02*
X184975000Y-88350000D01*
X176645000Y-72230000D02*
X178125000Y-70750000D01*
X250800000Y-94260000D02*
X248996396Y-94260000D01*
X109040000Y-95148029D02*
X108211606Y-94319635D01*
X209075000Y-80936396D02*
X208575000Y-81436396D01*
X235375000Y-128250000D02*
X231625000Y-128250000D01*
X185060821Y-88550752D02*
X185125000Y-88500000D01*
X209910000Y-54285000D02*
X208875000Y-53250000D01*
X127040000Y-75375000D02*
X123875000Y-72210000D01*
X220175000Y-106700000D02*
X220790000Y-106700000D01*
X215125000Y-107500000D02*
X213325000Y-109300000D01*
X110625000Y-92500000D02*
X113125000Y-92500000D01*
X260720000Y-48250000D02*
X258625000Y-48250000D01*
X125002208Y-105350000D02*
X127497792Y-105350000D01*
X110825000Y-88436396D02*
X109325000Y-89936396D01*
X154002208Y-88350000D02*
X167002208Y-88350000D01*
X127325000Y-76700000D02*
X127040000Y-76700000D01*
X176125000Y-72230000D02*
X176645000Y-72230000D01*
X244730000Y-41370000D02*
X246015000Y-41370000D01*
X178000000Y-57375000D02*
X177925000Y-57300000D01*
X213875000Y-44000000D02*
X213875000Y-42000000D01*
X213775000Y-104650000D02*
X215125000Y-106000000D01*
X147640000Y-66700000D02*
X147040000Y-66700000D01*
X192040000Y-60145000D02*
X193375000Y-58810000D01*
X167002208Y-88350000D02*
X170002208Y-85350000D01*
X212040000Y-61700000D02*
X217175000Y-61700000D01*
X209910000Y-58215000D02*
X209910000Y-54285000D01*
X127040000Y-96700000D02*
X127040000Y-94065000D01*
X129375000Y-57500000D02*
X128575000Y-56700000D01*
X133875000Y-98250000D02*
X132325000Y-96700000D01*
X172040000Y-76700000D02*
X173325000Y-76700000D01*
X109325000Y-93050000D02*
X109325000Y-93813604D01*
X218500000Y-120250000D02*
X217875000Y-119625000D01*
X150375000Y-92483686D02*
X150375000Y-91250000D01*
X245550000Y-93550000D02*
X243100000Y-91100000D01*
X243425000Y-123963604D02*
X241138604Y-126250000D01*
X250800000Y-95500000D02*
X250800000Y-94260000D01*
X150247792Y-98350000D02*
X152275000Y-98350000D01*
X241040000Y-116700000D02*
X242125000Y-116700000D01*
X110875000Y-73250000D02*
X110875000Y-57750000D01*
X130497792Y-108350000D02*
X132002208Y-108350000D01*
X145002208Y-95350000D02*
X147247792Y-95350000D01*
X217175000Y-61700000D02*
X218475000Y-63000000D01*
X147040000Y-65285000D02*
X143985000Y-62230000D01*
X131552208Y-100550000D02*
X133752208Y-98350000D01*
X208575000Y-91777208D02*
X207002208Y-93350000D01*
X147040000Y-66700000D02*
X147040000Y-65285000D01*
X132002208Y-108350000D02*
X132475000Y-107877208D01*
X173625000Y-72250000D02*
X176105000Y-72250000D01*
X109000000Y-75125000D02*
X106375000Y-72500000D01*
X263600000Y-126725000D02*
X261115000Y-126725000D01*
X147040000Y-86700000D02*
X152352208Y-86700000D01*
X150875000Y-90750000D02*
X151602208Y-90750000D01*
X213325000Y-109300000D02*
X213325000Y-118450000D01*
X147625000Y-82250000D02*
X147625000Y-80750000D01*
X148575000Y-46700000D02*
X147040000Y-46700000D01*
X177925000Y-57300000D02*
X177925000Y-35550000D01*
X184975000Y-88350000D02*
X185060821Y-88550752D01*
X212040000Y-79565000D02*
X209560000Y-79565000D01*
X148625000Y-82480000D02*
X151125000Y-82480000D01*
X261115000Y-123260000D02*
X261115000Y-126725000D01*
X147625000Y-80750000D02*
X148875000Y-79500000D01*
X122002208Y-108350000D02*
X125002208Y-105350000D01*
X132475000Y-107877208D02*
X132475000Y-104805000D01*
X212040000Y-60345000D02*
X209910000Y-58215000D01*
X173325000Y-76700000D02*
X173875000Y-77250000D01*
X241040000Y-116700000D02*
X241040000Y-114955000D01*
X215472151Y-44813969D02*
X215375000Y-44750000D01*
X129375000Y-78750000D02*
X127325000Y-76700000D01*
X148875000Y-79500000D02*
X148875000Y-67935000D01*
X212040000Y-81700000D02*
X212040000Y-79565000D01*
X151602208Y-90750000D02*
X154002208Y-88350000D01*
X129375000Y-78750000D02*
X129375000Y-57500000D01*
X212040000Y-79565000D02*
X213875000Y-77730000D01*
X172636396Y-85738604D02*
X175247792Y-88350000D01*
X110625000Y-92500000D02*
X109875000Y-92500000D01*
X128575000Y-56700000D02*
X127040000Y-56700000D01*
X172040000Y-76700000D02*
X172040000Y-73835000D01*
X192040000Y-76335000D02*
X195375000Y-73000000D01*
X219875000Y-107000000D02*
X220175000Y-106700000D01*
X217625000Y-118750000D02*
X217875000Y-119000000D01*
X173875000Y-84500000D02*
X172636396Y-85738604D01*
X172040000Y-55645000D02*
X172040000Y-56700000D01*
X127040000Y-94065000D02*
X128625000Y-92480000D01*
X220790000Y-106700000D02*
X220790000Y-104825000D01*
X208875000Y-45500000D02*
X209675000Y-44700000D01*
X128625000Y-92480000D02*
X131125000Y-92480000D01*
X70915000Y-202800000D02*
X72650000Y-201065000D01*
X161500000Y-148250000D02*
X161492391Y-148250000D01*
X138027208Y-166350000D02*
X139150000Y-166350000D01*
X143650000Y-169350000D02*
X145050000Y-169350000D01*
X142150000Y-159250000D02*
X140700000Y-157800000D01*
X159915000Y-152800000D02*
X159915000Y-149835000D01*
X110915000Y-182800000D02*
X110915000Y-180265000D01*
X140272792Y-166350000D02*
X142150000Y-164472792D01*
X122050000Y-167877208D02*
X122050000Y-168500000D01*
X135027208Y-169350000D02*
X137763604Y-166613604D01*
X113063604Y-182800000D02*
X110915000Y-182800000D01*
X165900000Y-147250000D02*
X165900000Y-134000000D01*
X223200000Y-172800000D02*
X222915000Y-172800000D01*
X198844550Y-175750000D02*
X198900000Y-175750000D01*
X139915000Y-157800000D02*
X139915000Y-154757164D01*
X157513604Y-161863604D02*
X158027208Y-161350000D01*
X187150000Y-123750000D02*
X186200000Y-122800000D01*
X185000000Y-141350000D02*
X182400000Y-138750000D01*
X145050000Y-169350000D02*
X145250000Y-169150000D01*
X141900000Y-119185000D02*
X140515000Y-117800000D01*
X218400000Y-148000000D02*
X218950000Y-148550000D01*
X207150000Y-175750000D02*
X207400000Y-175500000D01*
X215400000Y-149445000D02*
X215400000Y-148750000D01*
X134900000Y-169350000D02*
X135027208Y-169350000D01*
X121539501Y-138639501D02*
X121539501Y-150246895D01*
X145250000Y-165877208D02*
X146388604Y-164738604D01*
X141900000Y-138500000D02*
X141200000Y-137800000D01*
X206650000Y-164000000D02*
X206650000Y-153500000D01*
X223950000Y-132800000D02*
X222915000Y-132800000D01*
X224650000Y-149580000D02*
X224650000Y-133500000D01*
X119915000Y-134275000D02*
X120760000Y-133430000D01*
X222915000Y-151315000D02*
X220150000Y-148550000D01*
X121650000Y-164750000D02*
X121650000Y-158935000D01*
X113400000Y-195250000D02*
X113400000Y-183136396D01*
X86800000Y-198500000D02*
X86800000Y-191250000D01*
X187400000Y-173227208D02*
X188522792Y-174350000D01*
X202657609Y-148630000D02*
X202650000Y-148630000D01*
X206650000Y-133250000D02*
X206650000Y-144637609D01*
X206300000Y-168730000D02*
X208900000Y-168730000D01*
X93350000Y-184950000D02*
X93350000Y-186650000D01*
X185000000Y-142750000D02*
X185650000Y-142750000D01*
X72650000Y-201065000D02*
X72650000Y-199500000D01*
X121720000Y-133430000D02*
X120760000Y-133430000D01*
X120700000Y-137800000D02*
X121539501Y-138639501D01*
X185650000Y-142750000D02*
X186400000Y-143500000D01*
X155027208Y-164350000D02*
X155138604Y-164238604D01*
X204915000Y-169015000D02*
X204400000Y-168500000D01*
X140272792Y-166350000D02*
X140411396Y-166488604D01*
X141300000Y-153372164D02*
X143900000Y-153372164D01*
X139915000Y-153065000D02*
X136600000Y-149750000D01*
X225400000Y-175000000D02*
X223200000Y-172800000D01*
X120115000Y-117800000D02*
X120950000Y-117800000D01*
X223300000Y-181350000D02*
X225400000Y-179250000D01*
X187400000Y-165500000D02*
X187400000Y-173227208D01*
X122539466Y-119263937D02*
X122400000Y-132750000D01*
X204915000Y-170115000D02*
X204915000Y-169015000D01*
X147900000Y-164350000D02*
X155027208Y-164350000D01*
X165900000Y-134000000D02*
X165725901Y-133825901D01*
X122400000Y-132750000D02*
X121720000Y-133430000D01*
X176900000Y-165000000D02*
X177900000Y-165000000D01*
X184915000Y-157235000D02*
X184915000Y-160065000D01*
X89200000Y-188100000D02*
X88720000Y-188580000D01*
X88700000Y-189350000D02*
X88720000Y-189350000D01*
X142150000Y-164472792D02*
X142150000Y-159250000D01*
X158027208Y-161350000D02*
X159150000Y-161350000D01*
X143272792Y-169350000D02*
X143650000Y-169350000D01*
X110900000Y-180250000D02*
X115750000Y-180250000D01*
X73586396Y-204800000D02*
X86213604Y-204800000D01*
X93213604Y-194427208D02*
X93213604Y-200063604D01*
X222915000Y-169055000D02*
X224050000Y-167920000D01*
X112800000Y-195850000D02*
X113400000Y-195250000D01*
X121250000Y-153540000D02*
X123610000Y-153540000D01*
X141900000Y-138500000D02*
X141900000Y-119185000D01*
X120661396Y-166488604D02*
X122050000Y-167877208D01*
X122522792Y-169350000D02*
X126400000Y-169350000D01*
X91586396Y-192800000D02*
X93213604Y-194427208D01*
X120050000Y-166350000D02*
X120522792Y-166350000D01*
X207150000Y-175750000D02*
X207150000Y-183227208D01*
X222915000Y-152800000D02*
X222915000Y-151315000D01*
X204915000Y-152800000D02*
X204915000Y-150895000D01*
X207400000Y-173500000D02*
X206700000Y-172800000D01*
X184915000Y-162800000D02*
X184915000Y-160065000D01*
X221027208Y-181350000D02*
X223300000Y-181350000D01*
X86800000Y-191250000D02*
X88700000Y-189350000D01*
X159915000Y-149835000D02*
X161500000Y-148250000D01*
X146388604Y-164738604D02*
X146777208Y-164350000D01*
X119600000Y-154050000D02*
X120110000Y-153540000D01*
X123610000Y-153540000D02*
X123650000Y-153500000D01*
X119915000Y-137800000D02*
X119915000Y-134275000D01*
X140411396Y-166488604D02*
X143272792Y-169350000D01*
X120110000Y-153540000D02*
X121250000Y-153540000D01*
X215400000Y-148750000D02*
X216150000Y-148000000D01*
X185000000Y-142750000D02*
X185000000Y-141350000D01*
X210356396Y-168730000D02*
X214700000Y-164386396D01*
X165725901Y-133825901D02*
X165725901Y-114075109D01*
X119600000Y-157485000D02*
X119600000Y-154050000D01*
X206700000Y-172800000D02*
X204915000Y-172800000D01*
X140700000Y-157800000D02*
X139915000Y-157800000D01*
X137650000Y-140750000D02*
X140900000Y-140750000D01*
X93350000Y-186650000D02*
X91900000Y-188100000D01*
X160272792Y-161350000D02*
X161900000Y-159722792D01*
X88581802Y-200281802D02*
X86800000Y-198500000D01*
X164700000Y-132800000D02*
X159915000Y-132800000D01*
X208272792Y-184350000D02*
X218027208Y-184350000D01*
X196022792Y-174350000D02*
X197422792Y-175750000D01*
X185000000Y-142750000D02*
X187150000Y-140600000D01*
X145250000Y-169150000D02*
X145250000Y-166750000D01*
X214700000Y-150145000D02*
X215400000Y-149445000D01*
X122050000Y-168877208D02*
X122522792Y-169350000D01*
X206650000Y-144637609D02*
X202657609Y-148630000D01*
X92250000Y-184950000D02*
X93350000Y-184950000D01*
X204915000Y-150895000D02*
X202650000Y-148630000D01*
X218027208Y-184350000D02*
X221027208Y-181350000D01*
X69405000Y-117750000D02*
X78650000Y-117750000D01*
X86213604Y-204800000D02*
X88581802Y-202431802D01*
X122050000Y-168500000D02*
X122050000Y-168877208D01*
X93213604Y-200063604D02*
X95450000Y-202300000D01*
X90915000Y-192800000D02*
X91586396Y-192800000D01*
X119915000Y-157800000D02*
X119600000Y-157485000D01*
X78650000Y-117750000D02*
X80650000Y-115750000D01*
X186400000Y-143500000D02*
X186400000Y-155750000D01*
X206200000Y-132800000D02*
X206650000Y-133250000D01*
X100770000Y-115750000D02*
X102390000Y-117370000D01*
X93350000Y-184950000D02*
X94030000Y-184950000D01*
X204915000Y-132800000D02*
X206200000Y-132800000D01*
X208900000Y-168730000D02*
X210356396Y-168730000D01*
X136600000Y-149750000D02*
X136600000Y-141800000D01*
X126400000Y-169350000D02*
X134900000Y-169350000D01*
X155138604Y-164238604D02*
X157513604Y-161863604D01*
X226570000Y-167920000D02*
X226650000Y-168000000D01*
X159915000Y-131287164D02*
X157150000Y-128522164D01*
X141200000Y-137800000D02*
X139915000Y-137800000D01*
X184915000Y-160065000D02*
X186500000Y-158480000D01*
X186700000Y-162800000D02*
X184915000Y-162800000D01*
X119600000Y-152186396D02*
X119600000Y-154000000D01*
X137763604Y-166613604D02*
X138027208Y-166350000D01*
X204915000Y-172800000D02*
X204915000Y-170115000D01*
X94030000Y-184950000D02*
X94200000Y-185120000D01*
X160700000Y-152800000D02*
X159915000Y-152800000D01*
X222915000Y-172800000D02*
X222915000Y-169055000D01*
X116450000Y-179550000D02*
X116450000Y-167927208D01*
X139150000Y-166350000D02*
X140272792Y-166350000D01*
X160272792Y-161350000D02*
X163272792Y-164350000D01*
X187400000Y-163500000D02*
X186700000Y-162800000D01*
X90915000Y-192800000D02*
X88720000Y-190605000D01*
X225400000Y-179250000D02*
X225400000Y-175000000D01*
X204400000Y-166250000D02*
X206650000Y-164000000D01*
X204400000Y-168500000D02*
X204400000Y-166250000D01*
X70915000Y-202800000D02*
X71586396Y-202800000D01*
X218950000Y-148550000D02*
X220150000Y-148550000D01*
X88581802Y-202431802D02*
X88581802Y-200281802D01*
X101213604Y-202300000D02*
X107663604Y-195850000D01*
X139915000Y-154757164D02*
X141300000Y-153372164D01*
X207150000Y-183227208D02*
X208272792Y-184350000D01*
X91900000Y-188100000D02*
X89200000Y-188100000D01*
X204915000Y-170115000D02*
X206300000Y-168730000D01*
X186400000Y-155750000D02*
X184915000Y-157235000D01*
X122400000Y-119250000D02*
X122539466Y-119263937D01*
X71586396Y-202800000D02*
X73586396Y-204800000D01*
X163272792Y-164350000D02*
X176250000Y-164350000D01*
X113400000Y-183136396D02*
X113063604Y-182800000D01*
X110915000Y-180265000D02*
X110900000Y-180250000D01*
X88720000Y-190605000D02*
X88720000Y-189350000D01*
X164900000Y-148250000D02*
X165900000Y-147250000D01*
X95450000Y-202300000D02*
X101213604Y-202300000D01*
X140515000Y-117800000D02*
X139915000Y-117800000D01*
X116450000Y-167927208D02*
X118027208Y-166350000D01*
X205950000Y-152800000D02*
X204915000Y-152800000D01*
X141900000Y-139750000D02*
X141900000Y-138500000D01*
X118027208Y-166350000D02*
X120050000Y-166350000D01*
X120515000Y-157800000D02*
X119915000Y-157800000D01*
X197422792Y-175750000D02*
X198844550Y-175750000D01*
X159915000Y-132800000D02*
X159915000Y-131287164D01*
X121539501Y-150246895D02*
X119600000Y-152186396D01*
X88720000Y-188580000D02*
X88720000Y-189350000D01*
X222915000Y-151315000D02*
X224650000Y-149580000D01*
X224050000Y-167920000D02*
X226570000Y-167920000D01*
X216150000Y-148000000D02*
X218400000Y-148000000D01*
X188522792Y-174350000D02*
X196022792Y-174350000D01*
X206650000Y-153500000D02*
X205950000Y-152800000D01*
X176250000Y-164350000D02*
X176900000Y-165000000D01*
X119915000Y-137800000D02*
X120700000Y-137800000D01*
X139915000Y-137800000D02*
X139915000Y-136645000D01*
X163900000Y-148250000D02*
X164900000Y-148250000D01*
X165725901Y-114075109D02*
X164450792Y-112800000D01*
X224650000Y-133500000D02*
X223950000Y-132800000D01*
X140900000Y-140750000D02*
X141900000Y-139750000D01*
X214700000Y-164386396D02*
X214700000Y-150145000D01*
X80650000Y-115750000D02*
X100770000Y-115750000D01*
X146777208Y-164350000D02*
X147900000Y-164350000D01*
X161900000Y-154000000D02*
X160700000Y-152800000D01*
X165900000Y-134000000D02*
X164700000Y-132800000D01*
X161900000Y-159722792D02*
X161900000Y-154000000D01*
X145250000Y-166750000D02*
X145250000Y-165877208D01*
X120950000Y-117800000D02*
X122400000Y-119250000D01*
X136600000Y-141800000D02*
X137650000Y-140750000D01*
X159150000Y-161350000D02*
X160272792Y-161350000D01*
X187400000Y-165500000D02*
X187400000Y-163500000D01*
X187150000Y-140600000D02*
X187150000Y-123750000D01*
X121650000Y-158935000D02*
X120515000Y-157800000D01*
X186500000Y-158480000D02*
X188900000Y-158480000D01*
X139915000Y-154757164D02*
X139915000Y-153065000D01*
X107663604Y-195850000D02*
X112800000Y-195850000D01*
X186200000Y-122800000D02*
X184915000Y-122800000D01*
X115750000Y-180250000D02*
X116450000Y-179550000D01*
X164450792Y-112800000D02*
X159915000Y-112800000D01*
X120522792Y-166350000D02*
X120661396Y-166488604D01*
X139915000Y-136645000D02*
X136900000Y-133630000D01*
X161500000Y-148250000D02*
X163900000Y-148250000D01*
X120050000Y-166350000D02*
X121650000Y-164750000D01*
X207400000Y-175500000D02*
X207400000Y-173500000D01*
X228950000Y-157550000D02*
X227150000Y-155750000D01*
X93900000Y-202750000D02*
X101400000Y-202750000D01*
X158213604Y-161800000D02*
X160086396Y-161800000D01*
X93650000Y-202500000D02*
X93900000Y-202750000D01*
X221213604Y-181800000D02*
X223086396Y-181800000D01*
X223086396Y-181800000D02*
X225836396Y-184550000D01*
X116900000Y-192500000D02*
X116900000Y-168113604D01*
X219900000Y-155750000D02*
X219025000Y-154875000D01*
X70915000Y-203900000D02*
X72050000Y-203900000D01*
X180213604Y-174800000D02*
X183213604Y-171800000D01*
X219450000Y-152800000D02*
X221085000Y-152800000D01*
X121600000Y-169063604D02*
X122336396Y-169800000D01*
X72050000Y-203900000D02*
X73400000Y-205250000D01*
X89900000Y-201750000D02*
X91150000Y-201750000D01*
X143086396Y-169800000D02*
X145650000Y-169800000D01*
X200213604Y-184800000D02*
X203213604Y-181800000D01*
X177586396Y-174800000D02*
X180213604Y-174800000D01*
X101400000Y-202750000D02*
X107775000Y-196375000D01*
X121600000Y-168063604D02*
X121600000Y-169063604D01*
X120336396Y-166800000D02*
X121600000Y-168063604D01*
X138213604Y-166800000D02*
X140086396Y-166800000D01*
X228950000Y-183950000D02*
X228950000Y-157550000D01*
X218213604Y-184800000D02*
X221213604Y-181800000D01*
X175836396Y-164800000D02*
X177100000Y-166063604D01*
X145650000Y-169800000D02*
X145700000Y-169750000D01*
X208086396Y-184800000D02*
X218213604Y-184800000D01*
X197336396Y-184800000D02*
X200213604Y-184800000D01*
X219025000Y-154875000D02*
X219025000Y-153225000D01*
X145700000Y-169750000D02*
X145700000Y-166063604D01*
X135213604Y-169800000D02*
X138213604Y-166800000D01*
X160086396Y-161800000D02*
X163086396Y-164800000D01*
X113100000Y-196300000D02*
X116900000Y-192500000D01*
X197100000Y-184563604D02*
X197336396Y-184800000D01*
X155213604Y-164800000D02*
X158213604Y-161800000D01*
X73400000Y-205250000D02*
X86400000Y-205250000D01*
X116900000Y-168113604D02*
X118213604Y-166800000D01*
X188336396Y-174800000D02*
X195836396Y-174800000D01*
X146963604Y-164800000D02*
X155213604Y-164800000D01*
X145700000Y-166063604D02*
X146963604Y-164800000D01*
X140086396Y-166800000D02*
X143086396Y-169800000D01*
X195836396Y-174800000D02*
X197100000Y-176063604D01*
X183213604Y-171800000D02*
X185336396Y-171800000D01*
X227150000Y-155750000D02*
X219900000Y-155750000D01*
X203213604Y-181800000D02*
X205086396Y-181800000D01*
X205086396Y-181800000D02*
X208086396Y-184800000D01*
X107775000Y-196375000D02*
X107850000Y-196300000D01*
X197100000Y-176063604D02*
X197100000Y-184563604D01*
X86400000Y-205250000D02*
X89900000Y-201750000D01*
X118213604Y-166800000D02*
X120336396Y-166800000D01*
X228350000Y-184550000D02*
X228950000Y-183950000D01*
X219025000Y-153225000D02*
X219450000Y-152800000D01*
X122336396Y-169800000D02*
X135213604Y-169800000D01*
X177100000Y-166063604D02*
X177100000Y-174313604D01*
X225836396Y-184550000D02*
X228350000Y-184550000D01*
X163086396Y-164800000D02*
X175836396Y-164800000D01*
X93650000Y-201750000D02*
X93650000Y-202500000D01*
X177100000Y-174313604D02*
X177586396Y-174800000D01*
X107850000Y-196300000D02*
X113100000Y-196300000D01*
X185336396Y-171800000D02*
X188336396Y-174800000D01*
X207375000Y-94250000D02*
X210375000Y-91250000D01*
X211875000Y-91250000D02*
X212875000Y-92250000D01*
X142375000Y-99250000D02*
X145375000Y-96250000D01*
X130125000Y-109250000D02*
X132375000Y-109250000D01*
X167375000Y-89250000D02*
X170375000Y-86250000D01*
X187375000Y-94250000D02*
X190375000Y-91250000D01*
X125375000Y-106250000D02*
X127125000Y-106250000D01*
X183375000Y-89250000D02*
X183875000Y-89750000D01*
X194875000Y-94250000D02*
X207375000Y-94250000D01*
X236875000Y-116750000D02*
X239160000Y-116750000D01*
X213438604Y-119200000D02*
X216575000Y-119200000D01*
X153375000Y-98750000D02*
X153375000Y-90250000D01*
X133375000Y-108250000D02*
X133375000Y-100000000D01*
X170375000Y-86250000D02*
X171875000Y-86250000D01*
X132375000Y-109250000D02*
X133375000Y-108250000D01*
X239160000Y-116750000D02*
X239210000Y-116700000D01*
X212875000Y-92250000D02*
X212875000Y-118636396D01*
X149875000Y-99250000D02*
X152875000Y-99250000D01*
X183875000Y-89750000D02*
X183875000Y-93750000D01*
X183875000Y-93750000D02*
X184375000Y-94250000D01*
X154375000Y-89250000D02*
X167375000Y-89250000D01*
X216575000Y-119200000D02*
X217125000Y-119750000D01*
X212875000Y-118636396D02*
X213438604Y-119200000D01*
X134125000Y-99250000D02*
X142375000Y-99250000D01*
X145375000Y-96250000D02*
X146875000Y-96250000D01*
X191875000Y-91250000D02*
X194875000Y-94250000D01*
X184375000Y-94250000D02*
X187375000Y-94250000D01*
X190375000Y-91250000D02*
X191875000Y-91250000D01*
X210375000Y-91250000D02*
X211875000Y-91250000D01*
X122375000Y-109250000D02*
X125375000Y-106250000D01*
X110375000Y-99135000D02*
X110375000Y-108250000D01*
X174875000Y-89250000D02*
X183375000Y-89250000D01*
X171875000Y-86250000D02*
X174875000Y-89250000D01*
X152875000Y-99250000D02*
X153375000Y-98750000D01*
X133375000Y-100000000D02*
X134125000Y-99250000D01*
X127125000Y-106250000D02*
X130125000Y-109250000D01*
X153375000Y-90250000D02*
X154375000Y-89250000D01*
X146875000Y-96250000D02*
X149875000Y-99250000D01*
X111375000Y-109250000D02*
X122375000Y-109250000D01*
X110375000Y-108250000D02*
X111375000Y-109250000D01*
X109040000Y-97800000D02*
X110375000Y-99135000D01*
X101586396Y-203200000D02*
X108036396Y-196750000D01*
X92763604Y-202250000D02*
X93713604Y-203200000D01*
X92050000Y-193900000D02*
X92763604Y-194613604D01*
X147150000Y-165250000D02*
X155400000Y-165250000D01*
X138400000Y-167250000D02*
X139900000Y-167250000D01*
X225650000Y-185000000D02*
X228650000Y-185000000D01*
X142900000Y-170250000D02*
X145900000Y-170250000D01*
X195650000Y-175250000D02*
X196650000Y-176250000D01*
X221400000Y-182250000D02*
X222900000Y-182250000D01*
X162900000Y-165250000D02*
X175650000Y-165250000D01*
X226900000Y-131000000D02*
X222150000Y-131000000D01*
X146150000Y-170000000D02*
X146150000Y-166250000D01*
X204900000Y-182250000D02*
X207900000Y-185250000D01*
X180400000Y-175250000D02*
X183400000Y-172250000D01*
X222150000Y-131000000D02*
X221085000Y-132065000D01*
X229400000Y-184250000D02*
X229400000Y-157363604D01*
X183400000Y-172250000D02*
X185150000Y-172250000D01*
X108036396Y-196750000D02*
X113286396Y-196750000D01*
X118400000Y-167250000D02*
X120150000Y-167250000D01*
X196650000Y-184750000D02*
X197150000Y-185250000D01*
X93713604Y-203200000D02*
X101586396Y-203200000D01*
X117350000Y-168300000D02*
X118400000Y-167250000D01*
X207900000Y-185250000D02*
X218400000Y-185250000D01*
X135400000Y-170250000D02*
X138400000Y-167250000D01*
X200400000Y-185250000D02*
X203400000Y-182250000D01*
X90915000Y-193900000D02*
X92050000Y-193900000D01*
X218400000Y-185250000D02*
X221400000Y-182250000D01*
X117350000Y-192686396D02*
X117350000Y-168300000D01*
X221085000Y-132065000D02*
X221085000Y-132800000D01*
X229000000Y-133100000D02*
X226900000Y-131000000D01*
X139900000Y-167250000D02*
X142900000Y-170250000D01*
X175650000Y-165250000D02*
X176650000Y-166250000D01*
X229400000Y-157363604D02*
X229000000Y-156963604D01*
X196650000Y-176250000D02*
X196650000Y-184750000D01*
X228650000Y-185000000D02*
X229400000Y-184250000D01*
X158400000Y-162250000D02*
X159900000Y-162250000D01*
X145900000Y-170250000D02*
X146150000Y-170000000D01*
X222900000Y-182250000D02*
X225650000Y-185000000D01*
X122150000Y-170250000D02*
X135400000Y-170250000D01*
X113286396Y-196750000D02*
X117350000Y-192686396D01*
X176650000Y-166250000D02*
X176650000Y-174500000D01*
X185150000Y-172250000D02*
X188150000Y-175250000D01*
X176650000Y-174500000D02*
X177400000Y-175250000D01*
X121150000Y-169250000D02*
X122150000Y-170250000D01*
X121150000Y-168250000D02*
X121150000Y-169250000D01*
X155400000Y-165250000D02*
X158400000Y-162250000D01*
X159900000Y-162250000D02*
X162900000Y-165250000D01*
X146150000Y-166250000D02*
X147150000Y-165250000D01*
X120150000Y-167250000D02*
X121150000Y-168250000D01*
X229000000Y-156963604D02*
X229000000Y-133100000D01*
X197150000Y-185250000D02*
X200400000Y-185250000D01*
X92763604Y-194613604D02*
X92763604Y-202250000D01*
X203400000Y-182250000D02*
X204900000Y-182250000D01*
X177400000Y-175250000D02*
X180400000Y-175250000D01*
X188150000Y-175250000D02*
X195650000Y-175250000D01*
X175061396Y-88800000D02*
X172061396Y-85800000D01*
X167188604Y-88800000D02*
X154188604Y-88800000D01*
X125188604Y-105800000D02*
X122188604Y-108800000D01*
X184325000Y-89563604D02*
X183561396Y-88800000D01*
X154188604Y-88800000D02*
X152925000Y-90063604D01*
X195061396Y-93800000D02*
X192061396Y-90800000D01*
X152688604Y-98800000D02*
X150061396Y-98800000D01*
X187188604Y-93800000D02*
X184561396Y-93800000D01*
X110825000Y-108063604D02*
X110825000Y-95950000D01*
X127311396Y-105800000D02*
X125188604Y-105800000D01*
X142188604Y-98800000D02*
X133938604Y-98800000D01*
X192061396Y-90800000D02*
X190188604Y-90800000D01*
X108875000Y-94000000D02*
X108875000Y-89750000D01*
X152925000Y-90063604D02*
X152925000Y-98563604D01*
X210188604Y-90800000D02*
X207188604Y-93800000D01*
X150061396Y-98800000D02*
X147061396Y-95800000D01*
X111561396Y-108800000D02*
X110825000Y-108063604D01*
X132925000Y-108063604D02*
X132188604Y-108800000D01*
X190188604Y-90800000D02*
X187188604Y-93800000D01*
X110375000Y-88250000D02*
X110375000Y-80750000D01*
X108875000Y-89750000D02*
X110375000Y-88250000D01*
X132188604Y-108800000D02*
X130311396Y-108800000D01*
X145188604Y-95800000D02*
X142188604Y-98800000D01*
X218960000Y-106700000D02*
X217075000Y-106700000D01*
X183561396Y-88800000D02*
X175061396Y-88800000D01*
X172061396Y-85800000D02*
X170188604Y-85800000D01*
X207188604Y-93800000D02*
X195061396Y-93800000D01*
X109125000Y-79500000D02*
X109125000Y-77800000D01*
X110825000Y-95950000D02*
X108875000Y-94000000D01*
X147061396Y-95800000D02*
X145188604Y-95800000D01*
X217075000Y-106700000D02*
X216875000Y-106500000D01*
X184325000Y-93563604D02*
X184325000Y-89563604D01*
X152925000Y-98563604D02*
X152688604Y-98800000D01*
X170188604Y-85800000D02*
X167188604Y-88800000D01*
X132925000Y-99813604D02*
X132925000Y-108063604D01*
X213325000Y-105700000D02*
X213325000Y-92063604D01*
X213325000Y-92063604D02*
X212061396Y-90800000D01*
X122188604Y-108800000D02*
X111561396Y-108800000D01*
X130311396Y-108800000D02*
X127311396Y-105800000D01*
X212061396Y-90800000D02*
X210188604Y-90800000D01*
X110375000Y-80750000D02*
X109125000Y-79500000D01*
X133938604Y-98800000D02*
X132925000Y-99813604D01*
X214125000Y-106500000D02*
X213325000Y-105700000D01*
X184561396Y-93800000D02*
X184325000Y-93563604D01*
X172040000Y-57800000D02*
X172040000Y-59415000D01*
X142778295Y-66494323D02*
X142875000Y-66500000D01*
X172040000Y-59415000D02*
X172125000Y-59500000D01*
X122625000Y-76750000D02*
X122675000Y-76700000D01*
X125210000Y-76700000D02*
X122675000Y-76700000D01*
X146875000Y-69500000D02*
X146875000Y-67965000D01*
X146875000Y-67965000D02*
X147040000Y-67800000D01*
X107210000Y-55915000D02*
X108375000Y-54750000D01*
X126375000Y-59500000D02*
X127040000Y-58835000D01*
X108375000Y-54750000D02*
X119125000Y-54750000D01*
X119125000Y-54750000D02*
X123875000Y-59500000D01*
X123875000Y-59500000D02*
X126375000Y-59500000D01*
X127040000Y-58835000D02*
X127040000Y-57800000D01*
X107210000Y-56700000D02*
X107210000Y-55915000D01*
X125210000Y-56700000D02*
X125210000Y-55915000D01*
X138375000Y-54750000D02*
X138875000Y-54250000D01*
X146125000Y-49500000D02*
X147040000Y-48585000D01*
X138875000Y-54250000D02*
X138875000Y-50250000D01*
X147040000Y-48585000D02*
X147040000Y-47800000D01*
X125210000Y-55915000D02*
X126375000Y-54750000D01*
X126375000Y-54750000D02*
X138375000Y-54750000D01*
X138875000Y-50250000D02*
X139625000Y-49500000D01*
X139625000Y-49500000D02*
X146125000Y-49500000D01*
X171375000Y-39250000D02*
X172040000Y-38585000D01*
X163875000Y-44500000D02*
X163875000Y-41000000D01*
X163625000Y-44750000D02*
X163875000Y-44500000D01*
X145210000Y-46700000D02*
X145210000Y-45665000D01*
X145210000Y-45665000D02*
X146125000Y-44750000D01*
X172040000Y-38585000D02*
X172040000Y-37800000D01*
X165625000Y-39250000D02*
X171375000Y-39250000D01*
X163875000Y-41000000D02*
X165625000Y-39250000D01*
X146125000Y-44750000D02*
X163625000Y-44750000D01*
X185625000Y-39750000D02*
X187125000Y-41250000D01*
X177875000Y-34750000D02*
X178375000Y-35250000D01*
X170210000Y-35165000D02*
X170625000Y-34750000D01*
X191625000Y-44500000D02*
X192040000Y-44085000D01*
X178375000Y-38750000D02*
X179375000Y-39750000D01*
X187125000Y-43750000D02*
X187875000Y-44500000D01*
X170210000Y-36700000D02*
X170210000Y-35165000D01*
X178375000Y-35250000D02*
X178375000Y-38750000D01*
X170625000Y-34750000D02*
X177875000Y-34750000D01*
X187125000Y-41250000D02*
X187125000Y-43750000D01*
X192040000Y-44085000D02*
X192040000Y-42800000D01*
X179375000Y-39750000D02*
X185625000Y-39750000D01*
X187875000Y-44500000D02*
X191625000Y-44500000D01*
X190210000Y-40915000D02*
X191375000Y-39750000D01*
X207511396Y-44250000D02*
X210590000Y-44250000D01*
X191375000Y-39750000D02*
X206125000Y-39750000D01*
X210590000Y-44250000D02*
X212040000Y-42800000D01*
X190210000Y-41700000D02*
X190210000Y-40915000D01*
X206850000Y-41800305D02*
X206625000Y-42025305D01*
X206850000Y-40475000D02*
X206850000Y-41800305D01*
X206125000Y-39750000D02*
X206850000Y-40475000D01*
X206625000Y-43363604D02*
X207511396Y-44250000D01*
X206625000Y-42025305D02*
X206625000Y-43363604D01*
X218925000Y-100050000D02*
X222375000Y-103500000D01*
X214325000Y-46450000D02*
X218925000Y-51050000D01*
X213011396Y-40500000D02*
X214325000Y-41813604D01*
X222375000Y-103500000D02*
X222375000Y-107250000D01*
X211125000Y-40500000D02*
X213011396Y-40500000D01*
X221825000Y-107800000D02*
X220790000Y-107800000D01*
X222375000Y-107250000D02*
X221825000Y-107800000D01*
X214325000Y-41813604D02*
X214325000Y-46450000D01*
X210210000Y-41700000D02*
X210210000Y-41415000D01*
X218925000Y-51050000D02*
X218925000Y-100050000D01*
X210210000Y-41415000D02*
X211125000Y-40500000D01*
X104875000Y-76750000D02*
X104925000Y-76700000D01*
X126625000Y-78215000D02*
X127040000Y-77800000D01*
X126625000Y-79500000D02*
X126625000Y-78215000D01*
X107295000Y-76700000D02*
X104925000Y-76700000D01*
X118400000Y-120750000D02*
X112650000Y-120750000D01*
X120115000Y-118900000D02*
X120115000Y-119035000D01*
X105400000Y-181500000D02*
X106700000Y-182800000D01*
X120115000Y-119035000D02*
X118400000Y-120750000D01*
X105900000Y-149500000D02*
X106300000Y-149900000D01*
X112650000Y-120750000D02*
X109206802Y-124193198D01*
X106300000Y-149900000D02*
X106300000Y-168824695D01*
X106950000Y-129813604D02*
X106950000Y-147200000D01*
X106700000Y-182800000D02*
X109085000Y-182800000D01*
X105400000Y-169724695D02*
X105400000Y-181500000D01*
X106300000Y-168824695D02*
X105400000Y-169724695D01*
X109206802Y-124193198D02*
X109206802Y-127556802D01*
X106950000Y-147200000D02*
X105900000Y-148250000D01*
X109206802Y-127556802D02*
X106950000Y-129813604D01*
X105900000Y-148250000D02*
X105900000Y-149500000D01*
X167922478Y-56411820D02*
X167875000Y-56500000D01*
X168075000Y-56700000D02*
X167922478Y-56411820D01*
X170210000Y-56700000D02*
X168075000Y-56700000D01*
X214325000Y-62800000D02*
X212040000Y-62800000D01*
X187825000Y-61700000D02*
X187625000Y-61500000D01*
X190210000Y-61700000D02*
X187825000Y-61700000D01*
X214375000Y-62750000D02*
X214325000Y-62800000D01*
X225125000Y-104500000D02*
X224150000Y-105475000D01*
X224443198Y-62931802D02*
X224443198Y-101931802D01*
X224150000Y-119525000D02*
X225375000Y-120750000D01*
X224443198Y-101931802D02*
X225125000Y-102613604D01*
X224150000Y-105475000D02*
X224150000Y-119525000D01*
X225125000Y-102613604D02*
X225125000Y-104500000D01*
X224875000Y-62500000D02*
X224443198Y-62931802D01*
X241040000Y-117800000D02*
X241040000Y-118335000D01*
X241040000Y-118335000D02*
X239875000Y-119500000D01*
X104875000Y-99000000D02*
X105625000Y-99750000D01*
X126875000Y-97965000D02*
X127040000Y-97800000D01*
X104875000Y-97250000D02*
X104875000Y-99000000D01*
X105425000Y-96700000D02*
X104875000Y-97250000D01*
X107210000Y-96700000D02*
X105425000Y-96700000D01*
X126875000Y-99750000D02*
X126875000Y-97965000D01*
X148375000Y-90000000D02*
X147040000Y-88665000D01*
X147040000Y-88665000D02*
X147040000Y-87800000D01*
X145210000Y-86700000D02*
X145210000Y-83801396D01*
X173125000Y-79500000D02*
X173125000Y-78885000D01*
X145210000Y-83801396D02*
X146575000Y-82436396D01*
X173125000Y-78885000D02*
X172040000Y-77800000D01*
X146575000Y-82436396D02*
X146575000Y-80300000D01*
X146575000Y-80300000D02*
X147125000Y-79750000D01*
X170825000Y-76700000D02*
X170210000Y-76700000D01*
X192125000Y-84500000D02*
X192125000Y-82885000D01*
X171125000Y-79500000D02*
X171125000Y-77000000D01*
X171125000Y-77000000D02*
X170825000Y-76700000D01*
X192125000Y-82885000D02*
X192040000Y-82800000D01*
X214425000Y-82800000D02*
X214625000Y-83000000D01*
X212040000Y-82800000D02*
X214425000Y-82800000D01*
X190210000Y-81700000D02*
X190210000Y-79665000D01*
X190210000Y-79665000D02*
X190375000Y-79500000D01*
X210825000Y-81700000D02*
X211125000Y-82000000D01*
X218375000Y-99000000D02*
X217875000Y-99500000D01*
X210210000Y-81700000D02*
X210825000Y-81700000D01*
X211125000Y-83750000D02*
X218375000Y-91000000D01*
X218375000Y-91000000D02*
X218375000Y-99000000D01*
X217875000Y-99500000D02*
X217625000Y-99500000D01*
X211125000Y-82000000D02*
X211125000Y-83750000D01*
X203085000Y-152800000D02*
X201946208Y-152816346D01*
X225300000Y-153900000D02*
X222915000Y-153900000D01*
X225400000Y-154000000D02*
X225300000Y-153900000D01*
X201900000Y-152750000D02*
X201950000Y-152800000D01*
X201946208Y-152816346D02*
X201950000Y-152800000D01*
X159150000Y-115750000D02*
X139400000Y-115750000D01*
X139400000Y-115750000D02*
X138085000Y-117065000D01*
X138085000Y-117065000D02*
X138085000Y-117800000D01*
X159915000Y-114985000D02*
X159150000Y-115750000D01*
X159915000Y-113900000D02*
X159915000Y-114985000D01*
X118285000Y-117115000D02*
X118285000Y-117800000D01*
X119150000Y-116250000D02*
X118285000Y-117115000D01*
X128150000Y-120500000D02*
X123900000Y-116250000D01*
X139915000Y-120235000D02*
X139650000Y-120500000D01*
X123900000Y-116250000D02*
X119150000Y-116250000D01*
X139650000Y-120500000D02*
X128150000Y-120500000D01*
X139915000Y-118900000D02*
X139915000Y-120235000D01*
X166175901Y-122775901D02*
X166175901Y-113888713D01*
X184150000Y-125500000D02*
X168900000Y-125500000D01*
X184915000Y-124735000D02*
X184150000Y-125500000D01*
X166175901Y-113888713D02*
X163287188Y-111000000D01*
X184915000Y-123900000D02*
X184915000Y-124735000D01*
X168900000Y-125500000D02*
X166175901Y-122775901D01*
X163287188Y-111000000D02*
X159885000Y-111000000D01*
X159885000Y-111000000D02*
X158085000Y-112800000D01*
X204915000Y-133900000D02*
X204915000Y-135235000D01*
X191150000Y-132750000D02*
X191150000Y-122500000D01*
X194150000Y-135750000D02*
X191150000Y-132750000D01*
X183650000Y-121000000D02*
X183085000Y-121565000D01*
X204915000Y-135235000D02*
X204400000Y-135750000D01*
X189650000Y-121000000D02*
X183650000Y-121000000D01*
X204400000Y-135750000D02*
X194150000Y-135750000D01*
X183085000Y-121565000D02*
X183085000Y-122800000D01*
X191150000Y-122500000D02*
X189650000Y-121000000D01*
X219650000Y-135500000D02*
X222150000Y-135500000D01*
X222150000Y-135500000D02*
X222915000Y-134735000D01*
X215150000Y-131000000D02*
X219650000Y-135500000D01*
X204885000Y-131000000D02*
X215150000Y-131000000D01*
X222915000Y-134735000D02*
X222915000Y-133900000D01*
X203085000Y-132800000D02*
X204885000Y-131000000D01*
X114900000Y-156500000D02*
X116150000Y-156500000D01*
X115650000Y-160000000D02*
X114350000Y-158700000D01*
X115650000Y-161250000D02*
X115650000Y-160000000D01*
X119150000Y-156315000D02*
X118965000Y-156500000D01*
X102700000Y-171800000D02*
X102400000Y-171500000D01*
X116000000Y-167740812D02*
X116900000Y-166840812D01*
X116000000Y-170650000D02*
X116000000Y-167740812D01*
X89085000Y-192800000D02*
X87950000Y-192800000D01*
X114350000Y-158700000D02*
X114350000Y-157050000D01*
X121089501Y-150060499D02*
X119150000Y-152000000D01*
X87900000Y-192750000D02*
X87950000Y-192800000D01*
X116900000Y-162500000D02*
X115650000Y-161250000D01*
X102700000Y-191700000D02*
X102700000Y-171800000D01*
X118965000Y-156500000D02*
X116150000Y-156500000D01*
X115650000Y-171000000D02*
X116000000Y-170650000D01*
X119150000Y-152000000D02*
X119150000Y-156315000D01*
X114350000Y-157050000D02*
X114900000Y-156500000D01*
X116900000Y-166840812D02*
X116900000Y-162500000D01*
X101900000Y-192500000D02*
X102700000Y-191700000D01*
X119915000Y-138900000D02*
X121089501Y-140074501D01*
X121089501Y-140074501D02*
X121089501Y-150060499D01*
X115650000Y-138000000D02*
X115850000Y-137800000D01*
X141150000Y-139250000D02*
X140265000Y-139250000D01*
X118085000Y-137800000D02*
X115850000Y-137800000D01*
X140265000Y-139250000D02*
X139915000Y-138900000D01*
X138085000Y-137800000D02*
X136950000Y-137800000D01*
X160150000Y-134135000D02*
X159915000Y-133900000D01*
X160150000Y-135500000D02*
X160150000Y-134135000D01*
X136900000Y-137750000D02*
X136950000Y-137800000D01*
X184900000Y-143950000D02*
X185000000Y-143850000D01*
X156600000Y-132800000D02*
X155900000Y-133500000D01*
X158085000Y-132800000D02*
X156600000Y-132800000D01*
X184900000Y-145500000D02*
X184900000Y-143950000D01*
X155900000Y-133500000D02*
X155900000Y-141500000D01*
X204900000Y-153915000D02*
X204915000Y-153900000D01*
X183170000Y-142750000D02*
X181650000Y-142750000D01*
X204900000Y-155500000D02*
X204900000Y-153915000D01*
X181650000Y-142750000D02*
X180900000Y-143500000D01*
X180900000Y-143500000D02*
X180900000Y-149750000D01*
X69085000Y-200935000D02*
X68650000Y-200500000D01*
X78150000Y-196000000D02*
X82900000Y-191250000D01*
X119915000Y-159985000D02*
X119382591Y-160542785D01*
X71650000Y-196000000D02*
X78150000Y-196000000D01*
X114398231Y-170545618D02*
X114400000Y-170500000D01*
X68650000Y-200500000D02*
X68650000Y-199000000D01*
X69085000Y-202800000D02*
X69085000Y-200935000D01*
X68650000Y-199000000D02*
X71650000Y-196000000D01*
X82900000Y-191250000D02*
X82900000Y-171250000D01*
X119915000Y-158900000D02*
X119915000Y-159985000D01*
X118035000Y-157750000D02*
X118085000Y-157800000D01*
X116900000Y-157750000D02*
X118035000Y-157750000D01*
X159915000Y-155485000D02*
X159915000Y-153900000D01*
X138150000Y-155500000D02*
X138150000Y-157735000D01*
X159900000Y-155500000D02*
X159915000Y-155485000D01*
X138150000Y-157735000D02*
X138085000Y-157800000D01*
X155900545Y-154749637D02*
X155900690Y-154749782D01*
X186150000Y-164250000D02*
X185265000Y-164250000D01*
X155899865Y-153812979D02*
X155900545Y-154749637D01*
X156349865Y-152800000D02*
X155899865Y-153250000D01*
X155900690Y-159250690D02*
X157150000Y-160500000D01*
X185265000Y-164250000D02*
X184915000Y-163900000D01*
X158085000Y-152800000D02*
X156349865Y-152800000D01*
X155899865Y-153250000D02*
X155899865Y-153812979D01*
X155900690Y-154749782D02*
X155900690Y-159250690D01*
X180900000Y-171750000D02*
X180900000Y-171250000D01*
X181050000Y-162800000D02*
X183085000Y-162800000D01*
X204650000Y-175250000D02*
X204915000Y-174985000D01*
X180350000Y-163500000D02*
X181050000Y-162800000D01*
X200650000Y-174750000D02*
X201150000Y-175250000D01*
X201150000Y-175250000D02*
X204650000Y-175250000D01*
X204915000Y-174985000D02*
X204915000Y-173900000D01*
X180350000Y-170700000D02*
X180350000Y-163500000D01*
X180900000Y-171250000D02*
X180350000Y-170700000D01*
X201200000Y-172800000D02*
X203085000Y-172800000D01*
X222900000Y-173915000D02*
X222915000Y-173900000D01*
X200900000Y-172500000D02*
X201200000Y-172800000D01*
X222900000Y-175500000D02*
X222900000Y-173915000D01*
X121625000Y-90950000D02*
X121625000Y-86300000D01*
X121625000Y-86300000D02*
X121125000Y-85800000D01*
X141625000Y-80950000D02*
X141625000Y-76300000D01*
X141625000Y-76300000D02*
X141125000Y-75800000D01*
X206625000Y-76450000D02*
X206625000Y-71300000D01*
X206625000Y-71300000D02*
X206125000Y-70800000D01*
X166625000Y-70700000D02*
X166625000Y-66300000D01*
X166625000Y-66300000D02*
X166125000Y-65800000D01*
X186625000Y-75715000D02*
X186625000Y-71300000D01*
X186625000Y-71300000D02*
X186125000Y-70800000D01*
X165625000Y-46300000D02*
X166125000Y-45800000D01*
X165625000Y-50950000D02*
X165625000Y-46300000D01*
X103875000Y-86550000D02*
X103125000Y-85800000D01*
X103875000Y-90700000D02*
X103875000Y-86550000D01*
X214825000Y-104250000D02*
X214825000Y-103500000D01*
X215125000Y-115800000D02*
X216140999Y-114784001D01*
X216140999Y-105565999D02*
X214825000Y-104250000D01*
X216140999Y-114784001D02*
X216140999Y-105565999D01*
X205625000Y-55565000D02*
X205625000Y-51300000D01*
X205625000Y-51300000D02*
X206125000Y-50800000D01*
X185625000Y-51300000D02*
X186125000Y-50800000D01*
X185625000Y-55700000D02*
X185625000Y-51300000D01*
X215150000Y-179950000D02*
X215150000Y-170500000D01*
X216850000Y-168800000D02*
X217650000Y-168800000D01*
X217000000Y-181800000D02*
X215150000Y-179950000D01*
X215150000Y-170500000D02*
X216850000Y-168800000D01*
X233125000Y-123800000D02*
X233125000Y-114700000D01*
X233125000Y-114700000D02*
X234325000Y-113500000D01*
X235125000Y-125800000D02*
X233125000Y-123800000D01*
X103125000Y-105800000D02*
X104190000Y-104735000D01*
X104190000Y-104735000D02*
X104190000Y-94485000D01*
X104190000Y-94485000D02*
X105875000Y-92800000D01*
X122170000Y-104755000D02*
X122170000Y-98570305D01*
X121900000Y-94775000D02*
X123625000Y-93050000D01*
X122170000Y-98570305D02*
X121900000Y-98300305D01*
X121900000Y-98300305D02*
X121900000Y-94775000D01*
X121125000Y-105800000D02*
X122170000Y-104755000D01*
X141125000Y-95800000D02*
X142125000Y-94800000D01*
X142125000Y-94800000D02*
X142125000Y-87000000D01*
X142125000Y-87000000D02*
X143625000Y-85500000D01*
X143625000Y-85500000D02*
X143625000Y-83050000D01*
X167125000Y-84800000D02*
X167125000Y-79250000D01*
X168625000Y-77750000D02*
X168625000Y-72800000D01*
X166125000Y-85800000D02*
X167125000Y-84800000D01*
X167125000Y-79250000D02*
X168625000Y-77750000D01*
X187125000Y-79500000D02*
X188625000Y-78000000D01*
X186125000Y-90800000D02*
X187125000Y-89800000D01*
X188625000Y-78000000D02*
X188625000Y-77815000D01*
X187125000Y-89800000D02*
X187125000Y-79500000D01*
X117650000Y-131950000D02*
X117650000Y-130450000D01*
X117650000Y-130450000D02*
X114000000Y-126800000D01*
X206125000Y-90800000D02*
X208125000Y-88800000D01*
X208125000Y-88800000D02*
X208125000Y-81250000D01*
X208125000Y-81250000D02*
X208625000Y-80750000D01*
X208625000Y-80750000D02*
X208625000Y-78550000D01*
X256140999Y-123965999D02*
X255675000Y-123500000D01*
X255125000Y-135800000D02*
X256140999Y-134784001D01*
X256140999Y-134784001D02*
X256140999Y-123965999D01*
X199900000Y-180900000D02*
X199900000Y-170750000D01*
X199900000Y-170750000D02*
X198650000Y-169500000D01*
X199000000Y-181800000D02*
X199900000Y-180900000D01*
X120625000Y-66300000D02*
X121125000Y-65800000D01*
X120625000Y-70700000D02*
X120625000Y-66300000D01*
X179150000Y-131950000D02*
X179000000Y-131800000D01*
X179150000Y-137200000D02*
X179150000Y-131950000D01*
X199150000Y-147100000D02*
X199150000Y-141950000D01*
X199150000Y-141950000D02*
X199000000Y-141800000D01*
X216900000Y-141900000D02*
X217000000Y-141800000D01*
X216900000Y-147020000D02*
X216900000Y-141900000D01*
X153900000Y-126950000D02*
X153900000Y-121900000D01*
X153900000Y-121900000D02*
X154000000Y-121800000D01*
X133650000Y-132100000D02*
X133650000Y-127150000D01*
X133650000Y-127150000D02*
X134000000Y-126800000D01*
X103150000Y-189950000D02*
X103150000Y-179000000D01*
X103150000Y-179000000D02*
X104050000Y-178100000D01*
X105000000Y-191800000D02*
X103150000Y-189950000D01*
X140625000Y-56300000D02*
X141125000Y-55800000D01*
X140625000Y-60700000D02*
X140625000Y-56300000D01*
X85900000Y-191300000D02*
X83950000Y-189350000D01*
X85000000Y-201800000D02*
X85900000Y-200900000D01*
X85900000Y-200900000D02*
X85900000Y-191300000D01*
X117400000Y-150200000D02*
X114000000Y-146800000D01*
X117400000Y-151950000D02*
X117400000Y-150200000D01*
X134650000Y-147450000D02*
X134000000Y-146800000D01*
X134650000Y-151950000D02*
X134650000Y-147450000D01*
X181650000Y-156950000D02*
X181650000Y-154450000D01*
X181650000Y-154450000D02*
X179000000Y-151800000D01*
X116000000Y-166468020D02*
X116000000Y-163000000D01*
X114750000Y-161750000D02*
X114400000Y-161750000D01*
X113900000Y-155150000D02*
X115000000Y-154050000D01*
X114000000Y-166800000D02*
X115668020Y-166800000D01*
X114400000Y-161750000D02*
X113900000Y-161250000D01*
X115668020Y-166800000D02*
X116000000Y-166468020D01*
X116000000Y-163000000D02*
X114750000Y-161750000D01*
X113900000Y-161250000D02*
X113900000Y-155150000D01*
X134900000Y-165900000D02*
X134900000Y-156500000D01*
X134000000Y-166800000D02*
X134900000Y-165900000D01*
X134900000Y-156500000D02*
X136650000Y-154750000D01*
X136650000Y-154750000D02*
X136650000Y-154050000D01*
X153700000Y-149050000D02*
X152150000Y-150600000D01*
X153700000Y-149050000D02*
X154650000Y-149050000D01*
X154000000Y-161800000D02*
X152150000Y-159950000D01*
X152150000Y-150600000D02*
X152150000Y-150750000D01*
X152150000Y-159950000D02*
X152150000Y-150750000D01*
X179000000Y-171800000D02*
X179900000Y-170900000D01*
X179900000Y-159300000D02*
X179650000Y-159050000D01*
X179900000Y-170900000D02*
X179900000Y-159300000D01*
X103125000Y-70950000D02*
X103125000Y-65800000D01*
X252925000Y-91125000D02*
X252925000Y-95300000D01*
X251430000Y-89630000D02*
X252925000Y-91125000D01*
X246015000Y-89630000D02*
X251430000Y-89630000D01*
X251375000Y-96850000D02*
X249450000Y-96850000D01*
X252925000Y-95300000D02*
X251375000Y-96850000D01*
X84520000Y-163000000D02*
X84610000Y-163090000D01*
X81150000Y-179250000D02*
X81150000Y-163250000D01*
X81150000Y-163250000D02*
X81400000Y-163000000D01*
X81400000Y-163000000D02*
X84520000Y-163000000D01*
X91800000Y-187100000D02*
X92250000Y-186650000D01*
X92250000Y-186650000D02*
X92250000Y-185950000D01*
X156650000Y-146950000D02*
X156650000Y-144450000D01*
X156650000Y-144450000D02*
X154000000Y-141800000D01*
X67665000Y-199750000D02*
X65900000Y-199750000D01*
X65900000Y-199750000D02*
X63150000Y-202500000D01*
X63150000Y-202500000D02*
X63150000Y-209950000D01*
X63150000Y-209950000D02*
X65000000Y-211800000D01*
X93250000Y-184450000D02*
X93800000Y-183900000D01*
X112000000Y-184985000D02*
X110915000Y-183900000D01*
X92250000Y-184450000D02*
X93250000Y-184450000D01*
X112000000Y-185500000D02*
X112000000Y-184985000D01*
X219650000Y-166700000D02*
X219650000Y-164450000D01*
X219650000Y-164450000D02*
X217000000Y-161800000D01*
X201000000Y-167400000D02*
X201000000Y-163800000D01*
X201000000Y-163800000D02*
X199000000Y-161800000D01*
X249450000Y-95350000D02*
X248100000Y-94000000D01*
X101250000Y-65000000D02*
X102500000Y-63750000D01*
X248100000Y-94000000D02*
X244625000Y-94000000D01*
X108500000Y-59500000D02*
X109040000Y-58960000D01*
X103750000Y-63750000D02*
X105250000Y-62250000D01*
X103000000Y-103750000D02*
X101750000Y-103750000D01*
X106250000Y-59500000D02*
X108500000Y-59500000D01*
X105250000Y-60500000D02*
X106250000Y-59500000D01*
X105250000Y-62250000D02*
X105250000Y-60500000D01*
X102500000Y-63750000D02*
X103750000Y-63750000D01*
X109040000Y-58960000D02*
X109040000Y-57800000D01*
X101750000Y-103750000D02*
X101250000Y-103250000D01*
X101250000Y-103250000D02*
X101250000Y-65000000D01*
M02*
