%TF.GenerationSoftware,KiCad,Pcbnew,7.0.1*%
%TF.CreationDate,2023-05-03T23:08:28+02:00*%
%TF.ProjectId,Akula,416b756c-612e-46b6-9963-61645f706362,rev?*%
%TF.SameCoordinates,Original*%
%TF.FileFunction,Soldermask,Bot*%
%TF.FilePolarity,Negative*%
%FSLAX46Y46*%
G04 Gerber Fmt 4.6, Leading zero omitted, Abs format (unit mm)*
G04 Created by KiCad (PCBNEW 7.0.1) date 2023-05-03 23:08:28*
%MOMM*%
%LPD*%
G01*
G04 APERTURE LIST*
%ADD10C,1.701800*%
%ADD11C,3.429000*%
%ADD12C,0.990600*%
%ADD13C,2.032000*%
%ADD14C,0.500000*%
%ADD15O,3.048000X1.850000*%
%ADD16R,2.000000X2.000000*%
%ADD17C,2.000000*%
%ADD18C,3.200000*%
%ADD19O,1.800000X1.800000*%
%ADD20O,1.500000X1.500000*%
%ADD21O,1.700000X1.700000*%
%ADD22R,1.700000X1.700000*%
%ADD23C,1.500000*%
G04 APERTURE END LIST*
D10*
X84500000Y-198000000D03*
D11*
X90000000Y-198000000D03*
D12*
X95220000Y-193800000D03*
D10*
X95500000Y-198000000D03*
D13*
X90000000Y-203900000D03*
X85000000Y-201800000D03*
D10*
X165625000Y-82000000D03*
D11*
X171125000Y-82000000D03*
D12*
X176345000Y-77800000D03*
D10*
X176625000Y-82000000D03*
D13*
X171125000Y-87900000D03*
X166125000Y-85800000D03*
D10*
X102625000Y-62000000D03*
D11*
X108125000Y-62000000D03*
D12*
X113345000Y-57800000D03*
D10*
X113625000Y-62000000D03*
D13*
X108125000Y-67900000D03*
X103125000Y-65800000D03*
D14*
X171464000Y-117000000D03*
X171464000Y-120000000D03*
X172214000Y-120000000D03*
X172226000Y-117000000D03*
X172976000Y-117000000D03*
X172976000Y-120000000D03*
X173726000Y-117000000D03*
X173726000Y-120000000D03*
X174500000Y-117000000D03*
X174500000Y-120000000D03*
D10*
X153500000Y-138000000D03*
D11*
X159000000Y-138000000D03*
D12*
X164220000Y-133800000D03*
D10*
X164500000Y-138000000D03*
D13*
X159000000Y-143900000D03*
X154000000Y-141800000D03*
D15*
X257885000Y-77750000D03*
X270385000Y-77750000D03*
X257885000Y-82750000D03*
X270385000Y-82750000D03*
D10*
X254625000Y-132000000D03*
D11*
X260125000Y-132000000D03*
D12*
X265345000Y-127800000D03*
D10*
X265625000Y-132000000D03*
D13*
X260125000Y-137900000D03*
X255125000Y-135800000D03*
D10*
X185625000Y-87000000D03*
D11*
X191125000Y-87000000D03*
D12*
X196345000Y-82800000D03*
D10*
X196625000Y-87000000D03*
D13*
X191125000Y-92900000D03*
X186125000Y-90800000D03*
D10*
X153500000Y-158000000D03*
D11*
X159000000Y-158000000D03*
D12*
X164220000Y-153800000D03*
D10*
X164500000Y-158000000D03*
D13*
X159000000Y-163900000D03*
X154000000Y-161800000D03*
D14*
X199988000Y-127000000D03*
X199988000Y-130000000D03*
X200738000Y-130000000D03*
X200750000Y-127000000D03*
X201500000Y-127000000D03*
X201500000Y-130000000D03*
X202250000Y-127000000D03*
X202250000Y-130000000D03*
X203024000Y-127000000D03*
X203024000Y-130000000D03*
D10*
X205625000Y-67000000D03*
D11*
X211125000Y-67000000D03*
D12*
X216345000Y-62800000D03*
D10*
X216625000Y-67000000D03*
D13*
X211125000Y-72900000D03*
X206125000Y-70800000D03*
D10*
X205625000Y-47000000D03*
D11*
X211125000Y-47000000D03*
D12*
X216345000Y-42800000D03*
D10*
X216625000Y-47000000D03*
D13*
X211125000Y-52900000D03*
X206125000Y-50800000D03*
D14*
X230000000Y-155000000D03*
X235000000Y-155000000D03*
X230000000Y-154250000D03*
X230000000Y-154250000D03*
X235000000Y-154250000D03*
X235000000Y-154250000D03*
X230000000Y-153500000D03*
X235000000Y-153500000D03*
X230000000Y-152750000D03*
X235000000Y-152750000D03*
X230000000Y-152000000D03*
X235000000Y-152000000D03*
X230000000Y-151250000D03*
X235000000Y-151250000D03*
X230000000Y-150500000D03*
X235000000Y-150500000D03*
X230000000Y-149750000D03*
X235000000Y-149750000D03*
X230000000Y-149000000D03*
X235000000Y-149000000D03*
X230000000Y-148250000D03*
X235000000Y-148250000D03*
X230000000Y-147500000D03*
X235000000Y-147500000D03*
D10*
X165625000Y-62000000D03*
D11*
X171125000Y-62000000D03*
D12*
X176345000Y-57800000D03*
D10*
X176625000Y-62000000D03*
D13*
X171125000Y-67900000D03*
X166125000Y-65800000D03*
D10*
X120625000Y-62000000D03*
D11*
X126125000Y-62000000D03*
D12*
X131345000Y-57800000D03*
D10*
X131625000Y-62000000D03*
D13*
X126125000Y-67900000D03*
X121125000Y-65800000D03*
D15*
X257875000Y-95750000D03*
X270375000Y-95750000D03*
X257875000Y-100750000D03*
X270375000Y-100750000D03*
X59760000Y-153750000D03*
X72260000Y-153750000D03*
X59760000Y-158750000D03*
X72260000Y-158750000D03*
D10*
X198500000Y-158000000D03*
D11*
X204000000Y-158000000D03*
D12*
X209220000Y-153800000D03*
D10*
X209500000Y-158000000D03*
D13*
X204000000Y-163900000D03*
X199000000Y-161800000D03*
D14*
X199964000Y-95000000D03*
X199964000Y-98000000D03*
X200714000Y-98000000D03*
X200726000Y-95000000D03*
X201476000Y-95000000D03*
X201476000Y-98000000D03*
X202226000Y-95000000D03*
X202226000Y-98000000D03*
X203000000Y-95000000D03*
X203000000Y-98000000D03*
D16*
X256750000Y-60000000D03*
D17*
X256750000Y-65000000D03*
X256750000Y-62500000D03*
D18*
X264250000Y-56900000D03*
X264250000Y-68100000D03*
D17*
X271250000Y-65000000D03*
X271250000Y-60000000D03*
D10*
X102625000Y-102000000D03*
D11*
X108125000Y-102000000D03*
D12*
X113345000Y-97800000D03*
D10*
X113625000Y-102000000D03*
D13*
X108125000Y-107900000D03*
X103125000Y-105800000D03*
D10*
X198500000Y-178000000D03*
D11*
X204000000Y-178000000D03*
D12*
X209220000Y-173800000D03*
D10*
X209500000Y-178000000D03*
D13*
X204000000Y-183900000D03*
X199000000Y-181800000D03*
D19*
X234400000Y-41500000D03*
D20*
X234700000Y-44530000D03*
X239550000Y-44530000D03*
D19*
X239850000Y-41500000D03*
D21*
X228235000Y-41370000D03*
X228235000Y-43910000D03*
D22*
X228235000Y-46450000D03*
D21*
X228235000Y-48990000D03*
X228235000Y-51530000D03*
X228235000Y-54070000D03*
X228235000Y-56610000D03*
D22*
X228235000Y-59150000D03*
D21*
X228235000Y-61690000D03*
X228235000Y-64230000D03*
X228235000Y-66770000D03*
X228235000Y-69310000D03*
D22*
X228235000Y-71850000D03*
D21*
X228235000Y-74390000D03*
X228235000Y-76930000D03*
X228235000Y-79470000D03*
X228235000Y-82010000D03*
D22*
X228235000Y-84550000D03*
D21*
X228235000Y-87090000D03*
X228235000Y-89630000D03*
X246015000Y-89630000D03*
X246015000Y-87090000D03*
D22*
X246015000Y-84550000D03*
D21*
X246015000Y-82010000D03*
X246015000Y-79470000D03*
X246015000Y-76930000D03*
X246015000Y-74390000D03*
D22*
X246015000Y-71850000D03*
D21*
X246015000Y-69310000D03*
X246015000Y-66770000D03*
X246015000Y-64230000D03*
X246015000Y-61690000D03*
D22*
X246015000Y-59150000D03*
D21*
X246015000Y-56610000D03*
X246015000Y-54070000D03*
X246015000Y-51530000D03*
X246015000Y-48990000D03*
D22*
X246015000Y-46450000D03*
D21*
X246015000Y-43910000D03*
X246015000Y-41370000D03*
X234585000Y-89400000D03*
D22*
X237125000Y-89400000D03*
D21*
X239665000Y-89400000D03*
D10*
X234625000Y-122000000D03*
D11*
X240125000Y-122000000D03*
D12*
X245345000Y-117800000D03*
D10*
X245625000Y-122000000D03*
D13*
X240125000Y-127900000D03*
X235125000Y-125800000D03*
D10*
X214625000Y-112000000D03*
D11*
X220125000Y-112000000D03*
D12*
X225345000Y-107800000D03*
D10*
X225625000Y-112000000D03*
D13*
X220125000Y-117900000D03*
X215125000Y-115800000D03*
D15*
X59760000Y-171750000D03*
X72260000Y-171750000D03*
X59760000Y-176750000D03*
X72260000Y-176750000D03*
D14*
X81000000Y-110000000D03*
X81000000Y-115000000D03*
X81750000Y-110000000D03*
X81750000Y-110000000D03*
X81750000Y-115000000D03*
X81750000Y-115000000D03*
X82500000Y-110000000D03*
X82500000Y-115000000D03*
X83250000Y-110000000D03*
X83250000Y-115000000D03*
X84000000Y-110000000D03*
X84000000Y-115000000D03*
X84750000Y-110000000D03*
X84750000Y-115000000D03*
X85500000Y-110000000D03*
X85500000Y-115000000D03*
X86250000Y-110000000D03*
X86250000Y-115000000D03*
X87000000Y-110000000D03*
X87000000Y-115000000D03*
X87750000Y-110000000D03*
X87750000Y-115000000D03*
X88500000Y-110000000D03*
X88500000Y-115000000D03*
D19*
X90775000Y-117500000D03*
D20*
X91075000Y-120530000D03*
X95925000Y-120530000D03*
D19*
X96225000Y-117500000D03*
D21*
X84610000Y-117370000D03*
X84610000Y-119910000D03*
D22*
X84610000Y-122450000D03*
D21*
X84610000Y-124990000D03*
X84610000Y-127530000D03*
X84610000Y-130070000D03*
X84610000Y-132610000D03*
D22*
X84610000Y-135150000D03*
D21*
X84610000Y-137690000D03*
X84610000Y-140230000D03*
X84610000Y-142770000D03*
X84610000Y-145310000D03*
D22*
X84610000Y-147850000D03*
D21*
X84610000Y-150390000D03*
X84610000Y-152930000D03*
X84610000Y-155470000D03*
X84610000Y-158010000D03*
D22*
X84610000Y-160550000D03*
D21*
X84610000Y-163090000D03*
X84610000Y-165630000D03*
X102390000Y-165630000D03*
X102390000Y-163090000D03*
D22*
X102390000Y-160550000D03*
D21*
X102390000Y-158010000D03*
X102390000Y-155470000D03*
X102390000Y-152930000D03*
X102390000Y-150390000D03*
D22*
X102390000Y-147850000D03*
D21*
X102390000Y-145310000D03*
X102390000Y-142770000D03*
X102390000Y-140230000D03*
X102390000Y-137690000D03*
D22*
X102390000Y-135150000D03*
D21*
X102390000Y-132610000D03*
X102390000Y-130070000D03*
X102390000Y-127530000D03*
X102390000Y-124990000D03*
D22*
X102390000Y-122450000D03*
D21*
X102390000Y-119910000D03*
X102390000Y-117370000D03*
X90960000Y-165400000D03*
D22*
X93500000Y-165400000D03*
D21*
X96040000Y-165400000D03*
D10*
X102625000Y-82000000D03*
D11*
X108125000Y-82000000D03*
D12*
X113345000Y-77800000D03*
D10*
X113625000Y-82000000D03*
D13*
X108125000Y-87900000D03*
X103125000Y-85800000D03*
D14*
X95250000Y-89000000D03*
X100250000Y-89000000D03*
X95250000Y-88250000D03*
X95250000Y-88250000D03*
X100250000Y-88250000D03*
X100250000Y-88250000D03*
X95250000Y-87500000D03*
X100250000Y-87500000D03*
X95250000Y-86750000D03*
X100250000Y-86750000D03*
X95250000Y-86000000D03*
X100250000Y-86000000D03*
X95250000Y-85250000D03*
X100250000Y-85250000D03*
X95250000Y-84500000D03*
X100250000Y-84500000D03*
X95250000Y-83750000D03*
X100250000Y-83750000D03*
X95250000Y-83000000D03*
X100250000Y-83000000D03*
X95250000Y-82250000D03*
X100250000Y-82250000D03*
X95250000Y-81500000D03*
X100250000Y-81500000D03*
D10*
X153500000Y-118000000D03*
D11*
X159000000Y-118000000D03*
D12*
X164220000Y-113800000D03*
D10*
X164500000Y-118000000D03*
D13*
X159000000Y-123900000D03*
X154000000Y-121800000D03*
D10*
X140625000Y-52000000D03*
D11*
X146125000Y-52000000D03*
D12*
X151345000Y-47800000D03*
D10*
X151625000Y-52000000D03*
D13*
X146125000Y-57900000D03*
X141125000Y-55800000D03*
D10*
X205625000Y-87000000D03*
D11*
X211125000Y-87000000D03*
D12*
X216345000Y-82800000D03*
D10*
X216625000Y-87000000D03*
D13*
X211125000Y-92900000D03*
X206125000Y-90800000D03*
D10*
X140625000Y-92000000D03*
D11*
X146125000Y-92000000D03*
D12*
X151345000Y-87800000D03*
D10*
X151625000Y-92000000D03*
D13*
X146125000Y-97900000D03*
X141125000Y-95800000D03*
D10*
X185625000Y-67000000D03*
D11*
X191125000Y-67000000D03*
D12*
X196345000Y-62800000D03*
D10*
X196625000Y-67000000D03*
D13*
X191125000Y-72900000D03*
X186125000Y-70800000D03*
D10*
X113500000Y-123000000D03*
D11*
X119000000Y-123000000D03*
D12*
X124220000Y-118800000D03*
D10*
X124500000Y-123000000D03*
D13*
X119000000Y-128900000D03*
X114000000Y-126800000D03*
D14*
X114250000Y-110000000D03*
X114250000Y-115000000D03*
X115000000Y-110000000D03*
X115000000Y-110000000D03*
X115000000Y-115000000D03*
X115000000Y-115000000D03*
X115750000Y-110000000D03*
X115750000Y-115000000D03*
X116500000Y-110000000D03*
X116500000Y-115000000D03*
X117250000Y-110000000D03*
X117250000Y-115000000D03*
X118000000Y-110000000D03*
X118000000Y-115000000D03*
X118750000Y-110000000D03*
X118750000Y-115000000D03*
X119500000Y-110000000D03*
X119500000Y-115000000D03*
X120250000Y-110000000D03*
X120250000Y-115000000D03*
X121000000Y-110000000D03*
X121000000Y-115000000D03*
X121750000Y-110000000D03*
X121750000Y-115000000D03*
D10*
X216500000Y-178000000D03*
D11*
X222000000Y-178000000D03*
D12*
X227220000Y-173800000D03*
D10*
X227500000Y-178000000D03*
D13*
X222000000Y-183900000D03*
X217000000Y-181800000D03*
D10*
X198500000Y-138000000D03*
D11*
X204000000Y-138000000D03*
D12*
X209220000Y-133800000D03*
D10*
X209500000Y-138000000D03*
D13*
X204000000Y-143900000D03*
X199000000Y-141800000D03*
D10*
X165625000Y-42000000D03*
D11*
X171125000Y-42000000D03*
D12*
X176345000Y-37800000D03*
D10*
X176625000Y-42000000D03*
D13*
X171125000Y-47900000D03*
X166125000Y-45800000D03*
D10*
X133500000Y-163000000D03*
D11*
X139000000Y-163000000D03*
D12*
X144220000Y-158800000D03*
D10*
X144500000Y-163000000D03*
D13*
X139000000Y-168900000D03*
X134000000Y-166800000D03*
D10*
X133500000Y-143000000D03*
D11*
X139000000Y-143000000D03*
D12*
X144220000Y-138800000D03*
D10*
X144500000Y-143000000D03*
D13*
X139000000Y-148900000D03*
X134000000Y-146800000D03*
D10*
X216500000Y-158000000D03*
D11*
X222000000Y-158000000D03*
D12*
X227220000Y-153800000D03*
D10*
X227500000Y-158000000D03*
D13*
X222000000Y-163900000D03*
X217000000Y-161800000D03*
D10*
X120625000Y-102000000D03*
D11*
X126125000Y-102000000D03*
D12*
X131345000Y-97800000D03*
D10*
X131625000Y-102000000D03*
D13*
X126125000Y-107900000D03*
X121125000Y-105800000D03*
D10*
X120625000Y-82000000D03*
D11*
X126125000Y-82000000D03*
D12*
X131345000Y-77800000D03*
D10*
X131625000Y-82000000D03*
D13*
X126125000Y-87900000D03*
X121125000Y-85800000D03*
D10*
X64500000Y-208000000D03*
D11*
X70000000Y-208000000D03*
D12*
X75220000Y-203800000D03*
D10*
X75500000Y-208000000D03*
D13*
X70000000Y-213900000D03*
X65000000Y-211800000D03*
D10*
X178500000Y-148000000D03*
D11*
X184000000Y-148000000D03*
D12*
X189220000Y-143800000D03*
D10*
X189500000Y-148000000D03*
D13*
X184000000Y-153900000D03*
X179000000Y-151800000D03*
D10*
X140625000Y-72000000D03*
D11*
X146125000Y-72000000D03*
D12*
X151345000Y-67800000D03*
D10*
X151625000Y-72000000D03*
D13*
X146125000Y-77900000D03*
X141125000Y-75800000D03*
D10*
X178500000Y-128000000D03*
D11*
X184000000Y-128000000D03*
D12*
X189220000Y-123800000D03*
D10*
X189500000Y-128000000D03*
D13*
X184000000Y-133900000D03*
X179000000Y-131800000D03*
D23*
X60805000Y-121000000D03*
X67805000Y-121000000D03*
D14*
X256000000Y-140000000D03*
X256000000Y-145000000D03*
X256750000Y-140000000D03*
X256750000Y-140000000D03*
X256750000Y-145000000D03*
X256750000Y-145000000D03*
X257500000Y-140000000D03*
X257500000Y-145000000D03*
X258250000Y-140000000D03*
X258250000Y-145000000D03*
X259000000Y-140000000D03*
X259000000Y-145000000D03*
X259750000Y-140000000D03*
X259750000Y-145000000D03*
X260500000Y-140000000D03*
X260500000Y-145000000D03*
X261250000Y-140000000D03*
X261250000Y-145000000D03*
X262000000Y-140000000D03*
X262000000Y-145000000D03*
X262750000Y-140000000D03*
X262750000Y-145000000D03*
X263500000Y-140000000D03*
X263500000Y-145000000D03*
X171464000Y-90000000D03*
X171464000Y-93000000D03*
X172214000Y-93000000D03*
X172226000Y-90000000D03*
X172976000Y-90000000D03*
X172976000Y-93000000D03*
X173726000Y-90000000D03*
X173726000Y-93000000D03*
X174500000Y-90000000D03*
X174500000Y-93000000D03*
D10*
X113500000Y-143000000D03*
D11*
X119000000Y-143000000D03*
D12*
X124220000Y-138800000D03*
D10*
X124500000Y-143000000D03*
D13*
X119000000Y-148900000D03*
X114000000Y-146800000D03*
D10*
X178500000Y-168000000D03*
D11*
X184000000Y-168000000D03*
D12*
X189220000Y-163800000D03*
D10*
X189500000Y-168000000D03*
D13*
X184000000Y-173900000D03*
X179000000Y-171800000D03*
D23*
X269320000Y-45000000D03*
X262320000Y-45000000D03*
D10*
X185625000Y-47000000D03*
D11*
X191125000Y-47000000D03*
D12*
X196345000Y-42800000D03*
D10*
X196625000Y-47000000D03*
D13*
X191125000Y-52900000D03*
X186125000Y-50800000D03*
D10*
X113500000Y-163000000D03*
D11*
X119000000Y-163000000D03*
D12*
X124220000Y-158800000D03*
D10*
X124500000Y-163000000D03*
D13*
X119000000Y-168900000D03*
X114000000Y-166800000D03*
D10*
X104500000Y-188000000D03*
D11*
X110000000Y-188000000D03*
D12*
X115220000Y-183800000D03*
D10*
X115500000Y-188000000D03*
D13*
X110000000Y-193900000D03*
X105000000Y-191800000D03*
D10*
X133500000Y-123000000D03*
D11*
X139000000Y-123000000D03*
D12*
X144220000Y-118800000D03*
D10*
X144500000Y-123000000D03*
D13*
X139000000Y-128900000D03*
X134000000Y-126800000D03*
D10*
X216500000Y-138000000D03*
D11*
X222000000Y-138000000D03*
D12*
X227220000Y-133800000D03*
D10*
X227500000Y-138000000D03*
D13*
X222000000Y-143900000D03*
X217000000Y-141800000D03*
M02*
