%TF.GenerationSoftware,KiCad,Pcbnew,7.0.1*%
%TF.CreationDate,2023-05-03T23:09:14+02:00*%
%TF.ProjectId,Akula,416b756c-612e-46b6-9963-61645f706362,rev?*%
%TF.SameCoordinates,Original*%
%TF.FileFunction,Drillmap*%
%TF.FilePolarity,Positive*%
%FSLAX45Y45*%
G04 Gerber Fmt 4.5, Leading zero omitted, Abs format (unit mm)*
G04 Created by KiCad (PCBNEW 7.0.1) date 2023-05-03 23:09:14*
%MOMM*%
%LPD*%
G01*
G04 APERTURE LIST*
%ADD10C,0.100000*%
%ADD11C,0.200000*%
%ADD12C,0.040000*%
%ADD13C,0.102000*%
%ADD14C,0.127000*%
%ADD15C,0.130000*%
%ADD16C,0.260000*%
G04 APERTURE END LIST*
D10*
X12425000Y-11000000D02*
X13287500Y-11000000D01*
X17912500Y-3600000D02*
X17912500Y-3798918D01*
X27337500Y-4025000D02*
G75*
G03*
X27212500Y-3900000I-126640J-1640D01*
G01*
X23000000Y-14625000D02*
G75*
G03*
X23500000Y-14625000I250000J0D01*
G01*
X17800000Y-9000000D02*
X18187500Y-9000000D01*
X20600000Y-9500000D02*
X21113068Y-9500000D01*
X26637500Y-14000000D02*
X26687500Y-14000000D01*
X18567500Y-9500000D02*
X18967500Y-9500000D01*
X20450000Y-9500000D02*
G75*
G03*
X20450000Y-9800000I0J-150000D01*
G01*
X19850000Y-12700000D02*
X19850000Y-9950000D01*
X10025000Y-8025000D02*
X10025000Y-5600000D01*
X16800000Y-12000000D02*
X16965000Y-12000000D01*
X25475000Y-14500000D02*
G75*
G03*
X25475000Y-14000000I0J250000D01*
G01*
X16155000Y-11000000D02*
X16575000Y-11000000D01*
X17600000Y-11700000D02*
G75*
G03*
X17600000Y-12000000I0J-150000D01*
G01*
X17590008Y-16725001D02*
G75*
G03*
X17475000Y-16600000I-113478J11001D01*
G01*
X19075000Y-12000000D02*
X19045000Y-12000000D01*
X23500000Y-15625000D02*
X26450000Y-15625000D01*
X11300000Y-11500000D02*
G75*
G03*
X11300000Y-11000000I0J250000D01*
G01*
X9525000Y-8025000D02*
X7975000Y-8025000D01*
X21725000Y-18600000D02*
X19725000Y-18600000D01*
X26475000Y-14000000D02*
G75*
G03*
X26475000Y-14500000I0J-250000D01*
G01*
X16213059Y-4400004D02*
G75*
G03*
X16312500Y-4275000I-28950J125084D01*
G01*
X13537500Y-9999994D02*
G75*
G03*
X13412500Y-10112916I-6920J-117986D01*
G01*
X17911858Y-3499044D02*
X17912500Y-3600000D01*
X11800000Y-17225000D02*
X11800000Y-17300000D01*
X19200000Y-12125000D02*
X19200000Y-12150000D01*
X20450000Y-9800000D02*
X20450000Y-12700000D01*
X23000000Y-15625000D02*
X23000000Y-18317157D01*
X17590000Y-16725000D02*
X17590000Y-16975000D01*
X19200000Y-12875000D02*
G75*
G03*
X19325000Y-13000000I125000J0D01*
G01*
X25212500Y-14000000D02*
X21212500Y-11975000D01*
X24925415Y-10499999D02*
G75*
G03*
X24812500Y-10625000I1485J-114841D01*
G01*
X21212500Y-11975000D02*
X21212500Y-9700000D01*
X20450000Y-12700000D02*
G75*
G03*
X20450000Y-13000000I0J-150000D01*
G01*
X17450000Y-16600000D02*
X15325000Y-16600000D01*
X5675000Y-15475000D02*
X5675000Y-13275000D01*
X17600000Y-9300000D02*
X17600000Y-11700000D01*
X5675000Y-13175000D02*
X5675000Y-13275000D01*
X6225000Y-18100000D02*
X5798360Y-18100000D01*
X21725000Y-18600000D02*
X22875000Y-18600000D01*
X13537500Y-5400000D02*
X13687500Y-5400000D01*
X9525000Y-9025000D02*
X8975000Y-9025000D01*
X15412500Y-9875000D02*
X15412500Y-9625000D01*
X10410000Y-11500000D02*
X11300000Y-11500000D01*
X18037500Y-3900000D02*
X25687500Y-3900000D01*
X8200000Y-19000000D02*
X6200000Y-20000000D01*
X8975000Y-11500000D02*
X10410000Y-11500000D01*
X6200000Y-21475000D02*
G75*
G03*
X6325000Y-21600000I126640J1640D01*
G01*
X23500000Y-15625000D02*
G75*
G03*
X23000000Y-15625000I-250000J0D01*
G01*
X15412500Y-9625000D02*
X15412500Y-9125000D01*
X11137500Y-11000000D02*
X11300000Y-11000000D01*
X25475000Y-14500000D02*
X25475000Y-14625000D01*
X16690005Y-11125000D02*
G75*
G03*
X16575000Y-11000000I-125445J-10D01*
G01*
X26687500Y-14000000D02*
G75*
G03*
X26812500Y-13875000I-1640J126640D01*
G01*
X5800000Y-11500000D02*
X7325000Y-11500000D01*
X8975000Y-11000000D02*
X8975000Y-9025000D01*
X6325000Y-21600000D02*
X6375000Y-21600000D01*
X16437500Y-3400000D02*
G75*
G03*
X16312500Y-3525000I0J-125000D01*
G01*
X8975000Y-11000000D02*
G75*
G03*
X8975000Y-11500000I0J-250000D01*
G01*
X15537500Y-9000000D02*
X16062500Y-9000000D01*
X13287500Y-10999999D02*
G75*
G03*
X13412500Y-10876637I1630J123359D01*
G01*
X25687500Y-3900000D02*
X27212500Y-3900000D01*
X14975000Y-11500000D02*
G75*
G03*
X15100000Y-11398918I0J127830D01*
G01*
X27337500Y-9550000D02*
X27337500Y-10375000D01*
X15100000Y-11398918D02*
X15100642Y-11099044D01*
X18312500Y-9375000D02*
G75*
G03*
X18437500Y-9500000I126640J1640D01*
G01*
X17000000Y-9300000D02*
X17000000Y-11700000D01*
X16177500Y-9000000D02*
X16062500Y-9000000D01*
X11800000Y-17300000D02*
X11800000Y-19575000D01*
X10137500Y-11000000D02*
X11137500Y-11000000D01*
X19850000Y-9950000D02*
X19850000Y-9800000D01*
X19850000Y-13000000D02*
G75*
G03*
X19850000Y-12700000I0J150000D01*
G01*
X15225000Y-11000000D02*
X15400000Y-11000000D01*
X14825000Y-16600000D02*
G75*
G03*
X14700000Y-16725000I1640J-126640D01*
G01*
X19590000Y-18475000D02*
G75*
G03*
X19725000Y-18600000I133250J8510D01*
G01*
X14575000Y-17100000D02*
G75*
G03*
X14700000Y-16975000I-1640J126640D01*
G01*
X21212502Y-9625000D02*
G75*
G03*
X21113068Y-9500000I-119952J6630D01*
G01*
X24925415Y-10500000D02*
X26787500Y-10500000D01*
X27337500Y-5650000D02*
X27337500Y-7875000D01*
X15755000Y-11000000D02*
X15400000Y-11000000D01*
X5675001Y-17975000D02*
G75*
G03*
X5798360Y-18100000I123349J-1640D01*
G01*
X23000000Y-18475000D02*
X23000000Y-18317157D01*
X27214140Y-10500000D02*
X26787500Y-10500000D01*
X19440000Y-17600000D02*
X17690000Y-17600000D01*
X17590000Y-17462085D02*
X17590000Y-16975000D01*
X19200000Y-12875000D02*
X19200000Y-12150000D01*
X26475000Y-14000000D02*
X26637500Y-14000000D01*
X23000000Y-13125000D02*
G75*
G03*
X22875000Y-13000000I-125000J0D01*
G01*
X13937500Y-4400000D02*
X15462500Y-4400000D01*
X10025000Y-10875000D02*
G75*
G03*
X10137500Y-11000000I121950J-3370D01*
G01*
X16437500Y-3400000D02*
X17612500Y-3400000D01*
X15287500Y-10000000D02*
X13537500Y-10000000D01*
X13937500Y-4400000D02*
G75*
G03*
X13812500Y-4525000I0J-125000D01*
G01*
X17600000Y-12000000D02*
X19045000Y-12000000D01*
X7975000Y-11000000D02*
X7975000Y-8025000D01*
X17800000Y-9000000D02*
X17600000Y-9000000D01*
X19440000Y-17600000D02*
X19465000Y-17600000D01*
X5675000Y-17975000D02*
X5675000Y-17150000D01*
X16312500Y-3775643D02*
X16312500Y-3525000D01*
X26475000Y-14500000D02*
X26475000Y-15625000D01*
X17000000Y-9300000D02*
G75*
G03*
X17000000Y-9000000I0J150000D01*
G01*
X13687500Y-5400000D02*
G75*
G03*
X13812500Y-5275000I0J125000D01*
G01*
X16690000Y-11125000D02*
X16690000Y-11875000D01*
X24812500Y-11400000D02*
X24812500Y-10625000D01*
X18967500Y-9500000D02*
X19625000Y-9500000D01*
X10025000Y-10717157D02*
X10025000Y-9025000D01*
X10025000Y-9025000D02*
G75*
G03*
X9525000Y-9025000I-250000J0D01*
G01*
X19325000Y-13000000D02*
X19475000Y-13000000D01*
X19475000Y-13000000D02*
X19850000Y-13000000D01*
X14575000Y-17100000D02*
X13200000Y-17100000D01*
X11925000Y-17100000D02*
G75*
G03*
X11800000Y-17225000I1640J-126640D01*
G01*
X16312500Y-3775643D02*
X16312500Y-4275000D01*
X16577500Y-9000000D02*
X16875000Y-9000000D01*
X19590000Y-17725000D02*
G75*
G03*
X19465000Y-17600000I-127420J-2420D01*
G01*
X14825000Y-16600000D02*
X15325000Y-16600000D01*
X19625000Y-9500000D02*
X19850000Y-9500000D01*
X23500000Y-14625000D02*
X25475000Y-14625000D01*
X11800000Y-19575000D02*
X7800000Y-21600000D01*
X20450000Y-13000000D02*
X22875000Y-13000000D01*
X26812500Y-12400000D02*
X24812500Y-11400000D01*
X17911859Y-3499044D02*
G75*
G03*
X17787500Y-3400000I-121879J-25436D01*
G01*
X13200000Y-17100000D02*
X11925000Y-17100000D01*
X7800000Y-21600000D02*
X6375000Y-21600000D01*
X5675000Y-13175000D02*
X5675000Y-11625000D01*
X16875000Y-9000000D02*
X17000000Y-9000000D01*
X7975000Y-11500000D02*
G75*
G03*
X7975000Y-11000000I0J250000D01*
G01*
X13412500Y-10175000D02*
X13412500Y-10112916D01*
X5800000Y-11500000D02*
G75*
G03*
X5675000Y-11625000I1640J-126640D01*
G01*
X27214140Y-10500001D02*
G75*
G03*
X27337500Y-10375000I10J123361D01*
G01*
X10025000Y-10875000D02*
X10025000Y-10717157D01*
X26450000Y-15625000D02*
X26475000Y-15625000D01*
X26812500Y-13875000D02*
X26812500Y-12400000D01*
X19850000Y-9800000D02*
G75*
G03*
X19850000Y-9500000I0J150000D01*
G01*
X15287500Y-10000000D02*
G75*
G03*
X15412500Y-9875000I-1640J126640D01*
G01*
X18312500Y-9125000D02*
G75*
G03*
X18187500Y-9000000I-126640J-1640D01*
G01*
X13210000Y-11500000D02*
X14975000Y-11500000D01*
X14700000Y-16725000D02*
X14700000Y-16975000D01*
X19200000Y-12125000D02*
G75*
G03*
X19075000Y-12000000I-125000J0D01*
G01*
X19590000Y-18475000D02*
X19590000Y-17750000D01*
X10137500Y-5400000D02*
X13537500Y-5400000D01*
X10137500Y-5400004D02*
G75*
G03*
X10025000Y-5525000I6990J-119416D01*
G01*
X15537500Y-9000000D02*
G75*
G03*
X15412500Y-9125000I-1640J-123360D01*
G01*
X19590000Y-17750000D02*
X19590000Y-17725000D01*
X22875000Y-18600000D02*
G75*
G03*
X23000000Y-18475000I10J124990D01*
G01*
X15755000Y-11000000D02*
X16155000Y-11000000D01*
X16177500Y-9000000D02*
X16577500Y-9000000D01*
X16690006Y-11874999D02*
G75*
G03*
X16800000Y-12000000I138354J10850D01*
G01*
X9525000Y-8025000D02*
G75*
G03*
X10025000Y-8025000I250000J0D01*
G01*
X21212500Y-9700000D02*
X21212500Y-9625000D01*
X25475000Y-14000000D02*
X25212500Y-14000000D01*
X12425000Y-11000000D02*
X12300000Y-11000000D01*
X27337500Y-4025000D02*
X27337500Y-5650000D01*
X6225000Y-18100000D02*
X8087084Y-18100000D01*
X27337500Y-7875000D02*
X27337500Y-9550000D01*
X17600000Y-9000000D02*
G75*
G03*
X17600000Y-9300000I0J-150000D01*
G01*
X8199999Y-18225000D02*
G75*
G03*
X8087084Y-18100000I-114399J10160D01*
G01*
X16965000Y-12000000D02*
X17000000Y-12000000D01*
X17450000Y-16600000D02*
X17475000Y-16600000D01*
X13412500Y-10876637D02*
X13412500Y-10175000D01*
X6200000Y-20000000D02*
X6200000Y-21475000D01*
X18312500Y-9375000D02*
X18312500Y-9125000D01*
X10025000Y-5600000D02*
X10025000Y-5525000D01*
X8200000Y-18225000D02*
X8200000Y-19000000D01*
X7325000Y-11500000D02*
X7975000Y-11500000D01*
X17589996Y-17462084D02*
G75*
G03*
X17690000Y-17600000I133344J-8526D01*
G01*
X5675000Y-17150000D02*
X5675000Y-15475000D01*
X13812500Y-4550000D02*
X13812500Y-4525000D01*
X23000000Y-13125000D02*
X23000000Y-13200000D01*
X18437500Y-9500000D02*
X18567500Y-9500000D01*
X17912500Y-3798918D02*
G75*
G03*
X18037500Y-3900000I125000J26748D01*
G01*
X12300000Y-11500000D02*
X13210000Y-11500000D01*
X17612500Y-3400000D02*
X17787500Y-3400000D01*
X16213059Y-4400000D02*
X15462500Y-4400000D01*
X12300000Y-11000000D02*
G75*
G03*
X12300000Y-11500000I0J-250000D01*
G01*
X23000000Y-14625000D02*
X23000000Y-13200000D01*
X20600000Y-9500000D02*
X20450000Y-9500000D01*
X15225000Y-11000001D02*
G75*
G03*
X15100642Y-11099044I-2480J-124480D01*
G01*
X13812500Y-5275000D02*
X13812500Y-4550000D01*
X17000000Y-12000000D02*
G75*
G03*
X17000000Y-11700000I0J150000D01*
G01*
D11*
D12*
X6645000Y-20380000D02*
X6685000Y-20420000D01*
X6685000Y-20380000D02*
X6645000Y-20420000D01*
X7120000Y-19980000D02*
X7160000Y-20020000D01*
X7160000Y-19980000D02*
X7120000Y-20020000D01*
X7245000Y-19730000D02*
X7285000Y-19770000D01*
X7285000Y-19730000D02*
X7245000Y-19770000D01*
X7395000Y-14030000D02*
X7435000Y-14070000D01*
X7435000Y-14030000D02*
X7395000Y-14070000D01*
X7650000Y-14150000D02*
X7690000Y-14190000D01*
X7690000Y-14150000D02*
X7650000Y-14190000D01*
X7770000Y-16080000D02*
X7810000Y-16120000D01*
X7810000Y-16080000D02*
X7770000Y-16120000D01*
X8095000Y-17905000D02*
X8135000Y-17945000D01*
X8135000Y-17905000D02*
X8095000Y-17945000D01*
X8270000Y-17105000D02*
X8310000Y-17145000D01*
X8310000Y-17105000D02*
X8270000Y-17145000D01*
X8595000Y-18185000D02*
X8635000Y-18225000D01*
X8635000Y-18185000D02*
X8595000Y-18225000D01*
X8670000Y-19980000D02*
X8710000Y-20020000D01*
X8710000Y-19980000D02*
X8670000Y-20020000D01*
X8720000Y-15805000D02*
X8760000Y-15845000D01*
X8760000Y-15805000D02*
X8720000Y-15845000D01*
X8730000Y-18310000D02*
X8770000Y-18350000D01*
X8770000Y-18310000D02*
X8730000Y-18350000D01*
X8770000Y-19255000D02*
X8810000Y-19295000D01*
X8810000Y-19255000D02*
X8770000Y-19295000D01*
X8820000Y-17330000D02*
X8860000Y-17370000D01*
X8860000Y-17330000D02*
X8820000Y-17370000D01*
X8820000Y-19530000D02*
X8860000Y-19570000D01*
X8860000Y-19530000D02*
X8820000Y-19570000D01*
X9095000Y-20155000D02*
X9135000Y-20195000D01*
X9135000Y-20155000D02*
X9095000Y-20195000D01*
X9120000Y-18930000D02*
X9160000Y-18970000D01*
X9160000Y-18930000D02*
X9120000Y-18970000D01*
X9160000Y-18690000D02*
X9200000Y-18730000D01*
X9200000Y-18690000D02*
X9160000Y-18730000D01*
X9345000Y-20155000D02*
X9385000Y-20195000D01*
X9385000Y-20155000D02*
X9345000Y-20195000D01*
X9360000Y-18370000D02*
X9400000Y-18410000D01*
X9400000Y-18370000D02*
X9360000Y-18410000D01*
X9400000Y-18690000D02*
X9440000Y-18730000D01*
X9440000Y-18690000D02*
X9400000Y-18730000D01*
X9595000Y-17555000D02*
X9635000Y-17595000D01*
X9635000Y-17555000D02*
X9595000Y-17595000D01*
X10170000Y-19230000D02*
X10210000Y-19270000D01*
X10210000Y-19230000D02*
X10170000Y-19270000D01*
X10220000Y-17130000D02*
X10260000Y-17170000D01*
X10260000Y-17130000D02*
X10220000Y-17170000D01*
X10280000Y-10355000D02*
X10320000Y-10395000D01*
X10320000Y-10355000D02*
X10280000Y-10395000D01*
X10350000Y-7780000D02*
X10390000Y-7820000D01*
X10390000Y-7780000D02*
X10350000Y-7820000D01*
X10467500Y-5780000D02*
X10507500Y-5820000D01*
X10507500Y-5780000D02*
X10467500Y-5820000D01*
X10467500Y-7655000D02*
X10507500Y-7695000D01*
X10507500Y-7655000D02*
X10467500Y-7695000D01*
X10470000Y-16880000D02*
X10510000Y-16920000D01*
X10510000Y-16880000D02*
X10470000Y-16920000D01*
X10542500Y-9955000D02*
X10582500Y-9995000D01*
X10582500Y-9955000D02*
X10542500Y-9995000D01*
X10580000Y-9780000D02*
X10620000Y-9820000D01*
X10620000Y-9780000D02*
X10580000Y-9820000D01*
X10595000Y-17980000D02*
X10635000Y-18020000D01*
X10635000Y-17980000D02*
X10595000Y-18020000D01*
X10617500Y-6980000D02*
X10657500Y-7020000D01*
X10657500Y-6980000D02*
X10617500Y-7020000D01*
X10620000Y-16955000D02*
X10660000Y-16995000D01*
X10660000Y-16955000D02*
X10620000Y-16995000D01*
X10645000Y-14855000D02*
X10685000Y-14895000D01*
X10685000Y-14855000D02*
X10645000Y-14895000D01*
X10645398Y-17480524D02*
X10685398Y-17520524D01*
X10685398Y-17480524D02*
X10645398Y-17520524D01*
X10667450Y-18350000D02*
X10707450Y-18390000D01*
X10707450Y-18350000D02*
X10667450Y-18390000D01*
X10795000Y-14780000D02*
X10835000Y-14820000D01*
X10835000Y-14780000D02*
X10795000Y-14820000D01*
X10799429Y-15240916D02*
X10839429Y-15280916D01*
X10839429Y-15240916D02*
X10799429Y-15280916D01*
X10801161Y-9411964D02*
X10841161Y-9451964D01*
X10841161Y-9411964D02*
X10801161Y-9451964D01*
X10820000Y-14505000D02*
X10860000Y-14545000D01*
X10860000Y-14505000D02*
X10820000Y-14545000D01*
X10820000Y-18005000D02*
X10860000Y-18045000D01*
X10860000Y-18005000D02*
X10820000Y-18045000D01*
X10842500Y-6580000D02*
X10882500Y-6620000D01*
X10882500Y-6580000D02*
X10842500Y-6620000D01*
X10845000Y-13430000D02*
X10885000Y-13470000D01*
X10885000Y-13430000D02*
X10845000Y-13470000D01*
X10845000Y-13930000D02*
X10885000Y-13970000D01*
X10885000Y-13930000D02*
X10845000Y-13970000D01*
X10995000Y-12705000D02*
X11035000Y-12745000D01*
X11035000Y-12705000D02*
X10995000Y-12745000D01*
X11092500Y-9405000D02*
X11132500Y-9445000D01*
X11132500Y-9405000D02*
X11092500Y-9445000D01*
X11145000Y-13430000D02*
X11185000Y-13470000D01*
X11185000Y-13430000D02*
X11145000Y-13470000D01*
X11145511Y-14524313D02*
X11185510Y-14564313D01*
X11185510Y-14524313D02*
X11145511Y-14564313D01*
X11180000Y-18530000D02*
X11220000Y-18570000D01*
X11220000Y-18530000D02*
X11180000Y-18570000D01*
X11220000Y-15055000D02*
X11260000Y-15095000D01*
X11260000Y-15055000D02*
X11220000Y-15095000D01*
X11220000Y-17180000D02*
X11260000Y-17220000D01*
X11260000Y-17180000D02*
X11220000Y-17220000D01*
X11292500Y-9030000D02*
X11332500Y-9070000D01*
X11332500Y-9030000D02*
X11292500Y-9070000D01*
X11419823Y-17034562D02*
X11459823Y-17074562D01*
X11459823Y-17034562D02*
X11419823Y-17074562D01*
X11420000Y-13380000D02*
X11460000Y-13420000D01*
X11460000Y-13380000D02*
X11420000Y-13420000D01*
X11420000Y-13630000D02*
X11460000Y-13670000D01*
X11460000Y-13630000D02*
X11420000Y-13670000D01*
X11472491Y-16056896D02*
X11512491Y-16096896D01*
X11512491Y-16056896D02*
X11472491Y-16096896D01*
X11520000Y-11880000D02*
X11560000Y-11920000D01*
X11560000Y-11880000D02*
X11520000Y-11920000D01*
X11545000Y-13780000D02*
X11585000Y-13820000D01*
X11585000Y-13780000D02*
X11545000Y-13820000D01*
X11545000Y-17080000D02*
X11585000Y-17120000D01*
X11585000Y-17080000D02*
X11545000Y-17120000D01*
X11560000Y-13930000D02*
X11600000Y-13970000D01*
X11600000Y-13930000D02*
X11560000Y-13970000D01*
X11658730Y-16116270D02*
X11698730Y-16156270D01*
X11698730Y-16116270D02*
X11658730Y-16156270D01*
X11670000Y-15755000D02*
X11710000Y-15795000D01*
X11710000Y-15755000D02*
X11670000Y-15795000D01*
X11695000Y-15505000D02*
X11735000Y-15545000D01*
X11735000Y-15505000D02*
X11695000Y-15545000D01*
X11817500Y-6955000D02*
X11857500Y-6995000D01*
X11857500Y-6955000D02*
X11817500Y-6995000D01*
X11918259Y-16034278D02*
X11958259Y-16074278D01*
X11958259Y-16034278D02*
X11918259Y-16074278D01*
X12045000Y-13105000D02*
X12085000Y-13145000D01*
X12085000Y-13105000D02*
X12045000Y-13145000D01*
X12233947Y-11906394D02*
X12273947Y-11946394D01*
X12273947Y-11906394D02*
X12233947Y-11946394D01*
X12242500Y-7655000D02*
X12282500Y-7695000D01*
X12282500Y-7655000D02*
X12242500Y-7695000D01*
X12261450Y-7810000D02*
X12301450Y-7850000D01*
X12301450Y-7810000D02*
X12261450Y-7850000D01*
X12267500Y-5705000D02*
X12307500Y-5745000D01*
X12307500Y-5705000D02*
X12267500Y-5745000D01*
X12267500Y-9805000D02*
X12307500Y-9845000D01*
X12307500Y-9805000D02*
X12267500Y-9845000D01*
X12270000Y-9650000D02*
X12310000Y-9690000D01*
X12310000Y-9650000D02*
X12270000Y-9690000D01*
X12345000Y-15105000D02*
X12385000Y-15145000D01*
X12385000Y-15105000D02*
X12345000Y-15145000D01*
X12367500Y-6980000D02*
X12407500Y-7020000D01*
X12407500Y-6980000D02*
X12367500Y-7020000D01*
X12470000Y-16780000D02*
X12510000Y-16820000D01*
X12510000Y-16780000D02*
X12470000Y-16820000D01*
X12642500Y-7930000D02*
X12682500Y-7970000D01*
X12682500Y-7930000D02*
X12642500Y-7970000D01*
X12667500Y-9955000D02*
X12707500Y-9995000D01*
X12707500Y-9955000D02*
X12667500Y-9995000D01*
X12670000Y-12880000D02*
X12710000Y-12920000D01*
X12710000Y-12880000D02*
X12670000Y-12920000D01*
X13092500Y-9030000D02*
X13132500Y-9070000D01*
X13132500Y-9030000D02*
X13092500Y-9070000D01*
X13445000Y-15505000D02*
X13485000Y-15545000D01*
X13485000Y-15505000D02*
X13445000Y-15545000D01*
X13545000Y-11855000D02*
X13585000Y-11895000D01*
X13585000Y-11855000D02*
X13545000Y-11895000D01*
X13645000Y-13105000D02*
X13685000Y-13145000D01*
X13685000Y-13105000D02*
X13645000Y-13145000D01*
X13670000Y-13755000D02*
X13710000Y-13795000D01*
X13710000Y-13755000D02*
X13670000Y-13795000D01*
X13670000Y-13880000D02*
X13710000Y-13920000D01*
X13710000Y-13880000D02*
X13670000Y-13920000D01*
X13670000Y-15880000D02*
X13710000Y-15920000D01*
X13710000Y-15880000D02*
X13670000Y-15920000D01*
X13795000Y-15530000D02*
X13835000Y-15570000D01*
X13835000Y-15530000D02*
X13795000Y-15570000D01*
X14042500Y-6555000D02*
X14082500Y-6595000D01*
X14082500Y-6555000D02*
X14042500Y-6595000D01*
X14080000Y-16020000D02*
X14120000Y-16060000D01*
X14120000Y-16020000D02*
X14080000Y-16060000D01*
X14095000Y-13905000D02*
X14135000Y-13945000D01*
X14135000Y-13905000D02*
X14095000Y-13945000D01*
X14095000Y-15080000D02*
X14135000Y-15120000D01*
X14135000Y-15080000D02*
X14095000Y-15120000D01*
X14242500Y-4780000D02*
X14282500Y-4820000D01*
X14282500Y-4780000D02*
X14242500Y-4820000D01*
X14242500Y-6730000D02*
X14282500Y-6770000D01*
X14282500Y-6730000D02*
X14242500Y-6770000D01*
X14257829Y-6629432D02*
X14297829Y-6669432D01*
X14297829Y-6629432D02*
X14257829Y-6669432D01*
X14267500Y-8770000D02*
X14307500Y-8810000D01*
X14307500Y-8770000D02*
X14267500Y-8810000D01*
X14367500Y-8955000D02*
X14407500Y-8995000D01*
X14407500Y-8955000D02*
X14367500Y-8995000D01*
X14642500Y-6230000D02*
X14682500Y-6270000D01*
X14682500Y-6230000D02*
X14642500Y-6270000D01*
X14667500Y-6930000D02*
X14707500Y-6970000D01*
X14707500Y-6930000D02*
X14667500Y-6970000D01*
X14692500Y-7955000D02*
X14732500Y-7995000D01*
X14732500Y-7955000D02*
X14692500Y-7995000D01*
X14817500Y-8980000D02*
X14857500Y-9020000D01*
X14857500Y-8980000D02*
X14817500Y-9020000D01*
X15092500Y-8005000D02*
X15132500Y-8045000D01*
X15132500Y-8005000D02*
X15092500Y-8045000D01*
X15495000Y-15930000D02*
X15535000Y-15970000D01*
X15535000Y-15930000D02*
X15495000Y-15970000D01*
X15568190Y-11370984D02*
X15608190Y-11410984D01*
X15608190Y-11370984D02*
X15568190Y-11410984D01*
X15570000Y-14130000D02*
X15610000Y-14170000D01*
X15610000Y-14130000D02*
X15570000Y-14170000D01*
X15670000Y-13380000D02*
X15710000Y-13420000D01*
X15710000Y-13380000D02*
X15670000Y-13420000D01*
X15671230Y-15381230D02*
X15711230Y-15421230D01*
X15711230Y-15381230D02*
X15671230Y-15421230D01*
X15695000Y-16030000D02*
X15735000Y-16070000D01*
X15735000Y-16030000D02*
X15695000Y-16070000D01*
X15920000Y-12755000D02*
X15960000Y-12795000D01*
X15960000Y-12755000D02*
X15920000Y-12795000D01*
X15970000Y-15530000D02*
X16010000Y-15570000D01*
X16010000Y-15530000D02*
X15970000Y-15570000D01*
X15995000Y-13530000D02*
X16035000Y-13570000D01*
X16035000Y-13530000D02*
X15995000Y-13570000D01*
X16020000Y-14705000D02*
X16060000Y-14745000D01*
X16060000Y-14705000D02*
X16020000Y-14745000D01*
X16642500Y-4955000D02*
X16682500Y-4995000D01*
X16682500Y-4955000D02*
X16642500Y-4995000D01*
X16692500Y-5430000D02*
X16732500Y-5470000D01*
X16732500Y-5430000D02*
X16692500Y-5470000D01*
X16742500Y-3780000D02*
X16782500Y-3820000D01*
X16782500Y-3780000D02*
X16742500Y-3820000D01*
X16772248Y-5621182D02*
X16812248Y-5661182D01*
X16812248Y-5621182D02*
X16772248Y-5661182D01*
X16792500Y-6080000D02*
X16832500Y-6120000D01*
X16832500Y-6080000D02*
X16792500Y-6120000D01*
X16792500Y-7930000D02*
X16832500Y-7970000D01*
X16832500Y-7930000D02*
X16792500Y-7970000D01*
X17092500Y-7930000D02*
X17132500Y-7970000D01*
X17132500Y-7930000D02*
X17092500Y-7970000D01*
X17117500Y-5180000D02*
X17157500Y-5220000D01*
X17157500Y-5180000D02*
X17117500Y-5220000D01*
X17192500Y-5930000D02*
X17232500Y-5970000D01*
X17232500Y-5930000D02*
X17192500Y-5970000D01*
X17292500Y-7930000D02*
X17332500Y-7970000D01*
X17332500Y-7930000D02*
X17292500Y-7970000D01*
X17592500Y-7005000D02*
X17632500Y-7045000D01*
X17632500Y-7005000D02*
X17592500Y-7045000D01*
X17770000Y-16380000D02*
X17810000Y-16420000D01*
X17810000Y-16380000D02*
X17770000Y-16420000D01*
X17770000Y-16480000D02*
X17810000Y-16520000D01*
X17810000Y-16480000D02*
X17770000Y-16520000D01*
X18045000Y-12380000D02*
X18085000Y-12420000D01*
X18085000Y-12380000D02*
X18045000Y-12420000D01*
X18070000Y-14955000D02*
X18110000Y-14995000D01*
X18110000Y-14955000D02*
X18070000Y-14995000D01*
X18070000Y-17155000D02*
X18110000Y-17195000D01*
X18110000Y-17155000D02*
X18070000Y-17195000D01*
X18095000Y-16880000D02*
X18135000Y-16920000D01*
X18135000Y-16880000D02*
X18095000Y-16920000D01*
X18174540Y-14376518D02*
X18214540Y-14416518D01*
X18214540Y-14376518D02*
X18174540Y-14416518D01*
X18220000Y-13630000D02*
X18260000Y-13670000D01*
X18260000Y-13630000D02*
X18220000Y-13670000D01*
X18470000Y-14530000D02*
X18510000Y-14570000D01*
X18510000Y-14530000D02*
X18470000Y-14570000D01*
X18486082Y-8835075D02*
X18526082Y-8875075D01*
X18526082Y-8835075D02*
X18486082Y-8875075D01*
X18592500Y-6505000D02*
X18632500Y-6545000D01*
X18632500Y-6505000D02*
X18592500Y-6545000D01*
X18595000Y-16405000D02*
X18635000Y-16445000D01*
X18635000Y-16405000D02*
X18595000Y-16445000D01*
X18720000Y-16530000D02*
X18760000Y-16570000D01*
X18760000Y-16530000D02*
X18720000Y-16570000D01*
X18742500Y-6130000D02*
X18782500Y-6170000D01*
X18782500Y-6130000D02*
X18742500Y-6170000D01*
X18767500Y-4280000D02*
X18807500Y-4320000D01*
X18807500Y-4280000D02*
X18767500Y-4320000D01*
X18767500Y-8180000D02*
X18807500Y-8220000D01*
X18807500Y-8180000D02*
X18767500Y-8220000D01*
X18870000Y-15605000D02*
X18910000Y-15645000D01*
X18910000Y-15605000D02*
X18870000Y-15645000D01*
X18942500Y-5905000D02*
X18982500Y-5945000D01*
X18982500Y-5905000D02*
X18942500Y-5945000D01*
X19017500Y-7930000D02*
X19057500Y-7970000D01*
X19057500Y-7930000D02*
X19017500Y-7970000D01*
X19117500Y-5605000D02*
X19157500Y-5645000D01*
X19157500Y-5605000D02*
X19117500Y-5645000D01*
X19192500Y-8430000D02*
X19232500Y-8470000D01*
X19232500Y-8430000D02*
X19192500Y-8470000D01*
X19342500Y-8905000D02*
X19382500Y-8945000D01*
X19382500Y-8905000D02*
X19342500Y-8945000D01*
X19420000Y-6380000D02*
X19460000Y-6420000D01*
X19460000Y-6380000D02*
X19420000Y-6420000D01*
X19592500Y-7530000D02*
X19632500Y-7570000D01*
X19632500Y-7530000D02*
X19592500Y-7570000D01*
X19695000Y-16580000D02*
X19735000Y-16620000D01*
X19735000Y-16580000D02*
X19695000Y-16620000D01*
X19864455Y-17555000D02*
X19904455Y-17595000D01*
X19904455Y-17555000D02*
X19864455Y-17595000D01*
X20045000Y-17455000D02*
X20085000Y-17495000D01*
X20085000Y-17455000D02*
X20045000Y-17495000D01*
X20067262Y-13376081D02*
X20107262Y-13416081D01*
X20107262Y-13376081D02*
X20067262Y-13416081D01*
X20070000Y-17230000D02*
X20110000Y-17270000D01*
X20110000Y-17230000D02*
X20070000Y-17270000D01*
X20170000Y-15380000D02*
X20210000Y-15420000D01*
X20210000Y-15380000D02*
X20170000Y-15420000D01*
X20170000Y-17370000D02*
X20210000Y-17410000D01*
X20210000Y-17370000D02*
X20170000Y-17410000D01*
X20174621Y-15261635D02*
X20214621Y-15301635D01*
X20214621Y-15261635D02*
X20174621Y-15301635D01*
X20245000Y-14605000D02*
X20285000Y-14645000D01*
X20285000Y-14605000D02*
X20245000Y-14645000D01*
X20470000Y-15530000D02*
X20510000Y-15570000D01*
X20510000Y-15530000D02*
X20470000Y-15570000D01*
X20495000Y-16755000D02*
X20535000Y-16795000D01*
X20535000Y-16755000D02*
X20495000Y-16795000D01*
X20592500Y-4130000D02*
X20632500Y-4170000D01*
X20632500Y-4130000D02*
X20592500Y-4170000D01*
X20695000Y-17555000D02*
X20735000Y-17595000D01*
X20735000Y-17555000D02*
X20695000Y-17595000D01*
X20742500Y-4280000D02*
X20782500Y-4320000D01*
X20782500Y-4280000D02*
X20742500Y-4320000D01*
X20789900Y-6157450D02*
X20829900Y-6197450D01*
X20829900Y-6157450D02*
X20789900Y-6197450D01*
X20817500Y-6555000D02*
X20857500Y-6595000D01*
X20857500Y-6555000D02*
X20817500Y-6595000D01*
X20843333Y-5487226D02*
X20883333Y-5527226D01*
X20883333Y-5487226D02*
X20843333Y-5527226D01*
X20917500Y-8430000D02*
X20957500Y-8470000D01*
X20957500Y-8430000D02*
X20917500Y-8470000D01*
X21217500Y-5930000D02*
X21257500Y-5970000D01*
X21257500Y-5930000D02*
X21217500Y-5970000D01*
X21217500Y-7705000D02*
X21257500Y-7745000D01*
X21257500Y-7705000D02*
X21217500Y-7745000D01*
X21297500Y-4450000D02*
X21337500Y-4490000D01*
X21337500Y-4450000D02*
X21297500Y-4490000D01*
X21392500Y-10630000D02*
X21432500Y-10670000D01*
X21432500Y-10630000D02*
X21392500Y-10670000D01*
X21417500Y-6255000D02*
X21457500Y-6295000D01*
X21457500Y-6255000D02*
X21417500Y-6295000D01*
X21442500Y-8280000D02*
X21482500Y-8320000D01*
X21482500Y-8280000D02*
X21442500Y-8320000D01*
X21527215Y-4461397D02*
X21567215Y-4501397D01*
X21567215Y-4461397D02*
X21527215Y-4501397D01*
X21567500Y-4963872D02*
X21607500Y-5003872D01*
X21607500Y-4963872D02*
X21567500Y-5003872D01*
X21642500Y-5805000D02*
X21682500Y-5845000D01*
X21682500Y-5805000D02*
X21642500Y-5845000D01*
X21667500Y-10630000D02*
X21707500Y-10670000D01*
X21707500Y-10630000D02*
X21667500Y-10670000D01*
X21692500Y-10030000D02*
X21732500Y-10070000D01*
X21732500Y-10030000D02*
X21692500Y-10070000D01*
X21692500Y-11955000D02*
X21732500Y-11995000D01*
X21732500Y-11955000D02*
X21692500Y-11995000D01*
X21717500Y-6505000D02*
X21757500Y-6545000D01*
X21757500Y-6505000D02*
X21717500Y-6545000D01*
X21720000Y-10960000D02*
X21760000Y-11000000D01*
X21760000Y-10960000D02*
X21720000Y-11000000D01*
X21742500Y-9930000D02*
X21782500Y-9970000D01*
X21782500Y-9930000D02*
X21742500Y-9970000D01*
X21817500Y-10105000D02*
X21857500Y-10145000D01*
X21857500Y-10105000D02*
X21817500Y-10145000D01*
X21870000Y-13330000D02*
X21910000Y-13370000D01*
X21910000Y-13330000D02*
X21870000Y-13370000D01*
X21895000Y-18180000D02*
X21935000Y-18220000D01*
X21935000Y-18180000D02*
X21895000Y-18220000D01*
X21942500Y-4380000D02*
X21982500Y-4420000D01*
X21982500Y-4380000D02*
X21942500Y-4420000D01*
X21970000Y-15380000D02*
X22010000Y-15420000D01*
X22010000Y-15380000D02*
X21970000Y-15420000D01*
X21995000Y-14605000D02*
X22035000Y-14645000D01*
X22035000Y-14605000D02*
X21995000Y-14645000D01*
X21995000Y-17530000D02*
X22035000Y-17570000D01*
X22035000Y-17530000D02*
X21995000Y-17570000D01*
X22117500Y-7305000D02*
X22157500Y-7345000D01*
X22157500Y-7305000D02*
X22117500Y-7345000D01*
X22117500Y-10105000D02*
X22157500Y-10145000D01*
X22157500Y-10105000D02*
X22117500Y-10145000D01*
X22142500Y-5855000D02*
X22182500Y-5895000D01*
X22182500Y-5855000D02*
X22142500Y-5895000D01*
X22242500Y-4380000D02*
X22282500Y-4420000D01*
X22282500Y-4380000D02*
X22242500Y-4420000D01*
X22242500Y-10030000D02*
X22282500Y-10070000D01*
X22282500Y-10030000D02*
X22242500Y-10070000D01*
X22245341Y-6795446D02*
X22285341Y-6835446D01*
X22285341Y-6795446D02*
X22245341Y-6835446D01*
X22267500Y-5805000D02*
X22307500Y-5845000D01*
X22307500Y-5805000D02*
X22267500Y-5845000D01*
X22270000Y-17530000D02*
X22310000Y-17570000D01*
X22310000Y-17530000D02*
X22270000Y-17570000D01*
X22292500Y-4805000D02*
X22332500Y-4845000D01*
X22332500Y-4805000D02*
X22292500Y-4845000D01*
X22370000Y-16555000D02*
X22410000Y-16595000D01*
X22410000Y-16555000D02*
X22370000Y-16595000D01*
X22467500Y-6230000D02*
X22507500Y-6270000D01*
X22507500Y-6230000D02*
X22467500Y-6270000D01*
X22517500Y-12055000D02*
X22557500Y-12095000D01*
X22557500Y-12055000D02*
X22517500Y-12095000D01*
X22520000Y-15380000D02*
X22560000Y-15420000D01*
X22560000Y-15380000D02*
X22520000Y-15420000D01*
X23042500Y-10030000D02*
X23082500Y-10070000D01*
X23082500Y-10030000D02*
X23042500Y-10070000D01*
X23242500Y-4905000D02*
X23282500Y-4945000D01*
X23282500Y-4905000D02*
X23242500Y-4945000D01*
X23292500Y-7905000D02*
X23332500Y-7945000D01*
X23332500Y-7905000D02*
X23292500Y-7945000D01*
X23317500Y-8155000D02*
X23357500Y-8195000D01*
X23357500Y-8155000D02*
X23317500Y-8195000D01*
X23667500Y-11655000D02*
X23707500Y-11695000D01*
X23707500Y-11655000D02*
X23667500Y-11695000D01*
X23667500Y-11805000D02*
X23707500Y-11845000D01*
X23707500Y-11805000D02*
X23667500Y-11845000D01*
X23667500Y-12080000D02*
X23707500Y-12120000D01*
X23707500Y-12080000D02*
X23667500Y-12120000D01*
X23692500Y-12380000D02*
X23732500Y-12420000D01*
X23732500Y-12380000D02*
X23692500Y-12420000D01*
X23717500Y-10155000D02*
X23757500Y-10195000D01*
X23757500Y-10155000D02*
X23717500Y-10195000D01*
X23967500Y-11930000D02*
X24007500Y-11970000D01*
X24007500Y-11930000D02*
X23967500Y-11970000D01*
X24230000Y-9570000D02*
X24270000Y-9610000D01*
X24270000Y-9570000D02*
X24230000Y-9610000D01*
X24242500Y-11080000D02*
X24282500Y-11120000D01*
X24282500Y-11080000D02*
X24242500Y-11120000D01*
X24367500Y-11430000D02*
X24407500Y-11470000D01*
X24407500Y-11430000D02*
X24367500Y-11470000D01*
X24442500Y-9380000D02*
X24482500Y-9420000D01*
X24482500Y-9380000D02*
X24442500Y-9420000D01*
X24517500Y-12030000D02*
X24557500Y-12070000D01*
X24557500Y-12030000D02*
X24517500Y-12070000D01*
X24542500Y-12930000D02*
X24582500Y-12970000D01*
X24582500Y-12930000D02*
X24542500Y-12970000D01*
X24670000Y-10510000D02*
X24710000Y-10550000D01*
X24710000Y-10510000D02*
X24670000Y-10550000D01*
X24692500Y-12930000D02*
X24732500Y-12970000D01*
X24732500Y-12930000D02*
X24692500Y-12970000D01*
X24942903Y-5784413D02*
X24982903Y-5824413D01*
X24982903Y-5784413D02*
X24942903Y-5824413D01*
X25060000Y-9210000D02*
X25100000Y-9250000D01*
X25100000Y-9210000D02*
X25060000Y-9250000D01*
X25103263Y-7253267D02*
X25143263Y-7293267D01*
X25143263Y-7253267D02*
X25103263Y-7293267D01*
X25142500Y-5730000D02*
X25182500Y-5770000D01*
X25182500Y-5730000D02*
X25142500Y-5770000D01*
X25142500Y-5980000D02*
X25182500Y-6020000D01*
X25182500Y-5980000D02*
X25142500Y-6020000D01*
X25142500Y-6405000D02*
X25182500Y-6445000D01*
X25182500Y-6405000D02*
X25142500Y-6445000D01*
X25167500Y-7930000D02*
X25207500Y-7970000D01*
X25207500Y-7930000D02*
X25167500Y-7970000D01*
X25192500Y-12330000D02*
X25232500Y-12370000D01*
X25232500Y-12330000D02*
X25192500Y-12370000D01*
X25442500Y-5730000D02*
X25482500Y-5770000D01*
X25482500Y-5730000D02*
X25442500Y-5770000D01*
X25442500Y-6655000D02*
X25482500Y-6695000D01*
X25482500Y-6655000D02*
X25442500Y-6695000D01*
X25467500Y-7155000D02*
X25507500Y-7195000D01*
X25507500Y-7155000D02*
X25467500Y-7195000D01*
X25542500Y-7616880D02*
X25582500Y-7656880D01*
X25582500Y-7616880D02*
X25542500Y-7656880D01*
X25667500Y-7230000D02*
X25707500Y-7270000D01*
X25707500Y-7230000D02*
X25667500Y-7270000D01*
X25717500Y-8905000D02*
X25757500Y-8945000D01*
X25757500Y-8905000D02*
X25717500Y-8945000D01*
X25742500Y-4155000D02*
X25782500Y-4195000D01*
X25782500Y-4155000D02*
X25742500Y-4195000D01*
X25767500Y-4880000D02*
X25807500Y-4920000D01*
X25807500Y-4880000D02*
X25767500Y-4920000D01*
X25817500Y-12055000D02*
X25857500Y-12095000D01*
X25857500Y-12055000D02*
X25817500Y-12095000D01*
X25817500Y-12430000D02*
X25857500Y-12470000D01*
X25857500Y-12430000D02*
X25817500Y-12470000D01*
X26167500Y-5080000D02*
X26207500Y-5120000D01*
X26207500Y-5080000D02*
X26167500Y-5120000D01*
X26217500Y-12230000D02*
X26257500Y-12270000D01*
X26257500Y-12230000D02*
X26217500Y-12270000D01*
X26310000Y-12790000D02*
X26350000Y-12830000D01*
X26350000Y-12790000D02*
X26310000Y-12830000D01*
X26392500Y-12705000D02*
X26432500Y-12745000D01*
X26432500Y-12705000D02*
X26392500Y-12745000D01*
X26467500Y-7955000D02*
X26507500Y-7995000D01*
X26507500Y-7955000D02*
X26467500Y-7995000D01*
X26467500Y-8105000D02*
X26507500Y-8145000D01*
X26507500Y-8105000D02*
X26467500Y-8145000D01*
X26869749Y-5076463D02*
X26909749Y-5116463D01*
X26909749Y-5076463D02*
X26869749Y-5116463D01*
X27092500Y-6755000D02*
X27132500Y-6795000D01*
X27132500Y-6755000D02*
X27092500Y-6795000D01*
X27092500Y-6930000D02*
X27132500Y-6970000D01*
X27132500Y-6930000D02*
X27092500Y-6970000D01*
D10*
X25725000Y-6000000D02*
G75*
G03*
X25725000Y-6000000I-50000J0D01*
G01*
X25725000Y-6250000D02*
G75*
G03*
X25725000Y-6250000I-50000J0D01*
G01*
X25725000Y-6500000D02*
G75*
G03*
X25725000Y-6500000I-50000J0D01*
G01*
X27175000Y-6000000D02*
G75*
G03*
X27175000Y-6000000I-50000J0D01*
G01*
X27175000Y-6500000D02*
G75*
G03*
X27175000Y-6500000I-50000J0D01*
G01*
D13*
X8461000Y-11686000D02*
X8461000Y-11788000D01*
X8410000Y-11737000D02*
X8512000Y-11737000D01*
X8461000Y-11940000D02*
X8461000Y-12042000D01*
X8410000Y-11991000D02*
X8512000Y-11991000D01*
X8461000Y-12194000D02*
X8461000Y-12296000D01*
X8410000Y-12245000D02*
X8512000Y-12245000D01*
X8461000Y-12448000D02*
X8461000Y-12550000D01*
X8410000Y-12499000D02*
X8512000Y-12499000D01*
X8461000Y-12702000D02*
X8461000Y-12804000D01*
X8410000Y-12753000D02*
X8512000Y-12753000D01*
X8461000Y-12956000D02*
X8461000Y-13058000D01*
X8410000Y-13007000D02*
X8512000Y-13007000D01*
X8461000Y-13210000D02*
X8461000Y-13312000D01*
X8410000Y-13261000D02*
X8512000Y-13261000D01*
X8461000Y-13464000D02*
X8461000Y-13566000D01*
X8410000Y-13515000D02*
X8512000Y-13515000D01*
X8461000Y-13718000D02*
X8461000Y-13820000D01*
X8410000Y-13769000D02*
X8512000Y-13769000D01*
X8461000Y-13972000D02*
X8461000Y-14074000D01*
X8410000Y-14023000D02*
X8512000Y-14023000D01*
X8461000Y-14226000D02*
X8461000Y-14328000D01*
X8410000Y-14277000D02*
X8512000Y-14277000D01*
X8461000Y-14480000D02*
X8461000Y-14582000D01*
X8410000Y-14531000D02*
X8512000Y-14531000D01*
X8461000Y-14734000D02*
X8461000Y-14836000D01*
X8410000Y-14785000D02*
X8512000Y-14785000D01*
X8461000Y-14988000D02*
X8461000Y-15090000D01*
X8410000Y-15039000D02*
X8512000Y-15039000D01*
X8461000Y-15242000D02*
X8461000Y-15344000D01*
X8410000Y-15293000D02*
X8512000Y-15293000D01*
X8461000Y-15496000D02*
X8461000Y-15598000D01*
X8410000Y-15547000D02*
X8512000Y-15547000D01*
X8461000Y-15750000D02*
X8461000Y-15852000D01*
X8410000Y-15801000D02*
X8512000Y-15801000D01*
X8461000Y-16004000D02*
X8461000Y-16106000D01*
X8410000Y-16055000D02*
X8512000Y-16055000D01*
X8461000Y-16258000D02*
X8461000Y-16360000D01*
X8410000Y-16309000D02*
X8512000Y-16309000D01*
X8461000Y-16512000D02*
X8461000Y-16614000D01*
X8410000Y-16563000D02*
X8512000Y-16563000D01*
X9096000Y-16489000D02*
X9096000Y-16591000D01*
X9045000Y-16540000D02*
X9147000Y-16540000D01*
X9350000Y-16489000D02*
X9350000Y-16591000D01*
X9299000Y-16540000D02*
X9401000Y-16540000D01*
X9604000Y-16489000D02*
X9604000Y-16591000D01*
X9553000Y-16540000D02*
X9655000Y-16540000D01*
X10239000Y-11686000D02*
X10239000Y-11788000D01*
X10188000Y-11737000D02*
X10290000Y-11737000D01*
X10239000Y-11940000D02*
X10239000Y-12042000D01*
X10188000Y-11991000D02*
X10290000Y-11991000D01*
X10239000Y-12194000D02*
X10239000Y-12296000D01*
X10188000Y-12245000D02*
X10290000Y-12245000D01*
X10239000Y-12448000D02*
X10239000Y-12550000D01*
X10188000Y-12499000D02*
X10290000Y-12499000D01*
X10239000Y-12702000D02*
X10239000Y-12804000D01*
X10188000Y-12753000D02*
X10290000Y-12753000D01*
X10239000Y-12956000D02*
X10239000Y-13058000D01*
X10188000Y-13007000D02*
X10290000Y-13007000D01*
X10239000Y-13210000D02*
X10239000Y-13312000D01*
X10188000Y-13261000D02*
X10290000Y-13261000D01*
X10239000Y-13464000D02*
X10239000Y-13566000D01*
X10188000Y-13515000D02*
X10290000Y-13515000D01*
X10239000Y-13718000D02*
X10239000Y-13820000D01*
X10188000Y-13769000D02*
X10290000Y-13769000D01*
X10239000Y-13972000D02*
X10239000Y-14074000D01*
X10188000Y-14023000D02*
X10290000Y-14023000D01*
X10239000Y-14226000D02*
X10239000Y-14328000D01*
X10188000Y-14277000D02*
X10290000Y-14277000D01*
X10239000Y-14480000D02*
X10239000Y-14582000D01*
X10188000Y-14531000D02*
X10290000Y-14531000D01*
X10239000Y-14734000D02*
X10239000Y-14836000D01*
X10188000Y-14785000D02*
X10290000Y-14785000D01*
X10239000Y-14988000D02*
X10239000Y-15090000D01*
X10188000Y-15039000D02*
X10290000Y-15039000D01*
X10239000Y-15242000D02*
X10239000Y-15344000D01*
X10188000Y-15293000D02*
X10290000Y-15293000D01*
X10239000Y-15496000D02*
X10239000Y-15598000D01*
X10188000Y-15547000D02*
X10290000Y-15547000D01*
X10239000Y-15750000D02*
X10239000Y-15852000D01*
X10188000Y-15801000D02*
X10290000Y-15801000D01*
X10239000Y-16004000D02*
X10239000Y-16106000D01*
X10188000Y-16055000D02*
X10290000Y-16055000D01*
X10239000Y-16258000D02*
X10239000Y-16360000D01*
X10188000Y-16309000D02*
X10290000Y-16309000D01*
X10239000Y-16512000D02*
X10239000Y-16614000D01*
X10188000Y-16563000D02*
X10290000Y-16563000D01*
X22823500Y-4086000D02*
X22823500Y-4188000D01*
X22772500Y-4137000D02*
X22874500Y-4137000D01*
X22823500Y-4340000D02*
X22823500Y-4442000D01*
X22772500Y-4391000D02*
X22874500Y-4391000D01*
X22823500Y-4594000D02*
X22823500Y-4696000D01*
X22772500Y-4645000D02*
X22874500Y-4645000D01*
X22823500Y-4848000D02*
X22823500Y-4950000D01*
X22772500Y-4899000D02*
X22874500Y-4899000D01*
X22823500Y-5102000D02*
X22823500Y-5204000D01*
X22772500Y-5153000D02*
X22874500Y-5153000D01*
X22823500Y-5356000D02*
X22823500Y-5458000D01*
X22772500Y-5407000D02*
X22874500Y-5407000D01*
X22823500Y-5610000D02*
X22823500Y-5712000D01*
X22772500Y-5661000D02*
X22874500Y-5661000D01*
X22823500Y-5864000D02*
X22823500Y-5966000D01*
X22772500Y-5915000D02*
X22874500Y-5915000D01*
X22823500Y-6118000D02*
X22823500Y-6220000D01*
X22772500Y-6169000D02*
X22874500Y-6169000D01*
X22823500Y-6372000D02*
X22823500Y-6474000D01*
X22772500Y-6423000D02*
X22874500Y-6423000D01*
X22823500Y-6626000D02*
X22823500Y-6728000D01*
X22772500Y-6677000D02*
X22874500Y-6677000D01*
X22823500Y-6880000D02*
X22823500Y-6982000D01*
X22772500Y-6931000D02*
X22874500Y-6931000D01*
X22823500Y-7134000D02*
X22823500Y-7236000D01*
X22772500Y-7185000D02*
X22874500Y-7185000D01*
X22823500Y-7388000D02*
X22823500Y-7490000D01*
X22772500Y-7439000D02*
X22874500Y-7439000D01*
X22823500Y-7642000D02*
X22823500Y-7744000D01*
X22772500Y-7693000D02*
X22874500Y-7693000D01*
X22823500Y-7896000D02*
X22823500Y-7998000D01*
X22772500Y-7947000D02*
X22874500Y-7947000D01*
X22823500Y-8150000D02*
X22823500Y-8252000D01*
X22772500Y-8201000D02*
X22874500Y-8201000D01*
X22823500Y-8404000D02*
X22823500Y-8506000D01*
X22772500Y-8455000D02*
X22874500Y-8455000D01*
X22823500Y-8658000D02*
X22823500Y-8760000D01*
X22772500Y-8709000D02*
X22874500Y-8709000D01*
X22823500Y-8912000D02*
X22823500Y-9014000D01*
X22772500Y-8963000D02*
X22874500Y-8963000D01*
X23458500Y-8889000D02*
X23458500Y-8991000D01*
X23407500Y-8940000D02*
X23509500Y-8940000D01*
X23712500Y-8889000D02*
X23712500Y-8991000D01*
X23661500Y-8940000D02*
X23763500Y-8940000D01*
X23966500Y-8889000D02*
X23966500Y-8991000D01*
X23915500Y-8940000D02*
X24017500Y-8940000D01*
X24601500Y-4086000D02*
X24601500Y-4188000D01*
X24550500Y-4137000D02*
X24652500Y-4137000D01*
X24601500Y-4340000D02*
X24601500Y-4442000D01*
X24550500Y-4391000D02*
X24652500Y-4391000D01*
X24601500Y-4594000D02*
X24601500Y-4696000D01*
X24550500Y-4645000D02*
X24652500Y-4645000D01*
X24601500Y-4848000D02*
X24601500Y-4950000D01*
X24550500Y-4899000D02*
X24652500Y-4899000D01*
X24601500Y-5102000D02*
X24601500Y-5204000D01*
X24550500Y-5153000D02*
X24652500Y-5153000D01*
X24601500Y-5356000D02*
X24601500Y-5458000D01*
X24550500Y-5407000D02*
X24652500Y-5407000D01*
X24601500Y-5610000D02*
X24601500Y-5712000D01*
X24550500Y-5661000D02*
X24652500Y-5661000D01*
X24601500Y-5864000D02*
X24601500Y-5966000D01*
X24550500Y-5915000D02*
X24652500Y-5915000D01*
X24601500Y-6118000D02*
X24601500Y-6220000D01*
X24550500Y-6169000D02*
X24652500Y-6169000D01*
X24601500Y-6372000D02*
X24601500Y-6474000D01*
X24550500Y-6423000D02*
X24652500Y-6423000D01*
X24601500Y-6626000D02*
X24601500Y-6728000D01*
X24550500Y-6677000D02*
X24652500Y-6677000D01*
X24601500Y-6880000D02*
X24601500Y-6982000D01*
X24550500Y-6931000D02*
X24652500Y-6931000D01*
X24601500Y-7134000D02*
X24601500Y-7236000D01*
X24550500Y-7185000D02*
X24652500Y-7185000D01*
X24601500Y-7388000D02*
X24601500Y-7490000D01*
X24550500Y-7439000D02*
X24652500Y-7439000D01*
X24601500Y-7642000D02*
X24601500Y-7744000D01*
X24550500Y-7693000D02*
X24652500Y-7693000D01*
X24601500Y-7896000D02*
X24601500Y-7998000D01*
X24550500Y-7947000D02*
X24652500Y-7947000D01*
X24601500Y-8150000D02*
X24601500Y-8252000D01*
X24550500Y-8201000D02*
X24652500Y-8201000D01*
X24601500Y-8404000D02*
X24601500Y-8506000D01*
X24550500Y-8455000D02*
X24652500Y-8455000D01*
X24601500Y-8658000D02*
X24601500Y-8760000D01*
X24550500Y-8709000D02*
X24652500Y-8709000D01*
X24601500Y-8912000D02*
X24601500Y-9014000D01*
X24550500Y-8963000D02*
X24652500Y-8963000D01*
D14*
X6544902Y-21224902D02*
X6544902Y-21135098D01*
X6455098Y-21135098D01*
X6455098Y-21224902D01*
X6544902Y-21224902D01*
X7044902Y-21434902D02*
X7044902Y-21345098D01*
X6955098Y-21345098D01*
X6955098Y-21434902D01*
X7044902Y-21434902D01*
X8544902Y-20224902D02*
X8544902Y-20135098D01*
X8455098Y-20135098D01*
X8455098Y-20224902D01*
X8544902Y-20224902D01*
X9044902Y-20434902D02*
X9044902Y-20345098D01*
X8955098Y-20345098D01*
X8955098Y-20434902D01*
X9044902Y-20434902D01*
X10357402Y-6624902D02*
X10357402Y-6535098D01*
X10267598Y-6535098D01*
X10267598Y-6624902D01*
X10357402Y-6624902D01*
X10357402Y-8624902D02*
X10357402Y-8535098D01*
X10267598Y-8535098D01*
X10267598Y-8624902D01*
X10357402Y-8624902D01*
X10357402Y-10624902D02*
X10357402Y-10535098D01*
X10267598Y-10535098D01*
X10267598Y-10624902D01*
X10357402Y-10624902D01*
X10544902Y-19224902D02*
X10544902Y-19135098D01*
X10455098Y-19135098D01*
X10455098Y-19224902D01*
X10544902Y-19224902D01*
X10857402Y-6834902D02*
X10857402Y-6745098D01*
X10767598Y-6745098D01*
X10767598Y-6834902D01*
X10857402Y-6834902D01*
X10857402Y-8834902D02*
X10857402Y-8745098D01*
X10767598Y-8745098D01*
X10767598Y-8834902D01*
X10857402Y-8834902D01*
X10857402Y-10834902D02*
X10857402Y-10745098D01*
X10767598Y-10745098D01*
X10767598Y-10834902D01*
X10857402Y-10834902D01*
X11044902Y-19434902D02*
X11044902Y-19345098D01*
X10955098Y-19345098D01*
X10955098Y-19434902D01*
X11044902Y-19434902D01*
X11444902Y-12724902D02*
X11444902Y-12635098D01*
X11355098Y-12635098D01*
X11355098Y-12724902D01*
X11444902Y-12724902D01*
X11444902Y-14724902D02*
X11444902Y-14635098D01*
X11355098Y-14635098D01*
X11355098Y-14724902D01*
X11444902Y-14724902D01*
X11444902Y-16724902D02*
X11444902Y-16635098D01*
X11355098Y-16635098D01*
X11355098Y-16724902D01*
X11444902Y-16724902D01*
X11944902Y-12934902D02*
X11944902Y-12845098D01*
X11855098Y-12845098D01*
X11855098Y-12934902D01*
X11944902Y-12934902D01*
X11944902Y-14934902D02*
X11944902Y-14845098D01*
X11855098Y-14845098D01*
X11855098Y-14934902D01*
X11944902Y-14934902D01*
X11944902Y-16934902D02*
X11944902Y-16845098D01*
X11855098Y-16845098D01*
X11855098Y-16934902D01*
X11944902Y-16934902D01*
X12157402Y-6624902D02*
X12157402Y-6535098D01*
X12067598Y-6535098D01*
X12067598Y-6624902D01*
X12157402Y-6624902D01*
X12157402Y-8624902D02*
X12157402Y-8535098D01*
X12067598Y-8535098D01*
X12067598Y-8624902D01*
X12157402Y-8624902D01*
X12157402Y-10624902D02*
X12157402Y-10535098D01*
X12067598Y-10535098D01*
X12067598Y-10624902D01*
X12157402Y-10624902D01*
X12657402Y-6834902D02*
X12657402Y-6745098D01*
X12567598Y-6745098D01*
X12567598Y-6834902D01*
X12657402Y-6834902D01*
X12657402Y-8834902D02*
X12657402Y-8745098D01*
X12567598Y-8745098D01*
X12567598Y-8834902D01*
X12657402Y-8834902D01*
X12657402Y-10834902D02*
X12657402Y-10745098D01*
X12567598Y-10745098D01*
X12567598Y-10834902D01*
X12657402Y-10834902D01*
X13444902Y-12724902D02*
X13444902Y-12635098D01*
X13355098Y-12635098D01*
X13355098Y-12724902D01*
X13444902Y-12724902D01*
X13444902Y-14724902D02*
X13444902Y-14635098D01*
X13355098Y-14635098D01*
X13355098Y-14724902D01*
X13444902Y-14724902D01*
X13444902Y-16724902D02*
X13444902Y-16635098D01*
X13355098Y-16635098D01*
X13355098Y-16724902D01*
X13444902Y-16724902D01*
X13944902Y-12934902D02*
X13944902Y-12845098D01*
X13855098Y-12845098D01*
X13855098Y-12934902D01*
X13944902Y-12934902D01*
X13944902Y-14934902D02*
X13944902Y-14845098D01*
X13855098Y-14845098D01*
X13855098Y-14934902D01*
X13944902Y-14934902D01*
X13944902Y-16934902D02*
X13944902Y-16845098D01*
X13855098Y-16845098D01*
X13855098Y-16934902D01*
X13944902Y-16934902D01*
X14157402Y-5624902D02*
X14157402Y-5535098D01*
X14067598Y-5535098D01*
X14067598Y-5624902D01*
X14157402Y-5624902D01*
X14157402Y-7624902D02*
X14157402Y-7535098D01*
X14067598Y-7535098D01*
X14067598Y-7624902D01*
X14157402Y-7624902D01*
X14157402Y-9624902D02*
X14157402Y-9535098D01*
X14067598Y-9535098D01*
X14067598Y-9624902D01*
X14157402Y-9624902D01*
X14657402Y-5834902D02*
X14657402Y-5745098D01*
X14567598Y-5745098D01*
X14567598Y-5834902D01*
X14657402Y-5834902D01*
X14657402Y-7834902D02*
X14657402Y-7745098D01*
X14567598Y-7745098D01*
X14567598Y-7834902D01*
X14657402Y-7834902D01*
X14657402Y-9834902D02*
X14657402Y-9745098D01*
X14567598Y-9745098D01*
X14567598Y-9834902D01*
X14657402Y-9834902D01*
X15444902Y-12224902D02*
X15444902Y-12135098D01*
X15355098Y-12135098D01*
X15355098Y-12224902D01*
X15444902Y-12224902D01*
X15444902Y-14224902D02*
X15444902Y-14135098D01*
X15355098Y-14135098D01*
X15355098Y-14224902D01*
X15444902Y-14224902D01*
X15444902Y-16224902D02*
X15444902Y-16135098D01*
X15355098Y-16135098D01*
X15355098Y-16224902D01*
X15444902Y-16224902D01*
X15944902Y-12434902D02*
X15944902Y-12345098D01*
X15855098Y-12345098D01*
X15855098Y-12434902D01*
X15944902Y-12434902D01*
X15944902Y-14434902D02*
X15944902Y-14345098D01*
X15855098Y-14345098D01*
X15855098Y-14434902D01*
X15944902Y-14434902D01*
X15944902Y-16434902D02*
X15944902Y-16345098D01*
X15855098Y-16345098D01*
X15855098Y-16434902D01*
X15944902Y-16434902D01*
X16657402Y-4624902D02*
X16657402Y-4535098D01*
X16567598Y-4535098D01*
X16567598Y-4624902D01*
X16657402Y-4624902D01*
X16657402Y-6624902D02*
X16657402Y-6535098D01*
X16567598Y-6535098D01*
X16567598Y-6624902D01*
X16657402Y-6624902D01*
X16657402Y-8624902D02*
X16657402Y-8535098D01*
X16567598Y-8535098D01*
X16567598Y-8624902D01*
X16657402Y-8624902D01*
X17157402Y-4834902D02*
X17157402Y-4745098D01*
X17067598Y-4745098D01*
X17067598Y-4834902D01*
X17157402Y-4834902D01*
X17157402Y-6834902D02*
X17157402Y-6745098D01*
X17067598Y-6745098D01*
X17067598Y-6834902D01*
X17157402Y-6834902D01*
X17157402Y-8834902D02*
X17157402Y-8745098D01*
X17067598Y-8745098D01*
X17067598Y-8834902D01*
X17157402Y-8834902D01*
X17944902Y-13224902D02*
X17944902Y-13135098D01*
X17855098Y-13135098D01*
X17855098Y-13224902D01*
X17944902Y-13224902D01*
X17944902Y-15224902D02*
X17944902Y-15135098D01*
X17855098Y-15135098D01*
X17855098Y-15224902D01*
X17944902Y-15224902D01*
X17944902Y-17224902D02*
X17944902Y-17135098D01*
X17855098Y-17135098D01*
X17855098Y-17224902D01*
X17944902Y-17224902D01*
X18444902Y-13434902D02*
X18444902Y-13345098D01*
X18355098Y-13345098D01*
X18355098Y-13434902D01*
X18444902Y-13434902D01*
X18444902Y-15434902D02*
X18444902Y-15345098D01*
X18355098Y-15345098D01*
X18355098Y-15434902D01*
X18444902Y-15434902D01*
X18444902Y-17434902D02*
X18444902Y-17345098D01*
X18355098Y-17345098D01*
X18355098Y-17434902D01*
X18444902Y-17434902D01*
X18657402Y-5124902D02*
X18657402Y-5035098D01*
X18567598Y-5035098D01*
X18567598Y-5124902D01*
X18657402Y-5124902D01*
X18657402Y-7124902D02*
X18657402Y-7035098D01*
X18567598Y-7035098D01*
X18567598Y-7124902D01*
X18657402Y-7124902D01*
X18657402Y-9124902D02*
X18657402Y-9035098D01*
X18567598Y-9035098D01*
X18567598Y-9124902D01*
X18657402Y-9124902D01*
X19157402Y-5334902D02*
X19157402Y-5245098D01*
X19067598Y-5245098D01*
X19067598Y-5334902D01*
X19157402Y-5334902D01*
X19157402Y-7334902D02*
X19157402Y-7245098D01*
X19067598Y-7245098D01*
X19067598Y-7334902D01*
X19157402Y-7334902D01*
X19157402Y-9334902D02*
X19157402Y-9245098D01*
X19067598Y-9245098D01*
X19067598Y-9334902D01*
X19157402Y-9334902D01*
X19944902Y-14224902D02*
X19944902Y-14135098D01*
X19855098Y-14135098D01*
X19855098Y-14224902D01*
X19944902Y-14224902D01*
X19944902Y-16224902D02*
X19944902Y-16135098D01*
X19855098Y-16135098D01*
X19855098Y-16224902D01*
X19944902Y-16224902D01*
X19944902Y-18224902D02*
X19944902Y-18135098D01*
X19855098Y-18135098D01*
X19855098Y-18224902D01*
X19944902Y-18224902D01*
X20444902Y-14434902D02*
X20444902Y-14345098D01*
X20355098Y-14345098D01*
X20355098Y-14434902D01*
X20444902Y-14434902D01*
X20444902Y-16434902D02*
X20444902Y-16345098D01*
X20355098Y-16345098D01*
X20355098Y-16434902D01*
X20444902Y-16434902D01*
X20444902Y-18434902D02*
X20444902Y-18345098D01*
X20355098Y-18345098D01*
X20355098Y-18434902D01*
X20444902Y-18434902D01*
X20657402Y-5124902D02*
X20657402Y-5035098D01*
X20567598Y-5035098D01*
X20567598Y-5124902D01*
X20657402Y-5124902D01*
X20657402Y-7124902D02*
X20657402Y-7035098D01*
X20567598Y-7035098D01*
X20567598Y-7124902D01*
X20657402Y-7124902D01*
X20657402Y-9124902D02*
X20657402Y-9035098D01*
X20567598Y-9035098D01*
X20567598Y-9124902D01*
X20657402Y-9124902D01*
X21157402Y-5334902D02*
X21157402Y-5245098D01*
X21067598Y-5245098D01*
X21067598Y-5334902D01*
X21157402Y-5334902D01*
X21157402Y-7334902D02*
X21157402Y-7245098D01*
X21067598Y-7245098D01*
X21067598Y-7334902D01*
X21157402Y-7334902D01*
X21157402Y-9334902D02*
X21157402Y-9245098D01*
X21067598Y-9245098D01*
X21067598Y-9334902D01*
X21157402Y-9334902D01*
X21557402Y-11624902D02*
X21557402Y-11535098D01*
X21467598Y-11535098D01*
X21467598Y-11624902D01*
X21557402Y-11624902D01*
X21744902Y-14224902D02*
X21744902Y-14135098D01*
X21655098Y-14135098D01*
X21655098Y-14224902D01*
X21744902Y-14224902D01*
X21744902Y-16224902D02*
X21744902Y-16135098D01*
X21655098Y-16135098D01*
X21655098Y-16224902D01*
X21744902Y-16224902D01*
X21744902Y-18224902D02*
X21744902Y-18135098D01*
X21655098Y-18135098D01*
X21655098Y-18224902D01*
X21744902Y-18224902D01*
X22057402Y-11834902D02*
X22057402Y-11745098D01*
X21967598Y-11745098D01*
X21967598Y-11834902D01*
X22057402Y-11834902D01*
X22244902Y-14434902D02*
X22244902Y-14345098D01*
X22155098Y-14345098D01*
X22155098Y-14434902D01*
X22244902Y-14434902D01*
X22244902Y-16434902D02*
X22244902Y-16345098D01*
X22155098Y-16345098D01*
X22155098Y-16434902D01*
X22244902Y-16434902D01*
X22244902Y-18434902D02*
X22244902Y-18345098D01*
X22155098Y-18345098D01*
X22155098Y-18434902D01*
X22244902Y-18434902D01*
X23557402Y-12624902D02*
X23557402Y-12535098D01*
X23467598Y-12535098D01*
X23467598Y-12624902D01*
X23557402Y-12624902D01*
X24057402Y-12834902D02*
X24057402Y-12745098D01*
X23967598Y-12745098D01*
X23967598Y-12834902D01*
X24057402Y-12834902D01*
X25557402Y-13624902D02*
X25557402Y-13535098D01*
X25467598Y-13535098D01*
X25467598Y-13624902D01*
X25557402Y-13624902D01*
X26057402Y-13834902D02*
X26057402Y-13745098D01*
X25967598Y-13745098D01*
X25967598Y-13834902D01*
X26057402Y-13834902D01*
D15*
X5976000Y-15440000D02*
X6041000Y-15375000D01*
X5976000Y-15310000D01*
X5911000Y-15375000D01*
X5976000Y-15440000D01*
X5976000Y-15940000D02*
X6041000Y-15875000D01*
X5976000Y-15810000D01*
X5911000Y-15875000D01*
X5976000Y-15940000D01*
X5976000Y-17240000D02*
X6041000Y-17175000D01*
X5976000Y-17110000D01*
X5911000Y-17175000D01*
X5976000Y-17240000D01*
X5976000Y-17740000D02*
X6041000Y-17675000D01*
X5976000Y-17610000D01*
X5911000Y-17675000D01*
X5976000Y-17740000D01*
X7226000Y-15440000D02*
X7291000Y-15375000D01*
X7226000Y-15310000D01*
X7161000Y-15375000D01*
X7226000Y-15440000D01*
X7226000Y-15940000D02*
X7291000Y-15875000D01*
X7226000Y-15810000D01*
X7161000Y-15875000D01*
X7226000Y-15940000D01*
X7226000Y-17240000D02*
X7291000Y-17175000D01*
X7226000Y-17110000D01*
X7161000Y-17175000D01*
X7226000Y-17240000D01*
X7226000Y-17740000D02*
X7291000Y-17675000D01*
X7226000Y-17610000D01*
X7161000Y-17675000D01*
X7226000Y-17740000D01*
X25787500Y-9640000D02*
X25852500Y-9575000D01*
X25787500Y-9510000D01*
X25722500Y-9575000D01*
X25787500Y-9640000D01*
X25787500Y-10140000D02*
X25852500Y-10075000D01*
X25787500Y-10010000D01*
X25722500Y-10075000D01*
X25787500Y-10140000D01*
X25788500Y-7840000D02*
X25853500Y-7775000D01*
X25788500Y-7710000D01*
X25723500Y-7775000D01*
X25788500Y-7840000D01*
X25788500Y-8340000D02*
X25853500Y-8275000D01*
X25788500Y-8210000D01*
X25723500Y-8275000D01*
X25788500Y-8340000D01*
X27037500Y-9640000D02*
X27102500Y-9575000D01*
X27037500Y-9510000D01*
X26972500Y-9575000D01*
X27037500Y-9640000D01*
X27037500Y-10140000D02*
X27102500Y-10075000D01*
X27037500Y-10010000D01*
X26972500Y-10075000D01*
X27037500Y-10140000D01*
X27038500Y-7840000D02*
X27103500Y-7775000D01*
X27038500Y-7710000D01*
X26973500Y-7775000D01*
X27038500Y-7840000D01*
X27038500Y-8340000D02*
X27103500Y-8275000D01*
X27038500Y-8210000D01*
X26973500Y-8275000D01*
X27038500Y-8340000D01*
D16*
X26295000Y-5560000D02*
X26555000Y-5820000D01*
X26555000Y-5560000D02*
X26295000Y-5820000D01*
X26555000Y-5690000D02*
G75*
G03*
X26555000Y-5690000I-130000J0D01*
G01*
X26295000Y-6680000D02*
X26555000Y-6940000D01*
X26555000Y-6680000D02*
X26295000Y-6940000D01*
X26555000Y-6810000D02*
G75*
G03*
X26555000Y-6810000I-130000J0D01*
G01*
D11*
X5917609Y-21917524D02*
X5917609Y-21717524D01*
X5917609Y-21717524D02*
X5965228Y-21717524D01*
X5965228Y-21717524D02*
X5993799Y-21727048D01*
X5993799Y-21727048D02*
X6012847Y-21746095D01*
X6012847Y-21746095D02*
X6022371Y-21765143D01*
X6022371Y-21765143D02*
X6031895Y-21803238D01*
X6031895Y-21803238D02*
X6031895Y-21831810D01*
X6031895Y-21831810D02*
X6022371Y-21869905D01*
X6022371Y-21869905D02*
X6012847Y-21888952D01*
X6012847Y-21888952D02*
X5993799Y-21908000D01*
X5993799Y-21908000D02*
X5965228Y-21917524D01*
X5965228Y-21917524D02*
X5917609Y-21917524D01*
X6117609Y-21917524D02*
X6117609Y-21784190D01*
X6117609Y-21822286D02*
X6127133Y-21803238D01*
X6127133Y-21803238D02*
X6136657Y-21793714D01*
X6136657Y-21793714D02*
X6155704Y-21784190D01*
X6155704Y-21784190D02*
X6174752Y-21784190D01*
X6241418Y-21917524D02*
X6241418Y-21784190D01*
X6241418Y-21717524D02*
X6231895Y-21727048D01*
X6231895Y-21727048D02*
X6241418Y-21736571D01*
X6241418Y-21736571D02*
X6250942Y-21727048D01*
X6250942Y-21727048D02*
X6241418Y-21717524D01*
X6241418Y-21717524D02*
X6241418Y-21736571D01*
X6365228Y-21917524D02*
X6346180Y-21908000D01*
X6346180Y-21908000D02*
X6336657Y-21888952D01*
X6336657Y-21888952D02*
X6336657Y-21717524D01*
X6469990Y-21917524D02*
X6450942Y-21908000D01*
X6450942Y-21908000D02*
X6441418Y-21888952D01*
X6441418Y-21888952D02*
X6441418Y-21717524D01*
X6698561Y-21917524D02*
X6698561Y-21717524D01*
X6698561Y-21717524D02*
X6765228Y-21860381D01*
X6765228Y-21860381D02*
X6831895Y-21717524D01*
X6831895Y-21717524D02*
X6831895Y-21917524D01*
X7012847Y-21917524D02*
X7012847Y-21812762D01*
X7012847Y-21812762D02*
X7003323Y-21793714D01*
X7003323Y-21793714D02*
X6984276Y-21784190D01*
X6984276Y-21784190D02*
X6946180Y-21784190D01*
X6946180Y-21784190D02*
X6927133Y-21793714D01*
X7012847Y-21908000D02*
X6993799Y-21917524D01*
X6993799Y-21917524D02*
X6946180Y-21917524D01*
X6946180Y-21917524D02*
X6927133Y-21908000D01*
X6927133Y-21908000D02*
X6917609Y-21888952D01*
X6917609Y-21888952D02*
X6917609Y-21869905D01*
X6917609Y-21869905D02*
X6927133Y-21850857D01*
X6927133Y-21850857D02*
X6946180Y-21841333D01*
X6946180Y-21841333D02*
X6993799Y-21841333D01*
X6993799Y-21841333D02*
X7012847Y-21831810D01*
X7108085Y-21784190D02*
X7108085Y-21984190D01*
X7108085Y-21793714D02*
X7127133Y-21784190D01*
X7127133Y-21784190D02*
X7165228Y-21784190D01*
X7165228Y-21784190D02*
X7184276Y-21793714D01*
X7184276Y-21793714D02*
X7193799Y-21803238D01*
X7193799Y-21803238D02*
X7203323Y-21822286D01*
X7203323Y-21822286D02*
X7203323Y-21879429D01*
X7203323Y-21879429D02*
X7193799Y-21898476D01*
X7193799Y-21898476D02*
X7184276Y-21908000D01*
X7184276Y-21908000D02*
X7165228Y-21917524D01*
X7165228Y-21917524D02*
X7127133Y-21917524D01*
X7127133Y-21917524D02*
X7108085Y-21908000D01*
X7289038Y-21898476D02*
X7298561Y-21908000D01*
X7298561Y-21908000D02*
X7289038Y-21917524D01*
X7289038Y-21917524D02*
X7279514Y-21908000D01*
X7279514Y-21908000D02*
X7289038Y-21898476D01*
X7289038Y-21898476D02*
X7289038Y-21917524D01*
X7289038Y-21793714D02*
X7298561Y-21803238D01*
X7298561Y-21803238D02*
X7289038Y-21812762D01*
X7289038Y-21812762D02*
X7279514Y-21803238D01*
X7279514Y-21803238D02*
X7289038Y-21793714D01*
X7289038Y-21793714D02*
X7289038Y-21812762D01*
D12*
X5629990Y-22225000D02*
X5669990Y-22265000D01*
X5669990Y-22225000D02*
X5629990Y-22265000D01*
D11*
X5955704Y-22137524D02*
X5974752Y-22137524D01*
X5974752Y-22137524D02*
X5993799Y-22147048D01*
X5993799Y-22147048D02*
X6003323Y-22156571D01*
X6003323Y-22156571D02*
X6012847Y-22175619D01*
X6012847Y-22175619D02*
X6022371Y-22213714D01*
X6022371Y-22213714D02*
X6022371Y-22261333D01*
X6022371Y-22261333D02*
X6012847Y-22299429D01*
X6012847Y-22299429D02*
X6003323Y-22318476D01*
X6003323Y-22318476D02*
X5993799Y-22328000D01*
X5993799Y-22328000D02*
X5974752Y-22337524D01*
X5974752Y-22337524D02*
X5955704Y-22337524D01*
X5955704Y-22337524D02*
X5936657Y-22328000D01*
X5936657Y-22328000D02*
X5927133Y-22318476D01*
X5927133Y-22318476D02*
X5917609Y-22299429D01*
X5917609Y-22299429D02*
X5908085Y-22261333D01*
X5908085Y-22261333D02*
X5908085Y-22213714D01*
X5908085Y-22213714D02*
X5917609Y-22175619D01*
X5917609Y-22175619D02*
X5927133Y-22156571D01*
X5927133Y-22156571D02*
X5936657Y-22147048D01*
X5936657Y-22147048D02*
X5955704Y-22137524D01*
X6108085Y-22318476D02*
X6117609Y-22328000D01*
X6117609Y-22328000D02*
X6108085Y-22337524D01*
X6108085Y-22337524D02*
X6098561Y-22328000D01*
X6098561Y-22328000D02*
X6108085Y-22318476D01*
X6108085Y-22318476D02*
X6108085Y-22337524D01*
X6289038Y-22204190D02*
X6289038Y-22337524D01*
X6241418Y-22128000D02*
X6193799Y-22270857D01*
X6193799Y-22270857D02*
X6317609Y-22270857D01*
X6431895Y-22137524D02*
X6450942Y-22137524D01*
X6450942Y-22137524D02*
X6469990Y-22147048D01*
X6469990Y-22147048D02*
X6479514Y-22156571D01*
X6479514Y-22156571D02*
X6489038Y-22175619D01*
X6489038Y-22175619D02*
X6498561Y-22213714D01*
X6498561Y-22213714D02*
X6498561Y-22261333D01*
X6498561Y-22261333D02*
X6489038Y-22299429D01*
X6489038Y-22299429D02*
X6479514Y-22318476D01*
X6479514Y-22318476D02*
X6469990Y-22328000D01*
X6469990Y-22328000D02*
X6450942Y-22337524D01*
X6450942Y-22337524D02*
X6431895Y-22337524D01*
X6431895Y-22337524D02*
X6412847Y-22328000D01*
X6412847Y-22328000D02*
X6403323Y-22318476D01*
X6403323Y-22318476D02*
X6393799Y-22299429D01*
X6393799Y-22299429D02*
X6384276Y-22261333D01*
X6384276Y-22261333D02*
X6384276Y-22213714D01*
X6384276Y-22213714D02*
X6393799Y-22175619D01*
X6393799Y-22175619D02*
X6403323Y-22156571D01*
X6403323Y-22156571D02*
X6412847Y-22147048D01*
X6412847Y-22147048D02*
X6431895Y-22137524D01*
X6622371Y-22137524D02*
X6641419Y-22137524D01*
X6641419Y-22137524D02*
X6660466Y-22147048D01*
X6660466Y-22147048D02*
X6669990Y-22156571D01*
X6669990Y-22156571D02*
X6679514Y-22175619D01*
X6679514Y-22175619D02*
X6689038Y-22213714D01*
X6689038Y-22213714D02*
X6689038Y-22261333D01*
X6689038Y-22261333D02*
X6679514Y-22299429D01*
X6679514Y-22299429D02*
X6669990Y-22318476D01*
X6669990Y-22318476D02*
X6660466Y-22328000D01*
X6660466Y-22328000D02*
X6641419Y-22337524D01*
X6641419Y-22337524D02*
X6622371Y-22337524D01*
X6622371Y-22337524D02*
X6603323Y-22328000D01*
X6603323Y-22328000D02*
X6593799Y-22318476D01*
X6593799Y-22318476D02*
X6584276Y-22299429D01*
X6584276Y-22299429D02*
X6574752Y-22261333D01*
X6574752Y-22261333D02*
X6574752Y-22213714D01*
X6574752Y-22213714D02*
X6584276Y-22175619D01*
X6584276Y-22175619D02*
X6593799Y-22156571D01*
X6593799Y-22156571D02*
X6603323Y-22147048D01*
X6603323Y-22147048D02*
X6622371Y-22137524D01*
X6774752Y-22337524D02*
X6774752Y-22204190D01*
X6774752Y-22223238D02*
X6784276Y-22213714D01*
X6784276Y-22213714D02*
X6803323Y-22204190D01*
X6803323Y-22204190D02*
X6831895Y-22204190D01*
X6831895Y-22204190D02*
X6850942Y-22213714D01*
X6850942Y-22213714D02*
X6860466Y-22232762D01*
X6860466Y-22232762D02*
X6860466Y-22337524D01*
X6860466Y-22232762D02*
X6869990Y-22213714D01*
X6869990Y-22213714D02*
X6889038Y-22204190D01*
X6889038Y-22204190D02*
X6917609Y-22204190D01*
X6917609Y-22204190D02*
X6936657Y-22213714D01*
X6936657Y-22213714D02*
X6946180Y-22232762D01*
X6946180Y-22232762D02*
X6946180Y-22337524D01*
X7041419Y-22337524D02*
X7041419Y-22204190D01*
X7041419Y-22223238D02*
X7050942Y-22213714D01*
X7050942Y-22213714D02*
X7069990Y-22204190D01*
X7069990Y-22204190D02*
X7098561Y-22204190D01*
X7098561Y-22204190D02*
X7117609Y-22213714D01*
X7117609Y-22213714D02*
X7127133Y-22232762D01*
X7127133Y-22232762D02*
X7127133Y-22337524D01*
X7127133Y-22232762D02*
X7136657Y-22213714D01*
X7136657Y-22213714D02*
X7155704Y-22204190D01*
X7155704Y-22204190D02*
X7184276Y-22204190D01*
X7184276Y-22204190D02*
X7203323Y-22213714D01*
X7203323Y-22213714D02*
X7212847Y-22232762D01*
X7212847Y-22232762D02*
X7212847Y-22337524D01*
X7603323Y-22128000D02*
X7431895Y-22385143D01*
X7860466Y-22137524D02*
X7879514Y-22137524D01*
X7879514Y-22137524D02*
X7898562Y-22147048D01*
X7898562Y-22147048D02*
X7908085Y-22156571D01*
X7908085Y-22156571D02*
X7917609Y-22175619D01*
X7917609Y-22175619D02*
X7927133Y-22213714D01*
X7927133Y-22213714D02*
X7927133Y-22261333D01*
X7927133Y-22261333D02*
X7917609Y-22299429D01*
X7917609Y-22299429D02*
X7908085Y-22318476D01*
X7908085Y-22318476D02*
X7898562Y-22328000D01*
X7898562Y-22328000D02*
X7879514Y-22337524D01*
X7879514Y-22337524D02*
X7860466Y-22337524D01*
X7860466Y-22337524D02*
X7841419Y-22328000D01*
X7841419Y-22328000D02*
X7831895Y-22318476D01*
X7831895Y-22318476D02*
X7822371Y-22299429D01*
X7822371Y-22299429D02*
X7812847Y-22261333D01*
X7812847Y-22261333D02*
X7812847Y-22213714D01*
X7812847Y-22213714D02*
X7822371Y-22175619D01*
X7822371Y-22175619D02*
X7831895Y-22156571D01*
X7831895Y-22156571D02*
X7841419Y-22147048D01*
X7841419Y-22147048D02*
X7860466Y-22137524D01*
X8012847Y-22318476D02*
X8022371Y-22328000D01*
X8022371Y-22328000D02*
X8012847Y-22337524D01*
X8012847Y-22337524D02*
X8003323Y-22328000D01*
X8003323Y-22328000D02*
X8012847Y-22318476D01*
X8012847Y-22318476D02*
X8012847Y-22337524D01*
X8146181Y-22137524D02*
X8165228Y-22137524D01*
X8165228Y-22137524D02*
X8184276Y-22147048D01*
X8184276Y-22147048D02*
X8193800Y-22156571D01*
X8193800Y-22156571D02*
X8203323Y-22175619D01*
X8203323Y-22175619D02*
X8212847Y-22213714D01*
X8212847Y-22213714D02*
X8212847Y-22261333D01*
X8212847Y-22261333D02*
X8203323Y-22299429D01*
X8203323Y-22299429D02*
X8193800Y-22318476D01*
X8193800Y-22318476D02*
X8184276Y-22328000D01*
X8184276Y-22328000D02*
X8165228Y-22337524D01*
X8165228Y-22337524D02*
X8146181Y-22337524D01*
X8146181Y-22337524D02*
X8127133Y-22328000D01*
X8127133Y-22328000D02*
X8117609Y-22318476D01*
X8117609Y-22318476D02*
X8108085Y-22299429D01*
X8108085Y-22299429D02*
X8098562Y-22261333D01*
X8098562Y-22261333D02*
X8098562Y-22213714D01*
X8098562Y-22213714D02*
X8108085Y-22175619D01*
X8108085Y-22175619D02*
X8117609Y-22156571D01*
X8117609Y-22156571D02*
X8127133Y-22147048D01*
X8127133Y-22147048D02*
X8146181Y-22137524D01*
X8403324Y-22337524D02*
X8289038Y-22337524D01*
X8346181Y-22337524D02*
X8346181Y-22137524D01*
X8346181Y-22137524D02*
X8327133Y-22166095D01*
X8327133Y-22166095D02*
X8308085Y-22185143D01*
X8308085Y-22185143D02*
X8289038Y-22194667D01*
X8584276Y-22137524D02*
X8489038Y-22137524D01*
X8489038Y-22137524D02*
X8479514Y-22232762D01*
X8479514Y-22232762D02*
X8489038Y-22223238D01*
X8489038Y-22223238D02*
X8508085Y-22213714D01*
X8508085Y-22213714D02*
X8555705Y-22213714D01*
X8555705Y-22213714D02*
X8574752Y-22223238D01*
X8574752Y-22223238D02*
X8584276Y-22232762D01*
X8584276Y-22232762D02*
X8593800Y-22251810D01*
X8593800Y-22251810D02*
X8593800Y-22299429D01*
X8593800Y-22299429D02*
X8584276Y-22318476D01*
X8584276Y-22318476D02*
X8574752Y-22328000D01*
X8574752Y-22328000D02*
X8555705Y-22337524D01*
X8555705Y-22337524D02*
X8508085Y-22337524D01*
X8508085Y-22337524D02*
X8489038Y-22328000D01*
X8489038Y-22328000D02*
X8479514Y-22318476D01*
X8660466Y-22137524D02*
X8793800Y-22137524D01*
X8793800Y-22137524D02*
X8708085Y-22337524D01*
X8860466Y-22137524D02*
X8860466Y-22175619D01*
X8936657Y-22137524D02*
X8936657Y-22175619D01*
X9231895Y-22413714D02*
X9222371Y-22404190D01*
X9222371Y-22404190D02*
X9203324Y-22375619D01*
X9203324Y-22375619D02*
X9193800Y-22356571D01*
X9193800Y-22356571D02*
X9184276Y-22328000D01*
X9184276Y-22328000D02*
X9174752Y-22280381D01*
X9174752Y-22280381D02*
X9174752Y-22242286D01*
X9174752Y-22242286D02*
X9184276Y-22194667D01*
X9184276Y-22194667D02*
X9193800Y-22166095D01*
X9193800Y-22166095D02*
X9203324Y-22147048D01*
X9203324Y-22147048D02*
X9222371Y-22118476D01*
X9222371Y-22118476D02*
X9231895Y-22108952D01*
X9298562Y-22156571D02*
X9308086Y-22147048D01*
X9308086Y-22147048D02*
X9327133Y-22137524D01*
X9327133Y-22137524D02*
X9374752Y-22137524D01*
X9374752Y-22137524D02*
X9393800Y-22147048D01*
X9393800Y-22147048D02*
X9403324Y-22156571D01*
X9403324Y-22156571D02*
X9412847Y-22175619D01*
X9412847Y-22175619D02*
X9412847Y-22194667D01*
X9412847Y-22194667D02*
X9403324Y-22223238D01*
X9403324Y-22223238D02*
X9289038Y-22337524D01*
X9289038Y-22337524D02*
X9412847Y-22337524D01*
X9584276Y-22204190D02*
X9584276Y-22337524D01*
X9536657Y-22128000D02*
X9489038Y-22270857D01*
X9489038Y-22270857D02*
X9612847Y-22270857D01*
X9774752Y-22204190D02*
X9774752Y-22337524D01*
X9727133Y-22128000D02*
X9679514Y-22270857D01*
X9679514Y-22270857D02*
X9803324Y-22270857D01*
X10031895Y-22337524D02*
X10031895Y-22137524D01*
X10117609Y-22337524D02*
X10117609Y-22232762D01*
X10117609Y-22232762D02*
X10108086Y-22213714D01*
X10108086Y-22213714D02*
X10089038Y-22204190D01*
X10089038Y-22204190D02*
X10060467Y-22204190D01*
X10060467Y-22204190D02*
X10041419Y-22213714D01*
X10041419Y-22213714D02*
X10031895Y-22223238D01*
X10241419Y-22337524D02*
X10222371Y-22328000D01*
X10222371Y-22328000D02*
X10212848Y-22318476D01*
X10212848Y-22318476D02*
X10203324Y-22299429D01*
X10203324Y-22299429D02*
X10203324Y-22242286D01*
X10203324Y-22242286D02*
X10212848Y-22223238D01*
X10212848Y-22223238D02*
X10222371Y-22213714D01*
X10222371Y-22213714D02*
X10241419Y-22204190D01*
X10241419Y-22204190D02*
X10269990Y-22204190D01*
X10269990Y-22204190D02*
X10289038Y-22213714D01*
X10289038Y-22213714D02*
X10298562Y-22223238D01*
X10298562Y-22223238D02*
X10308086Y-22242286D01*
X10308086Y-22242286D02*
X10308086Y-22299429D01*
X10308086Y-22299429D02*
X10298562Y-22318476D01*
X10298562Y-22318476D02*
X10289038Y-22328000D01*
X10289038Y-22328000D02*
X10269990Y-22337524D01*
X10269990Y-22337524D02*
X10241419Y-22337524D01*
X10422371Y-22337524D02*
X10403324Y-22328000D01*
X10403324Y-22328000D02*
X10393800Y-22308952D01*
X10393800Y-22308952D02*
X10393800Y-22137524D01*
X10574752Y-22328000D02*
X10555705Y-22337524D01*
X10555705Y-22337524D02*
X10517609Y-22337524D01*
X10517609Y-22337524D02*
X10498562Y-22328000D01*
X10498562Y-22328000D02*
X10489038Y-22308952D01*
X10489038Y-22308952D02*
X10489038Y-22232762D01*
X10489038Y-22232762D02*
X10498562Y-22213714D01*
X10498562Y-22213714D02*
X10517609Y-22204190D01*
X10517609Y-22204190D02*
X10555705Y-22204190D01*
X10555705Y-22204190D02*
X10574752Y-22213714D01*
X10574752Y-22213714D02*
X10584276Y-22232762D01*
X10584276Y-22232762D02*
X10584276Y-22251810D01*
X10584276Y-22251810D02*
X10489038Y-22270857D01*
X10660467Y-22328000D02*
X10679514Y-22337524D01*
X10679514Y-22337524D02*
X10717609Y-22337524D01*
X10717609Y-22337524D02*
X10736657Y-22328000D01*
X10736657Y-22328000D02*
X10746181Y-22308952D01*
X10746181Y-22308952D02*
X10746181Y-22299429D01*
X10746181Y-22299429D02*
X10736657Y-22280381D01*
X10736657Y-22280381D02*
X10717609Y-22270857D01*
X10717609Y-22270857D02*
X10689038Y-22270857D01*
X10689038Y-22270857D02*
X10669990Y-22261333D01*
X10669990Y-22261333D02*
X10660467Y-22242286D01*
X10660467Y-22242286D02*
X10660467Y-22232762D01*
X10660467Y-22232762D02*
X10669990Y-22213714D01*
X10669990Y-22213714D02*
X10689038Y-22204190D01*
X10689038Y-22204190D02*
X10717609Y-22204190D01*
X10717609Y-22204190D02*
X10736657Y-22213714D01*
X10812848Y-22413714D02*
X10822371Y-22404190D01*
X10822371Y-22404190D02*
X10841419Y-22375619D01*
X10841419Y-22375619D02*
X10850943Y-22356571D01*
X10850943Y-22356571D02*
X10860467Y-22328000D01*
X10860467Y-22328000D02*
X10869990Y-22280381D01*
X10869990Y-22280381D02*
X10869990Y-22242286D01*
X10869990Y-22242286D02*
X10860467Y-22194667D01*
X10860467Y-22194667D02*
X10850943Y-22166095D01*
X10850943Y-22166095D02*
X10841419Y-22147048D01*
X10841419Y-22147048D02*
X10822371Y-22118476D01*
X10822371Y-22118476D02*
X10812848Y-22108952D01*
D10*
X5669990Y-22509000D02*
G75*
G03*
X5669990Y-22509000I-50000J0D01*
G01*
D11*
X6022371Y-22601524D02*
X5908085Y-22601524D01*
X5965228Y-22601524D02*
X5965228Y-22401524D01*
X5965228Y-22401524D02*
X5946180Y-22430095D01*
X5946180Y-22430095D02*
X5927133Y-22449143D01*
X5927133Y-22449143D02*
X5908085Y-22458667D01*
X6108085Y-22582476D02*
X6117609Y-22592000D01*
X6117609Y-22592000D02*
X6108085Y-22601524D01*
X6108085Y-22601524D02*
X6098561Y-22592000D01*
X6098561Y-22592000D02*
X6108085Y-22582476D01*
X6108085Y-22582476D02*
X6108085Y-22601524D01*
X6241418Y-22401524D02*
X6260466Y-22401524D01*
X6260466Y-22401524D02*
X6279514Y-22411048D01*
X6279514Y-22411048D02*
X6289038Y-22420571D01*
X6289038Y-22420571D02*
X6298561Y-22439619D01*
X6298561Y-22439619D02*
X6308085Y-22477714D01*
X6308085Y-22477714D02*
X6308085Y-22525333D01*
X6308085Y-22525333D02*
X6298561Y-22563428D01*
X6298561Y-22563428D02*
X6289038Y-22582476D01*
X6289038Y-22582476D02*
X6279514Y-22592000D01*
X6279514Y-22592000D02*
X6260466Y-22601524D01*
X6260466Y-22601524D02*
X6241418Y-22601524D01*
X6241418Y-22601524D02*
X6222371Y-22592000D01*
X6222371Y-22592000D02*
X6212847Y-22582476D01*
X6212847Y-22582476D02*
X6203323Y-22563428D01*
X6203323Y-22563428D02*
X6193799Y-22525333D01*
X6193799Y-22525333D02*
X6193799Y-22477714D01*
X6193799Y-22477714D02*
X6203323Y-22439619D01*
X6203323Y-22439619D02*
X6212847Y-22420571D01*
X6212847Y-22420571D02*
X6222371Y-22411048D01*
X6222371Y-22411048D02*
X6241418Y-22401524D01*
X6431895Y-22401524D02*
X6450942Y-22401524D01*
X6450942Y-22401524D02*
X6469990Y-22411048D01*
X6469990Y-22411048D02*
X6479514Y-22420571D01*
X6479514Y-22420571D02*
X6489038Y-22439619D01*
X6489038Y-22439619D02*
X6498561Y-22477714D01*
X6498561Y-22477714D02*
X6498561Y-22525333D01*
X6498561Y-22525333D02*
X6489038Y-22563428D01*
X6489038Y-22563428D02*
X6479514Y-22582476D01*
X6479514Y-22582476D02*
X6469990Y-22592000D01*
X6469990Y-22592000D02*
X6450942Y-22601524D01*
X6450942Y-22601524D02*
X6431895Y-22601524D01*
X6431895Y-22601524D02*
X6412847Y-22592000D01*
X6412847Y-22592000D02*
X6403323Y-22582476D01*
X6403323Y-22582476D02*
X6393799Y-22563428D01*
X6393799Y-22563428D02*
X6384276Y-22525333D01*
X6384276Y-22525333D02*
X6384276Y-22477714D01*
X6384276Y-22477714D02*
X6393799Y-22439619D01*
X6393799Y-22439619D02*
X6403323Y-22420571D01*
X6403323Y-22420571D02*
X6412847Y-22411048D01*
X6412847Y-22411048D02*
X6431895Y-22401524D01*
X6622371Y-22401524D02*
X6641419Y-22401524D01*
X6641419Y-22401524D02*
X6660466Y-22411048D01*
X6660466Y-22411048D02*
X6669990Y-22420571D01*
X6669990Y-22420571D02*
X6679514Y-22439619D01*
X6679514Y-22439619D02*
X6689038Y-22477714D01*
X6689038Y-22477714D02*
X6689038Y-22525333D01*
X6689038Y-22525333D02*
X6679514Y-22563428D01*
X6679514Y-22563428D02*
X6669990Y-22582476D01*
X6669990Y-22582476D02*
X6660466Y-22592000D01*
X6660466Y-22592000D02*
X6641419Y-22601524D01*
X6641419Y-22601524D02*
X6622371Y-22601524D01*
X6622371Y-22601524D02*
X6603323Y-22592000D01*
X6603323Y-22592000D02*
X6593799Y-22582476D01*
X6593799Y-22582476D02*
X6584276Y-22563428D01*
X6584276Y-22563428D02*
X6574752Y-22525333D01*
X6574752Y-22525333D02*
X6574752Y-22477714D01*
X6574752Y-22477714D02*
X6584276Y-22439619D01*
X6584276Y-22439619D02*
X6593799Y-22420571D01*
X6593799Y-22420571D02*
X6603323Y-22411048D01*
X6603323Y-22411048D02*
X6622371Y-22401524D01*
X6774752Y-22601524D02*
X6774752Y-22468190D01*
X6774752Y-22487238D02*
X6784276Y-22477714D01*
X6784276Y-22477714D02*
X6803323Y-22468190D01*
X6803323Y-22468190D02*
X6831895Y-22468190D01*
X6831895Y-22468190D02*
X6850942Y-22477714D01*
X6850942Y-22477714D02*
X6860466Y-22496762D01*
X6860466Y-22496762D02*
X6860466Y-22601524D01*
X6860466Y-22496762D02*
X6869990Y-22477714D01*
X6869990Y-22477714D02*
X6889038Y-22468190D01*
X6889038Y-22468190D02*
X6917609Y-22468190D01*
X6917609Y-22468190D02*
X6936657Y-22477714D01*
X6936657Y-22477714D02*
X6946180Y-22496762D01*
X6946180Y-22496762D02*
X6946180Y-22601524D01*
X7041419Y-22601524D02*
X7041419Y-22468190D01*
X7041419Y-22487238D02*
X7050942Y-22477714D01*
X7050942Y-22477714D02*
X7069990Y-22468190D01*
X7069990Y-22468190D02*
X7098561Y-22468190D01*
X7098561Y-22468190D02*
X7117609Y-22477714D01*
X7117609Y-22477714D02*
X7127133Y-22496762D01*
X7127133Y-22496762D02*
X7127133Y-22601524D01*
X7127133Y-22496762D02*
X7136657Y-22477714D01*
X7136657Y-22477714D02*
X7155704Y-22468190D01*
X7155704Y-22468190D02*
X7184276Y-22468190D01*
X7184276Y-22468190D02*
X7203323Y-22477714D01*
X7203323Y-22477714D02*
X7212847Y-22496762D01*
X7212847Y-22496762D02*
X7212847Y-22601524D01*
X7603323Y-22392000D02*
X7431895Y-22649143D01*
X7860466Y-22401524D02*
X7879514Y-22401524D01*
X7879514Y-22401524D02*
X7898562Y-22411048D01*
X7898562Y-22411048D02*
X7908085Y-22420571D01*
X7908085Y-22420571D02*
X7917609Y-22439619D01*
X7917609Y-22439619D02*
X7927133Y-22477714D01*
X7927133Y-22477714D02*
X7927133Y-22525333D01*
X7927133Y-22525333D02*
X7917609Y-22563428D01*
X7917609Y-22563428D02*
X7908085Y-22582476D01*
X7908085Y-22582476D02*
X7898562Y-22592000D01*
X7898562Y-22592000D02*
X7879514Y-22601524D01*
X7879514Y-22601524D02*
X7860466Y-22601524D01*
X7860466Y-22601524D02*
X7841419Y-22592000D01*
X7841419Y-22592000D02*
X7831895Y-22582476D01*
X7831895Y-22582476D02*
X7822371Y-22563428D01*
X7822371Y-22563428D02*
X7812847Y-22525333D01*
X7812847Y-22525333D02*
X7812847Y-22477714D01*
X7812847Y-22477714D02*
X7822371Y-22439619D01*
X7822371Y-22439619D02*
X7831895Y-22420571D01*
X7831895Y-22420571D02*
X7841419Y-22411048D01*
X7841419Y-22411048D02*
X7860466Y-22401524D01*
X8012847Y-22582476D02*
X8022371Y-22592000D01*
X8022371Y-22592000D02*
X8012847Y-22601524D01*
X8012847Y-22601524D02*
X8003323Y-22592000D01*
X8003323Y-22592000D02*
X8012847Y-22582476D01*
X8012847Y-22582476D02*
X8012847Y-22601524D01*
X8146181Y-22401524D02*
X8165228Y-22401524D01*
X8165228Y-22401524D02*
X8184276Y-22411048D01*
X8184276Y-22411048D02*
X8193800Y-22420571D01*
X8193800Y-22420571D02*
X8203323Y-22439619D01*
X8203323Y-22439619D02*
X8212847Y-22477714D01*
X8212847Y-22477714D02*
X8212847Y-22525333D01*
X8212847Y-22525333D02*
X8203323Y-22563428D01*
X8203323Y-22563428D02*
X8193800Y-22582476D01*
X8193800Y-22582476D02*
X8184276Y-22592000D01*
X8184276Y-22592000D02*
X8165228Y-22601524D01*
X8165228Y-22601524D02*
X8146181Y-22601524D01*
X8146181Y-22601524D02*
X8127133Y-22592000D01*
X8127133Y-22592000D02*
X8117609Y-22582476D01*
X8117609Y-22582476D02*
X8108085Y-22563428D01*
X8108085Y-22563428D02*
X8098562Y-22525333D01*
X8098562Y-22525333D02*
X8098562Y-22477714D01*
X8098562Y-22477714D02*
X8108085Y-22439619D01*
X8108085Y-22439619D02*
X8117609Y-22420571D01*
X8117609Y-22420571D02*
X8127133Y-22411048D01*
X8127133Y-22411048D02*
X8146181Y-22401524D01*
X8279514Y-22401524D02*
X8403324Y-22401524D01*
X8403324Y-22401524D02*
X8336657Y-22477714D01*
X8336657Y-22477714D02*
X8365228Y-22477714D01*
X8365228Y-22477714D02*
X8384276Y-22487238D01*
X8384276Y-22487238D02*
X8393800Y-22496762D01*
X8393800Y-22496762D02*
X8403324Y-22515809D01*
X8403324Y-22515809D02*
X8403324Y-22563428D01*
X8403324Y-22563428D02*
X8393800Y-22582476D01*
X8393800Y-22582476D02*
X8384276Y-22592000D01*
X8384276Y-22592000D02*
X8365228Y-22601524D01*
X8365228Y-22601524D02*
X8308085Y-22601524D01*
X8308085Y-22601524D02*
X8289038Y-22592000D01*
X8289038Y-22592000D02*
X8279514Y-22582476D01*
X8498562Y-22601524D02*
X8536657Y-22601524D01*
X8536657Y-22601524D02*
X8555705Y-22592000D01*
X8555705Y-22592000D02*
X8565228Y-22582476D01*
X8565228Y-22582476D02*
X8584276Y-22553905D01*
X8584276Y-22553905D02*
X8593800Y-22515809D01*
X8593800Y-22515809D02*
X8593800Y-22439619D01*
X8593800Y-22439619D02*
X8584276Y-22420571D01*
X8584276Y-22420571D02*
X8574752Y-22411048D01*
X8574752Y-22411048D02*
X8555705Y-22401524D01*
X8555705Y-22401524D02*
X8517609Y-22401524D01*
X8517609Y-22401524D02*
X8498562Y-22411048D01*
X8498562Y-22411048D02*
X8489038Y-22420571D01*
X8489038Y-22420571D02*
X8479514Y-22439619D01*
X8479514Y-22439619D02*
X8479514Y-22487238D01*
X8479514Y-22487238D02*
X8489038Y-22506286D01*
X8489038Y-22506286D02*
X8498562Y-22515809D01*
X8498562Y-22515809D02*
X8517609Y-22525333D01*
X8517609Y-22525333D02*
X8555705Y-22525333D01*
X8555705Y-22525333D02*
X8574752Y-22515809D01*
X8574752Y-22515809D02*
X8584276Y-22506286D01*
X8584276Y-22506286D02*
X8593800Y-22487238D01*
X8765228Y-22468190D02*
X8765228Y-22601524D01*
X8717609Y-22392000D02*
X8669990Y-22534857D01*
X8669990Y-22534857D02*
X8793800Y-22534857D01*
X8860466Y-22401524D02*
X8860466Y-22439619D01*
X8936657Y-22401524D02*
X8936657Y-22439619D01*
X9231895Y-22677714D02*
X9222371Y-22668190D01*
X9222371Y-22668190D02*
X9203324Y-22639619D01*
X9203324Y-22639619D02*
X9193800Y-22620571D01*
X9193800Y-22620571D02*
X9184276Y-22592000D01*
X9184276Y-22592000D02*
X9174752Y-22544381D01*
X9174752Y-22544381D02*
X9174752Y-22506286D01*
X9174752Y-22506286D02*
X9184276Y-22458667D01*
X9184276Y-22458667D02*
X9193800Y-22430095D01*
X9193800Y-22430095D02*
X9203324Y-22411048D01*
X9203324Y-22411048D02*
X9222371Y-22382476D01*
X9222371Y-22382476D02*
X9231895Y-22372952D01*
X9403324Y-22401524D02*
X9308086Y-22401524D01*
X9308086Y-22401524D02*
X9298562Y-22496762D01*
X9298562Y-22496762D02*
X9308086Y-22487238D01*
X9308086Y-22487238D02*
X9327133Y-22477714D01*
X9327133Y-22477714D02*
X9374752Y-22477714D01*
X9374752Y-22477714D02*
X9393800Y-22487238D01*
X9393800Y-22487238D02*
X9403324Y-22496762D01*
X9403324Y-22496762D02*
X9412847Y-22515809D01*
X9412847Y-22515809D02*
X9412847Y-22563428D01*
X9412847Y-22563428D02*
X9403324Y-22582476D01*
X9403324Y-22582476D02*
X9393800Y-22592000D01*
X9393800Y-22592000D02*
X9374752Y-22601524D01*
X9374752Y-22601524D02*
X9327133Y-22601524D01*
X9327133Y-22601524D02*
X9308086Y-22592000D01*
X9308086Y-22592000D02*
X9298562Y-22582476D01*
X9650943Y-22601524D02*
X9650943Y-22401524D01*
X9736657Y-22601524D02*
X9736657Y-22496762D01*
X9736657Y-22496762D02*
X9727133Y-22477714D01*
X9727133Y-22477714D02*
X9708086Y-22468190D01*
X9708086Y-22468190D02*
X9679514Y-22468190D01*
X9679514Y-22468190D02*
X9660467Y-22477714D01*
X9660467Y-22477714D02*
X9650943Y-22487238D01*
X9860467Y-22601524D02*
X9841419Y-22592000D01*
X9841419Y-22592000D02*
X9831895Y-22582476D01*
X9831895Y-22582476D02*
X9822371Y-22563428D01*
X9822371Y-22563428D02*
X9822371Y-22506286D01*
X9822371Y-22506286D02*
X9831895Y-22487238D01*
X9831895Y-22487238D02*
X9841419Y-22477714D01*
X9841419Y-22477714D02*
X9860467Y-22468190D01*
X9860467Y-22468190D02*
X9889038Y-22468190D01*
X9889038Y-22468190D02*
X9908086Y-22477714D01*
X9908086Y-22477714D02*
X9917609Y-22487238D01*
X9917609Y-22487238D02*
X9927133Y-22506286D01*
X9927133Y-22506286D02*
X9927133Y-22563428D01*
X9927133Y-22563428D02*
X9917609Y-22582476D01*
X9917609Y-22582476D02*
X9908086Y-22592000D01*
X9908086Y-22592000D02*
X9889038Y-22601524D01*
X9889038Y-22601524D02*
X9860467Y-22601524D01*
X10041419Y-22601524D02*
X10022371Y-22592000D01*
X10022371Y-22592000D02*
X10012848Y-22572952D01*
X10012848Y-22572952D02*
X10012848Y-22401524D01*
X10193800Y-22592000D02*
X10174752Y-22601524D01*
X10174752Y-22601524D02*
X10136657Y-22601524D01*
X10136657Y-22601524D02*
X10117609Y-22592000D01*
X10117609Y-22592000D02*
X10108086Y-22572952D01*
X10108086Y-22572952D02*
X10108086Y-22496762D01*
X10108086Y-22496762D02*
X10117609Y-22477714D01*
X10117609Y-22477714D02*
X10136657Y-22468190D01*
X10136657Y-22468190D02*
X10174752Y-22468190D01*
X10174752Y-22468190D02*
X10193800Y-22477714D01*
X10193800Y-22477714D02*
X10203324Y-22496762D01*
X10203324Y-22496762D02*
X10203324Y-22515809D01*
X10203324Y-22515809D02*
X10108086Y-22534857D01*
X10279514Y-22592000D02*
X10298562Y-22601524D01*
X10298562Y-22601524D02*
X10336657Y-22601524D01*
X10336657Y-22601524D02*
X10355705Y-22592000D01*
X10355705Y-22592000D02*
X10365229Y-22572952D01*
X10365229Y-22572952D02*
X10365229Y-22563428D01*
X10365229Y-22563428D02*
X10355705Y-22544381D01*
X10355705Y-22544381D02*
X10336657Y-22534857D01*
X10336657Y-22534857D02*
X10308086Y-22534857D01*
X10308086Y-22534857D02*
X10289038Y-22525333D01*
X10289038Y-22525333D02*
X10279514Y-22506286D01*
X10279514Y-22506286D02*
X10279514Y-22496762D01*
X10279514Y-22496762D02*
X10289038Y-22477714D01*
X10289038Y-22477714D02*
X10308086Y-22468190D01*
X10308086Y-22468190D02*
X10336657Y-22468190D01*
X10336657Y-22468190D02*
X10355705Y-22477714D01*
X10431895Y-22677714D02*
X10441419Y-22668190D01*
X10441419Y-22668190D02*
X10460467Y-22639619D01*
X10460467Y-22639619D02*
X10469990Y-22620571D01*
X10469990Y-22620571D02*
X10479514Y-22592000D01*
X10479514Y-22592000D02*
X10489038Y-22544381D01*
X10489038Y-22544381D02*
X10489038Y-22506286D01*
X10489038Y-22506286D02*
X10479514Y-22458667D01*
X10479514Y-22458667D02*
X10469990Y-22430095D01*
X10469990Y-22430095D02*
X10460467Y-22411048D01*
X10460467Y-22411048D02*
X10441419Y-22382476D01*
X10441419Y-22382476D02*
X10431895Y-22372952D01*
D13*
X5618990Y-22722000D02*
X5618990Y-22824000D01*
X5567990Y-22773000D02*
X5669990Y-22773000D01*
D11*
X6022371Y-22865524D02*
X5908085Y-22865524D01*
X5965228Y-22865524D02*
X5965228Y-22665524D01*
X5965228Y-22665524D02*
X5946180Y-22694095D01*
X5946180Y-22694095D02*
X5927133Y-22713143D01*
X5927133Y-22713143D02*
X5908085Y-22722667D01*
X6108085Y-22846476D02*
X6117609Y-22856000D01*
X6117609Y-22856000D02*
X6108085Y-22865524D01*
X6108085Y-22865524D02*
X6098561Y-22856000D01*
X6098561Y-22856000D02*
X6108085Y-22846476D01*
X6108085Y-22846476D02*
X6108085Y-22865524D01*
X6241418Y-22665524D02*
X6260466Y-22665524D01*
X6260466Y-22665524D02*
X6279514Y-22675048D01*
X6279514Y-22675048D02*
X6289038Y-22684571D01*
X6289038Y-22684571D02*
X6298561Y-22703619D01*
X6298561Y-22703619D02*
X6308085Y-22741714D01*
X6308085Y-22741714D02*
X6308085Y-22789333D01*
X6308085Y-22789333D02*
X6298561Y-22827428D01*
X6298561Y-22827428D02*
X6289038Y-22846476D01*
X6289038Y-22846476D02*
X6279514Y-22856000D01*
X6279514Y-22856000D02*
X6260466Y-22865524D01*
X6260466Y-22865524D02*
X6241418Y-22865524D01*
X6241418Y-22865524D02*
X6222371Y-22856000D01*
X6222371Y-22856000D02*
X6212847Y-22846476D01*
X6212847Y-22846476D02*
X6203323Y-22827428D01*
X6203323Y-22827428D02*
X6193799Y-22789333D01*
X6193799Y-22789333D02*
X6193799Y-22741714D01*
X6193799Y-22741714D02*
X6203323Y-22703619D01*
X6203323Y-22703619D02*
X6212847Y-22684571D01*
X6212847Y-22684571D02*
X6222371Y-22675048D01*
X6222371Y-22675048D02*
X6241418Y-22665524D01*
X6384276Y-22684571D02*
X6393799Y-22675048D01*
X6393799Y-22675048D02*
X6412847Y-22665524D01*
X6412847Y-22665524D02*
X6460466Y-22665524D01*
X6460466Y-22665524D02*
X6479514Y-22675048D01*
X6479514Y-22675048D02*
X6489038Y-22684571D01*
X6489038Y-22684571D02*
X6498561Y-22703619D01*
X6498561Y-22703619D02*
X6498561Y-22722667D01*
X6498561Y-22722667D02*
X6489038Y-22751238D01*
X6489038Y-22751238D02*
X6374752Y-22865524D01*
X6374752Y-22865524D02*
X6498561Y-22865524D01*
X6622371Y-22665524D02*
X6641419Y-22665524D01*
X6641419Y-22665524D02*
X6660466Y-22675048D01*
X6660466Y-22675048D02*
X6669990Y-22684571D01*
X6669990Y-22684571D02*
X6679514Y-22703619D01*
X6679514Y-22703619D02*
X6689038Y-22741714D01*
X6689038Y-22741714D02*
X6689038Y-22789333D01*
X6689038Y-22789333D02*
X6679514Y-22827428D01*
X6679514Y-22827428D02*
X6669990Y-22846476D01*
X6669990Y-22846476D02*
X6660466Y-22856000D01*
X6660466Y-22856000D02*
X6641419Y-22865524D01*
X6641419Y-22865524D02*
X6622371Y-22865524D01*
X6622371Y-22865524D02*
X6603323Y-22856000D01*
X6603323Y-22856000D02*
X6593799Y-22846476D01*
X6593799Y-22846476D02*
X6584276Y-22827428D01*
X6584276Y-22827428D02*
X6574752Y-22789333D01*
X6574752Y-22789333D02*
X6574752Y-22741714D01*
X6574752Y-22741714D02*
X6584276Y-22703619D01*
X6584276Y-22703619D02*
X6593799Y-22684571D01*
X6593799Y-22684571D02*
X6603323Y-22675048D01*
X6603323Y-22675048D02*
X6622371Y-22665524D01*
X6774752Y-22865524D02*
X6774752Y-22732190D01*
X6774752Y-22751238D02*
X6784276Y-22741714D01*
X6784276Y-22741714D02*
X6803323Y-22732190D01*
X6803323Y-22732190D02*
X6831895Y-22732190D01*
X6831895Y-22732190D02*
X6850942Y-22741714D01*
X6850942Y-22741714D02*
X6860466Y-22760762D01*
X6860466Y-22760762D02*
X6860466Y-22865524D01*
X6860466Y-22760762D02*
X6869990Y-22741714D01*
X6869990Y-22741714D02*
X6889038Y-22732190D01*
X6889038Y-22732190D02*
X6917609Y-22732190D01*
X6917609Y-22732190D02*
X6936657Y-22741714D01*
X6936657Y-22741714D02*
X6946180Y-22760762D01*
X6946180Y-22760762D02*
X6946180Y-22865524D01*
X7041419Y-22865524D02*
X7041419Y-22732190D01*
X7041419Y-22751238D02*
X7050942Y-22741714D01*
X7050942Y-22741714D02*
X7069990Y-22732190D01*
X7069990Y-22732190D02*
X7098561Y-22732190D01*
X7098561Y-22732190D02*
X7117609Y-22741714D01*
X7117609Y-22741714D02*
X7127133Y-22760762D01*
X7127133Y-22760762D02*
X7127133Y-22865524D01*
X7127133Y-22760762D02*
X7136657Y-22741714D01*
X7136657Y-22741714D02*
X7155704Y-22732190D01*
X7155704Y-22732190D02*
X7184276Y-22732190D01*
X7184276Y-22732190D02*
X7203323Y-22741714D01*
X7203323Y-22741714D02*
X7212847Y-22760762D01*
X7212847Y-22760762D02*
X7212847Y-22865524D01*
X7603323Y-22656000D02*
X7431895Y-22913143D01*
X7860466Y-22665524D02*
X7879514Y-22665524D01*
X7879514Y-22665524D02*
X7898562Y-22675048D01*
X7898562Y-22675048D02*
X7908085Y-22684571D01*
X7908085Y-22684571D02*
X7917609Y-22703619D01*
X7917609Y-22703619D02*
X7927133Y-22741714D01*
X7927133Y-22741714D02*
X7927133Y-22789333D01*
X7927133Y-22789333D02*
X7917609Y-22827428D01*
X7917609Y-22827428D02*
X7908085Y-22846476D01*
X7908085Y-22846476D02*
X7898562Y-22856000D01*
X7898562Y-22856000D02*
X7879514Y-22865524D01*
X7879514Y-22865524D02*
X7860466Y-22865524D01*
X7860466Y-22865524D02*
X7841419Y-22856000D01*
X7841419Y-22856000D02*
X7831895Y-22846476D01*
X7831895Y-22846476D02*
X7822371Y-22827428D01*
X7822371Y-22827428D02*
X7812847Y-22789333D01*
X7812847Y-22789333D02*
X7812847Y-22741714D01*
X7812847Y-22741714D02*
X7822371Y-22703619D01*
X7822371Y-22703619D02*
X7831895Y-22684571D01*
X7831895Y-22684571D02*
X7841419Y-22675048D01*
X7841419Y-22675048D02*
X7860466Y-22665524D01*
X8012847Y-22846476D02*
X8022371Y-22856000D01*
X8022371Y-22856000D02*
X8012847Y-22865524D01*
X8012847Y-22865524D02*
X8003323Y-22856000D01*
X8003323Y-22856000D02*
X8012847Y-22846476D01*
X8012847Y-22846476D02*
X8012847Y-22865524D01*
X8146181Y-22665524D02*
X8165228Y-22665524D01*
X8165228Y-22665524D02*
X8184276Y-22675048D01*
X8184276Y-22675048D02*
X8193800Y-22684571D01*
X8193800Y-22684571D02*
X8203323Y-22703619D01*
X8203323Y-22703619D02*
X8212847Y-22741714D01*
X8212847Y-22741714D02*
X8212847Y-22789333D01*
X8212847Y-22789333D02*
X8203323Y-22827428D01*
X8203323Y-22827428D02*
X8193800Y-22846476D01*
X8193800Y-22846476D02*
X8184276Y-22856000D01*
X8184276Y-22856000D02*
X8165228Y-22865524D01*
X8165228Y-22865524D02*
X8146181Y-22865524D01*
X8146181Y-22865524D02*
X8127133Y-22856000D01*
X8127133Y-22856000D02*
X8117609Y-22846476D01*
X8117609Y-22846476D02*
X8108085Y-22827428D01*
X8108085Y-22827428D02*
X8098562Y-22789333D01*
X8098562Y-22789333D02*
X8098562Y-22741714D01*
X8098562Y-22741714D02*
X8108085Y-22703619D01*
X8108085Y-22703619D02*
X8117609Y-22684571D01*
X8117609Y-22684571D02*
X8127133Y-22675048D01*
X8127133Y-22675048D02*
X8146181Y-22665524D01*
X8384276Y-22732190D02*
X8384276Y-22865524D01*
X8336657Y-22656000D02*
X8289038Y-22798857D01*
X8289038Y-22798857D02*
X8412847Y-22798857D01*
X8527133Y-22665524D02*
X8546181Y-22665524D01*
X8546181Y-22665524D02*
X8565228Y-22675048D01*
X8565228Y-22675048D02*
X8574752Y-22684571D01*
X8574752Y-22684571D02*
X8584276Y-22703619D01*
X8584276Y-22703619D02*
X8593800Y-22741714D01*
X8593800Y-22741714D02*
X8593800Y-22789333D01*
X8593800Y-22789333D02*
X8584276Y-22827428D01*
X8584276Y-22827428D02*
X8574752Y-22846476D01*
X8574752Y-22846476D02*
X8565228Y-22856000D01*
X8565228Y-22856000D02*
X8546181Y-22865524D01*
X8546181Y-22865524D02*
X8527133Y-22865524D01*
X8527133Y-22865524D02*
X8508085Y-22856000D01*
X8508085Y-22856000D02*
X8498562Y-22846476D01*
X8498562Y-22846476D02*
X8489038Y-22827428D01*
X8489038Y-22827428D02*
X8479514Y-22789333D01*
X8479514Y-22789333D02*
X8479514Y-22741714D01*
X8479514Y-22741714D02*
X8489038Y-22703619D01*
X8489038Y-22703619D02*
X8498562Y-22684571D01*
X8498562Y-22684571D02*
X8508085Y-22675048D01*
X8508085Y-22675048D02*
X8527133Y-22665524D01*
X8669990Y-22684571D02*
X8679514Y-22675048D01*
X8679514Y-22675048D02*
X8698562Y-22665524D01*
X8698562Y-22665524D02*
X8746181Y-22665524D01*
X8746181Y-22665524D02*
X8765228Y-22675048D01*
X8765228Y-22675048D02*
X8774752Y-22684571D01*
X8774752Y-22684571D02*
X8784276Y-22703619D01*
X8784276Y-22703619D02*
X8784276Y-22722667D01*
X8784276Y-22722667D02*
X8774752Y-22751238D01*
X8774752Y-22751238D02*
X8660466Y-22865524D01*
X8660466Y-22865524D02*
X8784276Y-22865524D01*
X8860466Y-22665524D02*
X8860466Y-22703619D01*
X8936657Y-22665524D02*
X8936657Y-22703619D01*
X9231895Y-22941714D02*
X9222371Y-22932190D01*
X9222371Y-22932190D02*
X9203324Y-22903619D01*
X9203324Y-22903619D02*
X9193800Y-22884571D01*
X9193800Y-22884571D02*
X9184276Y-22856000D01*
X9184276Y-22856000D02*
X9174752Y-22808381D01*
X9174752Y-22808381D02*
X9174752Y-22770286D01*
X9174752Y-22770286D02*
X9184276Y-22722667D01*
X9184276Y-22722667D02*
X9193800Y-22694095D01*
X9193800Y-22694095D02*
X9203324Y-22675048D01*
X9203324Y-22675048D02*
X9222371Y-22646476D01*
X9222371Y-22646476D02*
X9231895Y-22636952D01*
X9336657Y-22751238D02*
X9317609Y-22741714D01*
X9317609Y-22741714D02*
X9308086Y-22732190D01*
X9308086Y-22732190D02*
X9298562Y-22713143D01*
X9298562Y-22713143D02*
X9298562Y-22703619D01*
X9298562Y-22703619D02*
X9308086Y-22684571D01*
X9308086Y-22684571D02*
X9317609Y-22675048D01*
X9317609Y-22675048D02*
X9336657Y-22665524D01*
X9336657Y-22665524D02*
X9374752Y-22665524D01*
X9374752Y-22665524D02*
X9393800Y-22675048D01*
X9393800Y-22675048D02*
X9403324Y-22684571D01*
X9403324Y-22684571D02*
X9412847Y-22703619D01*
X9412847Y-22703619D02*
X9412847Y-22713143D01*
X9412847Y-22713143D02*
X9403324Y-22732190D01*
X9403324Y-22732190D02*
X9393800Y-22741714D01*
X9393800Y-22741714D02*
X9374752Y-22751238D01*
X9374752Y-22751238D02*
X9336657Y-22751238D01*
X9336657Y-22751238D02*
X9317609Y-22760762D01*
X9317609Y-22760762D02*
X9308086Y-22770286D01*
X9308086Y-22770286D02*
X9298562Y-22789333D01*
X9298562Y-22789333D02*
X9298562Y-22827428D01*
X9298562Y-22827428D02*
X9308086Y-22846476D01*
X9308086Y-22846476D02*
X9317609Y-22856000D01*
X9317609Y-22856000D02*
X9336657Y-22865524D01*
X9336657Y-22865524D02*
X9374752Y-22865524D01*
X9374752Y-22865524D02*
X9393800Y-22856000D01*
X9393800Y-22856000D02*
X9403324Y-22846476D01*
X9403324Y-22846476D02*
X9412847Y-22827428D01*
X9412847Y-22827428D02*
X9412847Y-22789333D01*
X9412847Y-22789333D02*
X9403324Y-22770286D01*
X9403324Y-22770286D02*
X9393800Y-22760762D01*
X9393800Y-22760762D02*
X9374752Y-22751238D01*
X9584276Y-22665524D02*
X9546181Y-22665524D01*
X9546181Y-22665524D02*
X9527133Y-22675048D01*
X9527133Y-22675048D02*
X9517609Y-22684571D01*
X9517609Y-22684571D02*
X9498562Y-22713143D01*
X9498562Y-22713143D02*
X9489038Y-22751238D01*
X9489038Y-22751238D02*
X9489038Y-22827428D01*
X9489038Y-22827428D02*
X9498562Y-22846476D01*
X9498562Y-22846476D02*
X9508086Y-22856000D01*
X9508086Y-22856000D02*
X9527133Y-22865524D01*
X9527133Y-22865524D02*
X9565228Y-22865524D01*
X9565228Y-22865524D02*
X9584276Y-22856000D01*
X9584276Y-22856000D02*
X9593800Y-22846476D01*
X9593800Y-22846476D02*
X9603324Y-22827428D01*
X9603324Y-22827428D02*
X9603324Y-22779809D01*
X9603324Y-22779809D02*
X9593800Y-22760762D01*
X9593800Y-22760762D02*
X9584276Y-22751238D01*
X9584276Y-22751238D02*
X9565228Y-22741714D01*
X9565228Y-22741714D02*
X9527133Y-22741714D01*
X9527133Y-22741714D02*
X9508086Y-22751238D01*
X9508086Y-22751238D02*
X9498562Y-22760762D01*
X9498562Y-22760762D02*
X9489038Y-22779809D01*
X9841419Y-22865524D02*
X9841419Y-22665524D01*
X9927133Y-22865524D02*
X9927133Y-22760762D01*
X9927133Y-22760762D02*
X9917609Y-22741714D01*
X9917609Y-22741714D02*
X9898562Y-22732190D01*
X9898562Y-22732190D02*
X9869990Y-22732190D01*
X9869990Y-22732190D02*
X9850943Y-22741714D01*
X9850943Y-22741714D02*
X9841419Y-22751238D01*
X10050943Y-22865524D02*
X10031895Y-22856000D01*
X10031895Y-22856000D02*
X10022371Y-22846476D01*
X10022371Y-22846476D02*
X10012848Y-22827428D01*
X10012848Y-22827428D02*
X10012848Y-22770286D01*
X10012848Y-22770286D02*
X10022371Y-22751238D01*
X10022371Y-22751238D02*
X10031895Y-22741714D01*
X10031895Y-22741714D02*
X10050943Y-22732190D01*
X10050943Y-22732190D02*
X10079514Y-22732190D01*
X10079514Y-22732190D02*
X10098562Y-22741714D01*
X10098562Y-22741714D02*
X10108086Y-22751238D01*
X10108086Y-22751238D02*
X10117609Y-22770286D01*
X10117609Y-22770286D02*
X10117609Y-22827428D01*
X10117609Y-22827428D02*
X10108086Y-22846476D01*
X10108086Y-22846476D02*
X10098562Y-22856000D01*
X10098562Y-22856000D02*
X10079514Y-22865524D01*
X10079514Y-22865524D02*
X10050943Y-22865524D01*
X10231895Y-22865524D02*
X10212848Y-22856000D01*
X10212848Y-22856000D02*
X10203324Y-22836952D01*
X10203324Y-22836952D02*
X10203324Y-22665524D01*
X10384276Y-22856000D02*
X10365229Y-22865524D01*
X10365229Y-22865524D02*
X10327133Y-22865524D01*
X10327133Y-22865524D02*
X10308086Y-22856000D01*
X10308086Y-22856000D02*
X10298562Y-22836952D01*
X10298562Y-22836952D02*
X10298562Y-22760762D01*
X10298562Y-22760762D02*
X10308086Y-22741714D01*
X10308086Y-22741714D02*
X10327133Y-22732190D01*
X10327133Y-22732190D02*
X10365229Y-22732190D01*
X10365229Y-22732190D02*
X10384276Y-22741714D01*
X10384276Y-22741714D02*
X10393800Y-22760762D01*
X10393800Y-22760762D02*
X10393800Y-22779809D01*
X10393800Y-22779809D02*
X10298562Y-22798857D01*
X10469990Y-22856000D02*
X10489038Y-22865524D01*
X10489038Y-22865524D02*
X10527133Y-22865524D01*
X10527133Y-22865524D02*
X10546181Y-22856000D01*
X10546181Y-22856000D02*
X10555705Y-22836952D01*
X10555705Y-22836952D02*
X10555705Y-22827428D01*
X10555705Y-22827428D02*
X10546181Y-22808381D01*
X10546181Y-22808381D02*
X10527133Y-22798857D01*
X10527133Y-22798857D02*
X10498562Y-22798857D01*
X10498562Y-22798857D02*
X10479514Y-22789333D01*
X10479514Y-22789333D02*
X10469990Y-22770286D01*
X10469990Y-22770286D02*
X10469990Y-22760762D01*
X10469990Y-22760762D02*
X10479514Y-22741714D01*
X10479514Y-22741714D02*
X10498562Y-22732190D01*
X10498562Y-22732190D02*
X10527133Y-22732190D01*
X10527133Y-22732190D02*
X10546181Y-22741714D01*
X10622371Y-22941714D02*
X10631895Y-22932190D01*
X10631895Y-22932190D02*
X10650943Y-22903619D01*
X10650943Y-22903619D02*
X10660467Y-22884571D01*
X10660467Y-22884571D02*
X10669990Y-22856000D01*
X10669990Y-22856000D02*
X10679514Y-22808381D01*
X10679514Y-22808381D02*
X10679514Y-22770286D01*
X10679514Y-22770286D02*
X10669990Y-22722667D01*
X10669990Y-22722667D02*
X10660467Y-22694095D01*
X10660467Y-22694095D02*
X10650943Y-22675048D01*
X10650943Y-22675048D02*
X10631895Y-22646476D01*
X10631895Y-22646476D02*
X10622371Y-22636952D01*
D14*
X5651392Y-23081902D02*
X5651392Y-22992098D01*
X5561588Y-22992098D01*
X5561588Y-23081902D01*
X5651392Y-23081902D01*
D11*
X6022371Y-23129524D02*
X5908085Y-23129524D01*
X5965228Y-23129524D02*
X5965228Y-22929524D01*
X5965228Y-22929524D02*
X5946180Y-22958095D01*
X5946180Y-22958095D02*
X5927133Y-22977143D01*
X5927133Y-22977143D02*
X5908085Y-22986667D01*
X6108085Y-23110476D02*
X6117609Y-23120000D01*
X6117609Y-23120000D02*
X6108085Y-23129524D01*
X6108085Y-23129524D02*
X6098561Y-23120000D01*
X6098561Y-23120000D02*
X6108085Y-23110476D01*
X6108085Y-23110476D02*
X6108085Y-23129524D01*
X6193799Y-22948571D02*
X6203323Y-22939048D01*
X6203323Y-22939048D02*
X6222371Y-22929524D01*
X6222371Y-22929524D02*
X6269990Y-22929524D01*
X6269990Y-22929524D02*
X6289038Y-22939048D01*
X6289038Y-22939048D02*
X6298561Y-22948571D01*
X6298561Y-22948571D02*
X6308085Y-22967619D01*
X6308085Y-22967619D02*
X6308085Y-22986667D01*
X6308085Y-22986667D02*
X6298561Y-23015238D01*
X6298561Y-23015238D02*
X6184276Y-23129524D01*
X6184276Y-23129524D02*
X6308085Y-23129524D01*
X6374752Y-22929524D02*
X6508085Y-22929524D01*
X6508085Y-22929524D02*
X6422371Y-23129524D01*
X6622371Y-22929524D02*
X6641419Y-22929524D01*
X6641419Y-22929524D02*
X6660466Y-22939048D01*
X6660466Y-22939048D02*
X6669990Y-22948571D01*
X6669990Y-22948571D02*
X6679514Y-22967619D01*
X6679514Y-22967619D02*
X6689038Y-23005714D01*
X6689038Y-23005714D02*
X6689038Y-23053333D01*
X6689038Y-23053333D02*
X6679514Y-23091428D01*
X6679514Y-23091428D02*
X6669990Y-23110476D01*
X6669990Y-23110476D02*
X6660466Y-23120000D01*
X6660466Y-23120000D02*
X6641419Y-23129524D01*
X6641419Y-23129524D02*
X6622371Y-23129524D01*
X6622371Y-23129524D02*
X6603323Y-23120000D01*
X6603323Y-23120000D02*
X6593799Y-23110476D01*
X6593799Y-23110476D02*
X6584276Y-23091428D01*
X6584276Y-23091428D02*
X6574752Y-23053333D01*
X6574752Y-23053333D02*
X6574752Y-23005714D01*
X6574752Y-23005714D02*
X6584276Y-22967619D01*
X6584276Y-22967619D02*
X6593799Y-22948571D01*
X6593799Y-22948571D02*
X6603323Y-22939048D01*
X6603323Y-22939048D02*
X6622371Y-22929524D01*
X6774752Y-23129524D02*
X6774752Y-22996190D01*
X6774752Y-23015238D02*
X6784276Y-23005714D01*
X6784276Y-23005714D02*
X6803323Y-22996190D01*
X6803323Y-22996190D02*
X6831895Y-22996190D01*
X6831895Y-22996190D02*
X6850942Y-23005714D01*
X6850942Y-23005714D02*
X6860466Y-23024762D01*
X6860466Y-23024762D02*
X6860466Y-23129524D01*
X6860466Y-23024762D02*
X6869990Y-23005714D01*
X6869990Y-23005714D02*
X6889038Y-22996190D01*
X6889038Y-22996190D02*
X6917609Y-22996190D01*
X6917609Y-22996190D02*
X6936657Y-23005714D01*
X6936657Y-23005714D02*
X6946180Y-23024762D01*
X6946180Y-23024762D02*
X6946180Y-23129524D01*
X7041419Y-23129524D02*
X7041419Y-22996190D01*
X7041419Y-23015238D02*
X7050942Y-23005714D01*
X7050942Y-23005714D02*
X7069990Y-22996190D01*
X7069990Y-22996190D02*
X7098561Y-22996190D01*
X7098561Y-22996190D02*
X7117609Y-23005714D01*
X7117609Y-23005714D02*
X7127133Y-23024762D01*
X7127133Y-23024762D02*
X7127133Y-23129524D01*
X7127133Y-23024762D02*
X7136657Y-23005714D01*
X7136657Y-23005714D02*
X7155704Y-22996190D01*
X7155704Y-22996190D02*
X7184276Y-22996190D01*
X7184276Y-22996190D02*
X7203323Y-23005714D01*
X7203323Y-23005714D02*
X7212847Y-23024762D01*
X7212847Y-23024762D02*
X7212847Y-23129524D01*
X7603323Y-22920000D02*
X7431895Y-23177143D01*
X7860466Y-22929524D02*
X7879514Y-22929524D01*
X7879514Y-22929524D02*
X7898562Y-22939048D01*
X7898562Y-22939048D02*
X7908085Y-22948571D01*
X7908085Y-22948571D02*
X7917609Y-22967619D01*
X7917609Y-22967619D02*
X7927133Y-23005714D01*
X7927133Y-23005714D02*
X7927133Y-23053333D01*
X7927133Y-23053333D02*
X7917609Y-23091428D01*
X7917609Y-23091428D02*
X7908085Y-23110476D01*
X7908085Y-23110476D02*
X7898562Y-23120000D01*
X7898562Y-23120000D02*
X7879514Y-23129524D01*
X7879514Y-23129524D02*
X7860466Y-23129524D01*
X7860466Y-23129524D02*
X7841419Y-23120000D01*
X7841419Y-23120000D02*
X7831895Y-23110476D01*
X7831895Y-23110476D02*
X7822371Y-23091428D01*
X7822371Y-23091428D02*
X7812847Y-23053333D01*
X7812847Y-23053333D02*
X7812847Y-23005714D01*
X7812847Y-23005714D02*
X7822371Y-22967619D01*
X7822371Y-22967619D02*
X7831895Y-22948571D01*
X7831895Y-22948571D02*
X7841419Y-22939048D01*
X7841419Y-22939048D02*
X7860466Y-22929524D01*
X8012847Y-23110476D02*
X8022371Y-23120000D01*
X8022371Y-23120000D02*
X8012847Y-23129524D01*
X8012847Y-23129524D02*
X8003323Y-23120000D01*
X8003323Y-23120000D02*
X8012847Y-23110476D01*
X8012847Y-23110476D02*
X8012847Y-23129524D01*
X8146181Y-22929524D02*
X8165228Y-22929524D01*
X8165228Y-22929524D02*
X8184276Y-22939048D01*
X8184276Y-22939048D02*
X8193800Y-22948571D01*
X8193800Y-22948571D02*
X8203323Y-22967619D01*
X8203323Y-22967619D02*
X8212847Y-23005714D01*
X8212847Y-23005714D02*
X8212847Y-23053333D01*
X8212847Y-23053333D02*
X8203323Y-23091428D01*
X8203323Y-23091428D02*
X8193800Y-23110476D01*
X8193800Y-23110476D02*
X8184276Y-23120000D01*
X8184276Y-23120000D02*
X8165228Y-23129524D01*
X8165228Y-23129524D02*
X8146181Y-23129524D01*
X8146181Y-23129524D02*
X8127133Y-23120000D01*
X8127133Y-23120000D02*
X8117609Y-23110476D01*
X8117609Y-23110476D02*
X8108085Y-23091428D01*
X8108085Y-23091428D02*
X8098562Y-23053333D01*
X8098562Y-23053333D02*
X8098562Y-23005714D01*
X8098562Y-23005714D02*
X8108085Y-22967619D01*
X8108085Y-22967619D02*
X8117609Y-22948571D01*
X8117609Y-22948571D02*
X8127133Y-22939048D01*
X8127133Y-22939048D02*
X8146181Y-22929524D01*
X8393800Y-22929524D02*
X8298562Y-22929524D01*
X8298562Y-22929524D02*
X8289038Y-23024762D01*
X8289038Y-23024762D02*
X8298562Y-23015238D01*
X8298562Y-23015238D02*
X8317609Y-23005714D01*
X8317609Y-23005714D02*
X8365228Y-23005714D01*
X8365228Y-23005714D02*
X8384276Y-23015238D01*
X8384276Y-23015238D02*
X8393800Y-23024762D01*
X8393800Y-23024762D02*
X8403324Y-23043809D01*
X8403324Y-23043809D02*
X8403324Y-23091428D01*
X8403324Y-23091428D02*
X8393800Y-23110476D01*
X8393800Y-23110476D02*
X8384276Y-23120000D01*
X8384276Y-23120000D02*
X8365228Y-23129524D01*
X8365228Y-23129524D02*
X8317609Y-23129524D01*
X8317609Y-23129524D02*
X8298562Y-23120000D01*
X8298562Y-23120000D02*
X8289038Y-23110476D01*
X8527133Y-22929524D02*
X8546181Y-22929524D01*
X8546181Y-22929524D02*
X8565228Y-22939048D01*
X8565228Y-22939048D02*
X8574752Y-22948571D01*
X8574752Y-22948571D02*
X8584276Y-22967619D01*
X8584276Y-22967619D02*
X8593800Y-23005714D01*
X8593800Y-23005714D02*
X8593800Y-23053333D01*
X8593800Y-23053333D02*
X8584276Y-23091428D01*
X8584276Y-23091428D02*
X8574752Y-23110476D01*
X8574752Y-23110476D02*
X8565228Y-23120000D01*
X8565228Y-23120000D02*
X8546181Y-23129524D01*
X8546181Y-23129524D02*
X8527133Y-23129524D01*
X8527133Y-23129524D02*
X8508085Y-23120000D01*
X8508085Y-23120000D02*
X8498562Y-23110476D01*
X8498562Y-23110476D02*
X8489038Y-23091428D01*
X8489038Y-23091428D02*
X8479514Y-23053333D01*
X8479514Y-23053333D02*
X8479514Y-23005714D01*
X8479514Y-23005714D02*
X8489038Y-22967619D01*
X8489038Y-22967619D02*
X8498562Y-22948571D01*
X8498562Y-22948571D02*
X8508085Y-22939048D01*
X8508085Y-22939048D02*
X8527133Y-22929524D01*
X8717609Y-22929524D02*
X8736657Y-22929524D01*
X8736657Y-22929524D02*
X8755705Y-22939048D01*
X8755705Y-22939048D02*
X8765228Y-22948571D01*
X8765228Y-22948571D02*
X8774752Y-22967619D01*
X8774752Y-22967619D02*
X8784276Y-23005714D01*
X8784276Y-23005714D02*
X8784276Y-23053333D01*
X8784276Y-23053333D02*
X8774752Y-23091428D01*
X8774752Y-23091428D02*
X8765228Y-23110476D01*
X8765228Y-23110476D02*
X8755705Y-23120000D01*
X8755705Y-23120000D02*
X8736657Y-23129524D01*
X8736657Y-23129524D02*
X8717609Y-23129524D01*
X8717609Y-23129524D02*
X8698562Y-23120000D01*
X8698562Y-23120000D02*
X8689038Y-23110476D01*
X8689038Y-23110476D02*
X8679514Y-23091428D01*
X8679514Y-23091428D02*
X8669990Y-23053333D01*
X8669990Y-23053333D02*
X8669990Y-23005714D01*
X8669990Y-23005714D02*
X8679514Y-22967619D01*
X8679514Y-22967619D02*
X8689038Y-22948571D01*
X8689038Y-22948571D02*
X8698562Y-22939048D01*
X8698562Y-22939048D02*
X8717609Y-22929524D01*
X8860466Y-22929524D02*
X8860466Y-22967619D01*
X8936657Y-22929524D02*
X8936657Y-22967619D01*
X9231895Y-23205714D02*
X9222371Y-23196190D01*
X9222371Y-23196190D02*
X9203324Y-23167619D01*
X9203324Y-23167619D02*
X9193800Y-23148571D01*
X9193800Y-23148571D02*
X9184276Y-23120000D01*
X9184276Y-23120000D02*
X9174752Y-23072381D01*
X9174752Y-23072381D02*
X9174752Y-23034286D01*
X9174752Y-23034286D02*
X9184276Y-22986667D01*
X9184276Y-22986667D02*
X9193800Y-22958095D01*
X9193800Y-22958095D02*
X9203324Y-22939048D01*
X9203324Y-22939048D02*
X9222371Y-22910476D01*
X9222371Y-22910476D02*
X9231895Y-22900952D01*
X9336657Y-23015238D02*
X9317609Y-23005714D01*
X9317609Y-23005714D02*
X9308086Y-22996190D01*
X9308086Y-22996190D02*
X9298562Y-22977143D01*
X9298562Y-22977143D02*
X9298562Y-22967619D01*
X9298562Y-22967619D02*
X9308086Y-22948571D01*
X9308086Y-22948571D02*
X9317609Y-22939048D01*
X9317609Y-22939048D02*
X9336657Y-22929524D01*
X9336657Y-22929524D02*
X9374752Y-22929524D01*
X9374752Y-22929524D02*
X9393800Y-22939048D01*
X9393800Y-22939048D02*
X9403324Y-22948571D01*
X9403324Y-22948571D02*
X9412847Y-22967619D01*
X9412847Y-22967619D02*
X9412847Y-22977143D01*
X9412847Y-22977143D02*
X9403324Y-22996190D01*
X9403324Y-22996190D02*
X9393800Y-23005714D01*
X9393800Y-23005714D02*
X9374752Y-23015238D01*
X9374752Y-23015238D02*
X9336657Y-23015238D01*
X9336657Y-23015238D02*
X9317609Y-23024762D01*
X9317609Y-23024762D02*
X9308086Y-23034286D01*
X9308086Y-23034286D02*
X9298562Y-23053333D01*
X9298562Y-23053333D02*
X9298562Y-23091428D01*
X9298562Y-23091428D02*
X9308086Y-23110476D01*
X9308086Y-23110476D02*
X9317609Y-23120000D01*
X9317609Y-23120000D02*
X9336657Y-23129524D01*
X9336657Y-23129524D02*
X9374752Y-23129524D01*
X9374752Y-23129524D02*
X9393800Y-23120000D01*
X9393800Y-23120000D02*
X9403324Y-23110476D01*
X9403324Y-23110476D02*
X9412847Y-23091428D01*
X9412847Y-23091428D02*
X9412847Y-23053333D01*
X9412847Y-23053333D02*
X9403324Y-23034286D01*
X9403324Y-23034286D02*
X9393800Y-23024762D01*
X9393800Y-23024762D02*
X9374752Y-23015238D01*
X9584276Y-22996190D02*
X9584276Y-23129524D01*
X9536657Y-22920000D02*
X9489038Y-23062857D01*
X9489038Y-23062857D02*
X9612847Y-23062857D01*
X9841419Y-23129524D02*
X9841419Y-22929524D01*
X9927133Y-23129524D02*
X9927133Y-23024762D01*
X9927133Y-23024762D02*
X9917609Y-23005714D01*
X9917609Y-23005714D02*
X9898562Y-22996190D01*
X9898562Y-22996190D02*
X9869990Y-22996190D01*
X9869990Y-22996190D02*
X9850943Y-23005714D01*
X9850943Y-23005714D02*
X9841419Y-23015238D01*
X10050943Y-23129524D02*
X10031895Y-23120000D01*
X10031895Y-23120000D02*
X10022371Y-23110476D01*
X10022371Y-23110476D02*
X10012848Y-23091428D01*
X10012848Y-23091428D02*
X10012848Y-23034286D01*
X10012848Y-23034286D02*
X10022371Y-23015238D01*
X10022371Y-23015238D02*
X10031895Y-23005714D01*
X10031895Y-23005714D02*
X10050943Y-22996190D01*
X10050943Y-22996190D02*
X10079514Y-22996190D01*
X10079514Y-22996190D02*
X10098562Y-23005714D01*
X10098562Y-23005714D02*
X10108086Y-23015238D01*
X10108086Y-23015238D02*
X10117609Y-23034286D01*
X10117609Y-23034286D02*
X10117609Y-23091428D01*
X10117609Y-23091428D02*
X10108086Y-23110476D01*
X10108086Y-23110476D02*
X10098562Y-23120000D01*
X10098562Y-23120000D02*
X10079514Y-23129524D01*
X10079514Y-23129524D02*
X10050943Y-23129524D01*
X10231895Y-23129524D02*
X10212848Y-23120000D01*
X10212848Y-23120000D02*
X10203324Y-23100952D01*
X10203324Y-23100952D02*
X10203324Y-22929524D01*
X10384276Y-23120000D02*
X10365229Y-23129524D01*
X10365229Y-23129524D02*
X10327133Y-23129524D01*
X10327133Y-23129524D02*
X10308086Y-23120000D01*
X10308086Y-23120000D02*
X10298562Y-23100952D01*
X10298562Y-23100952D02*
X10298562Y-23024762D01*
X10298562Y-23024762D02*
X10308086Y-23005714D01*
X10308086Y-23005714D02*
X10327133Y-22996190D01*
X10327133Y-22996190D02*
X10365229Y-22996190D01*
X10365229Y-22996190D02*
X10384276Y-23005714D01*
X10384276Y-23005714D02*
X10393800Y-23024762D01*
X10393800Y-23024762D02*
X10393800Y-23043809D01*
X10393800Y-23043809D02*
X10298562Y-23062857D01*
X10469990Y-23120000D02*
X10489038Y-23129524D01*
X10489038Y-23129524D02*
X10527133Y-23129524D01*
X10527133Y-23129524D02*
X10546181Y-23120000D01*
X10546181Y-23120000D02*
X10555705Y-23100952D01*
X10555705Y-23100952D02*
X10555705Y-23091428D01*
X10555705Y-23091428D02*
X10546181Y-23072381D01*
X10546181Y-23072381D02*
X10527133Y-23062857D01*
X10527133Y-23062857D02*
X10498562Y-23062857D01*
X10498562Y-23062857D02*
X10479514Y-23053333D01*
X10479514Y-23053333D02*
X10469990Y-23034286D01*
X10469990Y-23034286D02*
X10469990Y-23024762D01*
X10469990Y-23024762D02*
X10479514Y-23005714D01*
X10479514Y-23005714D02*
X10498562Y-22996190D01*
X10498562Y-22996190D02*
X10527133Y-22996190D01*
X10527133Y-22996190D02*
X10546181Y-23005714D01*
X10622371Y-23205714D02*
X10631895Y-23196190D01*
X10631895Y-23196190D02*
X10650943Y-23167619D01*
X10650943Y-23167619D02*
X10660467Y-23148571D01*
X10660467Y-23148571D02*
X10669990Y-23120000D01*
X10669990Y-23120000D02*
X10679514Y-23072381D01*
X10679514Y-23072381D02*
X10679514Y-23034286D01*
X10679514Y-23034286D02*
X10669990Y-22986667D01*
X10669990Y-22986667D02*
X10660467Y-22958095D01*
X10660467Y-22958095D02*
X10650943Y-22939048D01*
X10650943Y-22939048D02*
X10631895Y-22910476D01*
X10631895Y-22910476D02*
X10622371Y-22900952D01*
D15*
X5604990Y-23366000D02*
X5669990Y-23301000D01*
X5604990Y-23236000D01*
X5539990Y-23301000D01*
X5604990Y-23366000D01*
D11*
X6022371Y-23393524D02*
X5908085Y-23393524D01*
X5965228Y-23393524D02*
X5965228Y-23193524D01*
X5965228Y-23193524D02*
X5946180Y-23222095D01*
X5946180Y-23222095D02*
X5927133Y-23241143D01*
X5927133Y-23241143D02*
X5908085Y-23250667D01*
X6108085Y-23374476D02*
X6117609Y-23384000D01*
X6117609Y-23384000D02*
X6108085Y-23393524D01*
X6108085Y-23393524D02*
X6098561Y-23384000D01*
X6098561Y-23384000D02*
X6108085Y-23374476D01*
X6108085Y-23374476D02*
X6108085Y-23393524D01*
X6184276Y-23193524D02*
X6308085Y-23193524D01*
X6308085Y-23193524D02*
X6241418Y-23269714D01*
X6241418Y-23269714D02*
X6269990Y-23269714D01*
X6269990Y-23269714D02*
X6289038Y-23279238D01*
X6289038Y-23279238D02*
X6298561Y-23288762D01*
X6298561Y-23288762D02*
X6308085Y-23307809D01*
X6308085Y-23307809D02*
X6308085Y-23355428D01*
X6308085Y-23355428D02*
X6298561Y-23374476D01*
X6298561Y-23374476D02*
X6289038Y-23384000D01*
X6289038Y-23384000D02*
X6269990Y-23393524D01*
X6269990Y-23393524D02*
X6212847Y-23393524D01*
X6212847Y-23393524D02*
X6193799Y-23384000D01*
X6193799Y-23384000D02*
X6184276Y-23374476D01*
X6431895Y-23193524D02*
X6450942Y-23193524D01*
X6450942Y-23193524D02*
X6469990Y-23203048D01*
X6469990Y-23203048D02*
X6479514Y-23212571D01*
X6479514Y-23212571D02*
X6489038Y-23231619D01*
X6489038Y-23231619D02*
X6498561Y-23269714D01*
X6498561Y-23269714D02*
X6498561Y-23317333D01*
X6498561Y-23317333D02*
X6489038Y-23355428D01*
X6489038Y-23355428D02*
X6479514Y-23374476D01*
X6479514Y-23374476D02*
X6469990Y-23384000D01*
X6469990Y-23384000D02*
X6450942Y-23393524D01*
X6450942Y-23393524D02*
X6431895Y-23393524D01*
X6431895Y-23393524D02*
X6412847Y-23384000D01*
X6412847Y-23384000D02*
X6403323Y-23374476D01*
X6403323Y-23374476D02*
X6393799Y-23355428D01*
X6393799Y-23355428D02*
X6384276Y-23317333D01*
X6384276Y-23317333D02*
X6384276Y-23269714D01*
X6384276Y-23269714D02*
X6393799Y-23231619D01*
X6393799Y-23231619D02*
X6403323Y-23212571D01*
X6403323Y-23212571D02*
X6412847Y-23203048D01*
X6412847Y-23203048D02*
X6431895Y-23193524D01*
X6622371Y-23193524D02*
X6641419Y-23193524D01*
X6641419Y-23193524D02*
X6660466Y-23203048D01*
X6660466Y-23203048D02*
X6669990Y-23212571D01*
X6669990Y-23212571D02*
X6679514Y-23231619D01*
X6679514Y-23231619D02*
X6689038Y-23269714D01*
X6689038Y-23269714D02*
X6689038Y-23317333D01*
X6689038Y-23317333D02*
X6679514Y-23355428D01*
X6679514Y-23355428D02*
X6669990Y-23374476D01*
X6669990Y-23374476D02*
X6660466Y-23384000D01*
X6660466Y-23384000D02*
X6641419Y-23393524D01*
X6641419Y-23393524D02*
X6622371Y-23393524D01*
X6622371Y-23393524D02*
X6603323Y-23384000D01*
X6603323Y-23384000D02*
X6593799Y-23374476D01*
X6593799Y-23374476D02*
X6584276Y-23355428D01*
X6584276Y-23355428D02*
X6574752Y-23317333D01*
X6574752Y-23317333D02*
X6574752Y-23269714D01*
X6574752Y-23269714D02*
X6584276Y-23231619D01*
X6584276Y-23231619D02*
X6593799Y-23212571D01*
X6593799Y-23212571D02*
X6603323Y-23203048D01*
X6603323Y-23203048D02*
X6622371Y-23193524D01*
X6774752Y-23393524D02*
X6774752Y-23260190D01*
X6774752Y-23279238D02*
X6784276Y-23269714D01*
X6784276Y-23269714D02*
X6803323Y-23260190D01*
X6803323Y-23260190D02*
X6831895Y-23260190D01*
X6831895Y-23260190D02*
X6850942Y-23269714D01*
X6850942Y-23269714D02*
X6860466Y-23288762D01*
X6860466Y-23288762D02*
X6860466Y-23393524D01*
X6860466Y-23288762D02*
X6869990Y-23269714D01*
X6869990Y-23269714D02*
X6889038Y-23260190D01*
X6889038Y-23260190D02*
X6917609Y-23260190D01*
X6917609Y-23260190D02*
X6936657Y-23269714D01*
X6936657Y-23269714D02*
X6946180Y-23288762D01*
X6946180Y-23288762D02*
X6946180Y-23393524D01*
X7041419Y-23393524D02*
X7041419Y-23260190D01*
X7041419Y-23279238D02*
X7050942Y-23269714D01*
X7050942Y-23269714D02*
X7069990Y-23260190D01*
X7069990Y-23260190D02*
X7098561Y-23260190D01*
X7098561Y-23260190D02*
X7117609Y-23269714D01*
X7117609Y-23269714D02*
X7127133Y-23288762D01*
X7127133Y-23288762D02*
X7127133Y-23393524D01*
X7127133Y-23288762D02*
X7136657Y-23269714D01*
X7136657Y-23269714D02*
X7155704Y-23260190D01*
X7155704Y-23260190D02*
X7184276Y-23260190D01*
X7184276Y-23260190D02*
X7203323Y-23269714D01*
X7203323Y-23269714D02*
X7212847Y-23288762D01*
X7212847Y-23288762D02*
X7212847Y-23393524D01*
X7603323Y-23184000D02*
X7431895Y-23441143D01*
X7860466Y-23193524D02*
X7879514Y-23193524D01*
X7879514Y-23193524D02*
X7898562Y-23203048D01*
X7898562Y-23203048D02*
X7908085Y-23212571D01*
X7908085Y-23212571D02*
X7917609Y-23231619D01*
X7917609Y-23231619D02*
X7927133Y-23269714D01*
X7927133Y-23269714D02*
X7927133Y-23317333D01*
X7927133Y-23317333D02*
X7917609Y-23355428D01*
X7917609Y-23355428D02*
X7908085Y-23374476D01*
X7908085Y-23374476D02*
X7898562Y-23384000D01*
X7898562Y-23384000D02*
X7879514Y-23393524D01*
X7879514Y-23393524D02*
X7860466Y-23393524D01*
X7860466Y-23393524D02*
X7841419Y-23384000D01*
X7841419Y-23384000D02*
X7831895Y-23374476D01*
X7831895Y-23374476D02*
X7822371Y-23355428D01*
X7822371Y-23355428D02*
X7812847Y-23317333D01*
X7812847Y-23317333D02*
X7812847Y-23269714D01*
X7812847Y-23269714D02*
X7822371Y-23231619D01*
X7822371Y-23231619D02*
X7831895Y-23212571D01*
X7831895Y-23212571D02*
X7841419Y-23203048D01*
X7841419Y-23203048D02*
X7860466Y-23193524D01*
X8012847Y-23374476D02*
X8022371Y-23384000D01*
X8022371Y-23384000D02*
X8012847Y-23393524D01*
X8012847Y-23393524D02*
X8003323Y-23384000D01*
X8003323Y-23384000D02*
X8012847Y-23374476D01*
X8012847Y-23374476D02*
X8012847Y-23393524D01*
X8146181Y-23193524D02*
X8165228Y-23193524D01*
X8165228Y-23193524D02*
X8184276Y-23203048D01*
X8184276Y-23203048D02*
X8193800Y-23212571D01*
X8193800Y-23212571D02*
X8203323Y-23231619D01*
X8203323Y-23231619D02*
X8212847Y-23269714D01*
X8212847Y-23269714D02*
X8212847Y-23317333D01*
X8212847Y-23317333D02*
X8203323Y-23355428D01*
X8203323Y-23355428D02*
X8193800Y-23374476D01*
X8193800Y-23374476D02*
X8184276Y-23384000D01*
X8184276Y-23384000D02*
X8165228Y-23393524D01*
X8165228Y-23393524D02*
X8146181Y-23393524D01*
X8146181Y-23393524D02*
X8127133Y-23384000D01*
X8127133Y-23384000D02*
X8117609Y-23374476D01*
X8117609Y-23374476D02*
X8108085Y-23355428D01*
X8108085Y-23355428D02*
X8098562Y-23317333D01*
X8098562Y-23317333D02*
X8098562Y-23269714D01*
X8098562Y-23269714D02*
X8108085Y-23231619D01*
X8108085Y-23231619D02*
X8117609Y-23212571D01*
X8117609Y-23212571D02*
X8127133Y-23203048D01*
X8127133Y-23203048D02*
X8146181Y-23193524D01*
X8393800Y-23193524D02*
X8298562Y-23193524D01*
X8298562Y-23193524D02*
X8289038Y-23288762D01*
X8289038Y-23288762D02*
X8298562Y-23279238D01*
X8298562Y-23279238D02*
X8317609Y-23269714D01*
X8317609Y-23269714D02*
X8365228Y-23269714D01*
X8365228Y-23269714D02*
X8384276Y-23279238D01*
X8384276Y-23279238D02*
X8393800Y-23288762D01*
X8393800Y-23288762D02*
X8403324Y-23307809D01*
X8403324Y-23307809D02*
X8403324Y-23355428D01*
X8403324Y-23355428D02*
X8393800Y-23374476D01*
X8393800Y-23374476D02*
X8384276Y-23384000D01*
X8384276Y-23384000D02*
X8365228Y-23393524D01*
X8365228Y-23393524D02*
X8317609Y-23393524D01*
X8317609Y-23393524D02*
X8298562Y-23384000D01*
X8298562Y-23384000D02*
X8289038Y-23374476D01*
X8593800Y-23393524D02*
X8479514Y-23393524D01*
X8536657Y-23393524D02*
X8536657Y-23193524D01*
X8536657Y-23193524D02*
X8517609Y-23222095D01*
X8517609Y-23222095D02*
X8498562Y-23241143D01*
X8498562Y-23241143D02*
X8479514Y-23250667D01*
X8669990Y-23212571D02*
X8679514Y-23203048D01*
X8679514Y-23203048D02*
X8698562Y-23193524D01*
X8698562Y-23193524D02*
X8746181Y-23193524D01*
X8746181Y-23193524D02*
X8765228Y-23203048D01*
X8765228Y-23203048D02*
X8774752Y-23212571D01*
X8774752Y-23212571D02*
X8784276Y-23231619D01*
X8784276Y-23231619D02*
X8784276Y-23250667D01*
X8784276Y-23250667D02*
X8774752Y-23279238D01*
X8774752Y-23279238D02*
X8660466Y-23393524D01*
X8660466Y-23393524D02*
X8784276Y-23393524D01*
X8860466Y-23193524D02*
X8860466Y-23231619D01*
X8936657Y-23193524D02*
X8936657Y-23231619D01*
X9231895Y-23469714D02*
X9222371Y-23460190D01*
X9222371Y-23460190D02*
X9203324Y-23431619D01*
X9203324Y-23431619D02*
X9193800Y-23412571D01*
X9193800Y-23412571D02*
X9184276Y-23384000D01*
X9184276Y-23384000D02*
X9174752Y-23336381D01*
X9174752Y-23336381D02*
X9174752Y-23298286D01*
X9174752Y-23298286D02*
X9184276Y-23250667D01*
X9184276Y-23250667D02*
X9193800Y-23222095D01*
X9193800Y-23222095D02*
X9203324Y-23203048D01*
X9203324Y-23203048D02*
X9222371Y-23174476D01*
X9222371Y-23174476D02*
X9231895Y-23164952D01*
X9412847Y-23393524D02*
X9298562Y-23393524D01*
X9355705Y-23393524D02*
X9355705Y-23193524D01*
X9355705Y-23193524D02*
X9336657Y-23222095D01*
X9336657Y-23222095D02*
X9317609Y-23241143D01*
X9317609Y-23241143D02*
X9298562Y-23250667D01*
X9584276Y-23193524D02*
X9546181Y-23193524D01*
X9546181Y-23193524D02*
X9527133Y-23203048D01*
X9527133Y-23203048D02*
X9517609Y-23212571D01*
X9517609Y-23212571D02*
X9498562Y-23241143D01*
X9498562Y-23241143D02*
X9489038Y-23279238D01*
X9489038Y-23279238D02*
X9489038Y-23355428D01*
X9489038Y-23355428D02*
X9498562Y-23374476D01*
X9498562Y-23374476D02*
X9508086Y-23384000D01*
X9508086Y-23384000D02*
X9527133Y-23393524D01*
X9527133Y-23393524D02*
X9565228Y-23393524D01*
X9565228Y-23393524D02*
X9584276Y-23384000D01*
X9584276Y-23384000D02*
X9593800Y-23374476D01*
X9593800Y-23374476D02*
X9603324Y-23355428D01*
X9603324Y-23355428D02*
X9603324Y-23307809D01*
X9603324Y-23307809D02*
X9593800Y-23288762D01*
X9593800Y-23288762D02*
X9584276Y-23279238D01*
X9584276Y-23279238D02*
X9565228Y-23269714D01*
X9565228Y-23269714D02*
X9527133Y-23269714D01*
X9527133Y-23269714D02*
X9508086Y-23279238D01*
X9508086Y-23279238D02*
X9498562Y-23288762D01*
X9498562Y-23288762D02*
X9489038Y-23307809D01*
X9841419Y-23393524D02*
X9841419Y-23193524D01*
X9927133Y-23393524D02*
X9927133Y-23288762D01*
X9927133Y-23288762D02*
X9917609Y-23269714D01*
X9917609Y-23269714D02*
X9898562Y-23260190D01*
X9898562Y-23260190D02*
X9869990Y-23260190D01*
X9869990Y-23260190D02*
X9850943Y-23269714D01*
X9850943Y-23269714D02*
X9841419Y-23279238D01*
X10050943Y-23393524D02*
X10031895Y-23384000D01*
X10031895Y-23384000D02*
X10022371Y-23374476D01*
X10022371Y-23374476D02*
X10012848Y-23355428D01*
X10012848Y-23355428D02*
X10012848Y-23298286D01*
X10012848Y-23298286D02*
X10022371Y-23279238D01*
X10022371Y-23279238D02*
X10031895Y-23269714D01*
X10031895Y-23269714D02*
X10050943Y-23260190D01*
X10050943Y-23260190D02*
X10079514Y-23260190D01*
X10079514Y-23260190D02*
X10098562Y-23269714D01*
X10098562Y-23269714D02*
X10108086Y-23279238D01*
X10108086Y-23279238D02*
X10117609Y-23298286D01*
X10117609Y-23298286D02*
X10117609Y-23355428D01*
X10117609Y-23355428D02*
X10108086Y-23374476D01*
X10108086Y-23374476D02*
X10098562Y-23384000D01*
X10098562Y-23384000D02*
X10079514Y-23393524D01*
X10079514Y-23393524D02*
X10050943Y-23393524D01*
X10231895Y-23393524D02*
X10212848Y-23384000D01*
X10212848Y-23384000D02*
X10203324Y-23364952D01*
X10203324Y-23364952D02*
X10203324Y-23193524D01*
X10384276Y-23384000D02*
X10365229Y-23393524D01*
X10365229Y-23393524D02*
X10327133Y-23393524D01*
X10327133Y-23393524D02*
X10308086Y-23384000D01*
X10308086Y-23384000D02*
X10298562Y-23364952D01*
X10298562Y-23364952D02*
X10298562Y-23288762D01*
X10298562Y-23288762D02*
X10308086Y-23269714D01*
X10308086Y-23269714D02*
X10327133Y-23260190D01*
X10327133Y-23260190D02*
X10365229Y-23260190D01*
X10365229Y-23260190D02*
X10384276Y-23269714D01*
X10384276Y-23269714D02*
X10393800Y-23288762D01*
X10393800Y-23288762D02*
X10393800Y-23307809D01*
X10393800Y-23307809D02*
X10298562Y-23326857D01*
X10469990Y-23384000D02*
X10489038Y-23393524D01*
X10489038Y-23393524D02*
X10527133Y-23393524D01*
X10527133Y-23393524D02*
X10546181Y-23384000D01*
X10546181Y-23384000D02*
X10555705Y-23364952D01*
X10555705Y-23364952D02*
X10555705Y-23355428D01*
X10555705Y-23355428D02*
X10546181Y-23336381D01*
X10546181Y-23336381D02*
X10527133Y-23326857D01*
X10527133Y-23326857D02*
X10498562Y-23326857D01*
X10498562Y-23326857D02*
X10479514Y-23317333D01*
X10479514Y-23317333D02*
X10469990Y-23298286D01*
X10469990Y-23298286D02*
X10469990Y-23288762D01*
X10469990Y-23288762D02*
X10479514Y-23269714D01*
X10479514Y-23269714D02*
X10498562Y-23260190D01*
X10498562Y-23260190D02*
X10527133Y-23260190D01*
X10527133Y-23260190D02*
X10546181Y-23269714D01*
X10622371Y-23469714D02*
X10631895Y-23460190D01*
X10631895Y-23460190D02*
X10650943Y-23431619D01*
X10650943Y-23431619D02*
X10660467Y-23412571D01*
X10660467Y-23412571D02*
X10669990Y-23384000D01*
X10669990Y-23384000D02*
X10679514Y-23336381D01*
X10679514Y-23336381D02*
X10679514Y-23298286D01*
X10679514Y-23298286D02*
X10669990Y-23250667D01*
X10669990Y-23250667D02*
X10660467Y-23222095D01*
X10660467Y-23222095D02*
X10650943Y-23203048D01*
X10650943Y-23203048D02*
X10631895Y-23174476D01*
X10631895Y-23174476D02*
X10622371Y-23164952D01*
X5469990Y-23465000D02*
X5669990Y-23665000D01*
X5669990Y-23465000D02*
X5469990Y-23665000D01*
X5669990Y-23565000D02*
G75*
G03*
X5669990Y-23565000I-100000J0D01*
G01*
X5908085Y-23476571D02*
X5917609Y-23467048D01*
X5917609Y-23467048D02*
X5936657Y-23457524D01*
X5936657Y-23457524D02*
X5984276Y-23457524D01*
X5984276Y-23457524D02*
X6003323Y-23467048D01*
X6003323Y-23467048D02*
X6012847Y-23476571D01*
X6012847Y-23476571D02*
X6022371Y-23495619D01*
X6022371Y-23495619D02*
X6022371Y-23514667D01*
X6022371Y-23514667D02*
X6012847Y-23543238D01*
X6012847Y-23543238D02*
X5898561Y-23657524D01*
X5898561Y-23657524D02*
X6022371Y-23657524D01*
X6108085Y-23638476D02*
X6117609Y-23648000D01*
X6117609Y-23648000D02*
X6108085Y-23657524D01*
X6108085Y-23657524D02*
X6098561Y-23648000D01*
X6098561Y-23648000D02*
X6108085Y-23638476D01*
X6108085Y-23638476D02*
X6108085Y-23657524D01*
X6289038Y-23457524D02*
X6250942Y-23457524D01*
X6250942Y-23457524D02*
X6231895Y-23467048D01*
X6231895Y-23467048D02*
X6222371Y-23476571D01*
X6222371Y-23476571D02*
X6203323Y-23505143D01*
X6203323Y-23505143D02*
X6193799Y-23543238D01*
X6193799Y-23543238D02*
X6193799Y-23619428D01*
X6193799Y-23619428D02*
X6203323Y-23638476D01*
X6203323Y-23638476D02*
X6212847Y-23648000D01*
X6212847Y-23648000D02*
X6231895Y-23657524D01*
X6231895Y-23657524D02*
X6269990Y-23657524D01*
X6269990Y-23657524D02*
X6289038Y-23648000D01*
X6289038Y-23648000D02*
X6298561Y-23638476D01*
X6298561Y-23638476D02*
X6308085Y-23619428D01*
X6308085Y-23619428D02*
X6308085Y-23571809D01*
X6308085Y-23571809D02*
X6298561Y-23552762D01*
X6298561Y-23552762D02*
X6289038Y-23543238D01*
X6289038Y-23543238D02*
X6269990Y-23533714D01*
X6269990Y-23533714D02*
X6231895Y-23533714D01*
X6231895Y-23533714D02*
X6212847Y-23543238D01*
X6212847Y-23543238D02*
X6203323Y-23552762D01*
X6203323Y-23552762D02*
X6193799Y-23571809D01*
X6431895Y-23457524D02*
X6450942Y-23457524D01*
X6450942Y-23457524D02*
X6469990Y-23467048D01*
X6469990Y-23467048D02*
X6479514Y-23476571D01*
X6479514Y-23476571D02*
X6489038Y-23495619D01*
X6489038Y-23495619D02*
X6498561Y-23533714D01*
X6498561Y-23533714D02*
X6498561Y-23581333D01*
X6498561Y-23581333D02*
X6489038Y-23619428D01*
X6489038Y-23619428D02*
X6479514Y-23638476D01*
X6479514Y-23638476D02*
X6469990Y-23648000D01*
X6469990Y-23648000D02*
X6450942Y-23657524D01*
X6450942Y-23657524D02*
X6431895Y-23657524D01*
X6431895Y-23657524D02*
X6412847Y-23648000D01*
X6412847Y-23648000D02*
X6403323Y-23638476D01*
X6403323Y-23638476D02*
X6393799Y-23619428D01*
X6393799Y-23619428D02*
X6384276Y-23581333D01*
X6384276Y-23581333D02*
X6384276Y-23533714D01*
X6384276Y-23533714D02*
X6393799Y-23495619D01*
X6393799Y-23495619D02*
X6403323Y-23476571D01*
X6403323Y-23476571D02*
X6412847Y-23467048D01*
X6412847Y-23467048D02*
X6431895Y-23457524D01*
X6622371Y-23457524D02*
X6641419Y-23457524D01*
X6641419Y-23457524D02*
X6660466Y-23467048D01*
X6660466Y-23467048D02*
X6669990Y-23476571D01*
X6669990Y-23476571D02*
X6679514Y-23495619D01*
X6679514Y-23495619D02*
X6689038Y-23533714D01*
X6689038Y-23533714D02*
X6689038Y-23581333D01*
X6689038Y-23581333D02*
X6679514Y-23619428D01*
X6679514Y-23619428D02*
X6669990Y-23638476D01*
X6669990Y-23638476D02*
X6660466Y-23648000D01*
X6660466Y-23648000D02*
X6641419Y-23657524D01*
X6641419Y-23657524D02*
X6622371Y-23657524D01*
X6622371Y-23657524D02*
X6603323Y-23648000D01*
X6603323Y-23648000D02*
X6593799Y-23638476D01*
X6593799Y-23638476D02*
X6584276Y-23619428D01*
X6584276Y-23619428D02*
X6574752Y-23581333D01*
X6574752Y-23581333D02*
X6574752Y-23533714D01*
X6574752Y-23533714D02*
X6584276Y-23495619D01*
X6584276Y-23495619D02*
X6593799Y-23476571D01*
X6593799Y-23476571D02*
X6603323Y-23467048D01*
X6603323Y-23467048D02*
X6622371Y-23457524D01*
X6774752Y-23657524D02*
X6774752Y-23524190D01*
X6774752Y-23543238D02*
X6784276Y-23533714D01*
X6784276Y-23533714D02*
X6803323Y-23524190D01*
X6803323Y-23524190D02*
X6831895Y-23524190D01*
X6831895Y-23524190D02*
X6850942Y-23533714D01*
X6850942Y-23533714D02*
X6860466Y-23552762D01*
X6860466Y-23552762D02*
X6860466Y-23657524D01*
X6860466Y-23552762D02*
X6869990Y-23533714D01*
X6869990Y-23533714D02*
X6889038Y-23524190D01*
X6889038Y-23524190D02*
X6917609Y-23524190D01*
X6917609Y-23524190D02*
X6936657Y-23533714D01*
X6936657Y-23533714D02*
X6946180Y-23552762D01*
X6946180Y-23552762D02*
X6946180Y-23657524D01*
X7041419Y-23657524D02*
X7041419Y-23524190D01*
X7041419Y-23543238D02*
X7050942Y-23533714D01*
X7050942Y-23533714D02*
X7069990Y-23524190D01*
X7069990Y-23524190D02*
X7098561Y-23524190D01*
X7098561Y-23524190D02*
X7117609Y-23533714D01*
X7117609Y-23533714D02*
X7127133Y-23552762D01*
X7127133Y-23552762D02*
X7127133Y-23657524D01*
X7127133Y-23552762D02*
X7136657Y-23533714D01*
X7136657Y-23533714D02*
X7155704Y-23524190D01*
X7155704Y-23524190D02*
X7184276Y-23524190D01*
X7184276Y-23524190D02*
X7203323Y-23533714D01*
X7203323Y-23533714D02*
X7212847Y-23552762D01*
X7212847Y-23552762D02*
X7212847Y-23657524D01*
X7603323Y-23448000D02*
X7431895Y-23705143D01*
X7860466Y-23457524D02*
X7879514Y-23457524D01*
X7879514Y-23457524D02*
X7898562Y-23467048D01*
X7898562Y-23467048D02*
X7908085Y-23476571D01*
X7908085Y-23476571D02*
X7917609Y-23495619D01*
X7917609Y-23495619D02*
X7927133Y-23533714D01*
X7927133Y-23533714D02*
X7927133Y-23581333D01*
X7927133Y-23581333D02*
X7917609Y-23619428D01*
X7917609Y-23619428D02*
X7908085Y-23638476D01*
X7908085Y-23638476D02*
X7898562Y-23648000D01*
X7898562Y-23648000D02*
X7879514Y-23657524D01*
X7879514Y-23657524D02*
X7860466Y-23657524D01*
X7860466Y-23657524D02*
X7841419Y-23648000D01*
X7841419Y-23648000D02*
X7831895Y-23638476D01*
X7831895Y-23638476D02*
X7822371Y-23619428D01*
X7822371Y-23619428D02*
X7812847Y-23581333D01*
X7812847Y-23581333D02*
X7812847Y-23533714D01*
X7812847Y-23533714D02*
X7822371Y-23495619D01*
X7822371Y-23495619D02*
X7831895Y-23476571D01*
X7831895Y-23476571D02*
X7841419Y-23467048D01*
X7841419Y-23467048D02*
X7860466Y-23457524D01*
X8012847Y-23638476D02*
X8022371Y-23648000D01*
X8022371Y-23648000D02*
X8012847Y-23657524D01*
X8012847Y-23657524D02*
X8003323Y-23648000D01*
X8003323Y-23648000D02*
X8012847Y-23638476D01*
X8012847Y-23638476D02*
X8012847Y-23657524D01*
X8212847Y-23657524D02*
X8098562Y-23657524D01*
X8155704Y-23657524D02*
X8155704Y-23457524D01*
X8155704Y-23457524D02*
X8136657Y-23486095D01*
X8136657Y-23486095D02*
X8117609Y-23505143D01*
X8117609Y-23505143D02*
X8098562Y-23514667D01*
X8336657Y-23457524D02*
X8355704Y-23457524D01*
X8355704Y-23457524D02*
X8374752Y-23467048D01*
X8374752Y-23467048D02*
X8384276Y-23476571D01*
X8384276Y-23476571D02*
X8393800Y-23495619D01*
X8393800Y-23495619D02*
X8403324Y-23533714D01*
X8403324Y-23533714D02*
X8403324Y-23581333D01*
X8403324Y-23581333D02*
X8393800Y-23619428D01*
X8393800Y-23619428D02*
X8384276Y-23638476D01*
X8384276Y-23638476D02*
X8374752Y-23648000D01*
X8374752Y-23648000D02*
X8355704Y-23657524D01*
X8355704Y-23657524D02*
X8336657Y-23657524D01*
X8336657Y-23657524D02*
X8317609Y-23648000D01*
X8317609Y-23648000D02*
X8308085Y-23638476D01*
X8308085Y-23638476D02*
X8298562Y-23619428D01*
X8298562Y-23619428D02*
X8289038Y-23581333D01*
X8289038Y-23581333D02*
X8289038Y-23533714D01*
X8289038Y-23533714D02*
X8298562Y-23495619D01*
X8298562Y-23495619D02*
X8308085Y-23476571D01*
X8308085Y-23476571D02*
X8317609Y-23467048D01*
X8317609Y-23467048D02*
X8336657Y-23457524D01*
X8479514Y-23476571D02*
X8489038Y-23467048D01*
X8489038Y-23467048D02*
X8508085Y-23457524D01*
X8508085Y-23457524D02*
X8555705Y-23457524D01*
X8555705Y-23457524D02*
X8574752Y-23467048D01*
X8574752Y-23467048D02*
X8584276Y-23476571D01*
X8584276Y-23476571D02*
X8593800Y-23495619D01*
X8593800Y-23495619D02*
X8593800Y-23514667D01*
X8593800Y-23514667D02*
X8584276Y-23543238D01*
X8584276Y-23543238D02*
X8469990Y-23657524D01*
X8469990Y-23657524D02*
X8593800Y-23657524D01*
X8765228Y-23524190D02*
X8765228Y-23657524D01*
X8717609Y-23448000D02*
X8669990Y-23590857D01*
X8669990Y-23590857D02*
X8793800Y-23590857D01*
X8860466Y-23457524D02*
X8860466Y-23495619D01*
X8936657Y-23457524D02*
X8936657Y-23495619D01*
X9231895Y-23733714D02*
X9222371Y-23724190D01*
X9222371Y-23724190D02*
X9203324Y-23695619D01*
X9203324Y-23695619D02*
X9193800Y-23676571D01*
X9193800Y-23676571D02*
X9184276Y-23648000D01*
X9184276Y-23648000D02*
X9174752Y-23600381D01*
X9174752Y-23600381D02*
X9174752Y-23562286D01*
X9174752Y-23562286D02*
X9184276Y-23514667D01*
X9184276Y-23514667D02*
X9193800Y-23486095D01*
X9193800Y-23486095D02*
X9203324Y-23467048D01*
X9203324Y-23467048D02*
X9222371Y-23438476D01*
X9222371Y-23438476D02*
X9231895Y-23428952D01*
X9298562Y-23476571D02*
X9308086Y-23467048D01*
X9308086Y-23467048D02*
X9327133Y-23457524D01*
X9327133Y-23457524D02*
X9374752Y-23457524D01*
X9374752Y-23457524D02*
X9393800Y-23467048D01*
X9393800Y-23467048D02*
X9403324Y-23476571D01*
X9403324Y-23476571D02*
X9412847Y-23495619D01*
X9412847Y-23495619D02*
X9412847Y-23514667D01*
X9412847Y-23514667D02*
X9403324Y-23543238D01*
X9403324Y-23543238D02*
X9289038Y-23657524D01*
X9289038Y-23657524D02*
X9412847Y-23657524D01*
X9650943Y-23657524D02*
X9650943Y-23457524D01*
X9736657Y-23657524D02*
X9736657Y-23552762D01*
X9736657Y-23552762D02*
X9727133Y-23533714D01*
X9727133Y-23533714D02*
X9708086Y-23524190D01*
X9708086Y-23524190D02*
X9679514Y-23524190D01*
X9679514Y-23524190D02*
X9660467Y-23533714D01*
X9660467Y-23533714D02*
X9650943Y-23543238D01*
X9860467Y-23657524D02*
X9841419Y-23648000D01*
X9841419Y-23648000D02*
X9831895Y-23638476D01*
X9831895Y-23638476D02*
X9822371Y-23619428D01*
X9822371Y-23619428D02*
X9822371Y-23562286D01*
X9822371Y-23562286D02*
X9831895Y-23543238D01*
X9831895Y-23543238D02*
X9841419Y-23533714D01*
X9841419Y-23533714D02*
X9860467Y-23524190D01*
X9860467Y-23524190D02*
X9889038Y-23524190D01*
X9889038Y-23524190D02*
X9908086Y-23533714D01*
X9908086Y-23533714D02*
X9917609Y-23543238D01*
X9917609Y-23543238D02*
X9927133Y-23562286D01*
X9927133Y-23562286D02*
X9927133Y-23619428D01*
X9927133Y-23619428D02*
X9917609Y-23638476D01*
X9917609Y-23638476D02*
X9908086Y-23648000D01*
X9908086Y-23648000D02*
X9889038Y-23657524D01*
X9889038Y-23657524D02*
X9860467Y-23657524D01*
X10041419Y-23657524D02*
X10022371Y-23648000D01*
X10022371Y-23648000D02*
X10012848Y-23628952D01*
X10012848Y-23628952D02*
X10012848Y-23457524D01*
X10193800Y-23648000D02*
X10174752Y-23657524D01*
X10174752Y-23657524D02*
X10136657Y-23657524D01*
X10136657Y-23657524D02*
X10117609Y-23648000D01*
X10117609Y-23648000D02*
X10108086Y-23628952D01*
X10108086Y-23628952D02*
X10108086Y-23552762D01*
X10108086Y-23552762D02*
X10117609Y-23533714D01*
X10117609Y-23533714D02*
X10136657Y-23524190D01*
X10136657Y-23524190D02*
X10174752Y-23524190D01*
X10174752Y-23524190D02*
X10193800Y-23533714D01*
X10193800Y-23533714D02*
X10203324Y-23552762D01*
X10203324Y-23552762D02*
X10203324Y-23571809D01*
X10203324Y-23571809D02*
X10108086Y-23590857D01*
X10279514Y-23648000D02*
X10298562Y-23657524D01*
X10298562Y-23657524D02*
X10336657Y-23657524D01*
X10336657Y-23657524D02*
X10355705Y-23648000D01*
X10355705Y-23648000D02*
X10365229Y-23628952D01*
X10365229Y-23628952D02*
X10365229Y-23619428D01*
X10365229Y-23619428D02*
X10355705Y-23600381D01*
X10355705Y-23600381D02*
X10336657Y-23590857D01*
X10336657Y-23590857D02*
X10308086Y-23590857D01*
X10308086Y-23590857D02*
X10289038Y-23581333D01*
X10289038Y-23581333D02*
X10279514Y-23562286D01*
X10279514Y-23562286D02*
X10279514Y-23552762D01*
X10279514Y-23552762D02*
X10289038Y-23533714D01*
X10289038Y-23533714D02*
X10308086Y-23524190D01*
X10308086Y-23524190D02*
X10336657Y-23524190D01*
X10336657Y-23524190D02*
X10355705Y-23533714D01*
X10431895Y-23733714D02*
X10441419Y-23724190D01*
X10441419Y-23724190D02*
X10460467Y-23695619D01*
X10460467Y-23695619D02*
X10469990Y-23676571D01*
X10469990Y-23676571D02*
X10479514Y-23648000D01*
X10479514Y-23648000D02*
X10489038Y-23600381D01*
X10489038Y-23600381D02*
X10489038Y-23562286D01*
X10489038Y-23562286D02*
X10479514Y-23514667D01*
X10479514Y-23514667D02*
X10469990Y-23486095D01*
X10469990Y-23486095D02*
X10460467Y-23467048D01*
X10460467Y-23467048D02*
X10441419Y-23438476D01*
X10441419Y-23438476D02*
X10431895Y-23428952D01*
M02*
